<?xml version="1.0" encoding="utf-8" standalone="no"?>
<!DOCTYPE svg PUBLIC "-//W3C//DTD SVG 1.1//EN"
  "http://www.w3.org/Graphics/SVG/1.1/DTD/svg11.dtd">
<svg xmlns:xlink="http://www.w3.org/1999/xlink" width="720pt" height="576pt" viewBox="0 0 720 576" xmlns="http://www.w3.org/2000/svg" version="1.1">
 <metadata>
  <rdf:RDF xmlns:dc="http://purl.org/dc/elements/1.1/" xmlns:cc="http://creativecommons.org/ns#" xmlns:rdf="http://www.w3.org/1999/02/22-rdf-syntax-ns#">
   <cc:Work>
    <dc:type rdf:resource="http://purl.org/dc/dcmitype/StillImage"/>
    <dc:date>2023-08-04T17:09:35.783592</dc:date>
    <dc:format>image/svg+xml</dc:format>
    <dc:creator>
     <cc:Agent>
      <dc:title>Matplotlib v3.6.2, https://matplotlib.org/</dc:title>
     </cc:Agent>
    </dc:creator>
   </cc:Work>
  </rdf:RDF>
 </metadata>
 <defs>
  <style type="text/css">*{stroke-linejoin: round; stroke-linecap: butt}</style>
 </defs>
 <g id="figure_1">
  <g id="patch_1">
   <path d="M 0 576 
L 720 576 
L 720 0 
L 0 0 
z
" style="fill: #ffffff"/>
  </g>
  <g id="axes_1">
   <g id="patch_2">
    <path d="M 90 512.64 
L 343.636364 512.64 
L 343.636364 69.12 
L 90 69.12 
z
" style="fill: #ffffff"/>
   </g>
   <g id="matplotlib.axis_1">
    <g id="xtick_1">
     <g id="text_1">
      <!-- −2 -->
      <g style="fill: #262626" transform="translate(98.617106 530.498281) scale(0.11 -0.11)">
       <defs>
        <path id="DejaVuSans-2212" d="M 678 2272 
L 4684 2272 
L 4684 1741 
L 678 1741 
L 678 2272 
z
" transform="scale(0.015625)"/>
        <path id="DejaVuSans-32" d="M 1228 531 
L 3431 531 
L 3431 0 
L 469 0 
L 469 531 
Q 828 903 1448 1529 
Q 2069 2156 2228 2338 
Q 2531 2678 2651 2914 
Q 2772 3150 2772 3378 
Q 2772 3750 2511 3984 
Q 2250 4219 1831 4219 
Q 1534 4219 1204 4116 
Q 875 4013 500 3803 
L 500 4441 
Q 881 4594 1212 4672 
Q 1544 4750 1819 4750 
Q 2544 4750 2975 4387 
Q 3406 4025 3406 3419 
Q 3406 3131 3298 2873 
Q 3191 2616 2906 2266 
Q 2828 2175 2409 1742 
Q 1991 1309 1228 531 
z
" transform="scale(0.015625)"/>
       </defs>
       <use xlink:href="#DejaVuSans-2212"/>
       <use xlink:href="#DejaVuSans-32" x="83.789062"/>
      </g>
     </g>
    </g>
    <g id="xtick_2">
     <g id="text_2">
      <!-- −1 -->
      <g style="fill: #262626" transform="translate(153.663542 530.498281) scale(0.11 -0.11)">
       <defs>
        <path id="DejaVuSans-31" d="M 794 531 
L 1825 531 
L 1825 4091 
L 703 3866 
L 703 4441 
L 1819 4666 
L 2450 4666 
L 2450 531 
L 3481 531 
L 3481 0 
L 794 0 
L 794 531 
z
" transform="scale(0.015625)"/>
       </defs>
       <use xlink:href="#DejaVuSans-2212"/>
       <use xlink:href="#DejaVuSans-31" x="83.789062"/>
      </g>
     </g>
    </g>
    <g id="xtick_3">
     <g id="text_3">
      <!-- 0 -->
      <g style="fill: #262626" transform="translate(213.318807 530.498281) scale(0.11 -0.11)">
       <defs>
        <path id="DejaVuSans-30" d="M 2034 4250 
Q 1547 4250 1301 3770 
Q 1056 3291 1056 2328 
Q 1056 1369 1301 889 
Q 1547 409 2034 409 
Q 2525 409 2770 889 
Q 3016 1369 3016 2328 
Q 3016 3291 2770 3770 
Q 2525 4250 2034 4250 
z
M 2034 4750 
Q 2819 4750 3233 4129 
Q 3647 3509 3647 2328 
Q 3647 1150 3233 529 
Q 2819 -91 2034 -91 
Q 1250 -91 836 529 
Q 422 1150 422 2328 
Q 422 3509 836 4129 
Q 1250 4750 2034 4750 
z
" transform="scale(0.015625)"/>
       </defs>
       <use xlink:href="#DejaVuSans-30"/>
      </g>
     </g>
    </g>
    <g id="xtick_4">
     <g id="text_4">
      <!-- 1 -->
      <g style="fill: #262626" transform="translate(268.365243 530.498281) scale(0.11 -0.11)">
       <use xlink:href="#DejaVuSans-31"/>
      </g>
     </g>
    </g>
    <g id="xtick_5">
     <g id="text_5">
      <!-- 2 -->
      <g style="fill: #262626" transform="translate(323.411679 530.498281) scale(0.11 -0.11)">
       <use xlink:href="#DejaVuSans-32"/>
      </g>
     </g>
    </g>
    <g id="text_6">
     <!-- hip_flexion_r (rad) -->
     <g style="fill: #262626" transform="translate(162.474119 545.904063) scale(0.12 -0.12)">
      <defs>
       <path id="DejaVuSans-68" d="M 3513 2113 
L 3513 0 
L 2938 0 
L 2938 2094 
Q 2938 2591 2744 2837 
Q 2550 3084 2163 3084 
Q 1697 3084 1428 2787 
Q 1159 2491 1159 1978 
L 1159 0 
L 581 0 
L 581 4863 
L 1159 4863 
L 1159 2956 
Q 1366 3272 1645 3428 
Q 1925 3584 2291 3584 
Q 2894 3584 3203 3211 
Q 3513 2838 3513 2113 
z
" transform="scale(0.015625)"/>
       <path id="DejaVuSans-69" d="M 603 3500 
L 1178 3500 
L 1178 0 
L 603 0 
L 603 3500 
z
M 603 4863 
L 1178 4863 
L 1178 4134 
L 603 4134 
L 603 4863 
z
" transform="scale(0.015625)"/>
       <path id="DejaVuSans-70" d="M 1159 525 
L 1159 -1331 
L 581 -1331 
L 581 3500 
L 1159 3500 
L 1159 2969 
Q 1341 3281 1617 3432 
Q 1894 3584 2278 3584 
Q 2916 3584 3314 3078 
Q 3713 2572 3713 1747 
Q 3713 922 3314 415 
Q 2916 -91 2278 -91 
Q 1894 -91 1617 61 
Q 1341 213 1159 525 
z
M 3116 1747 
Q 3116 2381 2855 2742 
Q 2594 3103 2138 3103 
Q 1681 3103 1420 2742 
Q 1159 2381 1159 1747 
Q 1159 1113 1420 752 
Q 1681 391 2138 391 
Q 2594 391 2855 752 
Q 3116 1113 3116 1747 
z
" transform="scale(0.015625)"/>
       <path id="DejaVuSans-5f" d="M 3263 -1063 
L 3263 -1509 
L -63 -1509 
L -63 -1063 
L 3263 -1063 
z
" transform="scale(0.015625)"/>
       <path id="DejaVuSans-66" d="M 2375 4863 
L 2375 4384 
L 1825 4384 
Q 1516 4384 1395 4259 
Q 1275 4134 1275 3809 
L 1275 3500 
L 2222 3500 
L 2222 3053 
L 1275 3053 
L 1275 0 
L 697 0 
L 697 3053 
L 147 3053 
L 147 3500 
L 697 3500 
L 697 3744 
Q 697 4328 969 4595 
Q 1241 4863 1831 4863 
L 2375 4863 
z
" transform="scale(0.015625)"/>
       <path id="DejaVuSans-6c" d="M 603 4863 
L 1178 4863 
L 1178 0 
L 603 0 
L 603 4863 
z
" transform="scale(0.015625)"/>
       <path id="DejaVuSans-65" d="M 3597 1894 
L 3597 1613 
L 953 1613 
Q 991 1019 1311 708 
Q 1631 397 2203 397 
Q 2534 397 2845 478 
Q 3156 559 3463 722 
L 3463 178 
Q 3153 47 2828 -22 
Q 2503 -91 2169 -91 
Q 1331 -91 842 396 
Q 353 884 353 1716 
Q 353 2575 817 3079 
Q 1281 3584 2069 3584 
Q 2775 3584 3186 3129 
Q 3597 2675 3597 1894 
z
M 3022 2063 
Q 3016 2534 2758 2815 
Q 2500 3097 2075 3097 
Q 1594 3097 1305 2825 
Q 1016 2553 972 2059 
L 3022 2063 
z
" transform="scale(0.015625)"/>
       <path id="DejaVuSans-78" d="M 3513 3500 
L 2247 1797 
L 3578 0 
L 2900 0 
L 1881 1375 
L 863 0 
L 184 0 
L 1544 1831 
L 300 3500 
L 978 3500 
L 1906 2253 
L 2834 3500 
L 3513 3500 
z
" transform="scale(0.015625)"/>
       <path id="DejaVuSans-6f" d="M 1959 3097 
Q 1497 3097 1228 2736 
Q 959 2375 959 1747 
Q 959 1119 1226 758 
Q 1494 397 1959 397 
Q 2419 397 2687 759 
Q 2956 1122 2956 1747 
Q 2956 2369 2687 2733 
Q 2419 3097 1959 3097 
z
M 1959 3584 
Q 2709 3584 3137 3096 
Q 3566 2609 3566 1747 
Q 3566 888 3137 398 
Q 2709 -91 1959 -91 
Q 1206 -91 779 398 
Q 353 888 353 1747 
Q 353 2609 779 3096 
Q 1206 3584 1959 3584 
z
" transform="scale(0.015625)"/>
       <path id="DejaVuSans-6e" d="M 3513 2113 
L 3513 0 
L 2938 0 
L 2938 2094 
Q 2938 2591 2744 2837 
Q 2550 3084 2163 3084 
Q 1697 3084 1428 2787 
Q 1159 2491 1159 1978 
L 1159 0 
L 581 0 
L 581 3500 
L 1159 3500 
L 1159 2956 
Q 1366 3272 1645 3428 
Q 1925 3584 2291 3584 
Q 2894 3584 3203 3211 
Q 3513 2838 3513 2113 
z
" transform="scale(0.015625)"/>
       <path id="DejaVuSans-72" d="M 2631 2963 
Q 2534 3019 2420 3045 
Q 2306 3072 2169 3072 
Q 1681 3072 1420 2755 
Q 1159 2438 1159 1844 
L 1159 0 
L 581 0 
L 581 3500 
L 1159 3500 
L 1159 2956 
Q 1341 3275 1631 3429 
Q 1922 3584 2338 3584 
Q 2397 3584 2469 3576 
Q 2541 3569 2628 3553 
L 2631 2963 
z
" transform="scale(0.015625)"/>
       <path id="DejaVuSans-20" transform="scale(0.015625)"/>
       <path id="DejaVuSans-28" d="M 1984 4856 
Q 1566 4138 1362 3434 
Q 1159 2731 1159 2009 
Q 1159 1288 1364 580 
Q 1569 -128 1984 -844 
L 1484 -844 
Q 1016 -109 783 600 
Q 550 1309 550 2009 
Q 550 2706 781 3412 
Q 1013 4119 1484 4856 
L 1984 4856 
z
" transform="scale(0.015625)"/>
       <path id="DejaVuSans-61" d="M 2194 1759 
Q 1497 1759 1228 1600 
Q 959 1441 959 1056 
Q 959 750 1161 570 
Q 1363 391 1709 391 
Q 2188 391 2477 730 
Q 2766 1069 2766 1631 
L 2766 1759 
L 2194 1759 
z
M 3341 1997 
L 3341 0 
L 2766 0 
L 2766 531 
Q 2569 213 2275 61 
Q 1981 -91 1556 -91 
Q 1019 -91 701 211 
Q 384 513 384 1019 
Q 384 1609 779 1909 
Q 1175 2209 1959 2209 
L 2766 2209 
L 2766 2266 
Q 2766 2663 2505 2880 
Q 2244 3097 1772 3097 
Q 1472 3097 1187 3025 
Q 903 2953 641 2809 
L 641 3341 
Q 956 3463 1253 3523 
Q 1550 3584 1831 3584 
Q 2591 3584 2966 3190 
Q 3341 2797 3341 1997 
z
" transform="scale(0.015625)"/>
       <path id="DejaVuSans-64" d="M 2906 2969 
L 2906 4863 
L 3481 4863 
L 3481 0 
L 2906 0 
L 2906 525 
Q 2725 213 2448 61 
Q 2172 -91 1784 -91 
Q 1150 -91 751 415 
Q 353 922 353 1747 
Q 353 2572 751 3078 
Q 1150 3584 1784 3584 
Q 2172 3584 2448 3432 
Q 2725 3281 2906 2969 
z
M 947 1747 
Q 947 1113 1208 752 
Q 1469 391 1925 391 
Q 2381 391 2643 752 
Q 2906 1113 2906 1747 
Q 2906 2381 2643 2742 
Q 2381 3103 1925 3103 
Q 1469 3103 1208 2742 
Q 947 2381 947 1747 
z
" transform="scale(0.015625)"/>
       <path id="DejaVuSans-29" d="M 513 4856 
L 1013 4856 
Q 1481 4119 1714 3412 
Q 1947 2706 1947 2009 
Q 1947 1309 1714 600 
Q 1481 -109 1013 -844 
L 513 -844 
Q 928 -128 1133 580 
Q 1338 1288 1338 2009 
Q 1338 2731 1133 3434 
Q 928 4138 513 4856 
z
" transform="scale(0.015625)"/>
      </defs>
      <use xlink:href="#DejaVuSans-68"/>
      <use xlink:href="#DejaVuSans-69" x="63.378906"/>
      <use xlink:href="#DejaVuSans-70" x="91.162109"/>
      <use xlink:href="#DejaVuSans-5f" x="154.638672"/>
      <use xlink:href="#DejaVuSans-66" x="204.638672"/>
      <use xlink:href="#DejaVuSans-6c" x="239.84375"/>
      <use xlink:href="#DejaVuSans-65" x="267.626953"/>
      <use xlink:href="#DejaVuSans-78" x="327.400391"/>
      <use xlink:href="#DejaVuSans-69" x="386.580078"/>
      <use xlink:href="#DejaVuSans-6f" x="414.363281"/>
      <use xlink:href="#DejaVuSans-6e" x="475.544922"/>
      <use xlink:href="#DejaVuSans-5f" x="538.923828"/>
      <use xlink:href="#DejaVuSans-72" x="588.923828"/>
      <use xlink:href="#DejaVuSans-20" x="630.037109"/>
      <use xlink:href="#DejaVuSans-28" x="661.824219"/>
      <use xlink:href="#DejaVuSans-72" x="700.837891"/>
      <use xlink:href="#DejaVuSans-61" x="741.951172"/>
      <use xlink:href="#DejaVuSans-64" x="803.230469"/>
      <use xlink:href="#DejaVuSans-29" x="866.707031"/>
     </g>
    </g>
   </g>
   <g id="matplotlib.axis_2">
    <g id="ytick_1">
     <g id="text_7">
      <!-- −6 -->
      <g style="fill: #262626" transform="translate(64.283594 489.24025) scale(0.11 -0.11)">
       <defs>
        <path id="DejaVuSans-36" d="M 2113 2584 
Q 1688 2584 1439 2293 
Q 1191 2003 1191 1497 
Q 1191 994 1439 701 
Q 1688 409 2113 409 
Q 2538 409 2786 701 
Q 3034 994 3034 1497 
Q 3034 2003 2786 2293 
Q 2538 2584 2113 2584 
z
M 3366 4563 
L 3366 3988 
Q 3128 4100 2886 4159 
Q 2644 4219 2406 4219 
Q 1781 4219 1451 3797 
Q 1122 3375 1075 2522 
Q 1259 2794 1537 2939 
Q 1816 3084 2150 3084 
Q 2853 3084 3261 2657 
Q 3669 2231 3669 1497 
Q 3669 778 3244 343 
Q 2819 -91 2113 -91 
Q 1303 -91 875 529 
Q 447 1150 447 2328 
Q 447 3434 972 4092 
Q 1497 4750 2381 4750 
Q 2619 4750 2861 4703 
Q 3103 4656 3366 4563 
z
" transform="scale(0.015625)"/>
       </defs>
       <use xlink:href="#DejaVuSans-2212"/>
       <use xlink:href="#DejaVuSans-36" x="83.789062"/>
      </g>
     </g>
    </g>
    <g id="ytick_2">
     <g id="text_8">
      <!-- −4 -->
      <g style="fill: #262626" transform="translate(64.283594 424.842742) scale(0.11 -0.11)">
       <defs>
        <path id="DejaVuSans-34" d="M 2419 4116 
L 825 1625 
L 2419 1625 
L 2419 4116 
z
M 2253 4666 
L 3047 4666 
L 3047 1625 
L 3713 1625 
L 3713 1100 
L 3047 1100 
L 3047 0 
L 2419 0 
L 2419 1100 
L 313 1100 
L 313 1709 
L 2253 4666 
z
" transform="scale(0.015625)"/>
       </defs>
       <use xlink:href="#DejaVuSans-2212"/>
       <use xlink:href="#DejaVuSans-34" x="83.789062"/>
      </g>
     </g>
    </g>
    <g id="ytick_3">
     <g id="text_9">
      <!-- −2 -->
      <g style="fill: #262626" transform="translate(64.283594 360.445234) scale(0.11 -0.11)">
       <use xlink:href="#DejaVuSans-2212"/>
       <use xlink:href="#DejaVuSans-32" x="83.789062"/>
      </g>
     </g>
    </g>
    <g id="ytick_4">
     <g id="text_10">
      <!-- 0 -->
      <g style="fill: #262626" transform="translate(73.50125 296.047726) scale(0.11 -0.11)">
       <use xlink:href="#DejaVuSans-30"/>
      </g>
     </g>
    </g>
    <g id="ytick_5">
     <g id="text_11">
      <!-- 2 -->
      <g style="fill: #262626" transform="translate(73.50125 231.650218) scale(0.11 -0.11)">
       <use xlink:href="#DejaVuSans-32"/>
      </g>
     </g>
    </g>
    <g id="ytick_6">
     <g id="text_12">
      <!-- 4 -->
      <g style="fill: #262626" transform="translate(73.50125 167.25271) scale(0.11 -0.11)">
       <use xlink:href="#DejaVuSans-34"/>
      </g>
     </g>
    </g>
    <g id="ytick_7">
     <g id="text_13">
      <!-- 6 -->
      <g style="fill: #262626" transform="translate(73.50125 102.855202) scale(0.11 -0.11)">
       <use xlink:href="#DejaVuSans-36"/>
      </g>
     </g>
    </g>
    <g id="text_14">
     <!-- moment arms (cm) -->
     <g style="fill: #262626" transform="translate(57.787969 348.734062) rotate(-90) scale(0.12 -0.12)">
      <defs>
       <path id="DejaVuSans-6d" d="M 3328 2828 
Q 3544 3216 3844 3400 
Q 4144 3584 4550 3584 
Q 5097 3584 5394 3201 
Q 5691 2819 5691 2113 
L 5691 0 
L 5113 0 
L 5113 2094 
Q 5113 2597 4934 2840 
Q 4756 3084 4391 3084 
Q 3944 3084 3684 2787 
Q 3425 2491 3425 1978 
L 3425 0 
L 2847 0 
L 2847 2094 
Q 2847 2600 2669 2842 
Q 2491 3084 2119 3084 
Q 1678 3084 1418 2786 
Q 1159 2488 1159 1978 
L 1159 0 
L 581 0 
L 581 3500 
L 1159 3500 
L 1159 2956 
Q 1356 3278 1631 3431 
Q 1906 3584 2284 3584 
Q 2666 3584 2933 3390 
Q 3200 3197 3328 2828 
z
" transform="scale(0.015625)"/>
       <path id="DejaVuSans-74" d="M 1172 4494 
L 1172 3500 
L 2356 3500 
L 2356 3053 
L 1172 3053 
L 1172 1153 
Q 1172 725 1289 603 
Q 1406 481 1766 481 
L 2356 481 
L 2356 0 
L 1766 0 
Q 1100 0 847 248 
Q 594 497 594 1153 
L 594 3053 
L 172 3053 
L 172 3500 
L 594 3500 
L 594 4494 
L 1172 4494 
z
" transform="scale(0.015625)"/>
       <path id="DejaVuSans-73" d="M 2834 3397 
L 2834 2853 
Q 2591 2978 2328 3040 
Q 2066 3103 1784 3103 
Q 1356 3103 1142 2972 
Q 928 2841 928 2578 
Q 928 2378 1081 2264 
Q 1234 2150 1697 2047 
L 1894 2003 
Q 2506 1872 2764 1633 
Q 3022 1394 3022 966 
Q 3022 478 2636 193 
Q 2250 -91 1575 -91 
Q 1294 -91 989 -36 
Q 684 19 347 128 
L 347 722 
Q 666 556 975 473 
Q 1284 391 1588 391 
Q 1994 391 2212 530 
Q 2431 669 2431 922 
Q 2431 1156 2273 1281 
Q 2116 1406 1581 1522 
L 1381 1569 
Q 847 1681 609 1914 
Q 372 2147 372 2553 
Q 372 3047 722 3315 
Q 1072 3584 1716 3584 
Q 2034 3584 2315 3537 
Q 2597 3491 2834 3397 
z
" transform="scale(0.015625)"/>
       <path id="DejaVuSans-63" d="M 3122 3366 
L 3122 2828 
Q 2878 2963 2633 3030 
Q 2388 3097 2138 3097 
Q 1578 3097 1268 2742 
Q 959 2388 959 1747 
Q 959 1106 1268 751 
Q 1578 397 2138 397 
Q 2388 397 2633 464 
Q 2878 531 3122 666 
L 3122 134 
Q 2881 22 2623 -34 
Q 2366 -91 2075 -91 
Q 1284 -91 818 406 
Q 353 903 353 1747 
Q 353 2603 823 3093 
Q 1294 3584 2113 3584 
Q 2378 3584 2631 3529 
Q 2884 3475 3122 3366 
z
" transform="scale(0.015625)"/>
      </defs>
      <use xlink:href="#DejaVuSans-6d"/>
      <use xlink:href="#DejaVuSans-6f" x="97.412109"/>
      <use xlink:href="#DejaVuSans-6d" x="158.59375"/>
      <use xlink:href="#DejaVuSans-65" x="256.005859"/>
      <use xlink:href="#DejaVuSans-6e" x="317.529297"/>
      <use xlink:href="#DejaVuSans-74" x="380.908203"/>
      <use xlink:href="#DejaVuSans-20" x="420.117188"/>
      <use xlink:href="#DejaVuSans-61" x="451.904297"/>
      <use xlink:href="#DejaVuSans-72" x="513.183594"/>
      <use xlink:href="#DejaVuSans-6d" x="552.546875"/>
      <use xlink:href="#DejaVuSans-73" x="649.958984"/>
      <use xlink:href="#DejaVuSans-20" x="702.058594"/>
      <use xlink:href="#DejaVuSans-28" x="733.845703"/>
      <use xlink:href="#DejaVuSans-63" x="772.859375"/>
      <use xlink:href="#DejaVuSans-6d" x="827.839844"/>
      <use xlink:href="#DejaVuSans-29" x="925.251953"/>
     </g>
    </g>
   </g>
   <g id="line2d_1">
    <path d="M 101.528926 77.980633 
L 139.958678 177.620937 
L 178.38843 352.339907 
L 216.818182 485.79322 
L 255.247934 508.385434 
L 293.677686 436.560679 
L 332.107438 313.767677 
" clip-path="url(#pacf9244085)" style="fill: none; stroke: #0000ff; stroke-width: 1.5; stroke-linecap: round"/>
    <defs>
     <path id="m6f5fcf8356" d="M -3 3 
L 3 3 
L 3 -3 
L -3 -3 
z
" style="stroke: #0000ff; stroke-linejoin: miter"/>
    </defs>
    <g clip-path="url(#pacf9244085)">
     <use xlink:href="#m6f5fcf8356" x="101.528926" y="77.980633" style="fill: #0000ff; stroke: #0000ff; stroke-linejoin: miter"/>
     <use xlink:href="#m6f5fcf8356" x="139.958678" y="177.620937" style="fill: #0000ff; stroke: #0000ff; stroke-linejoin: miter"/>
     <use xlink:href="#m6f5fcf8356" x="178.38843" y="352.339907" style="fill: #0000ff; stroke: #0000ff; stroke-linejoin: miter"/>
     <use xlink:href="#m6f5fcf8356" x="216.818182" y="485.79322" style="fill: #0000ff; stroke: #0000ff; stroke-linejoin: miter"/>
     <use xlink:href="#m6f5fcf8356" x="255.247934" y="508.385434" style="fill: #0000ff; stroke: #0000ff; stroke-linejoin: miter"/>
     <use xlink:href="#m6f5fcf8356" x="293.677686" y="436.560679" style="fill: #0000ff; stroke: #0000ff; stroke-linejoin: miter"/>
     <use xlink:href="#m6f5fcf8356" x="332.107438" y="313.767677" style="fill: #0000ff; stroke: #0000ff; stroke-linejoin: miter"/>
    </g>
   </g>
   <g id="line2d_2">
    <path d="M 101.528926 76.641385 
L 139.958678 172.6333 
L 178.38843 346.388575 
L 216.818182 482.951179 
L 255.247934 509.498854 
L 293.677686 440.222735 
L 332.107438 318.297301 
" clip-path="url(#pacf9244085)" style="fill: none; stroke: #2424fa; stroke-width: 1.5; stroke-linecap: round"/>
    <defs>
     <path id="mad2ec02e18" d="M -3 3 
L 3 3 
L 3 -3 
L -3 -3 
z
" style="stroke: #2424fa; stroke-linejoin: miter"/>
    </defs>
    <g clip-path="url(#pacf9244085)">
     <use xlink:href="#mad2ec02e18" x="101.528926" y="76.641385" style="fill: #2424fa; stroke: #2424fa; stroke-linejoin: miter"/>
     <use xlink:href="#mad2ec02e18" x="139.958678" y="172.6333" style="fill: #2424fa; stroke: #2424fa; stroke-linejoin: miter"/>
     <use xlink:href="#mad2ec02e18" x="178.38843" y="346.388575" style="fill: #2424fa; stroke: #2424fa; stroke-linejoin: miter"/>
     <use xlink:href="#mad2ec02e18" x="216.818182" y="482.951179" style="fill: #2424fa; stroke: #2424fa; stroke-linejoin: miter"/>
     <use xlink:href="#mad2ec02e18" x="255.247934" y="509.498854" style="fill: #2424fa; stroke: #2424fa; stroke-linejoin: miter"/>
     <use xlink:href="#mad2ec02e18" x="293.677686" y="440.222735" style="fill: #2424fa; stroke: #2424fa; stroke-linejoin: miter"/>
     <use xlink:href="#mad2ec02e18" x="332.107438" y="318.297301" style="fill: #2424fa; stroke: #2424fa; stroke-linejoin: miter"/>
    </g>
   </g>
   <g id="line2d_3">
    <path d="M 101.528926 75.702166 
L 139.958678 168.864103 
L 178.38843 341.423829 
L 216.818182 480.356016 
L 255.247934 510.418172 
L 293.677686 443.37471 
L 332.107438 322.030026 
" clip-path="url(#pacf9244085)" style="fill: none; stroke: #4444ec; stroke-width: 1.5; stroke-linecap: round"/>
    <defs>
     <path id="m913b1dc845" d="M -3 3 
L 3 3 
L 3 -3 
L -3 -3 
z
" style="stroke: #4444ec; stroke-linejoin: miter"/>
    </defs>
    <g clip-path="url(#pacf9244085)">
     <use xlink:href="#m913b1dc845" x="101.528926" y="75.702166" style="fill: #4444ec; stroke: #4444ec; stroke-linejoin: miter"/>
     <use xlink:href="#m913b1dc845" x="139.958678" y="168.864103" style="fill: #4444ec; stroke: #4444ec; stroke-linejoin: miter"/>
     <use xlink:href="#m913b1dc845" x="178.38843" y="341.423829" style="fill: #4444ec; stroke: #4444ec; stroke-linejoin: miter"/>
     <use xlink:href="#m913b1dc845" x="216.818182" y="480.356016" style="fill: #4444ec; stroke: #4444ec; stroke-linejoin: miter"/>
     <use xlink:href="#m913b1dc845" x="255.247934" y="510.418172" style="fill: #4444ec; stroke: #4444ec; stroke-linejoin: miter"/>
     <use xlink:href="#m913b1dc845" x="293.677686" y="443.37471" style="fill: #4444ec; stroke: #4444ec; stroke-linejoin: miter"/>
     <use xlink:href="#m913b1dc845" x="332.107438" y="322.030026" style="fill: #4444ec; stroke: #4444ec; stroke-linejoin: miter"/>
    </g>
   </g>
   <g id="line2d_4">
    <path d="M 101.528926 75.305674 
L 139.958678 167.162306 
L 178.38843 338.685369 
L 216.818182 478.718229 
L 255.247934 510.983809 
L 293.677686 445.291681 
L 332.107438 324.077081 
" clip-path="url(#pacf9244085)" style="fill: none; stroke: #5d5dda; stroke-width: 1.5; stroke-linecap: round"/>
    <defs>
     <path id="m9f57ba47d0" d="M -3 3 
L 3 3 
L 3 -3 
L -3 -3 
z
" style="stroke: #5d5dda; stroke-linejoin: miter"/>
    </defs>
    <g clip-path="url(#pacf9244085)">
     <use xlink:href="#m9f57ba47d0" x="101.528926" y="75.305674" style="fill: #5d5dda; stroke: #5d5dda; stroke-linejoin: miter"/>
     <use xlink:href="#m9f57ba47d0" x="139.958678" y="167.162306" style="fill: #5d5dda; stroke: #5d5dda; stroke-linejoin: miter"/>
     <use xlink:href="#m9f57ba47d0" x="178.38843" y="338.685369" style="fill: #5d5dda; stroke: #5d5dda; stroke-linejoin: miter"/>
     <use xlink:href="#m9f57ba47d0" x="216.818182" y="478.718229" style="fill: #5d5dda; stroke: #5d5dda; stroke-linejoin: miter"/>
     <use xlink:href="#m9f57ba47d0" x="255.247934" y="510.983809" style="fill: #5d5dda; stroke: #5d5dda; stroke-linejoin: miter"/>
     <use xlink:href="#m9f57ba47d0" x="293.677686" y="445.291681" style="fill: #5d5dda; stroke: #5d5dda; stroke-linejoin: miter"/>
     <use xlink:href="#m9f57ba47d0" x="332.107438" y="324.077081" style="fill: #5d5dda; stroke: #5d5dda; stroke-linejoin: miter"/>
    </g>
   </g>
   <g id="line2d_5">
    <path d="M 101.528926 75.503838 
L 139.958678 167.883225 
L 178.38843 338.809182 
L 216.818182 478.490637 
L 255.247934 511.145846 
L 293.677686 445.569964 
L 332.107438 323.950681 
" clip-path="url(#pacf9244085)" style="fill: none; stroke: #7171c6; stroke-width: 1.5; stroke-linecap: round"/>
    <defs>
     <path id="me19e18e2f0" d="M -3 3 
L 3 3 
L 3 -3 
L -3 -3 
z
" style="stroke: #7171c6; stroke-linejoin: miter"/>
    </defs>
    <g clip-path="url(#pacf9244085)">
     <use xlink:href="#me19e18e2f0" x="101.528926" y="75.503838" style="fill: #7171c6; stroke: #7171c6; stroke-linejoin: miter"/>
     <use xlink:href="#me19e18e2f0" x="139.958678" y="167.883225" style="fill: #7171c6; stroke: #7171c6; stroke-linejoin: miter"/>
     <use xlink:href="#me19e18e2f0" x="178.38843" y="338.809182" style="fill: #7171c6; stroke: #7171c6; stroke-linejoin: miter"/>
     <use xlink:href="#me19e18e2f0" x="216.818182" y="478.490637" style="fill: #7171c6; stroke: #7171c6; stroke-linejoin: miter"/>
     <use xlink:href="#me19e18e2f0" x="255.247934" y="511.145846" style="fill: #7171c6; stroke: #7171c6; stroke-linejoin: miter"/>
     <use xlink:href="#me19e18e2f0" x="293.677686" y="445.569964" style="fill: #7171c6; stroke: #7171c6; stroke-linejoin: miter"/>
     <use xlink:href="#me19e18e2f0" x="332.107438" y="323.950681" style="fill: #7171c6; stroke: #7171c6; stroke-linejoin: miter"/>
    </g>
   </g>
   <g id="line2d_6">
    <path d="M 101.528926 76.271143 
L 139.958678 170.781852 
L 178.38843 341.58145 
L 216.818182 479.635863 
L 255.247934 510.922982 
L 293.677686 444.25592 
L 332.107438 321.770754 
" clip-path="url(#pacf9244085)" style="fill: none; stroke: #8080b3; stroke-width: 1.5; stroke-linecap: round"/>
    <defs>
     <path id="m9f7016d194" d="M -3 3 
L 3 3 
L 3 -3 
L -3 -3 
z
" style="stroke: #8080b3; stroke-linejoin: miter"/>
    </defs>
    <g clip-path="url(#pacf9244085)">
     <use xlink:href="#m9f7016d194" x="101.528926" y="76.271143" style="fill: #8080b3; stroke: #8080b3; stroke-linejoin: miter"/>
     <use xlink:href="#m9f7016d194" x="139.958678" y="170.781852" style="fill: #8080b3; stroke: #8080b3; stroke-linejoin: miter"/>
     <use xlink:href="#m9f7016d194" x="178.38843" y="341.58145" style="fill: #8080b3; stroke: #8080b3; stroke-linejoin: miter"/>
     <use xlink:href="#m9f7016d194" x="216.818182" y="479.635863" style="fill: #8080b3; stroke: #8080b3; stroke-linejoin: miter"/>
     <use xlink:href="#m9f7016d194" x="255.247934" y="510.922982" style="fill: #8080b3; stroke: #8080b3; stroke-linejoin: miter"/>
     <use xlink:href="#m9f7016d194" x="293.677686" y="444.25592" style="fill: #8080b3; stroke: #8080b3; stroke-linejoin: miter"/>
     <use xlink:href="#m9f7016d194" x="332.107438" y="321.770754" style="fill: #8080b3; stroke: #8080b3; stroke-linejoin: miter"/>
    </g>
   </g>
   <g id="line2d_7">
    <path d="M 101.528926 77.892796 
L 139.958678 176.557197 
L 178.38843 347.818368 
L 216.818182 482.555605 
L 255.247934 510.086225 
L 293.677686 440.71311 
L 332.107438 316.829667 
" clip-path="url(#pacf9244085)" style="fill: none; stroke: #8b8ba2; stroke-width: 1.5; stroke-linecap: round"/>
    <defs>
     <path id="m9fe2f2101b" d="M -3 3 
L 3 3 
L 3 -3 
L -3 -3 
z
" style="stroke: #8b8ba2; stroke-linejoin: miter"/>
    </defs>
    <g clip-path="url(#pacf9244085)">
     <use xlink:href="#m9fe2f2101b" x="101.528926" y="77.892796" style="fill: #8b8ba2; stroke: #8b8ba2; stroke-linejoin: miter"/>
     <use xlink:href="#m9fe2f2101b" x="139.958678" y="176.557197" style="fill: #8b8ba2; stroke: #8b8ba2; stroke-linejoin: miter"/>
     <use xlink:href="#m9fe2f2101b" x="178.38843" y="347.818368" style="fill: #8b8ba2; stroke: #8b8ba2; stroke-linejoin: miter"/>
     <use xlink:href="#m9fe2f2101b" x="216.818182" y="482.555605" style="fill: #8b8ba2; stroke: #8b8ba2; stroke-linejoin: miter"/>
     <use xlink:href="#m9fe2f2101b" x="255.247934" y="510.086225" style="fill: #8b8ba2; stroke: #8b8ba2; stroke-linejoin: miter"/>
     <use xlink:href="#m9fe2f2101b" x="293.677686" y="440.71311" style="fill: #8b8ba2; stroke: #8b8ba2; stroke-linejoin: miter"/>
     <use xlink:href="#m9fe2f2101b" x="332.107438" y="316.829667" style="fill: #8b8ba2; stroke: #8b8ba2; stroke-linejoin: miter"/>
    </g>
   </g>
   <g id="patch_3">
    <path d="M 90 512.64 
L 90 69.12 
" style="fill: none; stroke: #262626; stroke-width: 1.25; stroke-linejoin: miter; stroke-linecap: square"/>
   </g>
   <g id="patch_4">
    <path d="M 343.636364 512.64 
L 343.636364 69.12 
" style="fill: none; stroke: #262626; stroke-width: 1.25; stroke-linejoin: miter; stroke-linecap: square"/>
   </g>
   <g id="patch_5">
    <path d="M 90 512.64 
L 343.636364 512.64 
" style="fill: none; stroke: #262626; stroke-width: 1.25; stroke-linejoin: miter; stroke-linecap: square"/>
   </g>
   <g id="patch_6">
    <path d="M 90 69.12 
L 343.636364 69.12 
" style="fill: none; stroke: #262626; stroke-width: 1.25; stroke-linejoin: miter; stroke-linecap: square"/>
   </g>
   <g id="text_15">
    <!-- OSIM -->
    <g style="fill: #262626" transform="translate(201.339119 63.12) scale(0.12 -0.12)">
     <defs>
      <path id="DejaVuSans-4f" d="M 2522 4238 
Q 1834 4238 1429 3725 
Q 1025 3213 1025 2328 
Q 1025 1447 1429 934 
Q 1834 422 2522 422 
Q 3209 422 3611 934 
Q 4013 1447 4013 2328 
Q 4013 3213 3611 3725 
Q 3209 4238 2522 4238 
z
M 2522 4750 
Q 3503 4750 4090 4092 
Q 4678 3434 4678 2328 
Q 4678 1225 4090 567 
Q 3503 -91 2522 -91 
Q 1538 -91 948 565 
Q 359 1222 359 2328 
Q 359 3434 948 4092 
Q 1538 4750 2522 4750 
z
" transform="scale(0.015625)"/>
      <path id="DejaVuSans-53" d="M 3425 4513 
L 3425 3897 
Q 3066 4069 2747 4153 
Q 2428 4238 2131 4238 
Q 1616 4238 1336 4038 
Q 1056 3838 1056 3469 
Q 1056 3159 1242 3001 
Q 1428 2844 1947 2747 
L 2328 2669 
Q 3034 2534 3370 2195 
Q 3706 1856 3706 1288 
Q 3706 609 3251 259 
Q 2797 -91 1919 -91 
Q 1588 -91 1214 -16 
Q 841 59 441 206 
L 441 856 
Q 825 641 1194 531 
Q 1563 422 1919 422 
Q 2459 422 2753 634 
Q 3047 847 3047 1241 
Q 3047 1584 2836 1778 
Q 2625 1972 2144 2069 
L 1759 2144 
Q 1053 2284 737 2584 
Q 422 2884 422 3419 
Q 422 4038 858 4394 
Q 1294 4750 2059 4750 
Q 2388 4750 2728 4690 
Q 3069 4631 3425 4513 
z
" transform="scale(0.015625)"/>
      <path id="DejaVuSans-49" d="M 628 4666 
L 1259 4666 
L 1259 0 
L 628 0 
L 628 4666 
z
" transform="scale(0.015625)"/>
      <path id="DejaVuSans-4d" d="M 628 4666 
L 1569 4666 
L 2759 1491 
L 3956 4666 
L 4897 4666 
L 4897 0 
L 4281 0 
L 4281 4097 
L 3078 897 
L 2444 897 
L 1241 4097 
L 1241 0 
L 628 0 
L 628 4666 
z
" transform="scale(0.015625)"/>
     </defs>
     <use xlink:href="#DejaVuSans-4f"/>
     <use xlink:href="#DejaVuSans-53" x="78.710938"/>
     <use xlink:href="#DejaVuSans-49" x="142.1875"/>
     <use xlink:href="#DejaVuSans-4d" x="171.679688"/>
    </g>
   </g>
  </g>
  <g id="axes_2">
   <g id="patch_7">
    <path d="M 394.363636 512.64 
L 648 512.64 
L 648 69.12 
L 394.363636 69.12 
z
" style="fill: #ffffff"/>
   </g>
   <g id="matplotlib.axis_3">
    <g id="xtick_6">
     <g id="text_16">
      <!-- −2 -->
      <g style="fill: #262626" transform="translate(402.959712 530.498281) scale(0.11 -0.11)">
       <use xlink:href="#DejaVuSans-2212"/>
       <use xlink:href="#DejaVuSans-32" x="83.789062"/>
      </g>
     </g>
    </g>
    <g id="xtick_7">
     <g id="text_17">
      <!-- −1 -->
      <g style="fill: #262626" transform="translate(458.016664 530.498281) scale(0.11 -0.11)">
       <use xlink:href="#DejaVuSans-2212"/>
       <use xlink:href="#DejaVuSans-31" x="83.789062"/>
      </g>
     </g>
    </g>
    <g id="xtick_8">
     <g id="text_18">
      <!-- 0 -->
      <g style="fill: #262626" transform="translate(517.682443 530.498281) scale(0.11 -0.11)">
       <use xlink:href="#DejaVuSans-30"/>
      </g>
     </g>
    </g>
    <g id="xtick_9">
     <g id="text_19">
      <!-- 1 -->
      <g style="fill: #262626" transform="translate(572.739395 530.498281) scale(0.11 -0.11)">
       <use xlink:href="#DejaVuSans-31"/>
      </g>
     </g>
    </g>
    <g id="xtick_10">
     <g id="text_20">
      <!-- 2 -->
      <g style="fill: #262626" transform="translate(627.796346 530.498281) scale(0.11 -0.11)">
       <use xlink:href="#DejaVuSans-32"/>
      </g>
     </g>
    </g>
    <g id="text_21">
     <!-- hip_flexion_r (rad) -->
     <g style="fill: #262626" transform="translate(466.837756 545.904063) scale(0.12 -0.12)">
      <use xlink:href="#DejaVuSans-68"/>
      <use xlink:href="#DejaVuSans-69" x="63.378906"/>
      <use xlink:href="#DejaVuSans-70" x="91.162109"/>
      <use xlink:href="#DejaVuSans-5f" x="154.638672"/>
      <use xlink:href="#DejaVuSans-66" x="204.638672"/>
      <use xlink:href="#DejaVuSans-6c" x="239.84375"/>
      <use xlink:href="#DejaVuSans-65" x="267.626953"/>
      <use xlink:href="#DejaVuSans-78" x="327.400391"/>
      <use xlink:href="#DejaVuSans-69" x="386.580078"/>
      <use xlink:href="#DejaVuSans-6f" x="414.363281"/>
      <use xlink:href="#DejaVuSans-6e" x="475.544922"/>
      <use xlink:href="#DejaVuSans-5f" x="538.923828"/>
      <use xlink:href="#DejaVuSans-72" x="588.923828"/>
      <use xlink:href="#DejaVuSans-20" x="630.037109"/>
      <use xlink:href="#DejaVuSans-28" x="661.824219"/>
      <use xlink:href="#DejaVuSans-72" x="700.837891"/>
      <use xlink:href="#DejaVuSans-61" x="741.951172"/>
      <use xlink:href="#DejaVuSans-64" x="803.230469"/>
      <use xlink:href="#DejaVuSans-29" x="866.707031"/>
     </g>
    </g>
   </g>
   <g id="matplotlib.axis_4">
    <g id="ytick_8">
     <g id="text_22">
      <!-- −6 -->
      <g style="fill: #262626" transform="translate(368.64723 489.24025) scale(0.11 -0.11)">
       <use xlink:href="#DejaVuSans-2212"/>
       <use xlink:href="#DejaVuSans-36" x="83.789062"/>
      </g>
     </g>
    </g>
    <g id="ytick_9">
     <g id="text_23">
      <!-- −4 -->
      <g style="fill: #262626" transform="translate(368.64723 424.842742) scale(0.11 -0.11)">
       <use xlink:href="#DejaVuSans-2212"/>
       <use xlink:href="#DejaVuSans-34" x="83.789062"/>
      </g>
     </g>
    </g>
    <g id="ytick_10">
     <g id="text_24">
      <!-- −2 -->
      <g style="fill: #262626" transform="translate(368.64723 360.445234) scale(0.11 -0.11)">
       <use xlink:href="#DejaVuSans-2212"/>
       <use xlink:href="#DejaVuSans-32" x="83.789062"/>
      </g>
     </g>
    </g>
    <g id="ytick_11">
     <g id="text_25">
      <!-- 0 -->
      <g style="fill: #262626" transform="translate(377.864886 296.047726) scale(0.11 -0.11)">
       <use xlink:href="#DejaVuSans-30"/>
      </g>
     </g>
    </g>
    <g id="ytick_12">
     <g id="text_26">
      <!-- 2 -->
      <g style="fill: #262626" transform="translate(377.864886 231.650218) scale(0.11 -0.11)">
       <use xlink:href="#DejaVuSans-32"/>
      </g>
     </g>
    </g>
    <g id="ytick_13">
     <g id="text_27">
      <!-- 4 -->
      <g style="fill: #262626" transform="translate(377.864886 167.25271) scale(0.11 -0.11)">
       <use xlink:href="#DejaVuSans-34"/>
      </g>
     </g>
    </g>
    <g id="ytick_14">
     <g id="text_28">
      <!-- 6 -->
      <g style="fill: #262626" transform="translate(377.864886 102.855202) scale(0.11 -0.11)">
       <use xlink:href="#DejaVuSans-36"/>
      </g>
     </g>
    </g>
    <g id="text_29">
     <!-- moment arms (cm) -->
     <g style="fill: #262626" transform="translate(362.151605 348.734062) rotate(-90) scale(0.12 -0.12)">
      <use xlink:href="#DejaVuSans-6d"/>
      <use xlink:href="#DejaVuSans-6f" x="97.412109"/>
      <use xlink:href="#DejaVuSans-6d" x="158.59375"/>
      <use xlink:href="#DejaVuSans-65" x="256.005859"/>
      <use xlink:href="#DejaVuSans-6e" x="317.529297"/>
      <use xlink:href="#DejaVuSans-74" x="380.908203"/>
      <use xlink:href="#DejaVuSans-20" x="420.117188"/>
      <use xlink:href="#DejaVuSans-61" x="451.904297"/>
      <use xlink:href="#DejaVuSans-72" x="513.183594"/>
      <use xlink:href="#DejaVuSans-6d" x="552.546875"/>
      <use xlink:href="#DejaVuSans-73" x="649.958984"/>
      <use xlink:href="#DejaVuSans-20" x="702.058594"/>
      <use xlink:href="#DejaVuSans-28" x="733.845703"/>
      <use xlink:href="#DejaVuSans-63" x="772.859375"/>
      <use xlink:href="#DejaVuSans-6d" x="827.839844"/>
      <use xlink:href="#DejaVuSans-29" x="925.251953"/>
     </g>
    </g>
   </g>
   <g id="line2d_8">
    <path d="M 405.892562 503.403016 
L 444.322314 498.884299 
L 482.752066 397.538413 
L 521.181818 246.769656 
L 559.61157 117.093975 
L 598.041322 69.163812 
L 636.471074 125.402215 
" clip-path="url(#p19635d6b22)" style="fill: none; stroke: #0000ff; stroke-width: 1.5; stroke-linecap: round"/>
    <g clip-path="url(#p19635d6b22)">
     <use xlink:href="#m6f5fcf8356" x="405.892562" y="503.403016" style="fill: #0000ff; stroke: #0000ff; stroke-linejoin: miter"/>
     <use xlink:href="#m6f5fcf8356" x="444.322314" y="498.884299" style="fill: #0000ff; stroke: #0000ff; stroke-linejoin: miter"/>
     <use xlink:href="#m6f5fcf8356" x="482.752066" y="397.538413" style="fill: #0000ff; stroke: #0000ff; stroke-linejoin: miter"/>
     <use xlink:href="#m6f5fcf8356" x="521.181818" y="246.769656" style="fill: #0000ff; stroke: #0000ff; stroke-linejoin: miter"/>
     <use xlink:href="#m6f5fcf8356" x="559.61157" y="117.093975" style="fill: #0000ff; stroke: #0000ff; stroke-linejoin: miter"/>
     <use xlink:href="#m6f5fcf8356" x="598.041322" y="69.163812" style="fill: #0000ff; stroke: #0000ff; stroke-linejoin: miter"/>
     <use xlink:href="#m6f5fcf8356" x="636.471074" y="125.402215" style="fill: #0000ff; stroke: #0000ff; stroke-linejoin: miter"/>
    </g>
   </g>
   <g id="line2d_9">
    <path d="M 405.892562 503.357594 
L 444.322314 498.934501 
L 482.752066 397.678053 
L 521.181818 246.954497 
L 559.61157 117.227609 
L 598.041322 69.159185 
L 636.471074 125.262898 
" clip-path="url(#p19635d6b22)" style="fill: none; stroke: #2424fa; stroke-width: 1.5; stroke-linecap: round"/>
    <g clip-path="url(#p19635d6b22)">
     <use xlink:href="#mad2ec02e18" x="405.892562" y="503.357594" style="fill: #2424fa; stroke: #2424fa; stroke-linejoin: miter"/>
     <use xlink:href="#mad2ec02e18" x="444.322314" y="498.934501" style="fill: #2424fa; stroke: #2424fa; stroke-linejoin: miter"/>
     <use xlink:href="#mad2ec02e18" x="482.752066" y="397.678053" style="fill: #2424fa; stroke: #2424fa; stroke-linejoin: miter"/>
     <use xlink:href="#mad2ec02e18" x="521.181818" y="246.954497" style="fill: #2424fa; stroke: #2424fa; stroke-linejoin: miter"/>
     <use xlink:href="#mad2ec02e18" x="559.61157" y="117.227609" style="fill: #2424fa; stroke: #2424fa; stroke-linejoin: miter"/>
     <use xlink:href="#mad2ec02e18" x="598.041322" y="69.159185" style="fill: #2424fa; stroke: #2424fa; stroke-linejoin: miter"/>
     <use xlink:href="#mad2ec02e18" x="636.471074" y="125.262898" style="fill: #2424fa; stroke: #2424fa; stroke-linejoin: miter"/>
    </g>
   </g>
   <g id="line2d_10">
    <path d="M 405.892562 502.761663 
L 444.322314 499.574946 
L 482.752066 399.474801 
L 521.181818 249.34303 
L 559.61157 118.969231 
L 598.041322 69.12 
L 636.471074 123.470729 
" clip-path="url(#p19635d6b22)" style="fill: none; stroke: #4444ec; stroke-width: 1.5; stroke-linecap: round"/>
    <g clip-path="url(#p19635d6b22)">
     <use xlink:href="#m913b1dc845" x="405.892562" y="502.761663" style="fill: #4444ec; stroke: #4444ec; stroke-linejoin: miter"/>
     <use xlink:href="#m913b1dc845" x="444.322314" y="499.574946" style="fill: #4444ec; stroke: #4444ec; stroke-linejoin: miter"/>
     <use xlink:href="#m913b1dc845" x="482.752066" y="399.474801" style="fill: #4444ec; stroke: #4444ec; stroke-linejoin: miter"/>
     <use xlink:href="#m913b1dc845" x="521.181818" y="249.34303" style="fill: #4444ec; stroke: #4444ec; stroke-linejoin: miter"/>
     <use xlink:href="#m913b1dc845" x="559.61157" y="118.969231" style="fill: #4444ec; stroke: #4444ec; stroke-linejoin: miter"/>
     <use xlink:href="#m913b1dc845" x="598.041322" y="69.12" style="fill: #4444ec; stroke: #4444ec; stroke-linejoin: miter"/>
     <use xlink:href="#m913b1dc845" x="636.471074" y="123.470729" style="fill: #4444ec; stroke: #4444ec; stroke-linejoin: miter"/>
    </g>
   </g>
   <g id="line2d_11">
    <path d="M 405.892562 458.084647 
L 444.322314 512.64 
L 482.752066 463.505009 
L 521.181818 346.264878 
L 559.61157 209.308483 
L 598.041322 102.607464 
L 636.471074 73.346852 
" clip-path="url(#p19635d6b22)" style="fill: none; stroke: #5d5dda; stroke-width: 1.5; stroke-linecap: round"/>
    <g clip-path="url(#p19635d6b22)">
     <use xlink:href="#m9f57ba47d0" x="405.892562" y="458.084647" style="fill: #5d5dda; stroke: #5d5dda; stroke-linejoin: miter"/>
     <use xlink:href="#m9f57ba47d0" x="444.322314" y="512.64" style="fill: #5d5dda; stroke: #5d5dda; stroke-linejoin: miter"/>
     <use xlink:href="#m9f57ba47d0" x="482.752066" y="463.505009" style="fill: #5d5dda; stroke: #5d5dda; stroke-linejoin: miter"/>
     <use xlink:href="#m9f57ba47d0" x="521.181818" y="346.264878" style="fill: #5d5dda; stroke: #5d5dda; stroke-linejoin: miter"/>
     <use xlink:href="#m9f57ba47d0" x="559.61157" y="209.308483" style="fill: #5d5dda; stroke: #5d5dda; stroke-linejoin: miter"/>
     <use xlink:href="#m9f57ba47d0" x="598.041322" y="102.607464" style="fill: #5d5dda; stroke: #5d5dda; stroke-linejoin: miter"/>
     <use xlink:href="#m9f57ba47d0" x="636.471074" y="73.346852" style="fill: #5d5dda; stroke: #5d5dda; stroke-linejoin: miter"/>
    </g>
   </g>
   <g id="line2d_12">
    <path d="M 405.892562 75.82732 
L 444.322314 169.199341 
L 482.752066 340.585699 
L 521.181818 479.467751 
L 559.61157 510.85434 
L 598.041322 444.481811 
L 636.471074 322.694375 
" clip-path="url(#p19635d6b22)" style="fill: none; stroke: #7171c6; stroke-width: 1.5; stroke-linecap: round"/>
    <g clip-path="url(#p19635d6b22)">
     <use xlink:href="#me19e18e2f0" x="405.892562" y="75.82732" style="fill: #7171c6; stroke: #7171c6; stroke-linejoin: miter"/>
     <use xlink:href="#me19e18e2f0" x="444.322314" y="169.199341" style="fill: #7171c6; stroke: #7171c6; stroke-linejoin: miter"/>
     <use xlink:href="#me19e18e2f0" x="482.752066" y="340.585699" style="fill: #7171c6; stroke: #7171c6; stroke-linejoin: miter"/>
     <use xlink:href="#me19e18e2f0" x="521.181818" y="479.467751" style="fill: #7171c6; stroke: #7171c6; stroke-linejoin: miter"/>
     <use xlink:href="#me19e18e2f0" x="559.61157" y="510.85434" style="fill: #7171c6; stroke: #7171c6; stroke-linejoin: miter"/>
     <use xlink:href="#me19e18e2f0" x="598.041322" y="444.481811" style="fill: #7171c6; stroke: #7171c6; stroke-linejoin: miter"/>
     <use xlink:href="#me19e18e2f0" x="636.471074" y="322.694375" style="fill: #7171c6; stroke: #7171c6; stroke-linejoin: miter"/>
    </g>
   </g>
   <g id="line2d_13">
    <path d="M 405.892562 76.353189 
L 444.322314 171.085598 
L 482.752066 341.916485 
L 521.181818 479.792933 
L 559.61157 510.885206 
L 598.041322 444.114789 
L 636.471074 321.606853 
" clip-path="url(#p19635d6b22)" style="fill: none; stroke: #8080b3; stroke-width: 1.5; stroke-linecap: round"/>
    <g clip-path="url(#p19635d6b22)">
     <use xlink:href="#m9f7016d194" x="405.892562" y="76.353189" style="fill: #8080b3; stroke: #8080b3; stroke-linejoin: miter"/>
     <use xlink:href="#m9f7016d194" x="444.322314" y="171.085598" style="fill: #8080b3; stroke: #8080b3; stroke-linejoin: miter"/>
     <use xlink:href="#m9f7016d194" x="482.752066" y="341.916485" style="fill: #8080b3; stroke: #8080b3; stroke-linejoin: miter"/>
     <use xlink:href="#m9f7016d194" x="521.181818" y="479.792933" style="fill: #8080b3; stroke: #8080b3; stroke-linejoin: miter"/>
     <use xlink:href="#m9f7016d194" x="559.61157" y="510.885206" style="fill: #8080b3; stroke: #8080b3; stroke-linejoin: miter"/>
     <use xlink:href="#m9f7016d194" x="598.041322" y="444.114789" style="fill: #8080b3; stroke: #8080b3; stroke-linejoin: miter"/>
     <use xlink:href="#m9f7016d194" x="636.471074" y="321.606853" style="fill: #8080b3; stroke: #8080b3; stroke-linejoin: miter"/>
    </g>
   </g>
   <g id="line2d_14">
    <path d="M 405.892562 77.9917 
L 444.322314 176.883138 
L 482.752066 348.158579 
L 521.181818 482.706477 
L 559.61157 510.044326 
L 598.041322 440.568162 
L 636.471074 316.660978 
" clip-path="url(#p19635d6b22)" style="fill: none; stroke: #8b8ba2; stroke-width: 1.5; stroke-linecap: round"/>
    <g clip-path="url(#p19635d6b22)">
     <use xlink:href="#m9fe2f2101b" x="405.892562" y="77.9917" style="fill: #8b8ba2; stroke: #8b8ba2; stroke-linejoin: miter"/>
     <use xlink:href="#m9fe2f2101b" x="444.322314" y="176.883138" style="fill: #8b8ba2; stroke: #8b8ba2; stroke-linejoin: miter"/>
     <use xlink:href="#m9fe2f2101b" x="482.752066" y="348.158579" style="fill: #8b8ba2; stroke: #8b8ba2; stroke-linejoin: miter"/>
     <use xlink:href="#m9fe2f2101b" x="521.181818" y="482.706477" style="fill: #8b8ba2; stroke: #8b8ba2; stroke-linejoin: miter"/>
     <use xlink:href="#m9fe2f2101b" x="559.61157" y="510.044326" style="fill: #8b8ba2; stroke: #8b8ba2; stroke-linejoin: miter"/>
     <use xlink:href="#m9fe2f2101b" x="598.041322" y="440.568162" style="fill: #8b8ba2; stroke: #8b8ba2; stroke-linejoin: miter"/>
     <use xlink:href="#m9fe2f2101b" x="636.471074" y="316.660978" style="fill: #8b8ba2; stroke: #8b8ba2; stroke-linejoin: miter"/>
    </g>
   </g>
   <g id="patch_8">
    <path d="M 394.363636 512.64 
L 394.363636 69.12 
" style="fill: none; stroke: #262626; stroke-width: 1.25; stroke-linejoin: miter; stroke-linecap: square"/>
   </g>
   <g id="patch_9">
    <path d="M 648 512.64 
L 648 69.12 
" style="fill: none; stroke: #262626; stroke-width: 1.25; stroke-linejoin: miter; stroke-linecap: square"/>
   </g>
   <g id="patch_10">
    <path d="M 394.363636 512.64 
L 648 512.64 
" style="fill: none; stroke: #262626; stroke-width: 1.25; stroke-linejoin: miter; stroke-linecap: square"/>
   </g>
   <g id="patch_11">
    <path d="M 394.363636 69.12 
L 648 69.12 
" style="fill: none; stroke: #262626; stroke-width: 1.25; stroke-linejoin: miter; stroke-linecap: square"/>
   </g>
   <g id="text_30">
    <!-- MJC -->
    <g style="fill: #262626" transform="translate(510.045256 63.12) scale(0.12 -0.12)">
     <defs>
      <path id="DejaVuSans-4a" d="M 628 4666 
L 1259 4666 
L 1259 325 
Q 1259 -519 939 -900 
Q 619 -1281 -91 -1281 
L -331 -1281 
L -331 -750 
L -134 -750 
Q 284 -750 456 -515 
Q 628 -281 628 325 
L 628 4666 
z
" transform="scale(0.015625)"/>
      <path id="DejaVuSans-43" d="M 4122 4306 
L 4122 3641 
Q 3803 3938 3442 4084 
Q 3081 4231 2675 4231 
Q 1875 4231 1450 3742 
Q 1025 3253 1025 2328 
Q 1025 1406 1450 917 
Q 1875 428 2675 428 
Q 3081 428 3442 575 
Q 3803 722 4122 1019 
L 4122 359 
Q 3791 134 3420 21 
Q 3050 -91 2638 -91 
Q 1578 -91 968 557 
Q 359 1206 359 2328 
Q 359 3453 968 4101 
Q 1578 4750 2638 4750 
Q 3056 4750 3426 4639 
Q 3797 4528 4122 4306 
z
" transform="scale(0.015625)"/>
     </defs>
     <use xlink:href="#DejaVuSans-4d"/>
     <use xlink:href="#DejaVuSans-4a" x="86.279297"/>
     <use xlink:href="#DejaVuSans-43" x="115.771484"/>
    </g>
   </g>
  </g>
  <g id="text_31">
   <!-- bifemlh_r - hip_flexion_r - knee_angle_r -->
   <g style="fill: #262626" transform="translate(218.88675 22.46175) scale(0.144 -0.144)">
    <defs>
     <path id="DejaVuSans-62" d="M 3116 1747 
Q 3116 2381 2855 2742 
Q 2594 3103 2138 3103 
Q 1681 3103 1420 2742 
Q 1159 2381 1159 1747 
Q 1159 1113 1420 752 
Q 1681 391 2138 391 
Q 2594 391 2855 752 
Q 3116 1113 3116 1747 
z
M 1159 2969 
Q 1341 3281 1617 3432 
Q 1894 3584 2278 3584 
Q 2916 3584 3314 3078 
Q 3713 2572 3713 1747 
Q 3713 922 3314 415 
Q 2916 -91 2278 -91 
Q 1894 -91 1617 61 
Q 1341 213 1159 525 
L 1159 0 
L 581 0 
L 581 4863 
L 1159 4863 
L 1159 2969 
z
" transform="scale(0.015625)"/>
     <path id="DejaVuSans-2d" d="M 313 2009 
L 1997 2009 
L 1997 1497 
L 313 1497 
L 313 2009 
z
" transform="scale(0.015625)"/>
     <path id="DejaVuSans-6b" d="M 581 4863 
L 1159 4863 
L 1159 1991 
L 2875 3500 
L 3609 3500 
L 1753 1863 
L 3688 0 
L 2938 0 
L 1159 1709 
L 1159 0 
L 581 0 
L 581 4863 
z
" transform="scale(0.015625)"/>
     <path id="DejaVuSans-67" d="M 2906 1791 
Q 2906 2416 2648 2759 
Q 2391 3103 1925 3103 
Q 1463 3103 1205 2759 
Q 947 2416 947 1791 
Q 947 1169 1205 825 
Q 1463 481 1925 481 
Q 2391 481 2648 825 
Q 2906 1169 2906 1791 
z
M 3481 434 
Q 3481 -459 3084 -895 
Q 2688 -1331 1869 -1331 
Q 1566 -1331 1297 -1286 
Q 1028 -1241 775 -1147 
L 775 -588 
Q 1028 -725 1275 -790 
Q 1522 -856 1778 -856 
Q 2344 -856 2625 -561 
Q 2906 -266 2906 331 
L 2906 616 
Q 2728 306 2450 153 
Q 2172 0 1784 0 
Q 1141 0 747 490 
Q 353 981 353 1791 
Q 353 2603 747 3093 
Q 1141 3584 1784 3584 
Q 2172 3584 2450 3431 
Q 2728 3278 2906 2969 
L 2906 3500 
L 3481 3500 
L 3481 434 
z
" transform="scale(0.015625)"/>
    </defs>
    <use xlink:href="#DejaVuSans-62"/>
    <use xlink:href="#DejaVuSans-69" x="63.476562"/>
    <use xlink:href="#DejaVuSans-66" x="91.259766"/>
    <use xlink:href="#DejaVuSans-65" x="126.464844"/>
    <use xlink:href="#DejaVuSans-6d" x="187.988281"/>
    <use xlink:href="#DejaVuSans-6c" x="285.400391"/>
    <use xlink:href="#DejaVuSans-68" x="313.183594"/>
    <use xlink:href="#DejaVuSans-5f" x="376.5625"/>
    <use xlink:href="#DejaVuSans-72" x="426.5625"/>
    <use xlink:href="#DejaVuSans-20" x="467.675781"/>
    <use xlink:href="#DejaVuSans-2d" x="499.462891"/>
    <use xlink:href="#DejaVuSans-20" x="535.546875"/>
    <use xlink:href="#DejaVuSans-68" x="567.333984"/>
    <use xlink:href="#DejaVuSans-69" x="630.712891"/>
    <use xlink:href="#DejaVuSans-70" x="658.496094"/>
    <use xlink:href="#DejaVuSans-5f" x="721.972656"/>
    <use xlink:href="#DejaVuSans-66" x="771.972656"/>
    <use xlink:href="#DejaVuSans-6c" x="807.177734"/>
    <use xlink:href="#DejaVuSans-65" x="834.960938"/>
    <use xlink:href="#DejaVuSans-78" x="894.734375"/>
    <use xlink:href="#DejaVuSans-69" x="953.914062"/>
    <use xlink:href="#DejaVuSans-6f" x="981.697266"/>
    <use xlink:href="#DejaVuSans-6e" x="1042.878906"/>
    <use xlink:href="#DejaVuSans-5f" x="1106.257812"/>
    <use xlink:href="#DejaVuSans-72" x="1156.257812"/>
    <use xlink:href="#DejaVuSans-20" x="1197.371094"/>
    <use xlink:href="#DejaVuSans-2d" x="1229.158203"/>
    <use xlink:href="#DejaVuSans-20" x="1265.242188"/>
    <use xlink:href="#DejaVuSans-6b" x="1297.029297"/>
    <use xlink:href="#DejaVuSans-6e" x="1354.939453"/>
    <use xlink:href="#DejaVuSans-65" x="1418.318359"/>
    <use xlink:href="#DejaVuSans-65" x="1479.841797"/>
    <use xlink:href="#DejaVuSans-5f" x="1541.365234"/>
    <use xlink:href="#DejaVuSans-61" x="1591.365234"/>
    <use xlink:href="#DejaVuSans-6e" x="1652.644531"/>
    <use xlink:href="#DejaVuSans-67" x="1716.023438"/>
    <use xlink:href="#DejaVuSans-6c" x="1779.5"/>
    <use xlink:href="#DejaVuSans-65" x="1807.283203"/>
    <use xlink:href="#DejaVuSans-5f" x="1868.806641"/>
    <use xlink:href="#DejaVuSans-72" x="1918.806641"/>
   </g>
  </g>
 </g>
 <defs>
  <clipPath id="pacf9244085">
   <rect x="90" y="69.12" width="253.636364" height="443.52"/>
  </clipPath>
  <clipPath id="p19635d6b22">
   <rect x="394.363636" y="69.12" width="253.636364" height="443.52"/>
  </clipPath>
 </defs>
</svg>
