<?xml version="1.0" encoding="utf-8" standalone="no"?>
<!DOCTYPE svg PUBLIC "-//W3C//DTD SVG 1.1//EN"
  "http://www.w3.org/Graphics/SVG/1.1/DTD/svg11.dtd">
<svg xmlns:xlink="http://www.w3.org/1999/xlink" width="720pt" height="576pt" viewBox="0 0 720 576" xmlns="http://www.w3.org/2000/svg" version="1.1">
 <metadata>
  <rdf:RDF xmlns:dc="http://purl.org/dc/elements/1.1/" xmlns:cc="http://creativecommons.org/ns#" xmlns:rdf="http://www.w3.org/1999/02/22-rdf-syntax-ns#">
   <cc:Work>
    <dc:type rdf:resource="http://purl.org/dc/dcmitype/StillImage"/>
    <dc:date>2023-06-27T19:40:47.838828</dc:date>
    <dc:format>image/svg+xml</dc:format>
    <dc:creator>
     <cc:Agent>
      <dc:title>Matplotlib v3.5.3, https://matplotlib.org/</dc:title>
     </cc:Agent>
    </dc:creator>
   </cc:Work>
  </rdf:RDF>
 </metadata>
 <defs>
  <style type="text/css">*{stroke-linejoin: round; stroke-linecap: butt}</style>
 </defs>
 <g id="figure_1">
  <g id="patch_1">
   <path d="M 0 576 
L 720 576 
L 720 0 
L 0 0 
z
" style="fill: #ffffff"/>
  </g>
  <g id="axes_1">
   <g id="patch_2">
    <path d="M 90 512.64 
L 648 512.64 
L 648 69.12 
L 90 69.12 
z
" style="fill: #ffffff"/>
   </g>
   <g id="matplotlib.axis_1">
    <g id="xtick_1">
     <g id="text_1">
      <!-- −1.5 -->
      <g style="fill: #262626" transform="translate(137.660149 530.498281)scale(0.11 -0.11)">
       <defs>
        <path id="DejaVuSans-2212" d="M 678 2272 
L 4684 2272 
L 4684 1741 
L 678 1741 
L 678 2272 
z
" transform="scale(0.015625)"/>
        <path id="DejaVuSans-31" d="M 794 531 
L 1825 531 
L 1825 4091 
L 703 3866 
L 703 4441 
L 1819 4666 
L 2450 4666 
L 2450 531 
L 3481 531 
L 3481 0 
L 794 0 
L 794 531 
z
" transform="scale(0.015625)"/>
        <path id="DejaVuSans-2e" d="M 684 794 
L 1344 794 
L 1344 0 
L 684 0 
L 684 794 
z
" transform="scale(0.015625)"/>
        <path id="DejaVuSans-35" d="M 691 4666 
L 3169 4666 
L 3169 4134 
L 1269 4134 
L 1269 2991 
Q 1406 3038 1543 3061 
Q 1681 3084 1819 3084 
Q 2600 3084 3056 2656 
Q 3513 2228 3513 1497 
Q 3513 744 3044 326 
Q 2575 -91 1722 -91 
Q 1428 -91 1123 -41 
Q 819 9 494 109 
L 494 744 
Q 775 591 1075 516 
Q 1375 441 1709 441 
Q 2250 441 2565 725 
Q 2881 1009 2881 1497 
Q 2881 1984 2565 2268 
Q 2250 2553 1709 2553 
Q 1456 2553 1204 2497 
Q 953 2441 691 2322 
L 691 4666 
z
" transform="scale(0.015625)"/>
       </defs>
       <use xlink:href="#DejaVuSans-2212"/>
       <use xlink:href="#DejaVuSans-31" x="83.789062"/>
       <use xlink:href="#DejaVuSans-2e" x="147.412109"/>
       <use xlink:href="#DejaVuSans-35" x="179.199219"/>
      </g>
     </g>
    </g>
    <g id="xtick_2">
     <g id="text_2">
      <!-- −1.0 -->
      <g style="fill: #262626" transform="translate(210.321584 530.498281)scale(0.11 -0.11)">
       <defs>
        <path id="DejaVuSans-30" d="M 2034 4250 
Q 1547 4250 1301 3770 
Q 1056 3291 1056 2328 
Q 1056 1369 1301 889 
Q 1547 409 2034 409 
Q 2525 409 2770 889 
Q 3016 1369 3016 2328 
Q 3016 3291 2770 3770 
Q 2525 4250 2034 4250 
z
M 2034 4750 
Q 2819 4750 3233 4129 
Q 3647 3509 3647 2328 
Q 3647 1150 3233 529 
Q 2819 -91 2034 -91 
Q 1250 -91 836 529 
Q 422 1150 422 2328 
Q 422 3509 836 4129 
Q 1250 4750 2034 4750 
z
" transform="scale(0.015625)"/>
       </defs>
       <use xlink:href="#DejaVuSans-2212"/>
       <use xlink:href="#DejaVuSans-31" x="83.789062"/>
       <use xlink:href="#DejaVuSans-2e" x="147.412109"/>
       <use xlink:href="#DejaVuSans-30" x="179.199219"/>
      </g>
     </g>
    </g>
    <g id="xtick_3">
     <g id="text_3">
      <!-- −0.5 -->
      <g style="fill: #262626" transform="translate(282.983018 530.498281)scale(0.11 -0.11)">
       <use xlink:href="#DejaVuSans-2212"/>
       <use xlink:href="#DejaVuSans-30" x="83.789062"/>
       <use xlink:href="#DejaVuSans-2e" x="147.412109"/>
       <use xlink:href="#DejaVuSans-35" x="179.199219"/>
      </g>
     </g>
    </g>
    <g id="xtick_4">
     <g id="text_4">
      <!-- 0.0 -->
      <g style="fill: #262626" transform="translate(360.253281 530.498281)scale(0.11 -0.11)">
       <use xlink:href="#DejaVuSans-30"/>
       <use xlink:href="#DejaVuSans-2e" x="63.623047"/>
       <use xlink:href="#DejaVuSans-30" x="95.410156"/>
      </g>
     </g>
    </g>
    <g id="xtick_5">
     <g id="text_5">
      <!-- 0.5 -->
      <g style="fill: #262626" transform="translate(432.914716 530.498281)scale(0.11 -0.11)">
       <use xlink:href="#DejaVuSans-30"/>
       <use xlink:href="#DejaVuSans-2e" x="63.623047"/>
       <use xlink:href="#DejaVuSans-35" x="95.410156"/>
      </g>
     </g>
    </g>
    <g id="xtick_6">
     <g id="text_6">
      <!-- 1.0 -->
      <g style="fill: #262626" transform="translate(505.576151 530.498281)scale(0.11 -0.11)">
       <use xlink:href="#DejaVuSans-31"/>
       <use xlink:href="#DejaVuSans-2e" x="63.623047"/>
       <use xlink:href="#DejaVuSans-30" x="95.410156"/>
      </g>
     </g>
    </g>
    <g id="xtick_7">
     <g id="text_7">
      <!-- 1.5 -->
      <g style="fill: #262626" transform="translate(578.237585 530.498281)scale(0.11 -0.11)">
       <use xlink:href="#DejaVuSans-31"/>
       <use xlink:href="#DejaVuSans-2e" x="63.623047"/>
       <use xlink:href="#DejaVuSans-35" x="95.410156"/>
      </g>
     </g>
    </g>
    <g id="text_8">
     <!-- Independent joint value (pitch1) -->
     <g style="fill: #262626" transform="translate(272.26875 545.904063)scale(0.12 -0.12)">
      <defs>
       <path id="DejaVuSans-49" d="M 628 4666 
L 1259 4666 
L 1259 0 
L 628 0 
L 628 4666 
z
" transform="scale(0.015625)"/>
       <path id="DejaVuSans-6e" d="M 3513 2113 
L 3513 0 
L 2938 0 
L 2938 2094 
Q 2938 2591 2744 2837 
Q 2550 3084 2163 3084 
Q 1697 3084 1428 2787 
Q 1159 2491 1159 1978 
L 1159 0 
L 581 0 
L 581 3500 
L 1159 3500 
L 1159 2956 
Q 1366 3272 1645 3428 
Q 1925 3584 2291 3584 
Q 2894 3584 3203 3211 
Q 3513 2838 3513 2113 
z
" transform="scale(0.015625)"/>
       <path id="DejaVuSans-64" d="M 2906 2969 
L 2906 4863 
L 3481 4863 
L 3481 0 
L 2906 0 
L 2906 525 
Q 2725 213 2448 61 
Q 2172 -91 1784 -91 
Q 1150 -91 751 415 
Q 353 922 353 1747 
Q 353 2572 751 3078 
Q 1150 3584 1784 3584 
Q 2172 3584 2448 3432 
Q 2725 3281 2906 2969 
z
M 947 1747 
Q 947 1113 1208 752 
Q 1469 391 1925 391 
Q 2381 391 2643 752 
Q 2906 1113 2906 1747 
Q 2906 2381 2643 2742 
Q 2381 3103 1925 3103 
Q 1469 3103 1208 2742 
Q 947 2381 947 1747 
z
" transform="scale(0.015625)"/>
       <path id="DejaVuSans-65" d="M 3597 1894 
L 3597 1613 
L 953 1613 
Q 991 1019 1311 708 
Q 1631 397 2203 397 
Q 2534 397 2845 478 
Q 3156 559 3463 722 
L 3463 178 
Q 3153 47 2828 -22 
Q 2503 -91 2169 -91 
Q 1331 -91 842 396 
Q 353 884 353 1716 
Q 353 2575 817 3079 
Q 1281 3584 2069 3584 
Q 2775 3584 3186 3129 
Q 3597 2675 3597 1894 
z
M 3022 2063 
Q 3016 2534 2758 2815 
Q 2500 3097 2075 3097 
Q 1594 3097 1305 2825 
Q 1016 2553 972 2059 
L 3022 2063 
z
" transform="scale(0.015625)"/>
       <path id="DejaVuSans-70" d="M 1159 525 
L 1159 -1331 
L 581 -1331 
L 581 3500 
L 1159 3500 
L 1159 2969 
Q 1341 3281 1617 3432 
Q 1894 3584 2278 3584 
Q 2916 3584 3314 3078 
Q 3713 2572 3713 1747 
Q 3713 922 3314 415 
Q 2916 -91 2278 -91 
Q 1894 -91 1617 61 
Q 1341 213 1159 525 
z
M 3116 1747 
Q 3116 2381 2855 2742 
Q 2594 3103 2138 3103 
Q 1681 3103 1420 2742 
Q 1159 2381 1159 1747 
Q 1159 1113 1420 752 
Q 1681 391 2138 391 
Q 2594 391 2855 752 
Q 3116 1113 3116 1747 
z
" transform="scale(0.015625)"/>
       <path id="DejaVuSans-74" d="M 1172 4494 
L 1172 3500 
L 2356 3500 
L 2356 3053 
L 1172 3053 
L 1172 1153 
Q 1172 725 1289 603 
Q 1406 481 1766 481 
L 2356 481 
L 2356 0 
L 1766 0 
Q 1100 0 847 248 
Q 594 497 594 1153 
L 594 3053 
L 172 3053 
L 172 3500 
L 594 3500 
L 594 4494 
L 1172 4494 
z
" transform="scale(0.015625)"/>
       <path id="DejaVuSans-20" transform="scale(0.015625)"/>
       <path id="DejaVuSans-6a" d="M 603 3500 
L 1178 3500 
L 1178 -63 
Q 1178 -731 923 -1031 
Q 669 -1331 103 -1331 
L -116 -1331 
L -116 -844 
L 38 -844 
Q 366 -844 484 -692 
Q 603 -541 603 -63 
L 603 3500 
z
M 603 4863 
L 1178 4863 
L 1178 4134 
L 603 4134 
L 603 4863 
z
" transform="scale(0.015625)"/>
       <path id="DejaVuSans-6f" d="M 1959 3097 
Q 1497 3097 1228 2736 
Q 959 2375 959 1747 
Q 959 1119 1226 758 
Q 1494 397 1959 397 
Q 2419 397 2687 759 
Q 2956 1122 2956 1747 
Q 2956 2369 2687 2733 
Q 2419 3097 1959 3097 
z
M 1959 3584 
Q 2709 3584 3137 3096 
Q 3566 2609 3566 1747 
Q 3566 888 3137 398 
Q 2709 -91 1959 -91 
Q 1206 -91 779 398 
Q 353 888 353 1747 
Q 353 2609 779 3096 
Q 1206 3584 1959 3584 
z
" transform="scale(0.015625)"/>
       <path id="DejaVuSans-69" d="M 603 3500 
L 1178 3500 
L 1178 0 
L 603 0 
L 603 3500 
z
M 603 4863 
L 1178 4863 
L 1178 4134 
L 603 4134 
L 603 4863 
z
" transform="scale(0.015625)"/>
       <path id="DejaVuSans-76" d="M 191 3500 
L 800 3500 
L 1894 563 
L 2988 3500 
L 3597 3500 
L 2284 0 
L 1503 0 
L 191 3500 
z
" transform="scale(0.015625)"/>
       <path id="DejaVuSans-61" d="M 2194 1759 
Q 1497 1759 1228 1600 
Q 959 1441 959 1056 
Q 959 750 1161 570 
Q 1363 391 1709 391 
Q 2188 391 2477 730 
Q 2766 1069 2766 1631 
L 2766 1759 
L 2194 1759 
z
M 3341 1997 
L 3341 0 
L 2766 0 
L 2766 531 
Q 2569 213 2275 61 
Q 1981 -91 1556 -91 
Q 1019 -91 701 211 
Q 384 513 384 1019 
Q 384 1609 779 1909 
Q 1175 2209 1959 2209 
L 2766 2209 
L 2766 2266 
Q 2766 2663 2505 2880 
Q 2244 3097 1772 3097 
Q 1472 3097 1187 3025 
Q 903 2953 641 2809 
L 641 3341 
Q 956 3463 1253 3523 
Q 1550 3584 1831 3584 
Q 2591 3584 2966 3190 
Q 3341 2797 3341 1997 
z
" transform="scale(0.015625)"/>
       <path id="DejaVuSans-6c" d="M 603 4863 
L 1178 4863 
L 1178 0 
L 603 0 
L 603 4863 
z
" transform="scale(0.015625)"/>
       <path id="DejaVuSans-75" d="M 544 1381 
L 544 3500 
L 1119 3500 
L 1119 1403 
Q 1119 906 1312 657 
Q 1506 409 1894 409 
Q 2359 409 2629 706 
Q 2900 1003 2900 1516 
L 2900 3500 
L 3475 3500 
L 3475 0 
L 2900 0 
L 2900 538 
Q 2691 219 2414 64 
Q 2138 -91 1772 -91 
Q 1169 -91 856 284 
Q 544 659 544 1381 
z
M 1991 3584 
L 1991 3584 
z
" transform="scale(0.015625)"/>
       <path id="DejaVuSans-28" d="M 1984 4856 
Q 1566 4138 1362 3434 
Q 1159 2731 1159 2009 
Q 1159 1288 1364 580 
Q 1569 -128 1984 -844 
L 1484 -844 
Q 1016 -109 783 600 
Q 550 1309 550 2009 
Q 550 2706 781 3412 
Q 1013 4119 1484 4856 
L 1984 4856 
z
" transform="scale(0.015625)"/>
       <path id="DejaVuSans-63" d="M 3122 3366 
L 3122 2828 
Q 2878 2963 2633 3030 
Q 2388 3097 2138 3097 
Q 1578 3097 1268 2742 
Q 959 2388 959 1747 
Q 959 1106 1268 751 
Q 1578 397 2138 397 
Q 2388 397 2633 464 
Q 2878 531 3122 666 
L 3122 134 
Q 2881 22 2623 -34 
Q 2366 -91 2075 -91 
Q 1284 -91 818 406 
Q 353 903 353 1747 
Q 353 2603 823 3093 
Q 1294 3584 2113 3584 
Q 2378 3584 2631 3529 
Q 2884 3475 3122 3366 
z
" transform="scale(0.015625)"/>
       <path id="DejaVuSans-68" d="M 3513 2113 
L 3513 0 
L 2938 0 
L 2938 2094 
Q 2938 2591 2744 2837 
Q 2550 3084 2163 3084 
Q 1697 3084 1428 2787 
Q 1159 2491 1159 1978 
L 1159 0 
L 581 0 
L 581 4863 
L 1159 4863 
L 1159 2956 
Q 1366 3272 1645 3428 
Q 1925 3584 2291 3584 
Q 2894 3584 3203 3211 
Q 3513 2838 3513 2113 
z
" transform="scale(0.015625)"/>
       <path id="DejaVuSans-29" d="M 513 4856 
L 1013 4856 
Q 1481 4119 1714 3412 
Q 1947 2706 1947 2009 
Q 1947 1309 1714 600 
Q 1481 -109 1013 -844 
L 513 -844 
Q 928 -128 1133 580 
Q 1338 1288 1338 2009 
Q 1338 2731 1133 3434 
Q 928 4138 513 4856 
z
" transform="scale(0.015625)"/>
      </defs>
      <use xlink:href="#DejaVuSans-49"/>
      <use xlink:href="#DejaVuSans-6e" x="29.492188"/>
      <use xlink:href="#DejaVuSans-64" x="92.871094"/>
      <use xlink:href="#DejaVuSans-65" x="156.347656"/>
      <use xlink:href="#DejaVuSans-70" x="217.871094"/>
      <use xlink:href="#DejaVuSans-65" x="281.347656"/>
      <use xlink:href="#DejaVuSans-6e" x="342.871094"/>
      <use xlink:href="#DejaVuSans-64" x="406.25"/>
      <use xlink:href="#DejaVuSans-65" x="469.726562"/>
      <use xlink:href="#DejaVuSans-6e" x="531.25"/>
      <use xlink:href="#DejaVuSans-74" x="594.628906"/>
      <use xlink:href="#DejaVuSans-20" x="633.837891"/>
      <use xlink:href="#DejaVuSans-6a" x="665.625"/>
      <use xlink:href="#DejaVuSans-6f" x="693.408203"/>
      <use xlink:href="#DejaVuSans-69" x="754.589844"/>
      <use xlink:href="#DejaVuSans-6e" x="782.373047"/>
      <use xlink:href="#DejaVuSans-74" x="845.751953"/>
      <use xlink:href="#DejaVuSans-20" x="884.960938"/>
      <use xlink:href="#DejaVuSans-76" x="916.748047"/>
      <use xlink:href="#DejaVuSans-61" x="975.927734"/>
      <use xlink:href="#DejaVuSans-6c" x="1037.207031"/>
      <use xlink:href="#DejaVuSans-75" x="1064.990234"/>
      <use xlink:href="#DejaVuSans-65" x="1128.369141"/>
      <use xlink:href="#DejaVuSans-20" x="1189.892578"/>
      <use xlink:href="#DejaVuSans-28" x="1221.679688"/>
      <use xlink:href="#DejaVuSans-70" x="1260.693359"/>
      <use xlink:href="#DejaVuSans-69" x="1324.169922"/>
      <use xlink:href="#DejaVuSans-74" x="1351.953125"/>
      <use xlink:href="#DejaVuSans-63" x="1391.162109"/>
      <use xlink:href="#DejaVuSans-68" x="1446.142578"/>
      <use xlink:href="#DejaVuSans-31" x="1509.521484"/>
      <use xlink:href="#DejaVuSans-29" x="1573.144531"/>
     </g>
    </g>
   </g>
   <g id="matplotlib.axis_2">
    <g id="ytick_1">
     <g id="text_9">
      <!-- −1.00 -->
      <g style="fill: #262626" transform="translate(46.790156 502.80788)scale(0.11 -0.11)">
       <use xlink:href="#DejaVuSans-2212"/>
       <use xlink:href="#DejaVuSans-31" x="83.789062"/>
       <use xlink:href="#DejaVuSans-2e" x="147.412109"/>
       <use xlink:href="#DejaVuSans-30" x="179.199219"/>
       <use xlink:href="#DejaVuSans-30" x="242.822266"/>
      </g>
     </g>
    </g>
    <g id="ytick_2">
     <g id="text_10">
      <!-- −0.75 -->
      <g style="fill: #262626" transform="translate(46.790156 450.870695)scale(0.11 -0.11)">
       <defs>
        <path id="DejaVuSans-37" d="M 525 4666 
L 3525 4666 
L 3525 4397 
L 1831 0 
L 1172 0 
L 2766 4134 
L 525 4134 
L 525 4666 
z
" transform="scale(0.015625)"/>
       </defs>
       <use xlink:href="#DejaVuSans-2212"/>
       <use xlink:href="#DejaVuSans-30" x="83.789062"/>
       <use xlink:href="#DejaVuSans-2e" x="147.412109"/>
       <use xlink:href="#DejaVuSans-37" x="179.199219"/>
       <use xlink:href="#DejaVuSans-35" x="242.822266"/>
      </g>
     </g>
    </g>
    <g id="ytick_3">
     <g id="text_11">
      <!-- −0.50 -->
      <g style="fill: #262626" transform="translate(46.790156 398.93351)scale(0.11 -0.11)">
       <use xlink:href="#DejaVuSans-2212"/>
       <use xlink:href="#DejaVuSans-30" x="83.789062"/>
       <use xlink:href="#DejaVuSans-2e" x="147.412109"/>
       <use xlink:href="#DejaVuSans-35" x="179.199219"/>
       <use xlink:href="#DejaVuSans-30" x="242.822266"/>
      </g>
     </g>
    </g>
    <g id="ytick_4">
     <g id="text_12">
      <!-- −0.25 -->
      <g style="fill: #262626" transform="translate(46.790156 346.996325)scale(0.11 -0.11)">
       <defs>
        <path id="DejaVuSans-32" d="M 1228 531 
L 3431 531 
L 3431 0 
L 469 0 
L 469 531 
Q 828 903 1448 1529 
Q 2069 2156 2228 2338 
Q 2531 2678 2651 2914 
Q 2772 3150 2772 3378 
Q 2772 3750 2511 3984 
Q 2250 4219 1831 4219 
Q 1534 4219 1204 4116 
Q 875 4013 500 3803 
L 500 4441 
Q 881 4594 1212 4672 
Q 1544 4750 1819 4750 
Q 2544 4750 2975 4387 
Q 3406 4025 3406 3419 
Q 3406 3131 3298 2873 
Q 3191 2616 2906 2266 
Q 2828 2175 2409 1742 
Q 1991 1309 1228 531 
z
" transform="scale(0.015625)"/>
       </defs>
       <use xlink:href="#DejaVuSans-2212"/>
       <use xlink:href="#DejaVuSans-30" x="83.789062"/>
       <use xlink:href="#DejaVuSans-2e" x="147.412109"/>
       <use xlink:href="#DejaVuSans-32" x="179.199219"/>
       <use xlink:href="#DejaVuSans-35" x="242.822266"/>
      </g>
     </g>
    </g>
    <g id="ytick_5">
     <g id="text_13">
      <!-- 0.00 -->
      <g style="fill: #262626" transform="translate(56.007812 295.059141)scale(0.11 -0.11)">
       <use xlink:href="#DejaVuSans-30"/>
       <use xlink:href="#DejaVuSans-2e" x="63.623047"/>
       <use xlink:href="#DejaVuSans-30" x="95.410156"/>
       <use xlink:href="#DejaVuSans-30" x="159.033203"/>
      </g>
     </g>
    </g>
    <g id="ytick_6">
     <g id="text_14">
      <!-- 0.25 -->
      <g style="fill: #262626" transform="translate(56.007812 243.121956)scale(0.11 -0.11)">
       <use xlink:href="#DejaVuSans-30"/>
       <use xlink:href="#DejaVuSans-2e" x="63.623047"/>
       <use xlink:href="#DejaVuSans-32" x="95.410156"/>
       <use xlink:href="#DejaVuSans-35" x="159.033203"/>
      </g>
     </g>
    </g>
    <g id="ytick_7">
     <g id="text_15">
      <!-- 0.50 -->
      <g style="fill: #262626" transform="translate(56.007812 191.184771)scale(0.11 -0.11)">
       <use xlink:href="#DejaVuSans-30"/>
       <use xlink:href="#DejaVuSans-2e" x="63.623047"/>
       <use xlink:href="#DejaVuSans-35" x="95.410156"/>
       <use xlink:href="#DejaVuSans-30" x="159.033203"/>
      </g>
     </g>
    </g>
    <g id="ytick_8">
     <g id="text_16">
      <!-- 0.75 -->
      <g style="fill: #262626" transform="translate(56.007812 139.247586)scale(0.11 -0.11)">
       <use xlink:href="#DejaVuSans-30"/>
       <use xlink:href="#DejaVuSans-2e" x="63.623047"/>
       <use xlink:href="#DejaVuSans-37" x="95.410156"/>
       <use xlink:href="#DejaVuSans-35" x="159.033203"/>
      </g>
     </g>
    </g>
    <g id="ytick_9">
     <g id="text_17">
      <!-- 1.00 -->
      <g style="fill: #262626" transform="translate(56.007812 87.310401)scale(0.11 -0.11)">
       <use xlink:href="#DejaVuSans-31"/>
       <use xlink:href="#DejaVuSans-2e" x="63.623047"/>
       <use xlink:href="#DejaVuSans-30" x="95.410156"/>
       <use xlink:href="#DejaVuSans-30" x="159.033203"/>
      </g>
     </g>
    </g>
    <g id="text_18">
     <!-- Dependent joint value (aux1jnt_r3) -->
     <g style="fill: #262626" transform="translate(39.960781 396.05625)rotate(-90)scale(0.12 -0.12)">
      <defs>
       <path id="DejaVuSans-44" d="M 1259 4147 
L 1259 519 
L 2022 519 
Q 2988 519 3436 956 
Q 3884 1394 3884 2338 
Q 3884 3275 3436 3711 
Q 2988 4147 2022 4147 
L 1259 4147 
z
M 628 4666 
L 1925 4666 
Q 3281 4666 3915 4102 
Q 4550 3538 4550 2338 
Q 4550 1131 3912 565 
Q 3275 0 1925 0 
L 628 0 
L 628 4666 
z
" transform="scale(0.015625)"/>
       <path id="DejaVuSans-78" d="M 3513 3500 
L 2247 1797 
L 3578 0 
L 2900 0 
L 1881 1375 
L 863 0 
L 184 0 
L 1544 1831 
L 300 3500 
L 978 3500 
L 1906 2253 
L 2834 3500 
L 3513 3500 
z
" transform="scale(0.015625)"/>
       <path id="DejaVuSans-5f" d="M 3263 -1063 
L 3263 -1509 
L -63 -1509 
L -63 -1063 
L 3263 -1063 
z
" transform="scale(0.015625)"/>
       <path id="DejaVuSans-72" d="M 2631 2963 
Q 2534 3019 2420 3045 
Q 2306 3072 2169 3072 
Q 1681 3072 1420 2755 
Q 1159 2438 1159 1844 
L 1159 0 
L 581 0 
L 581 3500 
L 1159 3500 
L 1159 2956 
Q 1341 3275 1631 3429 
Q 1922 3584 2338 3584 
Q 2397 3584 2469 3576 
Q 2541 3569 2628 3553 
L 2631 2963 
z
" transform="scale(0.015625)"/>
       <path id="DejaVuSans-33" d="M 2597 2516 
Q 3050 2419 3304 2112 
Q 3559 1806 3559 1356 
Q 3559 666 3084 287 
Q 2609 -91 1734 -91 
Q 1441 -91 1130 -33 
Q 819 25 488 141 
L 488 750 
Q 750 597 1062 519 
Q 1375 441 1716 441 
Q 2309 441 2620 675 
Q 2931 909 2931 1356 
Q 2931 1769 2642 2001 
Q 2353 2234 1838 2234 
L 1294 2234 
L 1294 2753 
L 1863 2753 
Q 2328 2753 2575 2939 
Q 2822 3125 2822 3475 
Q 2822 3834 2567 4026 
Q 2313 4219 1838 4219 
Q 1578 4219 1281 4162 
Q 984 4106 628 3988 
L 628 4550 
Q 988 4650 1302 4700 
Q 1616 4750 1894 4750 
Q 2613 4750 3031 4423 
Q 3450 4097 3450 3541 
Q 3450 3153 3228 2886 
Q 3006 2619 2597 2516 
z
" transform="scale(0.015625)"/>
      </defs>
      <use xlink:href="#DejaVuSans-44"/>
      <use xlink:href="#DejaVuSans-65" x="77.001953"/>
      <use xlink:href="#DejaVuSans-70" x="138.525391"/>
      <use xlink:href="#DejaVuSans-65" x="202.001953"/>
      <use xlink:href="#DejaVuSans-6e" x="263.525391"/>
      <use xlink:href="#DejaVuSans-64" x="326.904297"/>
      <use xlink:href="#DejaVuSans-65" x="390.380859"/>
      <use xlink:href="#DejaVuSans-6e" x="451.904297"/>
      <use xlink:href="#DejaVuSans-74" x="515.283203"/>
      <use xlink:href="#DejaVuSans-20" x="554.492188"/>
      <use xlink:href="#DejaVuSans-6a" x="586.279297"/>
      <use xlink:href="#DejaVuSans-6f" x="614.0625"/>
      <use xlink:href="#DejaVuSans-69" x="675.244141"/>
      <use xlink:href="#DejaVuSans-6e" x="703.027344"/>
      <use xlink:href="#DejaVuSans-74" x="766.40625"/>
      <use xlink:href="#DejaVuSans-20" x="805.615234"/>
      <use xlink:href="#DejaVuSans-76" x="837.402344"/>
      <use xlink:href="#DejaVuSans-61" x="896.582031"/>
      <use xlink:href="#DejaVuSans-6c" x="957.861328"/>
      <use xlink:href="#DejaVuSans-75" x="985.644531"/>
      <use xlink:href="#DejaVuSans-65" x="1049.023438"/>
      <use xlink:href="#DejaVuSans-20" x="1110.546875"/>
      <use xlink:href="#DejaVuSans-28" x="1142.333984"/>
      <use xlink:href="#DejaVuSans-61" x="1181.347656"/>
      <use xlink:href="#DejaVuSans-75" x="1242.626953"/>
      <use xlink:href="#DejaVuSans-78" x="1306.005859"/>
      <use xlink:href="#DejaVuSans-31" x="1365.185547"/>
      <use xlink:href="#DejaVuSans-6a" x="1428.808594"/>
      <use xlink:href="#DejaVuSans-6e" x="1456.591797"/>
      <use xlink:href="#DejaVuSans-74" x="1519.970703"/>
      <use xlink:href="#DejaVuSans-5f" x="1559.179688"/>
      <use xlink:href="#DejaVuSans-72" x="1609.179688"/>
      <use xlink:href="#DejaVuSans-33" x="1650.292969"/>
      <use xlink:href="#DejaVuSans-29" x="1713.916016"/>
     </g>
    </g>
   </g>
   <g id="line2d_1">
    <defs>
     <path id="m263ffbe987" d="M 0 2.5 
C 0.663008 2.5 1.29895 2.236584 1.767767 1.767767 
C 2.236584 1.29895 2.5 0.663008 2.5 0 
C 2.5 -0.663008 2.236584 -1.29895 1.767767 -1.767767 
C 1.29895 -2.236584 0.663008 -2.5 0 -2.5 
C -0.663008 -2.5 -1.29895 -2.236584 -1.767767 -1.767767 
C -2.236584 -1.29895 -2.5 -0.663008 -2.5 0 
C -2.5 0.663008 -2.236584 1.29895 -1.767767 1.767767 
C -1.29895 2.236584 -0.663008 2.5 0 2.5 
z
" style="stroke: #4c72b0"/>
    </defs>
    <g clip-path="url(#pf7e01aa01a)">
     <use xlink:href="#m263ffbe987" x="115.363636" y="492.48" style="fill: #4c72b0; stroke: #4c72b0"/>
     <use xlink:href="#m263ffbe987" x="622.636364" y="89.28" style="fill: #4c72b0; stroke: #4c72b0"/>
    </g>
   </g>
   <g id="line2d_2">
    <path d="M 115.363636 492.48 
L 120.487603 488.407273 
L 125.61157 484.334545 
L 130.735537 480.261818 
L 135.859504 476.189091 
L 140.983471 472.116364 
L 146.107438 468.043636 
L 151.231405 463.970909 
L 156.355372 459.898182 
L 161.479339 455.825455 
L 166.603306 451.752727 
L 171.727273 447.68 
L 176.85124 443.607273 
L 181.975207 439.534545 
L 187.099174 435.461818 
L 192.22314 431.389091 
L 197.347107 427.316364 
L 202.471074 423.243636 
L 207.595041 419.170909 
L 212.719008 415.098182 
L 217.842975 411.025455 
L 222.966942 406.952727 
L 228.090909 402.88 
L 233.214876 398.807273 
L 238.338843 394.734545 
L 243.46281 390.661818 
L 248.586777 386.589091 
L 253.710744 382.516364 
L 258.834711 378.443636 
L 263.958678 374.370909 
L 269.082645 370.298182 
L 274.206612 366.225455 
L 279.330579 362.152727 
L 284.454545 358.08 
L 289.578512 354.007273 
L 294.702479 349.934545 
L 299.826446 345.861818 
L 304.950413 341.789091 
L 310.07438 337.716364 
L 315.198347 333.643636 
L 320.322314 329.570909 
L 325.446281 325.498182 
L 330.570248 321.425455 
L 335.694215 317.352727 
L 340.818182 313.28 
L 345.942149 309.207273 
L 351.066116 305.134545 
L 356.190083 301.061818 
L 361.31405 296.989091 
L 366.438017 292.916364 
L 371.561983 288.843636 
L 376.68595 284.770909 
L 381.809917 280.698182 
L 386.933884 276.625455 
L 392.057851 272.552727 
L 397.181818 268.48 
L 402.305785 264.407273 
L 407.429752 260.334545 
L 412.553719 256.261818 
L 417.677686 252.189091 
L 422.801653 248.116364 
L 427.92562 244.043636 
L 433.049587 239.970909 
L 438.173554 235.898182 
L 443.297521 231.825455 
L 448.421488 227.752727 
L 453.545455 223.68 
L 458.669421 219.607273 
L 463.793388 215.534545 
L 468.917355 211.461818 
L 474.041322 207.389091 
L 479.165289 203.316364 
L 484.289256 199.243636 
L 489.413223 195.170909 
L 494.53719 191.098182 
L 499.661157 187.025455 
L 504.785124 182.952727 
L 509.909091 178.88 
L 515.033058 174.807273 
L 520.157025 170.734545 
L 525.280992 166.661818 
L 530.404959 162.589091 
L 535.528926 158.516364 
L 540.652893 154.443636 
L 545.77686 150.370909 
L 550.900826 146.298182 
L 556.024793 142.225455 
L 561.14876 138.152727 
L 566.272727 134.08 
L 571.396694 130.007273 
L 576.520661 125.934545 
L 581.644628 121.861818 
L 586.768595 117.789091 
L 591.892562 113.716364 
L 597.016529 109.643636 
L 602.140496 105.570909 
L 607.264463 101.498182 
L 612.38843 97.425455 
L 617.512397 93.352727 
L 622.636364 89.28 
" clip-path="url(#pf7e01aa01a)" style="fill: none; stroke: #dd8452; stroke-width: 1.5; stroke-linecap: round"/>
   </g>
   <g id="patch_3">
    <path d="M 90 512.64 
L 90 69.12 
" style="fill: none; stroke: #262626; stroke-width: 1.25; stroke-linejoin: miter; stroke-linecap: square"/>
   </g>
   <g id="patch_4">
    <path d="M 648 512.64 
L 648 69.12 
" style="fill: none; stroke: #262626; stroke-width: 1.25; stroke-linejoin: miter; stroke-linecap: square"/>
   </g>
   <g id="patch_5">
    <path d="M 90 512.64 
L 648 512.64 
" style="fill: none; stroke: #262626; stroke-width: 1.25; stroke-linejoin: miter; stroke-linecap: square"/>
   </g>
   <g id="patch_6">
    <path d="M 90 69.12 
L 648 69.12 
" style="fill: none; stroke: #262626; stroke-width: 1.25; stroke-linejoin: miter; stroke-linecap: square"/>
   </g>
   <g id="text_19">
    <!-- Approximation of CoordinateCouplerConstraint aux1jnt_r3_con -->
    <g style="fill: #262626" transform="translate(180.702188 63.12)scale(0.12 -0.12)">
     <defs>
      <path id="DejaVuSans-41" d="M 2188 4044 
L 1331 1722 
L 3047 1722 
L 2188 4044 
z
M 1831 4666 
L 2547 4666 
L 4325 0 
L 3669 0 
L 3244 1197 
L 1141 1197 
L 716 0 
L 50 0 
L 1831 4666 
z
" transform="scale(0.015625)"/>
      <path id="DejaVuSans-6d" d="M 3328 2828 
Q 3544 3216 3844 3400 
Q 4144 3584 4550 3584 
Q 5097 3584 5394 3201 
Q 5691 2819 5691 2113 
L 5691 0 
L 5113 0 
L 5113 2094 
Q 5113 2597 4934 2840 
Q 4756 3084 4391 3084 
Q 3944 3084 3684 2787 
Q 3425 2491 3425 1978 
L 3425 0 
L 2847 0 
L 2847 2094 
Q 2847 2600 2669 2842 
Q 2491 3084 2119 3084 
Q 1678 3084 1418 2786 
Q 1159 2488 1159 1978 
L 1159 0 
L 581 0 
L 581 3500 
L 1159 3500 
L 1159 2956 
Q 1356 3278 1631 3431 
Q 1906 3584 2284 3584 
Q 2666 3584 2933 3390 
Q 3200 3197 3328 2828 
z
" transform="scale(0.015625)"/>
      <path id="DejaVuSans-66" d="M 2375 4863 
L 2375 4384 
L 1825 4384 
Q 1516 4384 1395 4259 
Q 1275 4134 1275 3809 
L 1275 3500 
L 2222 3500 
L 2222 3053 
L 1275 3053 
L 1275 0 
L 697 0 
L 697 3053 
L 147 3053 
L 147 3500 
L 697 3500 
L 697 3744 
Q 697 4328 969 4595 
Q 1241 4863 1831 4863 
L 2375 4863 
z
" transform="scale(0.015625)"/>
      <path id="DejaVuSans-43" d="M 4122 4306 
L 4122 3641 
Q 3803 3938 3442 4084 
Q 3081 4231 2675 4231 
Q 1875 4231 1450 3742 
Q 1025 3253 1025 2328 
Q 1025 1406 1450 917 
Q 1875 428 2675 428 
Q 3081 428 3442 575 
Q 3803 722 4122 1019 
L 4122 359 
Q 3791 134 3420 21 
Q 3050 -91 2638 -91 
Q 1578 -91 968 557 
Q 359 1206 359 2328 
Q 359 3453 968 4101 
Q 1578 4750 2638 4750 
Q 3056 4750 3426 4639 
Q 3797 4528 4122 4306 
z
" transform="scale(0.015625)"/>
      <path id="DejaVuSans-73" d="M 2834 3397 
L 2834 2853 
Q 2591 2978 2328 3040 
Q 2066 3103 1784 3103 
Q 1356 3103 1142 2972 
Q 928 2841 928 2578 
Q 928 2378 1081 2264 
Q 1234 2150 1697 2047 
L 1894 2003 
Q 2506 1872 2764 1633 
Q 3022 1394 3022 966 
Q 3022 478 2636 193 
Q 2250 -91 1575 -91 
Q 1294 -91 989 -36 
Q 684 19 347 128 
L 347 722 
Q 666 556 975 473 
Q 1284 391 1588 391 
Q 1994 391 2212 530 
Q 2431 669 2431 922 
Q 2431 1156 2273 1281 
Q 2116 1406 1581 1522 
L 1381 1569 
Q 847 1681 609 1914 
Q 372 2147 372 2553 
Q 372 3047 722 3315 
Q 1072 3584 1716 3584 
Q 2034 3584 2315 3537 
Q 2597 3491 2834 3397 
z
" transform="scale(0.015625)"/>
     </defs>
     <use xlink:href="#DejaVuSans-41"/>
     <use xlink:href="#DejaVuSans-70" x="68.408203"/>
     <use xlink:href="#DejaVuSans-70" x="131.884766"/>
     <use xlink:href="#DejaVuSans-72" x="195.361328"/>
     <use xlink:href="#DejaVuSans-6f" x="234.224609"/>
     <use xlink:href="#DejaVuSans-78" x="292.28125"/>
     <use xlink:href="#DejaVuSans-69" x="351.460938"/>
     <use xlink:href="#DejaVuSans-6d" x="379.244141"/>
     <use xlink:href="#DejaVuSans-61" x="476.65625"/>
     <use xlink:href="#DejaVuSans-74" x="537.935547"/>
     <use xlink:href="#DejaVuSans-69" x="577.144531"/>
     <use xlink:href="#DejaVuSans-6f" x="604.927734"/>
     <use xlink:href="#DejaVuSans-6e" x="666.109375"/>
     <use xlink:href="#DejaVuSans-20" x="729.488281"/>
     <use xlink:href="#DejaVuSans-6f" x="761.275391"/>
     <use xlink:href="#DejaVuSans-66" x="822.457031"/>
     <use xlink:href="#DejaVuSans-20" x="857.662109"/>
     <use xlink:href="#DejaVuSans-43" x="889.449219"/>
     <use xlink:href="#DejaVuSans-6f" x="959.273438"/>
     <use xlink:href="#DejaVuSans-6f" x="1020.455078"/>
     <use xlink:href="#DejaVuSans-72" x="1081.636719"/>
     <use xlink:href="#DejaVuSans-64" x="1121"/>
     <use xlink:href="#DejaVuSans-69" x="1184.476562"/>
     <use xlink:href="#DejaVuSans-6e" x="1212.259766"/>
     <use xlink:href="#DejaVuSans-61" x="1275.638672"/>
     <use xlink:href="#DejaVuSans-74" x="1336.917969"/>
     <use xlink:href="#DejaVuSans-65" x="1376.126953"/>
     <use xlink:href="#DejaVuSans-43" x="1437.650391"/>
     <use xlink:href="#DejaVuSans-6f" x="1507.474609"/>
     <use xlink:href="#DejaVuSans-75" x="1568.65625"/>
     <use xlink:href="#DejaVuSans-70" x="1632.035156"/>
     <use xlink:href="#DejaVuSans-6c" x="1695.511719"/>
     <use xlink:href="#DejaVuSans-65" x="1723.294922"/>
     <use xlink:href="#DejaVuSans-72" x="1784.818359"/>
     <use xlink:href="#DejaVuSans-43" x="1825.931641"/>
     <use xlink:href="#DejaVuSans-6f" x="1895.755859"/>
     <use xlink:href="#DejaVuSans-6e" x="1956.9375"/>
     <use xlink:href="#DejaVuSans-73" x="2020.316406"/>
     <use xlink:href="#DejaVuSans-74" x="2072.416016"/>
     <use xlink:href="#DejaVuSans-72" x="2111.625"/>
     <use xlink:href="#DejaVuSans-61" x="2152.738281"/>
     <use xlink:href="#DejaVuSans-69" x="2214.017578"/>
     <use xlink:href="#DejaVuSans-6e" x="2241.800781"/>
     <use xlink:href="#DejaVuSans-74" x="2305.179688"/>
     <use xlink:href="#DejaVuSans-20" x="2344.388672"/>
     <use xlink:href="#DejaVuSans-61" x="2376.175781"/>
     <use xlink:href="#DejaVuSans-75" x="2437.455078"/>
     <use xlink:href="#DejaVuSans-78" x="2500.833984"/>
     <use xlink:href="#DejaVuSans-31" x="2560.013672"/>
     <use xlink:href="#DejaVuSans-6a" x="2623.636719"/>
     <use xlink:href="#DejaVuSans-6e" x="2651.419922"/>
     <use xlink:href="#DejaVuSans-74" x="2714.798828"/>
     <use xlink:href="#DejaVuSans-5f" x="2754.007812"/>
     <use xlink:href="#DejaVuSans-72" x="2804.007812"/>
     <use xlink:href="#DejaVuSans-33" x="2845.121094"/>
     <use xlink:href="#DejaVuSans-5f" x="2908.744141"/>
     <use xlink:href="#DejaVuSans-63" x="2958.744141"/>
     <use xlink:href="#DejaVuSans-6f" x="3013.724609"/>
     <use xlink:href="#DejaVuSans-6e" x="3074.90625"/>
    </g>
   </g>
   <g id="legend_1">
    <g id="patch_7">
     <path d="M 97.7 110.211875 
L 356.112344 110.211875 
Q 358.312344 110.211875 358.312344 108.011875 
L 358.312344 76.82 
Q 358.312344 74.62 356.112344 74.62 
L 97.7 74.62 
Q 95.5 74.62 95.5 76.82 
L 95.5 108.011875 
Q 95.5 110.211875 97.7 110.211875 
z
" style="fill: #ffffff; opacity: 0.8; stroke: #cccccc; stroke-linejoin: miter"/>
    </g>
    <g id="line2d_3">
     <g>
      <use xlink:href="#m263ffbe987" x="110.9" y="83.528281" style="fill: #4c72b0; stroke: #4c72b0"/>
     </g>
    </g>
    <g id="text_20">
     <!-- OpenSim constraint function data points -->
     <g style="fill: #262626" transform="translate(130.7 87.378281)scale(0.11 -0.11)">
      <defs>
       <path id="DejaVuSans-4f" d="M 2522 4238 
Q 1834 4238 1429 3725 
Q 1025 3213 1025 2328 
Q 1025 1447 1429 934 
Q 1834 422 2522 422 
Q 3209 422 3611 934 
Q 4013 1447 4013 2328 
Q 4013 3213 3611 3725 
Q 3209 4238 2522 4238 
z
M 2522 4750 
Q 3503 4750 4090 4092 
Q 4678 3434 4678 2328 
Q 4678 1225 4090 567 
Q 3503 -91 2522 -91 
Q 1538 -91 948 565 
Q 359 1222 359 2328 
Q 359 3434 948 4092 
Q 1538 4750 2522 4750 
z
" transform="scale(0.015625)"/>
       <path id="DejaVuSans-53" d="M 3425 4513 
L 3425 3897 
Q 3066 4069 2747 4153 
Q 2428 4238 2131 4238 
Q 1616 4238 1336 4038 
Q 1056 3838 1056 3469 
Q 1056 3159 1242 3001 
Q 1428 2844 1947 2747 
L 2328 2669 
Q 3034 2534 3370 2195 
Q 3706 1856 3706 1288 
Q 3706 609 3251 259 
Q 2797 -91 1919 -91 
Q 1588 -91 1214 -16 
Q 841 59 441 206 
L 441 856 
Q 825 641 1194 531 
Q 1563 422 1919 422 
Q 2459 422 2753 634 
Q 3047 847 3047 1241 
Q 3047 1584 2836 1778 
Q 2625 1972 2144 2069 
L 1759 2144 
Q 1053 2284 737 2584 
Q 422 2884 422 3419 
Q 422 4038 858 4394 
Q 1294 4750 2059 4750 
Q 2388 4750 2728 4690 
Q 3069 4631 3425 4513 
z
" transform="scale(0.015625)"/>
      </defs>
      <use xlink:href="#DejaVuSans-4f"/>
      <use xlink:href="#DejaVuSans-70" x="78.710938"/>
      <use xlink:href="#DejaVuSans-65" x="142.1875"/>
      <use xlink:href="#DejaVuSans-6e" x="203.710938"/>
      <use xlink:href="#DejaVuSans-53" x="267.089844"/>
      <use xlink:href="#DejaVuSans-69" x="330.566406"/>
      <use xlink:href="#DejaVuSans-6d" x="358.349609"/>
      <use xlink:href="#DejaVuSans-20" x="455.761719"/>
      <use xlink:href="#DejaVuSans-63" x="487.548828"/>
      <use xlink:href="#DejaVuSans-6f" x="542.529297"/>
      <use xlink:href="#DejaVuSans-6e" x="603.710938"/>
      <use xlink:href="#DejaVuSans-73" x="667.089844"/>
      <use xlink:href="#DejaVuSans-74" x="719.189453"/>
      <use xlink:href="#DejaVuSans-72" x="758.398438"/>
      <use xlink:href="#DejaVuSans-61" x="799.511719"/>
      <use xlink:href="#DejaVuSans-69" x="860.791016"/>
      <use xlink:href="#DejaVuSans-6e" x="888.574219"/>
      <use xlink:href="#DejaVuSans-74" x="951.953125"/>
      <use xlink:href="#DejaVuSans-20" x="991.162109"/>
      <use xlink:href="#DejaVuSans-66" x="1022.949219"/>
      <use xlink:href="#DejaVuSans-75" x="1058.154297"/>
      <use xlink:href="#DejaVuSans-6e" x="1121.533203"/>
      <use xlink:href="#DejaVuSans-63" x="1184.912109"/>
      <use xlink:href="#DejaVuSans-74" x="1239.892578"/>
      <use xlink:href="#DejaVuSans-69" x="1279.101562"/>
      <use xlink:href="#DejaVuSans-6f" x="1306.884766"/>
      <use xlink:href="#DejaVuSans-6e" x="1368.066406"/>
      <use xlink:href="#DejaVuSans-20" x="1431.445312"/>
      <use xlink:href="#DejaVuSans-64" x="1463.232422"/>
      <use xlink:href="#DejaVuSans-61" x="1526.708984"/>
      <use xlink:href="#DejaVuSans-74" x="1587.988281"/>
      <use xlink:href="#DejaVuSans-61" x="1627.197266"/>
      <use xlink:href="#DejaVuSans-20" x="1688.476562"/>
      <use xlink:href="#DejaVuSans-70" x="1720.263672"/>
      <use xlink:href="#DejaVuSans-6f" x="1783.740234"/>
      <use xlink:href="#DejaVuSans-69" x="1844.921875"/>
      <use xlink:href="#DejaVuSans-6e" x="1872.705078"/>
      <use xlink:href="#DejaVuSans-74" x="1936.083984"/>
      <use xlink:href="#DejaVuSans-73" x="1975.292969"/>
     </g>
    </g>
    <g id="line2d_4">
     <path d="M 99.9 99.674219 
L 110.9 99.674219 
L 121.9 99.674219 
" style="fill: none; stroke: #dd8452; stroke-width: 1.5; stroke-linecap: round"/>
    </g>
    <g id="text_21">
     <!-- Approximation of the constraint function -->
     <g style="fill: #262626" transform="translate(130.7 103.524219)scale(0.11 -0.11)">
      <use xlink:href="#DejaVuSans-41"/>
      <use xlink:href="#DejaVuSans-70" x="68.408203"/>
      <use xlink:href="#DejaVuSans-70" x="131.884766"/>
      <use xlink:href="#DejaVuSans-72" x="195.361328"/>
      <use xlink:href="#DejaVuSans-6f" x="234.224609"/>
      <use xlink:href="#DejaVuSans-78" x="292.28125"/>
      <use xlink:href="#DejaVuSans-69" x="351.460938"/>
      <use xlink:href="#DejaVuSans-6d" x="379.244141"/>
      <use xlink:href="#DejaVuSans-61" x="476.65625"/>
      <use xlink:href="#DejaVuSans-74" x="537.935547"/>
      <use xlink:href="#DejaVuSans-69" x="577.144531"/>
      <use xlink:href="#DejaVuSans-6f" x="604.927734"/>
      <use xlink:href="#DejaVuSans-6e" x="666.109375"/>
      <use xlink:href="#DejaVuSans-20" x="729.488281"/>
      <use xlink:href="#DejaVuSans-6f" x="761.275391"/>
      <use xlink:href="#DejaVuSans-66" x="822.457031"/>
      <use xlink:href="#DejaVuSans-20" x="857.662109"/>
      <use xlink:href="#DejaVuSans-74" x="889.449219"/>
      <use xlink:href="#DejaVuSans-68" x="928.658203"/>
      <use xlink:href="#DejaVuSans-65" x="992.037109"/>
      <use xlink:href="#DejaVuSans-20" x="1053.560547"/>
      <use xlink:href="#DejaVuSans-63" x="1085.347656"/>
      <use xlink:href="#DejaVuSans-6f" x="1140.328125"/>
      <use xlink:href="#DejaVuSans-6e" x="1201.509766"/>
      <use xlink:href="#DejaVuSans-73" x="1264.888672"/>
      <use xlink:href="#DejaVuSans-74" x="1316.988281"/>
      <use xlink:href="#DejaVuSans-72" x="1356.197266"/>
      <use xlink:href="#DejaVuSans-61" x="1397.310547"/>
      <use xlink:href="#DejaVuSans-69" x="1458.589844"/>
      <use xlink:href="#DejaVuSans-6e" x="1486.373047"/>
      <use xlink:href="#DejaVuSans-74" x="1549.751953"/>
      <use xlink:href="#DejaVuSans-20" x="1588.960938"/>
      <use xlink:href="#DejaVuSans-66" x="1620.748047"/>
      <use xlink:href="#DejaVuSans-75" x="1655.953125"/>
      <use xlink:href="#DejaVuSans-6e" x="1719.332031"/>
      <use xlink:href="#DejaVuSans-63" x="1782.710938"/>
      <use xlink:href="#DejaVuSans-74" x="1837.691406"/>
      <use xlink:href="#DejaVuSans-69" x="1876.900391"/>
      <use xlink:href="#DejaVuSans-6f" x="1904.683594"/>
      <use xlink:href="#DejaVuSans-6e" x="1965.865234"/>
     </g>
    </g>
   </g>
  </g>
 </g>
 <defs>
  <clipPath id="pf7e01aa01a">
   <rect x="90" y="69.12" width="558" height="443.52"/>
  </clipPath>
 </defs>
</svg>
