<?xml version="1.0" encoding="utf-8" standalone="no"?>
<!DOCTYPE svg PUBLIC "-//W3C//DTD SVG 1.1//EN"
  "http://www.w3.org/Graphics/SVG/1.1/DTD/svg11.dtd">
<svg xmlns:xlink="http://www.w3.org/1999/xlink" width="720pt" height="576pt" viewBox="0 0 720 576" xmlns="http://www.w3.org/2000/svg" version="1.1">
 <metadata>
  <rdf:RDF xmlns:dc="http://purl.org/dc/elements/1.1/" xmlns:cc="http://creativecommons.org/ns#" xmlns:rdf="http://www.w3.org/1999/02/22-rdf-syntax-ns#">
   <cc:Work>
    <dc:type rdf:resource="http://purl.org/dc/dcmitype/StillImage"/>
    <dc:date>2023-06-27T17:58:20.343489</dc:date>
    <dc:format>image/svg+xml</dc:format>
    <dc:creator>
     <cc:Agent>
      <dc:title>Matplotlib v3.5.3, https://matplotlib.org/</dc:title>
     </cc:Agent>
    </dc:creator>
   </cc:Work>
  </rdf:RDF>
 </metadata>
 <defs>
  <style type="text/css">*{stroke-linejoin: round; stroke-linecap: butt}</style>
 </defs>
 <g id="figure_1">
  <g id="patch_1">
   <path d="M 0 576 
L 720 576 
L 720 0 
L 0 0 
z
" style="fill: #ffffff"/>
  </g>
  <g id="axes_1">
   <g id="patch_2">
    <path d="M 90 270.72 
L 648 270.72 
L 648 69.12 
L 90 69.12 
z
" style="fill: #ffffff"/>
   </g>
   <g id="matplotlib.axis_1">
    <g id="xtick_1">
     <g id="text_1">
      <!-- R.ASIS -->
      <g style="fill: #262626" transform="translate(100.161641 288.578281)scale(0.11 -0.11)">
       <defs>
        <path id="DejaVuSans-52" d="M 2841 2188 
Q 3044 2119 3236 1894 
Q 3428 1669 3622 1275 
L 4263 0 
L 3584 0 
L 2988 1197 
Q 2756 1666 2539 1819 
Q 2322 1972 1947 1972 
L 1259 1972 
L 1259 0 
L 628 0 
L 628 4666 
L 2053 4666 
Q 2853 4666 3247 4331 
Q 3641 3997 3641 3322 
Q 3641 2881 3436 2590 
Q 3231 2300 2841 2188 
z
M 1259 4147 
L 1259 2491 
L 2053 2491 
Q 2509 2491 2742 2702 
Q 2975 2913 2975 3322 
Q 2975 3731 2742 3939 
Q 2509 4147 2053 4147 
L 1259 4147 
z
" transform="scale(0.015625)"/>
        <path id="DejaVuSans-2e" d="M 684 794 
L 1344 794 
L 1344 0 
L 684 0 
L 684 794 
z
" transform="scale(0.015625)"/>
        <path id="DejaVuSans-41" d="M 2188 4044 
L 1331 1722 
L 3047 1722 
L 2188 4044 
z
M 1831 4666 
L 2547 4666 
L 4325 0 
L 3669 0 
L 3244 1197 
L 1141 1197 
L 716 0 
L 50 0 
L 1831 4666 
z
" transform="scale(0.015625)"/>
        <path id="DejaVuSans-53" d="M 3425 4513 
L 3425 3897 
Q 3066 4069 2747 4153 
Q 2428 4238 2131 4238 
Q 1616 4238 1336 4038 
Q 1056 3838 1056 3469 
Q 1056 3159 1242 3001 
Q 1428 2844 1947 2747 
L 2328 2669 
Q 3034 2534 3370 2195 
Q 3706 1856 3706 1288 
Q 3706 609 3251 259 
Q 2797 -91 1919 -91 
Q 1588 -91 1214 -16 
Q 841 59 441 206 
L 441 856 
Q 825 641 1194 531 
Q 1563 422 1919 422 
Q 2459 422 2753 634 
Q 3047 847 3047 1241 
Q 3047 1584 2836 1778 
Q 2625 1972 2144 2069 
L 1759 2144 
Q 1053 2284 737 2584 
Q 422 2884 422 3419 
Q 422 4038 858 4394 
Q 1294 4750 2059 4750 
Q 2388 4750 2728 4690 
Q 3069 4631 3425 4513 
z
" transform="scale(0.015625)"/>
        <path id="DejaVuSans-49" d="M 628 4666 
L 1259 4666 
L 1259 0 
L 628 0 
L 628 4666 
z
" transform="scale(0.015625)"/>
       </defs>
       <use xlink:href="#DejaVuSans-52"/>
       <use xlink:href="#DejaVuSans-2e" x="65.857422"/>
       <use xlink:href="#DejaVuSans-41" x="97.644531"/>
       <use xlink:href="#DejaVuSans-53" x="166.052734"/>
       <use xlink:href="#DejaVuSans-49" x="229.529297"/>
       <use xlink:href="#DejaVuSans-53" x="259.021484"/>
      </g>
     </g>
    </g>
    <g id="xtick_2">
     <g id="text_2">
      <!-- L.ASIS -->
      <g style="fill: #262626" transform="translate(156.519375 288.578281)scale(0.11 -0.11)">
       <defs>
        <path id="DejaVuSans-4c" d="M 628 4666 
L 1259 4666 
L 1259 531 
L 3531 531 
L 3531 0 
L 628 0 
L 628 4666 
z
" transform="scale(0.015625)"/>
       </defs>
       <use xlink:href="#DejaVuSans-4c"/>
       <use xlink:href="#DejaVuSans-2e" x="55.712891"/>
       <use xlink:href="#DejaVuSans-41" x="87.5"/>
       <use xlink:href="#DejaVuSans-53" x="155.908203"/>
       <use xlink:href="#DejaVuSans-49" x="219.384766"/>
       <use xlink:href="#DejaVuSans-53" x="248.876953"/>
      </g>
     </g>
    </g>
    <g id="xtick_3">
     <g id="text_3">
      <!-- V.Sacral -->
      <g style="fill: #262626" transform="translate(207.652109 288.578281)scale(0.11 -0.11)">
       <defs>
        <path id="DejaVuSans-56" d="M 1831 0 
L 50 4666 
L 709 4666 
L 2188 738 
L 3669 4666 
L 4325 4666 
L 2547 0 
L 1831 0 
z
" transform="scale(0.015625)"/>
        <path id="DejaVuSans-61" d="M 2194 1759 
Q 1497 1759 1228 1600 
Q 959 1441 959 1056 
Q 959 750 1161 570 
Q 1363 391 1709 391 
Q 2188 391 2477 730 
Q 2766 1069 2766 1631 
L 2766 1759 
L 2194 1759 
z
M 3341 1997 
L 3341 0 
L 2766 0 
L 2766 531 
Q 2569 213 2275 61 
Q 1981 -91 1556 -91 
Q 1019 -91 701 211 
Q 384 513 384 1019 
Q 384 1609 779 1909 
Q 1175 2209 1959 2209 
L 2766 2209 
L 2766 2266 
Q 2766 2663 2505 2880 
Q 2244 3097 1772 3097 
Q 1472 3097 1187 3025 
Q 903 2953 641 2809 
L 641 3341 
Q 956 3463 1253 3523 
Q 1550 3584 1831 3584 
Q 2591 3584 2966 3190 
Q 3341 2797 3341 1997 
z
" transform="scale(0.015625)"/>
        <path id="DejaVuSans-63" d="M 3122 3366 
L 3122 2828 
Q 2878 2963 2633 3030 
Q 2388 3097 2138 3097 
Q 1578 3097 1268 2742 
Q 959 2388 959 1747 
Q 959 1106 1268 751 
Q 1578 397 2138 397 
Q 2388 397 2633 464 
Q 2878 531 3122 666 
L 3122 134 
Q 2881 22 2623 -34 
Q 2366 -91 2075 -91 
Q 1284 -91 818 406 
Q 353 903 353 1747 
Q 353 2603 823 3093 
Q 1294 3584 2113 3584 
Q 2378 3584 2631 3529 
Q 2884 3475 3122 3366 
z
" transform="scale(0.015625)"/>
        <path id="DejaVuSans-72" d="M 2631 2963 
Q 2534 3019 2420 3045 
Q 2306 3072 2169 3072 
Q 1681 3072 1420 2755 
Q 1159 2438 1159 1844 
L 1159 0 
L 581 0 
L 581 3500 
L 1159 3500 
L 1159 2956 
Q 1341 3275 1631 3429 
Q 1922 3584 2338 3584 
Q 2397 3584 2469 3576 
Q 2541 3569 2628 3553 
L 2631 2963 
z
" transform="scale(0.015625)"/>
        <path id="DejaVuSans-6c" d="M 603 4863 
L 1178 4863 
L 1178 0 
L 603 0 
L 603 4863 
z
" transform="scale(0.015625)"/>
       </defs>
       <use xlink:href="#DejaVuSans-56"/>
       <use xlink:href="#DejaVuSans-2e" x="55.533203"/>
       <use xlink:href="#DejaVuSans-53" x="87.320312"/>
       <use xlink:href="#DejaVuSans-61" x="150.796875"/>
       <use xlink:href="#DejaVuSans-63" x="212.076172"/>
       <use xlink:href="#DejaVuSans-72" x="267.056641"/>
       <use xlink:href="#DejaVuSans-61" x="308.169922"/>
       <use xlink:href="#DejaVuSans-6c" x="369.449219"/>
      </g>
     </g>
    </g>
    <g id="xtick_4">
     <g id="text_4">
      <!-- R.Thigh.Upper -->
      <g style="fill: #262626" transform="translate(246.177813 288.578281)scale(0.11 -0.11)">
       <defs>
        <path id="DejaVuSans-54" d="M -19 4666 
L 3928 4666 
L 3928 4134 
L 2272 4134 
L 2272 0 
L 1638 0 
L 1638 4134 
L -19 4134 
L -19 4666 
z
" transform="scale(0.015625)"/>
        <path id="DejaVuSans-68" d="M 3513 2113 
L 3513 0 
L 2938 0 
L 2938 2094 
Q 2938 2591 2744 2837 
Q 2550 3084 2163 3084 
Q 1697 3084 1428 2787 
Q 1159 2491 1159 1978 
L 1159 0 
L 581 0 
L 581 4863 
L 1159 4863 
L 1159 2956 
Q 1366 3272 1645 3428 
Q 1925 3584 2291 3584 
Q 2894 3584 3203 3211 
Q 3513 2838 3513 2113 
z
" transform="scale(0.015625)"/>
        <path id="DejaVuSans-69" d="M 603 3500 
L 1178 3500 
L 1178 0 
L 603 0 
L 603 3500 
z
M 603 4863 
L 1178 4863 
L 1178 4134 
L 603 4134 
L 603 4863 
z
" transform="scale(0.015625)"/>
        <path id="DejaVuSans-67" d="M 2906 1791 
Q 2906 2416 2648 2759 
Q 2391 3103 1925 3103 
Q 1463 3103 1205 2759 
Q 947 2416 947 1791 
Q 947 1169 1205 825 
Q 1463 481 1925 481 
Q 2391 481 2648 825 
Q 2906 1169 2906 1791 
z
M 3481 434 
Q 3481 -459 3084 -895 
Q 2688 -1331 1869 -1331 
Q 1566 -1331 1297 -1286 
Q 1028 -1241 775 -1147 
L 775 -588 
Q 1028 -725 1275 -790 
Q 1522 -856 1778 -856 
Q 2344 -856 2625 -561 
Q 2906 -266 2906 331 
L 2906 616 
Q 2728 306 2450 153 
Q 2172 0 1784 0 
Q 1141 0 747 490 
Q 353 981 353 1791 
Q 353 2603 747 3093 
Q 1141 3584 1784 3584 
Q 2172 3584 2450 3431 
Q 2728 3278 2906 2969 
L 2906 3500 
L 3481 3500 
L 3481 434 
z
" transform="scale(0.015625)"/>
        <path id="DejaVuSans-55" d="M 556 4666 
L 1191 4666 
L 1191 1831 
Q 1191 1081 1462 751 
Q 1734 422 2344 422 
Q 2950 422 3222 751 
Q 3494 1081 3494 1831 
L 3494 4666 
L 4128 4666 
L 4128 1753 
Q 4128 841 3676 375 
Q 3225 -91 2344 -91 
Q 1459 -91 1007 375 
Q 556 841 556 1753 
L 556 4666 
z
" transform="scale(0.015625)"/>
        <path id="DejaVuSans-70" d="M 1159 525 
L 1159 -1331 
L 581 -1331 
L 581 3500 
L 1159 3500 
L 1159 2969 
Q 1341 3281 1617 3432 
Q 1894 3584 2278 3584 
Q 2916 3584 3314 3078 
Q 3713 2572 3713 1747 
Q 3713 922 3314 415 
Q 2916 -91 2278 -91 
Q 1894 -91 1617 61 
Q 1341 213 1159 525 
z
M 3116 1747 
Q 3116 2381 2855 2742 
Q 2594 3103 2138 3103 
Q 1681 3103 1420 2742 
Q 1159 2381 1159 1747 
Q 1159 1113 1420 752 
Q 1681 391 2138 391 
Q 2594 391 2855 752 
Q 3116 1113 3116 1747 
z
" transform="scale(0.015625)"/>
        <path id="DejaVuSans-65" d="M 3597 1894 
L 3597 1613 
L 953 1613 
Q 991 1019 1311 708 
Q 1631 397 2203 397 
Q 2534 397 2845 478 
Q 3156 559 3463 722 
L 3463 178 
Q 3153 47 2828 -22 
Q 2503 -91 2169 -91 
Q 1331 -91 842 396 
Q 353 884 353 1716 
Q 353 2575 817 3079 
Q 1281 3584 2069 3584 
Q 2775 3584 3186 3129 
Q 3597 2675 3597 1894 
z
M 3022 2063 
Q 3016 2534 2758 2815 
Q 2500 3097 2075 3097 
Q 1594 3097 1305 2825 
Q 1016 2553 972 2059 
L 3022 2063 
z
" transform="scale(0.015625)"/>
       </defs>
       <use xlink:href="#DejaVuSans-52"/>
       <use xlink:href="#DejaVuSans-2e" x="65.857422"/>
       <use xlink:href="#DejaVuSans-54" x="97.644531"/>
       <use xlink:href="#DejaVuSans-68" x="158.728516"/>
       <use xlink:href="#DejaVuSans-69" x="222.107422"/>
       <use xlink:href="#DejaVuSans-67" x="249.890625"/>
       <use xlink:href="#DejaVuSans-68" x="313.367188"/>
       <use xlink:href="#DejaVuSans-2e" x="376.746094"/>
       <use xlink:href="#DejaVuSans-55" x="408.533203"/>
       <use xlink:href="#DejaVuSans-70" x="481.726562"/>
       <use xlink:href="#DejaVuSans-70" x="545.203125"/>
       <use xlink:href="#DejaVuSans-65" x="608.679688"/>
       <use xlink:href="#DejaVuSans-72" x="670.203125"/>
      </g>
     </g>
    </g>
    <g id="xtick_5">
     <g id="text_5">
      <!-- R.Thigh.Front -->
      <g style="fill: #262626" transform="translate(304.722656 288.578281)scale(0.11 -0.11)">
       <defs>
        <path id="DejaVuSans-46" d="M 628 4666 
L 3309 4666 
L 3309 4134 
L 1259 4134 
L 1259 2759 
L 3109 2759 
L 3109 2228 
L 1259 2228 
L 1259 0 
L 628 0 
L 628 4666 
z
" transform="scale(0.015625)"/>
        <path id="DejaVuSans-6f" d="M 1959 3097 
Q 1497 3097 1228 2736 
Q 959 2375 959 1747 
Q 959 1119 1226 758 
Q 1494 397 1959 397 
Q 2419 397 2687 759 
Q 2956 1122 2956 1747 
Q 2956 2369 2687 2733 
Q 2419 3097 1959 3097 
z
M 1959 3584 
Q 2709 3584 3137 3096 
Q 3566 2609 3566 1747 
Q 3566 888 3137 398 
Q 2709 -91 1959 -91 
Q 1206 -91 779 398 
Q 353 888 353 1747 
Q 353 2609 779 3096 
Q 1206 3584 1959 3584 
z
" transform="scale(0.015625)"/>
        <path id="DejaVuSans-6e" d="M 3513 2113 
L 3513 0 
L 2938 0 
L 2938 2094 
Q 2938 2591 2744 2837 
Q 2550 3084 2163 3084 
Q 1697 3084 1428 2787 
Q 1159 2491 1159 1978 
L 1159 0 
L 581 0 
L 581 3500 
L 1159 3500 
L 1159 2956 
Q 1366 3272 1645 3428 
Q 1925 3584 2291 3584 
Q 2894 3584 3203 3211 
Q 3513 2838 3513 2113 
z
" transform="scale(0.015625)"/>
        <path id="DejaVuSans-74" d="M 1172 4494 
L 1172 3500 
L 2356 3500 
L 2356 3053 
L 1172 3053 
L 1172 1153 
Q 1172 725 1289 603 
Q 1406 481 1766 481 
L 2356 481 
L 2356 0 
L 1766 0 
Q 1100 0 847 248 
Q 594 497 594 1153 
L 594 3053 
L 172 3053 
L 172 3500 
L 594 3500 
L 594 4494 
L 1172 4494 
z
" transform="scale(0.015625)"/>
       </defs>
       <use xlink:href="#DejaVuSans-52"/>
       <use xlink:href="#DejaVuSans-2e" x="65.857422"/>
       <use xlink:href="#DejaVuSans-54" x="97.644531"/>
       <use xlink:href="#DejaVuSans-68" x="158.728516"/>
       <use xlink:href="#DejaVuSans-69" x="222.107422"/>
       <use xlink:href="#DejaVuSans-67" x="249.890625"/>
       <use xlink:href="#DejaVuSans-68" x="313.367188"/>
       <use xlink:href="#DejaVuSans-2e" x="376.746094"/>
       <use xlink:href="#DejaVuSans-46" x="408.533203"/>
       <use xlink:href="#DejaVuSans-72" x="458.802734"/>
       <use xlink:href="#DejaVuSans-6f" x="497.666016"/>
       <use xlink:href="#DejaVuSans-6e" x="558.847656"/>
       <use xlink:href="#DejaVuSans-74" x="622.226562"/>
      </g>
     </g>
    </g>
    <g id="xtick_6">
     <g id="text_6">
      <!-- R.Thigh.Rear -->
      <g style="fill: #262626" transform="translate(361.841797 288.578281)scale(0.11 -0.11)">
       <use xlink:href="#DejaVuSans-52"/>
       <use xlink:href="#DejaVuSans-2e" x="65.857422"/>
       <use xlink:href="#DejaVuSans-54" x="97.644531"/>
       <use xlink:href="#DejaVuSans-68" x="158.728516"/>
       <use xlink:href="#DejaVuSans-69" x="222.107422"/>
       <use xlink:href="#DejaVuSans-67" x="249.890625"/>
       <use xlink:href="#DejaVuSans-68" x="313.367188"/>
       <use xlink:href="#DejaVuSans-2e" x="376.746094"/>
       <use xlink:href="#DejaVuSans-52" x="408.533203"/>
       <use xlink:href="#DejaVuSans-65" x="473.515625"/>
       <use xlink:href="#DejaVuSans-61" x="535.039062"/>
       <use xlink:href="#DejaVuSans-72" x="596.318359"/>
      </g>
     </g>
    </g>
    <g id="xtick_7">
     <g id="text_7">
      <!-- R.Shank.Upper -->
      <g style="fill: #262626" transform="translate(411.909766 288.578281)scale(0.11 -0.11)">
       <defs>
        <path id="DejaVuSans-6b" d="M 581 4863 
L 1159 4863 
L 1159 1991 
L 2875 3500 
L 3609 3500 
L 1753 1863 
L 3688 0 
L 2938 0 
L 1159 1709 
L 1159 0 
L 581 0 
L 581 4863 
z
" transform="scale(0.015625)"/>
       </defs>
       <use xlink:href="#DejaVuSans-52"/>
       <use xlink:href="#DejaVuSans-2e" x="65.857422"/>
       <use xlink:href="#DejaVuSans-53" x="97.644531"/>
       <use xlink:href="#DejaVuSans-68" x="161.121094"/>
       <use xlink:href="#DejaVuSans-61" x="224.5"/>
       <use xlink:href="#DejaVuSans-6e" x="285.779297"/>
       <use xlink:href="#DejaVuSans-6b" x="349.158203"/>
       <use xlink:href="#DejaVuSans-2e" x="407.068359"/>
       <use xlink:href="#DejaVuSans-55" x="438.855469"/>
       <use xlink:href="#DejaVuSans-70" x="512.048828"/>
       <use xlink:href="#DejaVuSans-70" x="575.525391"/>
       <use xlink:href="#DejaVuSans-65" x="639.001953"/>
       <use xlink:href="#DejaVuSans-72" x="700.525391"/>
      </g>
     </g>
    </g>
    <g id="xtick_8">
     <g id="text_8">
      <!-- R.Shank.Front -->
      <g style="fill: #262626" transform="translate(470.454609 288.578281)scale(0.11 -0.11)">
       <use xlink:href="#DejaVuSans-52"/>
       <use xlink:href="#DejaVuSans-2e" x="65.857422"/>
       <use xlink:href="#DejaVuSans-53" x="97.644531"/>
       <use xlink:href="#DejaVuSans-68" x="161.121094"/>
       <use xlink:href="#DejaVuSans-61" x="224.5"/>
       <use xlink:href="#DejaVuSans-6e" x="285.779297"/>
       <use xlink:href="#DejaVuSans-6b" x="349.158203"/>
       <use xlink:href="#DejaVuSans-2e" x="407.068359"/>
       <use xlink:href="#DejaVuSans-46" x="438.855469"/>
       <use xlink:href="#DejaVuSans-72" x="489.125"/>
       <use xlink:href="#DejaVuSans-6f" x="527.988281"/>
       <use xlink:href="#DejaVuSans-6e" x="589.169922"/>
       <use xlink:href="#DejaVuSans-74" x="652.548828"/>
      </g>
     </g>
    </g>
    <g id="xtick_9">
     <g id="text_9">
      <!-- R.Shank.Rear -->
      <g style="fill: #262626" transform="translate(527.57375 288.578281)scale(0.11 -0.11)">
       <use xlink:href="#DejaVuSans-52"/>
       <use xlink:href="#DejaVuSans-2e" x="65.857422"/>
       <use xlink:href="#DejaVuSans-53" x="97.644531"/>
       <use xlink:href="#DejaVuSans-68" x="161.121094"/>
       <use xlink:href="#DejaVuSans-61" x="224.5"/>
       <use xlink:href="#DejaVuSans-6e" x="285.779297"/>
       <use xlink:href="#DejaVuSans-6b" x="349.158203"/>
       <use xlink:href="#DejaVuSans-2e" x="407.068359"/>
       <use xlink:href="#DejaVuSans-52" x="438.855469"/>
       <use xlink:href="#DejaVuSans-65" x="503.837891"/>
       <use xlink:href="#DejaVuSans-61" x="565.361328"/>
       <use xlink:href="#DejaVuSans-72" x="626.640625"/>
      </g>
     </g>
    </g>
    <g id="xtick_10">
     <g id="text_10">
      <!-- R.Heel -->
      <g style="fill: #262626" transform="translate(602.297188 288.578281)scale(0.11 -0.11)">
       <defs>
        <path id="DejaVuSans-48" d="M 628 4666 
L 1259 4666 
L 1259 2753 
L 3553 2753 
L 3553 4666 
L 4184 4666 
L 4184 0 
L 3553 0 
L 3553 2222 
L 1259 2222 
L 1259 0 
L 628 0 
L 628 4666 
z
" transform="scale(0.015625)"/>
       </defs>
       <use xlink:href="#DejaVuSans-52"/>
       <use xlink:href="#DejaVuSans-2e" x="65.857422"/>
       <use xlink:href="#DejaVuSans-48" x="97.644531"/>
       <use xlink:href="#DejaVuSans-65" x="172.839844"/>
       <use xlink:href="#DejaVuSans-65" x="234.363281"/>
       <use xlink:href="#DejaVuSans-6c" x="295.886719"/>
      </g>
     </g>
    </g>
   </g>
   <g id="matplotlib.axis_2">
    <g id="ytick_1">
     <g id="text_11">
      <!-- 0.0002 -->
      <g style="fill: #262626" transform="translate(42.010312 245.450892)scale(0.11 -0.11)">
       <defs>
        <path id="DejaVuSans-30" d="M 2034 4250 
Q 1547 4250 1301 3770 
Q 1056 3291 1056 2328 
Q 1056 1369 1301 889 
Q 1547 409 2034 409 
Q 2525 409 2770 889 
Q 3016 1369 3016 2328 
Q 3016 3291 2770 3770 
Q 2525 4250 2034 4250 
z
M 2034 4750 
Q 2819 4750 3233 4129 
Q 3647 3509 3647 2328 
Q 3647 1150 3233 529 
Q 2819 -91 2034 -91 
Q 1250 -91 836 529 
Q 422 1150 422 2328 
Q 422 3509 836 4129 
Q 1250 4750 2034 4750 
z
" transform="scale(0.015625)"/>
        <path id="DejaVuSans-32" d="M 1228 531 
L 3431 531 
L 3431 0 
L 469 0 
L 469 531 
Q 828 903 1448 1529 
Q 2069 2156 2228 2338 
Q 2531 2678 2651 2914 
Q 2772 3150 2772 3378 
Q 2772 3750 2511 3984 
Q 2250 4219 1831 4219 
Q 1534 4219 1204 4116 
Q 875 4013 500 3803 
L 500 4441 
Q 881 4594 1212 4672 
Q 1544 4750 1819 4750 
Q 2544 4750 2975 4387 
Q 3406 4025 3406 3419 
Q 3406 3131 3298 2873 
Q 3191 2616 2906 2266 
Q 2828 2175 2409 1742 
Q 1991 1309 1228 531 
z
" transform="scale(0.015625)"/>
       </defs>
       <use xlink:href="#DejaVuSans-30"/>
       <use xlink:href="#DejaVuSans-2e" x="63.623047"/>
       <use xlink:href="#DejaVuSans-30" x="95.410156"/>
       <use xlink:href="#DejaVuSans-30" x="159.033203"/>
       <use xlink:href="#DejaVuSans-30" x="222.65625"/>
       <use xlink:href="#DejaVuSans-32" x="286.279297"/>
      </g>
     </g>
    </g>
    <g id="ytick_2">
     <g id="text_12">
      <!-- 0.0004 -->
      <g style="fill: #262626" transform="translate(42.010312 215.739639)scale(0.11 -0.11)">
       <defs>
        <path id="DejaVuSans-34" d="M 2419 4116 
L 825 1625 
L 2419 1625 
L 2419 4116 
z
M 2253 4666 
L 3047 4666 
L 3047 1625 
L 3713 1625 
L 3713 1100 
L 3047 1100 
L 3047 0 
L 2419 0 
L 2419 1100 
L 313 1100 
L 313 1709 
L 2253 4666 
z
" transform="scale(0.015625)"/>
       </defs>
       <use xlink:href="#DejaVuSans-30"/>
       <use xlink:href="#DejaVuSans-2e" x="63.623047"/>
       <use xlink:href="#DejaVuSans-30" x="95.410156"/>
       <use xlink:href="#DejaVuSans-30" x="159.033203"/>
       <use xlink:href="#DejaVuSans-30" x="222.65625"/>
       <use xlink:href="#DejaVuSans-34" x="286.279297"/>
      </g>
     </g>
    </g>
    <g id="ytick_3">
     <g id="text_13">
      <!-- 0.0006 -->
      <g style="fill: #262626" transform="translate(42.010312 186.028386)scale(0.11 -0.11)">
       <defs>
        <path id="DejaVuSans-36" d="M 2113 2584 
Q 1688 2584 1439 2293 
Q 1191 2003 1191 1497 
Q 1191 994 1439 701 
Q 1688 409 2113 409 
Q 2538 409 2786 701 
Q 3034 994 3034 1497 
Q 3034 2003 2786 2293 
Q 2538 2584 2113 2584 
z
M 3366 4563 
L 3366 3988 
Q 3128 4100 2886 4159 
Q 2644 4219 2406 4219 
Q 1781 4219 1451 3797 
Q 1122 3375 1075 2522 
Q 1259 2794 1537 2939 
Q 1816 3084 2150 3084 
Q 2853 3084 3261 2657 
Q 3669 2231 3669 1497 
Q 3669 778 3244 343 
Q 2819 -91 2113 -91 
Q 1303 -91 875 529 
Q 447 1150 447 2328 
Q 447 3434 972 4092 
Q 1497 4750 2381 4750 
Q 2619 4750 2861 4703 
Q 3103 4656 3366 4563 
z
" transform="scale(0.015625)"/>
       </defs>
       <use xlink:href="#DejaVuSans-30"/>
       <use xlink:href="#DejaVuSans-2e" x="63.623047"/>
       <use xlink:href="#DejaVuSans-30" x="95.410156"/>
       <use xlink:href="#DejaVuSans-30" x="159.033203"/>
       <use xlink:href="#DejaVuSans-30" x="222.65625"/>
       <use xlink:href="#DejaVuSans-36" x="286.279297"/>
      </g>
     </g>
    </g>
    <g id="ytick_4">
     <g id="text_14">
      <!-- 0.0008 -->
      <g style="fill: #262626" transform="translate(42.010312 156.317134)scale(0.11 -0.11)">
       <defs>
        <path id="DejaVuSans-38" d="M 2034 2216 
Q 1584 2216 1326 1975 
Q 1069 1734 1069 1313 
Q 1069 891 1326 650 
Q 1584 409 2034 409 
Q 2484 409 2743 651 
Q 3003 894 3003 1313 
Q 3003 1734 2745 1975 
Q 2488 2216 2034 2216 
z
M 1403 2484 
Q 997 2584 770 2862 
Q 544 3141 544 3541 
Q 544 4100 942 4425 
Q 1341 4750 2034 4750 
Q 2731 4750 3128 4425 
Q 3525 4100 3525 3541 
Q 3525 3141 3298 2862 
Q 3072 2584 2669 2484 
Q 3125 2378 3379 2068 
Q 3634 1759 3634 1313 
Q 3634 634 3220 271 
Q 2806 -91 2034 -91 
Q 1263 -91 848 271 
Q 434 634 434 1313 
Q 434 1759 690 2068 
Q 947 2378 1403 2484 
z
M 1172 3481 
Q 1172 3119 1398 2916 
Q 1625 2713 2034 2713 
Q 2441 2713 2670 2916 
Q 2900 3119 2900 3481 
Q 2900 3844 2670 4047 
Q 2441 4250 2034 4250 
Q 1625 4250 1398 4047 
Q 1172 3844 1172 3481 
z
" transform="scale(0.015625)"/>
       </defs>
       <use xlink:href="#DejaVuSans-30"/>
       <use xlink:href="#DejaVuSans-2e" x="63.623047"/>
       <use xlink:href="#DejaVuSans-30" x="95.410156"/>
       <use xlink:href="#DejaVuSans-30" x="159.033203"/>
       <use xlink:href="#DejaVuSans-30" x="222.65625"/>
       <use xlink:href="#DejaVuSans-38" x="286.279297"/>
      </g>
     </g>
    </g>
    <g id="ytick_5">
     <g id="text_15">
      <!-- 0.0010 -->
      <g style="fill: #262626" transform="translate(42.010312 126.605881)scale(0.11 -0.11)">
       <defs>
        <path id="DejaVuSans-31" d="M 794 531 
L 1825 531 
L 1825 4091 
L 703 3866 
L 703 4441 
L 1819 4666 
L 2450 4666 
L 2450 531 
L 3481 531 
L 3481 0 
L 794 0 
L 794 531 
z
" transform="scale(0.015625)"/>
       </defs>
       <use xlink:href="#DejaVuSans-30"/>
       <use xlink:href="#DejaVuSans-2e" x="63.623047"/>
       <use xlink:href="#DejaVuSans-30" x="95.410156"/>
       <use xlink:href="#DejaVuSans-30" x="159.033203"/>
       <use xlink:href="#DejaVuSans-31" x="222.65625"/>
       <use xlink:href="#DejaVuSans-30" x="286.279297"/>
      </g>
     </g>
    </g>
    <g id="ytick_6">
     <g id="text_16">
      <!-- 0.0012 -->
      <g style="fill: #262626" transform="translate(42.010312 96.894628)scale(0.11 -0.11)">
       <use xlink:href="#DejaVuSans-30"/>
       <use xlink:href="#DejaVuSans-2e" x="63.623047"/>
       <use xlink:href="#DejaVuSans-30" x="95.410156"/>
       <use xlink:href="#DejaVuSans-30" x="159.033203"/>
       <use xlink:href="#DejaVuSans-31" x="222.65625"/>
       <use xlink:href="#DejaVuSans-32" x="286.279297"/>
      </g>
     </g>
    </g>
    <g id="text_17">
     <!-- m -->
     <g style="fill: #262626" transform="translate(35.514687 175.764375)rotate(-90)scale(0.12 -0.12)">
      <defs>
       <path id="DejaVuSans-6d" d="M 3328 2828 
Q 3544 3216 3844 3400 
Q 4144 3584 4550 3584 
Q 5097 3584 5394 3201 
Q 5691 2819 5691 2113 
L 5691 0 
L 5113 0 
L 5113 2094 
Q 5113 2597 4934 2840 
Q 4756 3084 4391 3084 
Q 3944 3084 3684 2787 
Q 3425 2491 3425 1978 
L 3425 0 
L 2847 0 
L 2847 2094 
Q 2847 2600 2669 2842 
Q 2491 3084 2119 3084 
Q 1678 3084 1418 2786 
Q 1159 2488 1159 1978 
L 1159 0 
L 581 0 
L 581 3500 
L 1159 3500 
L 1159 2956 
Q 1356 3278 1631 3431 
Q 1906 3584 2284 3584 
Q 2666 3584 2933 3390 
Q 3200 3197 3328 2828 
z
" transform="scale(0.015625)"/>
      </defs>
      <use xlink:href="#DejaVuSans-6d"/>
     </g>
    </g>
   </g>
   <g id="line2d_1">
    <path d="M 103.95 245.998375 
L 131.85 245.998375 
L 131.85 211.436299 
L 103.95 211.436299 
L 103.95 245.998375 
" clip-path="url(#pc653138efa)" style="fill: none; stroke: #000000; stroke-linecap: round"/>
   </g>
   <g id="line2d_2">
    <path d="M 117.9 245.998375 
L 117.9 260.103252 
" clip-path="url(#pc653138efa)" style="fill: none; stroke: #000000; stroke-linecap: round"/>
   </g>
   <g id="line2d_3">
    <path d="M 117.9 211.436299 
L 117.9 194.551954 
" clip-path="url(#pc653138efa)" style="fill: none; stroke: #000000; stroke-linecap: round"/>
   </g>
   <g id="line2d_4">
    <path d="M 110.925 260.103252 
L 124.875 260.103252 
" clip-path="url(#pc653138efa)" style="fill: none; stroke: #000000; stroke-linecap: round"/>
   </g>
   <g id="line2d_5">
    <path d="M 110.925 194.551954 
L 124.875 194.551954 
" clip-path="url(#pc653138efa)" style="fill: none; stroke: #000000; stroke-linecap: round"/>
   </g>
   <g id="line2d_6"/>
   <g id="line2d_7">
    <path d="M 159.75 249.214355 
L 187.65 249.214355 
L 187.65 216.769784 
L 159.75 216.769784 
L 159.75 249.214355 
" clip-path="url(#pc653138efa)" style="fill: none; stroke: #000000; stroke-linecap: round"/>
   </g>
   <g id="line2d_8">
    <path d="M 173.7 249.214355 
L 173.7 256.623484 
" clip-path="url(#pc653138efa)" style="fill: none; stroke: #000000; stroke-linecap: round"/>
   </g>
   <g id="line2d_9">
    <path d="M 173.7 216.769784 
L 173.7 203.08522 
" clip-path="url(#pc653138efa)" style="fill: none; stroke: #000000; stroke-linecap: round"/>
   </g>
   <g id="line2d_10">
    <path d="M 166.725 256.623484 
L 180.675 256.623484 
" clip-path="url(#pc653138efa)" style="fill: none; stroke: #000000; stroke-linecap: round"/>
   </g>
   <g id="line2d_11">
    <path d="M 166.725 203.08522 
L 180.675 203.08522 
" clip-path="url(#pc653138efa)" style="fill: none; stroke: #000000; stroke-linecap: round"/>
   </g>
   <g id="line2d_12"/>
   <g id="line2d_13">
    <path d="M 215.55 250.169288 
L 243.45 250.169288 
L 243.45 218.768359 
L 215.55 218.768359 
L 215.55 250.169288 
" clip-path="url(#pc653138efa)" style="fill: none; stroke: #000000; stroke-linecap: round"/>
   </g>
   <g id="line2d_14">
    <path d="M 229.5 250.169288 
L 229.5 257.700341 
" clip-path="url(#pc653138efa)" style="fill: none; stroke: #000000; stroke-linecap: round"/>
   </g>
   <g id="line2d_15">
    <path d="M 229.5 218.768359 
L 229.5 202.785523 
" clip-path="url(#pc653138efa)" style="fill: none; stroke: #000000; stroke-linecap: round"/>
   </g>
   <g id="line2d_16">
    <path d="M 222.525 257.700341 
L 236.475 257.700341 
" clip-path="url(#pc653138efa)" style="fill: none; stroke: #000000; stroke-linecap: round"/>
   </g>
   <g id="line2d_17">
    <path d="M 222.525 202.785523 
L 236.475 202.785523 
" clip-path="url(#pc653138efa)" style="fill: none; stroke: #000000; stroke-linecap: round"/>
   </g>
   <g id="line2d_18"/>
   <g id="line2d_19">
    <path d="M 271.35 253.020905 
L 299.25 253.020905 
L 299.25 217.345373 
L 271.35 217.345373 
L 271.35 253.020905 
" clip-path="url(#pc653138efa)" style="fill: none; stroke: #000000; stroke-linecap: round"/>
   </g>
   <g id="line2d_20">
    <path d="M 285.3 253.020905 
L 285.3 261.556364 
" clip-path="url(#pc653138efa)" style="fill: none; stroke: #000000; stroke-linecap: round"/>
   </g>
   <g id="line2d_21">
    <path d="M 285.3 217.345373 
L 285.3 190.965741 
" clip-path="url(#pc653138efa)" style="fill: none; stroke: #000000; stroke-linecap: round"/>
   </g>
   <g id="line2d_22">
    <path d="M 278.325 261.556364 
L 292.275 261.556364 
" clip-path="url(#pc653138efa)" style="fill: none; stroke: #000000; stroke-linecap: round"/>
   </g>
   <g id="line2d_23">
    <path d="M 278.325 190.965741 
L 292.275 190.965741 
" clip-path="url(#pc653138efa)" style="fill: none; stroke: #000000; stroke-linecap: round"/>
   </g>
   <g id="line2d_24"/>
   <g id="line2d_25">
    <path d="M 327.15 252.860596 
L 355.05 252.860596 
L 355.05 220.328556 
L 327.15 220.328556 
L 327.15 252.860596 
" clip-path="url(#pc653138efa)" style="fill: none; stroke: #000000; stroke-linecap: round"/>
   </g>
   <g id="line2d_26">
    <path d="M 341.1 252.860596 
L 341.1 255.869415 
" clip-path="url(#pc653138efa)" style="fill: none; stroke: #000000; stroke-linecap: round"/>
   </g>
   <g id="line2d_27">
    <path d="M 341.1 220.328556 
L 341.1 190.602958 
" clip-path="url(#pc653138efa)" style="fill: none; stroke: #000000; stroke-linecap: round"/>
   </g>
   <g id="line2d_28">
    <path d="M 334.125 255.869415 
L 348.075 255.869415 
" clip-path="url(#pc653138efa)" style="fill: none; stroke: #000000; stroke-linecap: round"/>
   </g>
   <g id="line2d_29">
    <path d="M 334.125 190.602958 
L 348.075 190.602958 
" clip-path="url(#pc653138efa)" style="fill: none; stroke: #000000; stroke-linecap: round"/>
   </g>
   <g id="line2d_30"/>
   <g id="line2d_31">
    <path d="M 382.95 251.309372 
L 410.85 251.309372 
L 410.85 219.78856 
L 382.95 219.78856 
L 382.95 251.309372 
" clip-path="url(#pc653138efa)" style="fill: none; stroke: #000000; stroke-linecap: round"/>
   </g>
   <g id="line2d_32">
    <path d="M 396.9 251.309372 
L 396.9 255.604973 
" clip-path="url(#pc653138efa)" style="fill: none; stroke: #000000; stroke-linecap: round"/>
   </g>
   <g id="line2d_33">
    <path d="M 396.9 219.78856 
L 396.9 188.033153 
" clip-path="url(#pc653138efa)" style="fill: none; stroke: #000000; stroke-linecap: round"/>
   </g>
   <g id="line2d_34">
    <path d="M 389.925 255.604973 
L 403.875 255.604973 
" clip-path="url(#pc653138efa)" style="fill: none; stroke: #000000; stroke-linecap: round"/>
   </g>
   <g id="line2d_35">
    <path d="M 389.925 188.033153 
L 403.875 188.033153 
" clip-path="url(#pc653138efa)" style="fill: none; stroke: #000000; stroke-linecap: round"/>
   </g>
   <g id="line2d_36"/>
   <g id="line2d_37">
    <path d="M 438.75 202.542732 
L 466.65 202.542732 
L 466.65 119.912708 
L 438.75 119.912708 
L 438.75 202.542732 
" clip-path="url(#pc653138efa)" style="fill: none; stroke: #000000; stroke-linecap: round"/>
   </g>
   <g id="line2d_38">
    <path d="M 452.7 202.542732 
L 452.7 240.09451 
" clip-path="url(#pc653138efa)" style="fill: none; stroke: #000000; stroke-linecap: round"/>
   </g>
   <g id="line2d_39">
    <path d="M 452.7 119.912708 
L 452.7 90.698803 
" clip-path="url(#pc653138efa)" style="fill: none; stroke: #000000; stroke-linecap: round"/>
   </g>
   <g id="line2d_40">
    <path d="M 445.725 240.09451 
L 459.675 240.09451 
" clip-path="url(#pc653138efa)" style="fill: none; stroke: #000000; stroke-linecap: round"/>
   </g>
   <g id="line2d_41">
    <path d="M 445.725 90.698803 
L 459.675 90.698803 
" clip-path="url(#pc653138efa)" style="fill: none; stroke: #000000; stroke-linecap: round"/>
   </g>
   <g id="line2d_42"/>
   <g id="line2d_43">
    <path d="M 494.55 208.985443 
L 522.45 208.985443 
L 522.45 126.787905 
L 494.55 126.787905 
L 494.55 208.985443 
" clip-path="url(#pc653138efa)" style="fill: none; stroke: #000000; stroke-linecap: round"/>
   </g>
   <g id="line2d_44">
    <path d="M 508.5 208.985443 
L 508.5 232.236944 
" clip-path="url(#pc653138efa)" style="fill: none; stroke: #000000; stroke-linecap: round"/>
   </g>
   <g id="line2d_45">
    <path d="M 508.5 126.787905 
L 508.5 78.283636 
" clip-path="url(#pc653138efa)" style="fill: none; stroke: #000000; stroke-linecap: round"/>
   </g>
   <g id="line2d_46">
    <path d="M 501.525 232.236944 
L 515.475 232.236944 
" clip-path="url(#pc653138efa)" style="fill: none; stroke: #000000; stroke-linecap: round"/>
   </g>
   <g id="line2d_47">
    <path d="M 501.525 78.283636 
L 515.475 78.283636 
" clip-path="url(#pc653138efa)" style="fill: none; stroke: #000000; stroke-linecap: round"/>
   </g>
   <g id="line2d_48"/>
   <g id="line2d_49">
    <path d="M 550.35 196.47497 
L 578.25 196.47497 
L 578.25 113.120663 
L 550.35 113.120663 
L 550.35 196.47497 
" clip-path="url(#pc653138efa)" style="fill: none; stroke: #000000; stroke-linecap: round"/>
   </g>
   <g id="line2d_50">
    <path d="M 564.3 196.47497 
L 564.3 246.089334 
" clip-path="url(#pc653138efa)" style="fill: none; stroke: #000000; stroke-linecap: round"/>
   </g>
   <g id="line2d_51">
    <path d="M 564.3 113.120663 
L 564.3 96.412472 
" clip-path="url(#pc653138efa)" style="fill: none; stroke: #000000; stroke-linecap: round"/>
   </g>
   <g id="line2d_52">
    <path d="M 557.325 246.089334 
L 571.275 246.089334 
" clip-path="url(#pc653138efa)" style="fill: none; stroke: #000000; stroke-linecap: round"/>
   </g>
   <g id="line2d_53">
    <path d="M 557.325 96.412472 
L 571.275 96.412472 
" clip-path="url(#pc653138efa)" style="fill: none; stroke: #000000; stroke-linecap: round"/>
   </g>
   <g id="line2d_54"/>
   <g id="line2d_55">
    <path d="M 606.15 202.542659 
L 634.05 202.542659 
L 634.05 128.19125 
L 606.15 128.19125 
L 606.15 202.542659 
" clip-path="url(#pc653138efa)" style="fill: none; stroke: #000000; stroke-linecap: round"/>
   </g>
   <g id="line2d_56">
    <path d="M 620.1 202.542659 
L 620.1 222.481164 
" clip-path="url(#pc653138efa)" style="fill: none; stroke: #000000; stroke-linecap: round"/>
   </g>
   <g id="line2d_57">
    <path d="M 620.1 128.19125 
L 620.1 91.864071 
" clip-path="url(#pc653138efa)" style="fill: none; stroke: #000000; stroke-linecap: round"/>
   </g>
   <g id="line2d_58">
    <path d="M 613.125 222.481164 
L 627.075 222.481164 
" clip-path="url(#pc653138efa)" style="fill: none; stroke: #000000; stroke-linecap: round"/>
   </g>
   <g id="line2d_59">
    <path d="M 613.125 91.864071 
L 627.075 91.864071 
" clip-path="url(#pc653138efa)" style="fill: none; stroke: #000000; stroke-linecap: round"/>
   </g>
   <g id="line2d_60"/>
   <g id="line2d_61">
    <path d="M 103.95 237.3435 
L 131.85 237.3435 
" clip-path="url(#pc653138efa)" style="fill: none; stroke: #dd8452; stroke-linecap: round"/>
   </g>
   <g id="line2d_62">
    <path d="M 159.75 240.271962 
L 187.65 240.271962 
" clip-path="url(#pc653138efa)" style="fill: none; stroke: #dd8452; stroke-linecap: round"/>
   </g>
   <g id="line2d_63">
    <path d="M 215.55 243.264696 
L 243.45 243.264696 
" clip-path="url(#pc653138efa)" style="fill: none; stroke: #dd8452; stroke-linecap: round"/>
   </g>
   <g id="line2d_64">
    <path d="M 271.35 248.132015 
L 299.25 248.132015 
" clip-path="url(#pc653138efa)" style="fill: none; stroke: #dd8452; stroke-linecap: round"/>
   </g>
   <g id="line2d_65">
    <path d="M 327.15 250.138777 
L 355.05 250.138777 
" clip-path="url(#pc653138efa)" style="fill: none; stroke: #dd8452; stroke-linecap: round"/>
   </g>
   <g id="line2d_66">
    <path d="M 382.95 249.623149 
L 410.85 249.623149 
" clip-path="url(#pc653138efa)" style="fill: none; stroke: #dd8452; stroke-linecap: round"/>
   </g>
   <g id="line2d_67">
    <path d="M 438.75 192.204334 
L 466.65 192.204334 
" clip-path="url(#pc653138efa)" style="fill: none; stroke: #dd8452; stroke-linecap: round"/>
   </g>
   <g id="line2d_68">
    <path d="M 494.55 190.801594 
L 522.45 190.801594 
" clip-path="url(#pc653138efa)" style="fill: none; stroke: #dd8452; stroke-linecap: round"/>
   </g>
   <g id="line2d_69">
    <path d="M 550.35 191.962751 
L 578.25 191.962751 
" clip-path="url(#pc653138efa)" style="fill: none; stroke: #dd8452; stroke-linecap: round"/>
   </g>
   <g id="line2d_70">
    <path d="M 606.15 171.503526 
L 634.05 171.503526 
" clip-path="url(#pc653138efa)" style="fill: none; stroke: #dd8452; stroke-linecap: round"/>
   </g>
   <g id="patch_3">
    <path d="M 90 270.72 
L 90 69.12 
" style="fill: none; stroke: #262626; stroke-width: 1.25; stroke-linejoin: miter; stroke-linecap: square"/>
   </g>
   <g id="patch_4">
    <path d="M 648 270.72 
L 648 69.12 
" style="fill: none; stroke: #262626; stroke-width: 1.25; stroke-linejoin: miter; stroke-linecap: square"/>
   </g>
   <g id="patch_5">
    <path d="M 90 270.72 
L 648 270.72 
" style="fill: none; stroke: #262626; stroke-width: 1.25; stroke-linejoin: miter; stroke-linecap: square"/>
   </g>
   <g id="patch_6">
    <path d="M 90 69.12 
L 648 69.12 
" style="fill: none; stroke: #262626; stroke-width: 1.25; stroke-linejoin: miter; stroke-linecap: square"/>
   </g>
   <g id="text_18">
    <!-- RMS errors of end points at checking postures -->
    <g style="fill: #262626" transform="translate(230.55 63.12)scale(0.12 -0.12)">
     <defs>
      <path id="DejaVuSans-4d" d="M 628 4666 
L 1569 4666 
L 2759 1491 
L 3956 4666 
L 4897 4666 
L 4897 0 
L 4281 0 
L 4281 4097 
L 3078 897 
L 2444 897 
L 1241 4097 
L 1241 0 
L 628 0 
L 628 4666 
z
" transform="scale(0.015625)"/>
      <path id="DejaVuSans-20" transform="scale(0.015625)"/>
      <path id="DejaVuSans-73" d="M 2834 3397 
L 2834 2853 
Q 2591 2978 2328 3040 
Q 2066 3103 1784 3103 
Q 1356 3103 1142 2972 
Q 928 2841 928 2578 
Q 928 2378 1081 2264 
Q 1234 2150 1697 2047 
L 1894 2003 
Q 2506 1872 2764 1633 
Q 3022 1394 3022 966 
Q 3022 478 2636 193 
Q 2250 -91 1575 -91 
Q 1294 -91 989 -36 
Q 684 19 347 128 
L 347 722 
Q 666 556 975 473 
Q 1284 391 1588 391 
Q 1994 391 2212 530 
Q 2431 669 2431 922 
Q 2431 1156 2273 1281 
Q 2116 1406 1581 1522 
L 1381 1569 
Q 847 1681 609 1914 
Q 372 2147 372 2553 
Q 372 3047 722 3315 
Q 1072 3584 1716 3584 
Q 2034 3584 2315 3537 
Q 2597 3491 2834 3397 
z
" transform="scale(0.015625)"/>
      <path id="DejaVuSans-66" d="M 2375 4863 
L 2375 4384 
L 1825 4384 
Q 1516 4384 1395 4259 
Q 1275 4134 1275 3809 
L 1275 3500 
L 2222 3500 
L 2222 3053 
L 1275 3053 
L 1275 0 
L 697 0 
L 697 3053 
L 147 3053 
L 147 3500 
L 697 3500 
L 697 3744 
Q 697 4328 969 4595 
Q 1241 4863 1831 4863 
L 2375 4863 
z
" transform="scale(0.015625)"/>
      <path id="DejaVuSans-64" d="M 2906 2969 
L 2906 4863 
L 3481 4863 
L 3481 0 
L 2906 0 
L 2906 525 
Q 2725 213 2448 61 
Q 2172 -91 1784 -91 
Q 1150 -91 751 415 
Q 353 922 353 1747 
Q 353 2572 751 3078 
Q 1150 3584 1784 3584 
Q 2172 3584 2448 3432 
Q 2725 3281 2906 2969 
z
M 947 1747 
Q 947 1113 1208 752 
Q 1469 391 1925 391 
Q 2381 391 2643 752 
Q 2906 1113 2906 1747 
Q 2906 2381 2643 2742 
Q 2381 3103 1925 3103 
Q 1469 3103 1208 2742 
Q 947 2381 947 1747 
z
" transform="scale(0.015625)"/>
      <path id="DejaVuSans-75" d="M 544 1381 
L 544 3500 
L 1119 3500 
L 1119 1403 
Q 1119 906 1312 657 
Q 1506 409 1894 409 
Q 2359 409 2629 706 
Q 2900 1003 2900 1516 
L 2900 3500 
L 3475 3500 
L 3475 0 
L 2900 0 
L 2900 538 
Q 2691 219 2414 64 
Q 2138 -91 1772 -91 
Q 1169 -91 856 284 
Q 544 659 544 1381 
z
M 1991 3584 
L 1991 3584 
z
" transform="scale(0.015625)"/>
     </defs>
     <use xlink:href="#DejaVuSans-52"/>
     <use xlink:href="#DejaVuSans-4d" x="69.482422"/>
     <use xlink:href="#DejaVuSans-53" x="155.761719"/>
     <use xlink:href="#DejaVuSans-20" x="219.238281"/>
     <use xlink:href="#DejaVuSans-65" x="251.025391"/>
     <use xlink:href="#DejaVuSans-72" x="312.548828"/>
     <use xlink:href="#DejaVuSans-72" x="351.912109"/>
     <use xlink:href="#DejaVuSans-6f" x="390.775391"/>
     <use xlink:href="#DejaVuSans-72" x="451.957031"/>
     <use xlink:href="#DejaVuSans-73" x="493.070312"/>
     <use xlink:href="#DejaVuSans-20" x="545.169922"/>
     <use xlink:href="#DejaVuSans-6f" x="576.957031"/>
     <use xlink:href="#DejaVuSans-66" x="638.138672"/>
     <use xlink:href="#DejaVuSans-20" x="673.34375"/>
     <use xlink:href="#DejaVuSans-65" x="705.130859"/>
     <use xlink:href="#DejaVuSans-6e" x="766.654297"/>
     <use xlink:href="#DejaVuSans-64" x="830.033203"/>
     <use xlink:href="#DejaVuSans-20" x="893.509766"/>
     <use xlink:href="#DejaVuSans-70" x="925.296875"/>
     <use xlink:href="#DejaVuSans-6f" x="988.773438"/>
     <use xlink:href="#DejaVuSans-69" x="1049.955078"/>
     <use xlink:href="#DejaVuSans-6e" x="1077.738281"/>
     <use xlink:href="#DejaVuSans-74" x="1141.117188"/>
     <use xlink:href="#DejaVuSans-73" x="1180.326172"/>
     <use xlink:href="#DejaVuSans-20" x="1232.425781"/>
     <use xlink:href="#DejaVuSans-61" x="1264.212891"/>
     <use xlink:href="#DejaVuSans-74" x="1325.492188"/>
     <use xlink:href="#DejaVuSans-20" x="1364.701172"/>
     <use xlink:href="#DejaVuSans-63" x="1396.488281"/>
     <use xlink:href="#DejaVuSans-68" x="1451.46875"/>
     <use xlink:href="#DejaVuSans-65" x="1514.847656"/>
     <use xlink:href="#DejaVuSans-63" x="1576.371094"/>
     <use xlink:href="#DejaVuSans-6b" x="1631.351562"/>
     <use xlink:href="#DejaVuSans-69" x="1689.261719"/>
     <use xlink:href="#DejaVuSans-6e" x="1717.044922"/>
     <use xlink:href="#DejaVuSans-67" x="1780.423828"/>
     <use xlink:href="#DejaVuSans-20" x="1843.900391"/>
     <use xlink:href="#DejaVuSans-70" x="1875.6875"/>
     <use xlink:href="#DejaVuSans-6f" x="1939.164062"/>
     <use xlink:href="#DejaVuSans-73" x="2000.345703"/>
     <use xlink:href="#DejaVuSans-74" x="2052.445312"/>
     <use xlink:href="#DejaVuSans-75" x="2091.654297"/>
     <use xlink:href="#DejaVuSans-72" x="2155.033203"/>
     <use xlink:href="#DejaVuSans-65" x="2193.896484"/>
     <use xlink:href="#DejaVuSans-73" x="2255.419922"/>
    </g>
   </g>
  </g>
  <g id="axes_2">
   <g id="patch_7">
    <path d="M 90 512.64 
L 648 512.64 
L 648 311.04 
L 90 311.04 
z
" style="fill: #ffffff"/>
   </g>
   <g id="matplotlib.axis_3">
    <g id="xtick_11">
     <g id="text_19">
      <!-- R.Midfoot.Lat -->
      <g style="fill: #262626" transform="translate(193.202578 530.498281)scale(0.11 -0.11)">
       <use xlink:href="#DejaVuSans-52"/>
       <use xlink:href="#DejaVuSans-2e" x="65.857422"/>
       <use xlink:href="#DejaVuSans-4d" x="97.644531"/>
       <use xlink:href="#DejaVuSans-69" x="183.923828"/>
       <use xlink:href="#DejaVuSans-64" x="211.707031"/>
       <use xlink:href="#DejaVuSans-66" x="275.183594"/>
       <use xlink:href="#DejaVuSans-6f" x="310.388672"/>
       <use xlink:href="#DejaVuSans-6f" x="371.570312"/>
       <use xlink:href="#DejaVuSans-74" x="432.751953"/>
       <use xlink:href="#DejaVuSans-2e" x="471.960938"/>
       <use xlink:href="#DejaVuSans-4c" x="503.748047"/>
       <use xlink:href="#DejaVuSans-61" x="559.460938"/>
       <use xlink:href="#DejaVuSans-74" x="620.740234"/>
      </g>
     </g>
    </g>
    <g id="xtick_12">
     <g id="text_20">
      <!-- R.Toe.Tip -->
      <g style="fill: #262626" transform="translate(484.000938 530.498281)scale(0.11 -0.11)">
       <use xlink:href="#DejaVuSans-52"/>
       <use xlink:href="#DejaVuSans-2e" x="65.857422"/>
       <use xlink:href="#DejaVuSans-54" x="97.644531"/>
       <use xlink:href="#DejaVuSans-6f" x="141.728516"/>
       <use xlink:href="#DejaVuSans-65" x="202.910156"/>
       <use xlink:href="#DejaVuSans-2e" x="264.433594"/>
       <use xlink:href="#DejaVuSans-54" x="296.220703"/>
       <use xlink:href="#DejaVuSans-69" x="354.179688"/>
       <use xlink:href="#DejaVuSans-70" x="381.962891"/>
      </g>
     </g>
    </g>
   </g>
   <g id="matplotlib.axis_4">
    <g id="ytick_7">
     <g id="text_21">
      <!-- 0.0004 -->
      <g style="fill: #262626" transform="translate(42.010312 499.114172)scale(0.11 -0.11)">
       <use xlink:href="#DejaVuSans-30"/>
       <use xlink:href="#DejaVuSans-2e" x="63.623047"/>
       <use xlink:href="#DejaVuSans-30" x="95.410156"/>
       <use xlink:href="#DejaVuSans-30" x="159.033203"/>
       <use xlink:href="#DejaVuSans-30" x="222.65625"/>
       <use xlink:href="#DejaVuSans-34" x="286.279297"/>
      </g>
     </g>
    </g>
    <g id="ytick_8">
     <g id="text_22">
      <!-- 0.0006 -->
      <g style="fill: #262626" transform="translate(42.010312 458.36657)scale(0.11 -0.11)">
       <use xlink:href="#DejaVuSans-30"/>
       <use xlink:href="#DejaVuSans-2e" x="63.623047"/>
       <use xlink:href="#DejaVuSans-30" x="95.410156"/>
       <use xlink:href="#DejaVuSans-30" x="159.033203"/>
       <use xlink:href="#DejaVuSans-30" x="222.65625"/>
       <use xlink:href="#DejaVuSans-36" x="286.279297"/>
      </g>
     </g>
    </g>
    <g id="ytick_9">
     <g id="text_23">
      <!-- 0.0008 -->
      <g style="fill: #262626" transform="translate(42.010312 417.618968)scale(0.11 -0.11)">
       <use xlink:href="#DejaVuSans-30"/>
       <use xlink:href="#DejaVuSans-2e" x="63.623047"/>
       <use xlink:href="#DejaVuSans-30" x="95.410156"/>
       <use xlink:href="#DejaVuSans-30" x="159.033203"/>
       <use xlink:href="#DejaVuSans-30" x="222.65625"/>
       <use xlink:href="#DejaVuSans-38" x="286.279297"/>
      </g>
     </g>
    </g>
    <g id="ytick_10">
     <g id="text_24">
      <!-- 0.0010 -->
      <g style="fill: #262626" transform="translate(42.010312 376.871366)scale(0.11 -0.11)">
       <use xlink:href="#DejaVuSans-30"/>
       <use xlink:href="#DejaVuSans-2e" x="63.623047"/>
       <use xlink:href="#DejaVuSans-30" x="95.410156"/>
       <use xlink:href="#DejaVuSans-30" x="159.033203"/>
       <use xlink:href="#DejaVuSans-31" x="222.65625"/>
       <use xlink:href="#DejaVuSans-30" x="286.279297"/>
      </g>
     </g>
    </g>
    <g id="ytick_11">
     <g id="text_25">
      <!-- 0.0012 -->
      <g style="fill: #262626" transform="translate(42.010312 336.123764)scale(0.11 -0.11)">
       <use xlink:href="#DejaVuSans-30"/>
       <use xlink:href="#DejaVuSans-2e" x="63.623047"/>
       <use xlink:href="#DejaVuSans-30" x="95.410156"/>
       <use xlink:href="#DejaVuSans-30" x="159.033203"/>
       <use xlink:href="#DejaVuSans-31" x="222.65625"/>
       <use xlink:href="#DejaVuSans-32" x="286.279297"/>
      </g>
     </g>
    </g>
    <g id="text_26">
     <!-- m -->
     <g style="fill: #262626" transform="translate(35.514687 417.684375)rotate(-90)scale(0.12 -0.12)">
      <use xlink:href="#DejaVuSans-6d"/>
     </g>
    </g>
   </g>
   <g id="line2d_71">
    <path d="M 208.575 486.858006 
L 250.425 486.858006 
L 250.425 380.769279 
L 208.575 380.769279 
L 208.575 486.858006 
" clip-path="url(#p62f2c03d5e)" style="fill: none; stroke: #000000; stroke-linecap: round"/>
   </g>
   <g id="line2d_72">
    <path d="M 229.5 486.858006 
L 229.5 497.84061 
" clip-path="url(#p62f2c03d5e)" style="fill: none; stroke: #000000; stroke-linecap: round"/>
   </g>
   <g id="line2d_73">
    <path d="M 229.5 380.769279 
L 229.5 333.230082 
" clip-path="url(#p62f2c03d5e)" style="fill: none; stroke: #000000; stroke-linecap: round"/>
   </g>
   <g id="line2d_74">
    <path d="M 219.0375 497.84061 
L 239.9625 497.84061 
" clip-path="url(#p62f2c03d5e)" style="fill: none; stroke: #000000; stroke-linecap: round"/>
   </g>
   <g id="line2d_75">
    <path d="M 219.0375 333.230082 
L 239.9625 333.230082 
" clip-path="url(#p62f2c03d5e)" style="fill: none; stroke: #000000; stroke-linecap: round"/>
   </g>
   <g id="line2d_76"/>
   <g id="line2d_77">
    <path d="M 487.575 493.225122 
L 529.425 493.225122 
L 529.425 371.644225 
L 487.575 371.644225 
L 487.575 493.225122 
" clip-path="url(#p62f2c03d5e)" style="fill: none; stroke: #000000; stroke-linecap: round"/>
   </g>
   <g id="line2d_78">
    <path d="M 508.5 493.225122 
L 508.5 503.476364 
" clip-path="url(#p62f2c03d5e)" style="fill: none; stroke: #000000; stroke-linecap: round"/>
   </g>
   <g id="line2d_79">
    <path d="M 508.5 371.644225 
L 508.5 320.203636 
" clip-path="url(#p62f2c03d5e)" style="fill: none; stroke: #000000; stroke-linecap: round"/>
   </g>
   <g id="line2d_80">
    <path d="M 498.0375 503.476364 
L 518.9625 503.476364 
" clip-path="url(#p62f2c03d5e)" style="fill: none; stroke: #000000; stroke-linecap: round"/>
   </g>
   <g id="line2d_81">
    <path d="M 498.0375 320.203636 
L 518.9625 320.203636 
" clip-path="url(#p62f2c03d5e)" style="fill: none; stroke: #000000; stroke-linecap: round"/>
   </g>
   <g id="line2d_82"/>
   <g id="line2d_83">
    <path d="M 208.575 431.146221 
L 250.425 431.146221 
" clip-path="url(#p62f2c03d5e)" style="fill: none; stroke: #dd8452; stroke-linecap: round"/>
   </g>
   <g id="line2d_84">
    <path d="M 487.575 416.978513 
L 529.425 416.978513 
" clip-path="url(#p62f2c03d5e)" style="fill: none; stroke: #dd8452; stroke-linecap: round"/>
   </g>
   <g id="patch_8">
    <path d="M 90 512.64 
L 90 311.04 
" style="fill: none; stroke: #262626; stroke-width: 1.25; stroke-linejoin: miter; stroke-linecap: square"/>
   </g>
   <g id="patch_9">
    <path d="M 648 512.64 
L 648 311.04 
" style="fill: none; stroke: #262626; stroke-width: 1.25; stroke-linejoin: miter; stroke-linecap: square"/>
   </g>
   <g id="patch_10">
    <path d="M 90 512.64 
L 648 512.64 
" style="fill: none; stroke: #262626; stroke-width: 1.25; stroke-linejoin: miter; stroke-linecap: square"/>
   </g>
   <g id="patch_11">
    <path d="M 90 311.04 
L 648 311.04 
" style="fill: none; stroke: #262626; stroke-width: 1.25; stroke-linejoin: miter; stroke-linecap: square"/>
   </g>
  </g>
 </g>
 <defs>
  <clipPath id="pc653138efa">
   <rect x="90" y="69.12" width="558" height="201.6"/>
  </clipPath>
  <clipPath id="p62f2c03d5e">
   <rect x="90" y="311.04" width="558" height="201.6"/>
  </clipPath>
 </defs>
</svg>
