<?xml version="1.0" encoding="utf-8" standalone="no"?>
<!DOCTYPE svg PUBLIC "-//W3C//DTD SVG 1.1//EN"
  "http://www.w3.org/Graphics/SVG/1.1/DTD/svg11.dtd">
<svg xmlns:xlink="http://www.w3.org/1999/xlink" width="720pt" height="576pt" viewBox="0 0 720 576" xmlns="http://www.w3.org/2000/svg" version="1.1">
 <metadata>
  <rdf:RDF xmlns:dc="http://purl.org/dc/elements/1.1/" xmlns:cc="http://creativecommons.org/ns#" xmlns:rdf="http://www.w3.org/1999/02/22-rdf-syntax-ns#">
   <cc:Work>
    <dc:type rdf:resource="http://purl.org/dc/dcmitype/StillImage"/>
    <dc:date>2023-08-05T22:48:02.497802</dc:date>
    <dc:format>image/svg+xml</dc:format>
    <dc:creator>
     <cc:Agent>
      <dc:title>Matplotlib v3.6.2, https://matplotlib.org/</dc:title>
     </cc:Agent>
    </dc:creator>
   </cc:Work>
  </rdf:RDF>
 </metadata>
 <defs>
  <style type="text/css">*{stroke-linejoin: round; stroke-linecap: butt}</style>
 </defs>
 <g id="figure_1">
  <g id="patch_1">
   <path d="M 0 576 
L 720 576 
L 720 0 
L 0 0 
z
" style="fill: #ffffff"/>
  </g>
  <g id="axes_1">
   <g id="patch_2">
    <path d="M 90 512.64 
L 648 512.64 
L 648 69.12 
L 90 69.12 
z
" style="fill: #ffffff"/>
   </g>
   <g id="matplotlib.axis_1">
    <g id="xtick_1">
     <g id="line2d_1">
      <defs>
       <path id="me0764e9591" d="M 0 0 
L 0 3.5 
" style="stroke: #000000; stroke-width: 0.8"/>
      </defs>
      <g>
       <use xlink:href="#me0764e9591" x="136.469258" y="512.64" style="stroke: #000000; stroke-width: 0.8"/>
      </g>
     </g>
     <g id="text_1">
      <!-- −2.0 -->
      <g transform="translate(124.327852 527.238438) scale(0.1 -0.1)">
       <defs>
        <path id="DejaVuSans-2212" d="M 678 2272 
L 4684 2272 
L 4684 1741 
L 678 1741 
L 678 2272 
z
" transform="scale(0.015625)"/>
        <path id="DejaVuSans-32" d="M 1228 531 
L 3431 531 
L 3431 0 
L 469 0 
L 469 531 
Q 828 903 1448 1529 
Q 2069 2156 2228 2338 
Q 2531 2678 2651 2914 
Q 2772 3150 2772 3378 
Q 2772 3750 2511 3984 
Q 2250 4219 1831 4219 
Q 1534 4219 1204 4116 
Q 875 4013 500 3803 
L 500 4441 
Q 881 4594 1212 4672 
Q 1544 4750 1819 4750 
Q 2544 4750 2975 4387 
Q 3406 4025 3406 3419 
Q 3406 3131 3298 2873 
Q 3191 2616 2906 2266 
Q 2828 2175 2409 1742 
Q 1991 1309 1228 531 
z
" transform="scale(0.015625)"/>
        <path id="DejaVuSans-2e" d="M 684 794 
L 1344 794 
L 1344 0 
L 684 0 
L 684 794 
z
" transform="scale(0.015625)"/>
        <path id="DejaVuSans-30" d="M 2034 4250 
Q 1547 4250 1301 3770 
Q 1056 3291 1056 2328 
Q 1056 1369 1301 889 
Q 1547 409 2034 409 
Q 2525 409 2770 889 
Q 3016 1369 3016 2328 
Q 3016 3291 2770 3770 
Q 2525 4250 2034 4250 
z
M 2034 4750 
Q 2819 4750 3233 4129 
Q 3647 3509 3647 2328 
Q 3647 1150 3233 529 
Q 2819 -91 2034 -91 
Q 1250 -91 836 529 
Q 422 1150 422 2328 
Q 422 3509 836 4129 
Q 1250 4750 2034 4750 
z
" transform="scale(0.015625)"/>
       </defs>
       <use xlink:href="#DejaVuSans-2212"/>
       <use xlink:href="#DejaVuSans-32" x="83.789062"/>
       <use xlink:href="#DejaVuSans-2e" x="147.412109"/>
       <use xlink:href="#DejaVuSans-30" x="179.199219"/>
      </g>
     </g>
    </g>
    <g id="xtick_2">
     <g id="line2d_2">
      <g>
       <use xlink:href="#me0764e9591" x="248.25751" y="512.64" style="stroke: #000000; stroke-width: 0.8"/>
      </g>
     </g>
     <g id="text_2">
      <!-- −1.5 -->
      <g transform="translate(236.116103 527.238438) scale(0.1 -0.1)">
       <defs>
        <path id="DejaVuSans-31" d="M 794 531 
L 1825 531 
L 1825 4091 
L 703 3866 
L 703 4441 
L 1819 4666 
L 2450 4666 
L 2450 531 
L 3481 531 
L 3481 0 
L 794 0 
L 794 531 
z
" transform="scale(0.015625)"/>
        <path id="DejaVuSans-35" d="M 691 4666 
L 3169 4666 
L 3169 4134 
L 1269 4134 
L 1269 2991 
Q 1406 3038 1543 3061 
Q 1681 3084 1819 3084 
Q 2600 3084 3056 2656 
Q 3513 2228 3513 1497 
Q 3513 744 3044 326 
Q 2575 -91 1722 -91 
Q 1428 -91 1123 -41 
Q 819 9 494 109 
L 494 744 
Q 775 591 1075 516 
Q 1375 441 1709 441 
Q 2250 441 2565 725 
Q 2881 1009 2881 1497 
Q 2881 1984 2565 2268 
Q 2250 2553 1709 2553 
Q 1456 2553 1204 2497 
Q 953 2441 691 2322 
L 691 4666 
z
" transform="scale(0.015625)"/>
       </defs>
       <use xlink:href="#DejaVuSans-2212"/>
       <use xlink:href="#DejaVuSans-31" x="83.789062"/>
       <use xlink:href="#DejaVuSans-2e" x="147.412109"/>
       <use xlink:href="#DejaVuSans-35" x="179.199219"/>
      </g>
     </g>
    </g>
    <g id="xtick_3">
     <g id="line2d_3">
      <g>
       <use xlink:href="#me0764e9591" x="360.045761" y="512.64" style="stroke: #000000; stroke-width: 0.8"/>
      </g>
     </g>
     <g id="text_3">
      <!-- −1.0 -->
      <g transform="translate(347.904355 527.238438) scale(0.1 -0.1)">
       <use xlink:href="#DejaVuSans-2212"/>
       <use xlink:href="#DejaVuSans-31" x="83.789062"/>
       <use xlink:href="#DejaVuSans-2e" x="147.412109"/>
       <use xlink:href="#DejaVuSans-30" x="179.199219"/>
      </g>
     </g>
    </g>
    <g id="xtick_4">
     <g id="line2d_4">
      <g>
       <use xlink:href="#me0764e9591" x="471.834012" y="512.64" style="stroke: #000000; stroke-width: 0.8"/>
      </g>
     </g>
     <g id="text_4">
      <!-- −0.5 -->
      <g transform="translate(459.692606 527.238438) scale(0.1 -0.1)">
       <use xlink:href="#DejaVuSans-2212"/>
       <use xlink:href="#DejaVuSans-30" x="83.789062"/>
       <use xlink:href="#DejaVuSans-2e" x="147.412109"/>
       <use xlink:href="#DejaVuSans-35" x="179.199219"/>
      </g>
     </g>
    </g>
    <g id="xtick_5">
     <g id="line2d_5">
      <g>
       <use xlink:href="#me0764e9591" x="583.622264" y="512.64" style="stroke: #000000; stroke-width: 0.8"/>
      </g>
     </g>
     <g id="text_5">
      <!-- 0.0 -->
      <g transform="translate(575.670701 527.238438) scale(0.1 -0.1)">
       <use xlink:href="#DejaVuSans-30"/>
       <use xlink:href="#DejaVuSans-2e" x="63.623047"/>
       <use xlink:href="#DejaVuSans-30" x="95.410156"/>
      </g>
     </g>
    </g>
    <g id="text_6">
     <!-- Independent joint value (knee_angle_r) -->
     <g transform="translate(270.867969 540.916563) scale(0.1 -0.1)">
      <defs>
       <path id="DejaVuSans-49" d="M 628 4666 
L 1259 4666 
L 1259 0 
L 628 0 
L 628 4666 
z
" transform="scale(0.015625)"/>
       <path id="DejaVuSans-6e" d="M 3513 2113 
L 3513 0 
L 2938 0 
L 2938 2094 
Q 2938 2591 2744 2837 
Q 2550 3084 2163 3084 
Q 1697 3084 1428 2787 
Q 1159 2491 1159 1978 
L 1159 0 
L 581 0 
L 581 3500 
L 1159 3500 
L 1159 2956 
Q 1366 3272 1645 3428 
Q 1925 3584 2291 3584 
Q 2894 3584 3203 3211 
Q 3513 2838 3513 2113 
z
" transform="scale(0.015625)"/>
       <path id="DejaVuSans-64" d="M 2906 2969 
L 2906 4863 
L 3481 4863 
L 3481 0 
L 2906 0 
L 2906 525 
Q 2725 213 2448 61 
Q 2172 -91 1784 -91 
Q 1150 -91 751 415 
Q 353 922 353 1747 
Q 353 2572 751 3078 
Q 1150 3584 1784 3584 
Q 2172 3584 2448 3432 
Q 2725 3281 2906 2969 
z
M 947 1747 
Q 947 1113 1208 752 
Q 1469 391 1925 391 
Q 2381 391 2643 752 
Q 2906 1113 2906 1747 
Q 2906 2381 2643 2742 
Q 2381 3103 1925 3103 
Q 1469 3103 1208 2742 
Q 947 2381 947 1747 
z
" transform="scale(0.015625)"/>
       <path id="DejaVuSans-65" d="M 3597 1894 
L 3597 1613 
L 953 1613 
Q 991 1019 1311 708 
Q 1631 397 2203 397 
Q 2534 397 2845 478 
Q 3156 559 3463 722 
L 3463 178 
Q 3153 47 2828 -22 
Q 2503 -91 2169 -91 
Q 1331 -91 842 396 
Q 353 884 353 1716 
Q 353 2575 817 3079 
Q 1281 3584 2069 3584 
Q 2775 3584 3186 3129 
Q 3597 2675 3597 1894 
z
M 3022 2063 
Q 3016 2534 2758 2815 
Q 2500 3097 2075 3097 
Q 1594 3097 1305 2825 
Q 1016 2553 972 2059 
L 3022 2063 
z
" transform="scale(0.015625)"/>
       <path id="DejaVuSans-70" d="M 1159 525 
L 1159 -1331 
L 581 -1331 
L 581 3500 
L 1159 3500 
L 1159 2969 
Q 1341 3281 1617 3432 
Q 1894 3584 2278 3584 
Q 2916 3584 3314 3078 
Q 3713 2572 3713 1747 
Q 3713 922 3314 415 
Q 2916 -91 2278 -91 
Q 1894 -91 1617 61 
Q 1341 213 1159 525 
z
M 3116 1747 
Q 3116 2381 2855 2742 
Q 2594 3103 2138 3103 
Q 1681 3103 1420 2742 
Q 1159 2381 1159 1747 
Q 1159 1113 1420 752 
Q 1681 391 2138 391 
Q 2594 391 2855 752 
Q 3116 1113 3116 1747 
z
" transform="scale(0.015625)"/>
       <path id="DejaVuSans-74" d="M 1172 4494 
L 1172 3500 
L 2356 3500 
L 2356 3053 
L 1172 3053 
L 1172 1153 
Q 1172 725 1289 603 
Q 1406 481 1766 481 
L 2356 481 
L 2356 0 
L 1766 0 
Q 1100 0 847 248 
Q 594 497 594 1153 
L 594 3053 
L 172 3053 
L 172 3500 
L 594 3500 
L 594 4494 
L 1172 4494 
z
" transform="scale(0.015625)"/>
       <path id="DejaVuSans-20" transform="scale(0.015625)"/>
       <path id="DejaVuSans-6a" d="M 603 3500 
L 1178 3500 
L 1178 -63 
Q 1178 -731 923 -1031 
Q 669 -1331 103 -1331 
L -116 -1331 
L -116 -844 
L 38 -844 
Q 366 -844 484 -692 
Q 603 -541 603 -63 
L 603 3500 
z
M 603 4863 
L 1178 4863 
L 1178 4134 
L 603 4134 
L 603 4863 
z
" transform="scale(0.015625)"/>
       <path id="DejaVuSans-6f" d="M 1959 3097 
Q 1497 3097 1228 2736 
Q 959 2375 959 1747 
Q 959 1119 1226 758 
Q 1494 397 1959 397 
Q 2419 397 2687 759 
Q 2956 1122 2956 1747 
Q 2956 2369 2687 2733 
Q 2419 3097 1959 3097 
z
M 1959 3584 
Q 2709 3584 3137 3096 
Q 3566 2609 3566 1747 
Q 3566 888 3137 398 
Q 2709 -91 1959 -91 
Q 1206 -91 779 398 
Q 353 888 353 1747 
Q 353 2609 779 3096 
Q 1206 3584 1959 3584 
z
" transform="scale(0.015625)"/>
       <path id="DejaVuSans-69" d="M 603 3500 
L 1178 3500 
L 1178 0 
L 603 0 
L 603 3500 
z
M 603 4863 
L 1178 4863 
L 1178 4134 
L 603 4134 
L 603 4863 
z
" transform="scale(0.015625)"/>
       <path id="DejaVuSans-76" d="M 191 3500 
L 800 3500 
L 1894 563 
L 2988 3500 
L 3597 3500 
L 2284 0 
L 1503 0 
L 191 3500 
z
" transform="scale(0.015625)"/>
       <path id="DejaVuSans-61" d="M 2194 1759 
Q 1497 1759 1228 1600 
Q 959 1441 959 1056 
Q 959 750 1161 570 
Q 1363 391 1709 391 
Q 2188 391 2477 730 
Q 2766 1069 2766 1631 
L 2766 1759 
L 2194 1759 
z
M 3341 1997 
L 3341 0 
L 2766 0 
L 2766 531 
Q 2569 213 2275 61 
Q 1981 -91 1556 -91 
Q 1019 -91 701 211 
Q 384 513 384 1019 
Q 384 1609 779 1909 
Q 1175 2209 1959 2209 
L 2766 2209 
L 2766 2266 
Q 2766 2663 2505 2880 
Q 2244 3097 1772 3097 
Q 1472 3097 1187 3025 
Q 903 2953 641 2809 
L 641 3341 
Q 956 3463 1253 3523 
Q 1550 3584 1831 3584 
Q 2591 3584 2966 3190 
Q 3341 2797 3341 1997 
z
" transform="scale(0.015625)"/>
       <path id="DejaVuSans-6c" d="M 603 4863 
L 1178 4863 
L 1178 0 
L 603 0 
L 603 4863 
z
" transform="scale(0.015625)"/>
       <path id="DejaVuSans-75" d="M 544 1381 
L 544 3500 
L 1119 3500 
L 1119 1403 
Q 1119 906 1312 657 
Q 1506 409 1894 409 
Q 2359 409 2629 706 
Q 2900 1003 2900 1516 
L 2900 3500 
L 3475 3500 
L 3475 0 
L 2900 0 
L 2900 538 
Q 2691 219 2414 64 
Q 2138 -91 1772 -91 
Q 1169 -91 856 284 
Q 544 659 544 1381 
z
M 1991 3584 
L 1991 3584 
z
" transform="scale(0.015625)"/>
       <path id="DejaVuSans-28" d="M 1984 4856 
Q 1566 4138 1362 3434 
Q 1159 2731 1159 2009 
Q 1159 1288 1364 580 
Q 1569 -128 1984 -844 
L 1484 -844 
Q 1016 -109 783 600 
Q 550 1309 550 2009 
Q 550 2706 781 3412 
Q 1013 4119 1484 4856 
L 1984 4856 
z
" transform="scale(0.015625)"/>
       <path id="DejaVuSans-6b" d="M 581 4863 
L 1159 4863 
L 1159 1991 
L 2875 3500 
L 3609 3500 
L 1753 1863 
L 3688 0 
L 2938 0 
L 1159 1709 
L 1159 0 
L 581 0 
L 581 4863 
z
" transform="scale(0.015625)"/>
       <path id="DejaVuSans-5f" d="M 3263 -1063 
L 3263 -1509 
L -63 -1509 
L -63 -1063 
L 3263 -1063 
z
" transform="scale(0.015625)"/>
       <path id="DejaVuSans-67" d="M 2906 1791 
Q 2906 2416 2648 2759 
Q 2391 3103 1925 3103 
Q 1463 3103 1205 2759 
Q 947 2416 947 1791 
Q 947 1169 1205 825 
Q 1463 481 1925 481 
Q 2391 481 2648 825 
Q 2906 1169 2906 1791 
z
M 3481 434 
Q 3481 -459 3084 -895 
Q 2688 -1331 1869 -1331 
Q 1566 -1331 1297 -1286 
Q 1028 -1241 775 -1147 
L 775 -588 
Q 1028 -725 1275 -790 
Q 1522 -856 1778 -856 
Q 2344 -856 2625 -561 
Q 2906 -266 2906 331 
L 2906 616 
Q 2728 306 2450 153 
Q 2172 0 1784 0 
Q 1141 0 747 490 
Q 353 981 353 1791 
Q 353 2603 747 3093 
Q 1141 3584 1784 3584 
Q 2172 3584 2450 3431 
Q 2728 3278 2906 2969 
L 2906 3500 
L 3481 3500 
L 3481 434 
z
" transform="scale(0.015625)"/>
       <path id="DejaVuSans-72" d="M 2631 2963 
Q 2534 3019 2420 3045 
Q 2306 3072 2169 3072 
Q 1681 3072 1420 2755 
Q 1159 2438 1159 1844 
L 1159 0 
L 581 0 
L 581 3500 
L 1159 3500 
L 1159 2956 
Q 1341 3275 1631 3429 
Q 1922 3584 2338 3584 
Q 2397 3584 2469 3576 
Q 2541 3569 2628 3553 
L 2631 2963 
z
" transform="scale(0.015625)"/>
       <path id="DejaVuSans-29" d="M 513 4856 
L 1013 4856 
Q 1481 4119 1714 3412 
Q 1947 2706 1947 2009 
Q 1947 1309 1714 600 
Q 1481 -109 1013 -844 
L 513 -844 
Q 928 -128 1133 580 
Q 1338 1288 1338 2009 
Q 1338 2731 1133 3434 
Q 928 4138 513 4856 
z
" transform="scale(0.015625)"/>
      </defs>
      <use xlink:href="#DejaVuSans-49"/>
      <use xlink:href="#DejaVuSans-6e" x="29.492188"/>
      <use xlink:href="#DejaVuSans-64" x="92.871094"/>
      <use xlink:href="#DejaVuSans-65" x="156.347656"/>
      <use xlink:href="#DejaVuSans-70" x="217.871094"/>
      <use xlink:href="#DejaVuSans-65" x="281.347656"/>
      <use xlink:href="#DejaVuSans-6e" x="342.871094"/>
      <use xlink:href="#DejaVuSans-64" x="406.25"/>
      <use xlink:href="#DejaVuSans-65" x="469.726562"/>
      <use xlink:href="#DejaVuSans-6e" x="531.25"/>
      <use xlink:href="#DejaVuSans-74" x="594.628906"/>
      <use xlink:href="#DejaVuSans-20" x="633.837891"/>
      <use xlink:href="#DejaVuSans-6a" x="665.625"/>
      <use xlink:href="#DejaVuSans-6f" x="693.408203"/>
      <use xlink:href="#DejaVuSans-69" x="754.589844"/>
      <use xlink:href="#DejaVuSans-6e" x="782.373047"/>
      <use xlink:href="#DejaVuSans-74" x="845.751953"/>
      <use xlink:href="#DejaVuSans-20" x="884.960938"/>
      <use xlink:href="#DejaVuSans-76" x="916.748047"/>
      <use xlink:href="#DejaVuSans-61" x="975.927734"/>
      <use xlink:href="#DejaVuSans-6c" x="1037.207031"/>
      <use xlink:href="#DejaVuSans-75" x="1064.990234"/>
      <use xlink:href="#DejaVuSans-65" x="1128.369141"/>
      <use xlink:href="#DejaVuSans-20" x="1189.892578"/>
      <use xlink:href="#DejaVuSans-28" x="1221.679688"/>
      <use xlink:href="#DejaVuSans-6b" x="1260.693359"/>
      <use xlink:href="#DejaVuSans-6e" x="1318.603516"/>
      <use xlink:href="#DejaVuSans-65" x="1381.982422"/>
      <use xlink:href="#DejaVuSans-65" x="1443.505859"/>
      <use xlink:href="#DejaVuSans-5f" x="1505.029297"/>
      <use xlink:href="#DejaVuSans-61" x="1555.029297"/>
      <use xlink:href="#DejaVuSans-6e" x="1616.308594"/>
      <use xlink:href="#DejaVuSans-67" x="1679.6875"/>
      <use xlink:href="#DejaVuSans-6c" x="1743.164062"/>
      <use xlink:href="#DejaVuSans-65" x="1770.947266"/>
      <use xlink:href="#DejaVuSans-5f" x="1832.470703"/>
      <use xlink:href="#DejaVuSans-72" x="1882.470703"/>
      <use xlink:href="#DejaVuSans-29" x="1923.583984"/>
     </g>
    </g>
   </g>
   <g id="matplotlib.axis_2">
    <g id="ytick_1">
     <g id="line2d_6">
      <defs>
       <path id="m969be04dc2" d="M 0 0 
L -3.5 0 
" style="stroke: #000000; stroke-width: 0.8"/>
      </defs>
      <g>
       <use xlink:href="#m969be04dc2" x="90" y="478.53528" style="stroke: #000000; stroke-width: 0.8"/>
      </g>
     </g>
     <g id="text_7">
      <!-- 0.00150 -->
      <g transform="translate(41.646875 482.334499) scale(0.1 -0.1)">
       <use xlink:href="#DejaVuSans-30"/>
       <use xlink:href="#DejaVuSans-2e" x="63.623047"/>
       <use xlink:href="#DejaVuSans-30" x="95.410156"/>
       <use xlink:href="#DejaVuSans-30" x="159.033203"/>
       <use xlink:href="#DejaVuSans-31" x="222.65625"/>
       <use xlink:href="#DejaVuSans-35" x="286.279297"/>
       <use xlink:href="#DejaVuSans-30" x="349.902344"/>
      </g>
     </g>
    </g>
    <g id="ytick_2">
     <g id="line2d_7">
      <g>
       <use xlink:href="#m969be04dc2" x="90" y="427.277351" style="stroke: #000000; stroke-width: 0.8"/>
      </g>
     </g>
     <g id="text_8">
      <!-- 0.00152 -->
      <g transform="translate(41.646875 431.076569) scale(0.1 -0.1)">
       <use xlink:href="#DejaVuSans-30"/>
       <use xlink:href="#DejaVuSans-2e" x="63.623047"/>
       <use xlink:href="#DejaVuSans-30" x="95.410156"/>
       <use xlink:href="#DejaVuSans-30" x="159.033203"/>
       <use xlink:href="#DejaVuSans-31" x="222.65625"/>
       <use xlink:href="#DejaVuSans-35" x="286.279297"/>
       <use xlink:href="#DejaVuSans-32" x="349.902344"/>
      </g>
     </g>
    </g>
    <g id="ytick_3">
     <g id="line2d_8">
      <g>
       <use xlink:href="#m969be04dc2" x="90" y="376.019421" style="stroke: #000000; stroke-width: 0.8"/>
      </g>
     </g>
     <g id="text_9">
      <!-- 0.00154 -->
      <g transform="translate(41.646875 379.81864) scale(0.1 -0.1)">
       <defs>
        <path id="DejaVuSans-34" d="M 2419 4116 
L 825 1625 
L 2419 1625 
L 2419 4116 
z
M 2253 4666 
L 3047 4666 
L 3047 1625 
L 3713 1625 
L 3713 1100 
L 3047 1100 
L 3047 0 
L 2419 0 
L 2419 1100 
L 313 1100 
L 313 1709 
L 2253 4666 
z
" transform="scale(0.015625)"/>
       </defs>
       <use xlink:href="#DejaVuSans-30"/>
       <use xlink:href="#DejaVuSans-2e" x="63.623047"/>
       <use xlink:href="#DejaVuSans-30" x="95.410156"/>
       <use xlink:href="#DejaVuSans-30" x="159.033203"/>
       <use xlink:href="#DejaVuSans-31" x="222.65625"/>
       <use xlink:href="#DejaVuSans-35" x="286.279297"/>
       <use xlink:href="#DejaVuSans-34" x="349.902344"/>
      </g>
     </g>
    </g>
    <g id="ytick_4">
     <g id="line2d_9">
      <g>
       <use xlink:href="#m969be04dc2" x="90" y="324.761491" style="stroke: #000000; stroke-width: 0.8"/>
      </g>
     </g>
     <g id="text_10">
      <!-- 0.00156 -->
      <g transform="translate(41.646875 328.56071) scale(0.1 -0.1)">
       <defs>
        <path id="DejaVuSans-36" d="M 2113 2584 
Q 1688 2584 1439 2293 
Q 1191 2003 1191 1497 
Q 1191 994 1439 701 
Q 1688 409 2113 409 
Q 2538 409 2786 701 
Q 3034 994 3034 1497 
Q 3034 2003 2786 2293 
Q 2538 2584 2113 2584 
z
M 3366 4563 
L 3366 3988 
Q 3128 4100 2886 4159 
Q 2644 4219 2406 4219 
Q 1781 4219 1451 3797 
Q 1122 3375 1075 2522 
Q 1259 2794 1537 2939 
Q 1816 3084 2150 3084 
Q 2853 3084 3261 2657 
Q 3669 2231 3669 1497 
Q 3669 778 3244 343 
Q 2819 -91 2113 -91 
Q 1303 -91 875 529 
Q 447 1150 447 2328 
Q 447 3434 972 4092 
Q 1497 4750 2381 4750 
Q 2619 4750 2861 4703 
Q 3103 4656 3366 4563 
z
" transform="scale(0.015625)"/>
       </defs>
       <use xlink:href="#DejaVuSans-30"/>
       <use xlink:href="#DejaVuSans-2e" x="63.623047"/>
       <use xlink:href="#DejaVuSans-30" x="95.410156"/>
       <use xlink:href="#DejaVuSans-30" x="159.033203"/>
       <use xlink:href="#DejaVuSans-31" x="222.65625"/>
       <use xlink:href="#DejaVuSans-35" x="286.279297"/>
       <use xlink:href="#DejaVuSans-36" x="349.902344"/>
      </g>
     </g>
    </g>
    <g id="ytick_5">
     <g id="line2d_10">
      <g>
       <use xlink:href="#m969be04dc2" x="90" y="273.503562" style="stroke: #000000; stroke-width: 0.8"/>
      </g>
     </g>
     <g id="text_11">
      <!-- 0.00158 -->
      <g transform="translate(41.646875 277.302781) scale(0.1 -0.1)">
       <defs>
        <path id="DejaVuSans-38" d="M 2034 2216 
Q 1584 2216 1326 1975 
Q 1069 1734 1069 1313 
Q 1069 891 1326 650 
Q 1584 409 2034 409 
Q 2484 409 2743 651 
Q 3003 894 3003 1313 
Q 3003 1734 2745 1975 
Q 2488 2216 2034 2216 
z
M 1403 2484 
Q 997 2584 770 2862 
Q 544 3141 544 3541 
Q 544 4100 942 4425 
Q 1341 4750 2034 4750 
Q 2731 4750 3128 4425 
Q 3525 4100 3525 3541 
Q 3525 3141 3298 2862 
Q 3072 2584 2669 2484 
Q 3125 2378 3379 2068 
Q 3634 1759 3634 1313 
Q 3634 634 3220 271 
Q 2806 -91 2034 -91 
Q 1263 -91 848 271 
Q 434 634 434 1313 
Q 434 1759 690 2068 
Q 947 2378 1403 2484 
z
M 1172 3481 
Q 1172 3119 1398 2916 
Q 1625 2713 2034 2713 
Q 2441 2713 2670 2916 
Q 2900 3119 2900 3481 
Q 2900 3844 2670 4047 
Q 2441 4250 2034 4250 
Q 1625 4250 1398 4047 
Q 1172 3844 1172 3481 
z
" transform="scale(0.015625)"/>
       </defs>
       <use xlink:href="#DejaVuSans-30"/>
       <use xlink:href="#DejaVuSans-2e" x="63.623047"/>
       <use xlink:href="#DejaVuSans-30" x="95.410156"/>
       <use xlink:href="#DejaVuSans-30" x="159.033203"/>
       <use xlink:href="#DejaVuSans-31" x="222.65625"/>
       <use xlink:href="#DejaVuSans-35" x="286.279297"/>
       <use xlink:href="#DejaVuSans-38" x="349.902344"/>
      </g>
     </g>
    </g>
    <g id="ytick_6">
     <g id="line2d_11">
      <g>
       <use xlink:href="#m969be04dc2" x="90" y="222.245632" style="stroke: #000000; stroke-width: 0.8"/>
      </g>
     </g>
     <g id="text_12">
      <!-- 0.00160 -->
      <g transform="translate(41.646875 226.044851) scale(0.1 -0.1)">
       <use xlink:href="#DejaVuSans-30"/>
       <use xlink:href="#DejaVuSans-2e" x="63.623047"/>
       <use xlink:href="#DejaVuSans-30" x="95.410156"/>
       <use xlink:href="#DejaVuSans-30" x="159.033203"/>
       <use xlink:href="#DejaVuSans-31" x="222.65625"/>
       <use xlink:href="#DejaVuSans-36" x="286.279297"/>
       <use xlink:href="#DejaVuSans-30" x="349.902344"/>
      </g>
     </g>
    </g>
    <g id="ytick_7">
     <g id="line2d_12">
      <g>
       <use xlink:href="#m969be04dc2" x="90" y="170.987703" style="stroke: #000000; stroke-width: 0.8"/>
      </g>
     </g>
     <g id="text_13">
      <!-- 0.00162 -->
      <g transform="translate(41.646875 174.786921) scale(0.1 -0.1)">
       <use xlink:href="#DejaVuSans-30"/>
       <use xlink:href="#DejaVuSans-2e" x="63.623047"/>
       <use xlink:href="#DejaVuSans-30" x="95.410156"/>
       <use xlink:href="#DejaVuSans-30" x="159.033203"/>
       <use xlink:href="#DejaVuSans-31" x="222.65625"/>
       <use xlink:href="#DejaVuSans-36" x="286.279297"/>
       <use xlink:href="#DejaVuSans-32" x="349.902344"/>
      </g>
     </g>
    </g>
    <g id="ytick_8">
     <g id="line2d_13">
      <g>
       <use xlink:href="#m969be04dc2" x="90" y="119.729773" style="stroke: #000000; stroke-width: 0.8"/>
      </g>
     </g>
     <g id="text_14">
      <!-- 0.00164 -->
      <g transform="translate(41.646875 123.528992) scale(0.1 -0.1)">
       <use xlink:href="#DejaVuSans-30"/>
       <use xlink:href="#DejaVuSans-2e" x="63.623047"/>
       <use xlink:href="#DejaVuSans-30" x="95.410156"/>
       <use xlink:href="#DejaVuSans-30" x="159.033203"/>
       <use xlink:href="#DejaVuSans-31" x="222.65625"/>
       <use xlink:href="#DejaVuSans-36" x="286.279297"/>
       <use xlink:href="#DejaVuSans-34" x="349.902344"/>
      </g>
     </g>
    </g>
    <g id="text_15">
     <!-- Dependent joint value (rect_fem_r-P3_z) -->
     <g transform="translate(35.289062 391.195625) rotate(-90) scale(0.1 -0.1)">
      <defs>
       <path id="DejaVuSans-44" d="M 1259 4147 
L 1259 519 
L 2022 519 
Q 2988 519 3436 956 
Q 3884 1394 3884 2338 
Q 3884 3275 3436 3711 
Q 2988 4147 2022 4147 
L 1259 4147 
z
M 628 4666 
L 1925 4666 
Q 3281 4666 3915 4102 
Q 4550 3538 4550 2338 
Q 4550 1131 3912 565 
Q 3275 0 1925 0 
L 628 0 
L 628 4666 
z
" transform="scale(0.015625)"/>
       <path id="DejaVuSans-63" d="M 3122 3366 
L 3122 2828 
Q 2878 2963 2633 3030 
Q 2388 3097 2138 3097 
Q 1578 3097 1268 2742 
Q 959 2388 959 1747 
Q 959 1106 1268 751 
Q 1578 397 2138 397 
Q 2388 397 2633 464 
Q 2878 531 3122 666 
L 3122 134 
Q 2881 22 2623 -34 
Q 2366 -91 2075 -91 
Q 1284 -91 818 406 
Q 353 903 353 1747 
Q 353 2603 823 3093 
Q 1294 3584 2113 3584 
Q 2378 3584 2631 3529 
Q 2884 3475 3122 3366 
z
" transform="scale(0.015625)"/>
       <path id="DejaVuSans-66" d="M 2375 4863 
L 2375 4384 
L 1825 4384 
Q 1516 4384 1395 4259 
Q 1275 4134 1275 3809 
L 1275 3500 
L 2222 3500 
L 2222 3053 
L 1275 3053 
L 1275 0 
L 697 0 
L 697 3053 
L 147 3053 
L 147 3500 
L 697 3500 
L 697 3744 
Q 697 4328 969 4595 
Q 1241 4863 1831 4863 
L 2375 4863 
z
" transform="scale(0.015625)"/>
       <path id="DejaVuSans-6d" d="M 3328 2828 
Q 3544 3216 3844 3400 
Q 4144 3584 4550 3584 
Q 5097 3584 5394 3201 
Q 5691 2819 5691 2113 
L 5691 0 
L 5113 0 
L 5113 2094 
Q 5113 2597 4934 2840 
Q 4756 3084 4391 3084 
Q 3944 3084 3684 2787 
Q 3425 2491 3425 1978 
L 3425 0 
L 2847 0 
L 2847 2094 
Q 2847 2600 2669 2842 
Q 2491 3084 2119 3084 
Q 1678 3084 1418 2786 
Q 1159 2488 1159 1978 
L 1159 0 
L 581 0 
L 581 3500 
L 1159 3500 
L 1159 2956 
Q 1356 3278 1631 3431 
Q 1906 3584 2284 3584 
Q 2666 3584 2933 3390 
Q 3200 3197 3328 2828 
z
" transform="scale(0.015625)"/>
       <path id="DejaVuSans-2d" d="M 313 2009 
L 1997 2009 
L 1997 1497 
L 313 1497 
L 313 2009 
z
" transform="scale(0.015625)"/>
       <path id="DejaVuSans-50" d="M 1259 4147 
L 1259 2394 
L 2053 2394 
Q 2494 2394 2734 2622 
Q 2975 2850 2975 3272 
Q 2975 3691 2734 3919 
Q 2494 4147 2053 4147 
L 1259 4147 
z
M 628 4666 
L 2053 4666 
Q 2838 4666 3239 4311 
Q 3641 3956 3641 3272 
Q 3641 2581 3239 2228 
Q 2838 1875 2053 1875 
L 1259 1875 
L 1259 0 
L 628 0 
L 628 4666 
z
" transform="scale(0.015625)"/>
       <path id="DejaVuSans-33" d="M 2597 2516 
Q 3050 2419 3304 2112 
Q 3559 1806 3559 1356 
Q 3559 666 3084 287 
Q 2609 -91 1734 -91 
Q 1441 -91 1130 -33 
Q 819 25 488 141 
L 488 750 
Q 750 597 1062 519 
Q 1375 441 1716 441 
Q 2309 441 2620 675 
Q 2931 909 2931 1356 
Q 2931 1769 2642 2001 
Q 2353 2234 1838 2234 
L 1294 2234 
L 1294 2753 
L 1863 2753 
Q 2328 2753 2575 2939 
Q 2822 3125 2822 3475 
Q 2822 3834 2567 4026 
Q 2313 4219 1838 4219 
Q 1578 4219 1281 4162 
Q 984 4106 628 3988 
L 628 4550 
Q 988 4650 1302 4700 
Q 1616 4750 1894 4750 
Q 2613 4750 3031 4423 
Q 3450 4097 3450 3541 
Q 3450 3153 3228 2886 
Q 3006 2619 2597 2516 
z
" transform="scale(0.015625)"/>
       <path id="DejaVuSans-7a" d="M 353 3500 
L 3084 3500 
L 3084 2975 
L 922 459 
L 3084 459 
L 3084 0 
L 275 0 
L 275 525 
L 2438 3041 
L 353 3041 
L 353 3500 
z
" transform="scale(0.015625)"/>
      </defs>
      <use xlink:href="#DejaVuSans-44"/>
      <use xlink:href="#DejaVuSans-65" x="77.001953"/>
      <use xlink:href="#DejaVuSans-70" x="138.525391"/>
      <use xlink:href="#DejaVuSans-65" x="202.001953"/>
      <use xlink:href="#DejaVuSans-6e" x="263.525391"/>
      <use xlink:href="#DejaVuSans-64" x="326.904297"/>
      <use xlink:href="#DejaVuSans-65" x="390.380859"/>
      <use xlink:href="#DejaVuSans-6e" x="451.904297"/>
      <use xlink:href="#DejaVuSans-74" x="515.283203"/>
      <use xlink:href="#DejaVuSans-20" x="554.492188"/>
      <use xlink:href="#DejaVuSans-6a" x="586.279297"/>
      <use xlink:href="#DejaVuSans-6f" x="614.0625"/>
      <use xlink:href="#DejaVuSans-69" x="675.244141"/>
      <use xlink:href="#DejaVuSans-6e" x="703.027344"/>
      <use xlink:href="#DejaVuSans-74" x="766.40625"/>
      <use xlink:href="#DejaVuSans-20" x="805.615234"/>
      <use xlink:href="#DejaVuSans-76" x="837.402344"/>
      <use xlink:href="#DejaVuSans-61" x="896.582031"/>
      <use xlink:href="#DejaVuSans-6c" x="957.861328"/>
      <use xlink:href="#DejaVuSans-75" x="985.644531"/>
      <use xlink:href="#DejaVuSans-65" x="1049.023438"/>
      <use xlink:href="#DejaVuSans-20" x="1110.546875"/>
      <use xlink:href="#DejaVuSans-28" x="1142.333984"/>
      <use xlink:href="#DejaVuSans-72" x="1181.347656"/>
      <use xlink:href="#DejaVuSans-65" x="1220.210938"/>
      <use xlink:href="#DejaVuSans-63" x="1281.734375"/>
      <use xlink:href="#DejaVuSans-74" x="1336.714844"/>
      <use xlink:href="#DejaVuSans-5f" x="1375.923828"/>
      <use xlink:href="#DejaVuSans-66" x="1425.923828"/>
      <use xlink:href="#DejaVuSans-65" x="1461.128906"/>
      <use xlink:href="#DejaVuSans-6d" x="1522.652344"/>
      <use xlink:href="#DejaVuSans-5f" x="1620.064453"/>
      <use xlink:href="#DejaVuSans-72" x="1670.064453"/>
      <use xlink:href="#DejaVuSans-2d" x="1704.802734"/>
      <use xlink:href="#DejaVuSans-50" x="1740.886719"/>
      <use xlink:href="#DejaVuSans-33" x="1801.189453"/>
      <use xlink:href="#DejaVuSans-5f" x="1864.8125"/>
      <use xlink:href="#DejaVuSans-7a" x="1914.8125"/>
      <use xlink:href="#DejaVuSans-29" x="1967.302734"/>
     </g>
    </g>
   </g>
   <g id="line2d_14">
    <defs>
     <path id="m2142a98065" d="M 0 2.5 
C 0.663008 2.5 1.29895 2.236584 1.767767 1.767767 
C 2.236584 1.29895 2.5 0.663008 2.5 0 
C 2.5 -0.663008 2.236584 -1.29895 1.767767 -1.767767 
C 1.29895 -2.236584 0.663008 -2.5 0 -2.5 
C -0.663008 -2.5 -1.29895 -2.236584 -1.767767 -1.767767 
C -2.236584 -1.29895 -2.5 -0.663008 -2.5 0 
C -2.5 0.663008 -2.236584 1.29895 -1.767767 1.767767 
C -1.29895 2.236584 -0.663008 2.5 0 2.5 
z
" style="stroke: #1f77b4"/>
    </defs>
    <g clip-path="url(#pb9e1bd63c0)">
     <use xlink:href="#m2142a98065" x="115.363636" y="290.88" style="fill: #1f77b4; stroke: #1f77b4"/>
     <use xlink:href="#m2142a98065" x="622.636364" y="290.88" style="fill: #1f77b4; stroke: #1f77b4"/>
    </g>
   </g>
   <g id="line2d_15">
    <path d="M 115.363636 290.88 
L 120.487603 290.88 
L 125.61157 290.88 
L 130.735537 290.88 
L 135.859504 290.88 
L 140.983471 290.88 
L 146.107438 290.88 
L 151.231405 290.88 
L 156.355372 290.88 
L 161.479339 290.88 
L 166.603306 290.88 
L 171.727273 290.88 
L 176.85124 290.88 
L 181.975207 290.88 
L 187.099174 290.88 
L 192.22314 290.88 
L 197.347107 290.88 
L 202.471074 290.88 
L 207.595041 290.88 
L 212.719008 290.88 
L 217.842975 290.88 
L 222.966942 290.88 
L 228.090909 290.88 
L 233.214876 290.88 
L 238.338843 290.88 
L 243.46281 290.88 
L 248.586777 290.88 
L 253.710744 290.88 
L 258.834711 290.88 
L 263.958678 290.88 
L 269.082645 290.88 
L 274.206612 290.88 
L 279.330579 290.88 
L 284.454545 290.88 
L 289.578512 290.88 
L 294.702479 290.88 
L 299.826446 290.88 
L 304.950413 290.88 
L 310.07438 290.88 
L 315.198347 290.88 
L 320.322314 290.88 
L 325.446281 290.88 
L 330.570248 290.88 
L 335.694215 290.88 
L 340.818182 290.88 
L 345.942149 290.88 
L 351.066116 290.88 
L 356.190083 290.88 
L 361.31405 290.88 
L 366.438017 290.88 
L 371.561983 290.88 
L 376.68595 290.88 
L 381.809917 290.88 
L 386.933884 290.88 
L 392.057851 290.88 
L 397.181818 290.88 
L 402.305785 290.88 
L 407.429752 290.88 
L 412.553719 290.88 
L 417.677686 290.88 
L 422.801653 290.88 
L 427.92562 290.88 
L 433.049587 290.88 
L 438.173554 290.88 
L 443.297521 290.88 
L 448.421488 290.88 
L 453.545455 290.88 
L 458.669421 290.88 
L 463.793388 290.88 
L 468.917355 290.88 
L 474.041322 290.88 
L 479.165289 290.88 
L 484.289256 290.88 
L 489.413223 290.88 
L 494.53719 290.88 
L 499.661157 290.88 
L 504.785124 290.88 
L 509.909091 290.88 
L 515.033058 290.88 
L 520.157025 290.88 
L 525.280992 290.88 
L 530.404959 290.88 
L 535.528926 290.88 
L 540.652893 290.88 
L 545.77686 290.88 
L 550.900826 290.88 
L 556.024793 290.88 
L 561.14876 290.88 
L 566.272727 290.88 
L 571.396694 290.88 
L 576.520661 290.88 
L 581.644628 290.88 
L 586.768595 290.88 
L 591.892562 290.88 
L 597.016529 290.88 
L 602.140496 290.88 
L 607.264463 290.88 
L 612.38843 290.88 
L 617.512397 290.88 
L 622.636364 290.88 
" clip-path="url(#pb9e1bd63c0)" style="fill: none; stroke: #ff7f0e; stroke-width: 1.5; stroke-linecap: square"/>
   </g>
   <g id="patch_3">
    <path d="M 90 512.64 
L 90 69.12 
" style="fill: none; stroke: #000000; stroke-width: 0.8; stroke-linejoin: miter; stroke-linecap: square"/>
   </g>
   <g id="patch_4">
    <path d="M 648 512.64 
L 648 69.12 
" style="fill: none; stroke: #000000; stroke-width: 0.8; stroke-linejoin: miter; stroke-linecap: square"/>
   </g>
   <g id="patch_5">
    <path d="M 90 512.64 
L 648 512.64 
" style="fill: none; stroke: #000000; stroke-width: 0.8; stroke-linejoin: miter; stroke-linecap: square"/>
   </g>
   <g id="patch_6">
    <path d="M 90 69.12 
L 648 69.12 
" style="fill: none; stroke: #000000; stroke-width: 0.8; stroke-linejoin: miter; stroke-linecap: square"/>
   </g>
   <g id="text_16">
    <!-- Approximation of the movement function of MovingPathPoint rect_fem_r-P3, z coordinate -->
    <g transform="translate(101.88 63.12) scale(0.12 -0.12)">
     <defs>
      <path id="DejaVuSans-41" d="M 2188 4044 
L 1331 1722 
L 3047 1722 
L 2188 4044 
z
M 1831 4666 
L 2547 4666 
L 4325 0 
L 3669 0 
L 3244 1197 
L 1141 1197 
L 716 0 
L 50 0 
L 1831 4666 
z
" transform="scale(0.015625)"/>
      <path id="DejaVuSans-78" d="M 3513 3500 
L 2247 1797 
L 3578 0 
L 2900 0 
L 1881 1375 
L 863 0 
L 184 0 
L 1544 1831 
L 300 3500 
L 978 3500 
L 1906 2253 
L 2834 3500 
L 3513 3500 
z
" transform="scale(0.015625)"/>
      <path id="DejaVuSans-68" d="M 3513 2113 
L 3513 0 
L 2938 0 
L 2938 2094 
Q 2938 2591 2744 2837 
Q 2550 3084 2163 3084 
Q 1697 3084 1428 2787 
Q 1159 2491 1159 1978 
L 1159 0 
L 581 0 
L 581 4863 
L 1159 4863 
L 1159 2956 
Q 1366 3272 1645 3428 
Q 1925 3584 2291 3584 
Q 2894 3584 3203 3211 
Q 3513 2838 3513 2113 
z
" transform="scale(0.015625)"/>
      <path id="DejaVuSans-4d" d="M 628 4666 
L 1569 4666 
L 2759 1491 
L 3956 4666 
L 4897 4666 
L 4897 0 
L 4281 0 
L 4281 4097 
L 3078 897 
L 2444 897 
L 1241 4097 
L 1241 0 
L 628 0 
L 628 4666 
z
" transform="scale(0.015625)"/>
      <path id="DejaVuSans-2c" d="M 750 794 
L 1409 794 
L 1409 256 
L 897 -744 
L 494 -744 
L 750 256 
L 750 794 
z
" transform="scale(0.015625)"/>
     </defs>
     <use xlink:href="#DejaVuSans-41"/>
     <use xlink:href="#DejaVuSans-70" x="68.408203"/>
     <use xlink:href="#DejaVuSans-70" x="131.884766"/>
     <use xlink:href="#DejaVuSans-72" x="195.361328"/>
     <use xlink:href="#DejaVuSans-6f" x="234.224609"/>
     <use xlink:href="#DejaVuSans-78" x="292.28125"/>
     <use xlink:href="#DejaVuSans-69" x="351.460938"/>
     <use xlink:href="#DejaVuSans-6d" x="379.244141"/>
     <use xlink:href="#DejaVuSans-61" x="476.65625"/>
     <use xlink:href="#DejaVuSans-74" x="537.935547"/>
     <use xlink:href="#DejaVuSans-69" x="577.144531"/>
     <use xlink:href="#DejaVuSans-6f" x="604.927734"/>
     <use xlink:href="#DejaVuSans-6e" x="666.109375"/>
     <use xlink:href="#DejaVuSans-20" x="729.488281"/>
     <use xlink:href="#DejaVuSans-6f" x="761.275391"/>
     <use xlink:href="#DejaVuSans-66" x="822.457031"/>
     <use xlink:href="#DejaVuSans-20" x="857.662109"/>
     <use xlink:href="#DejaVuSans-74" x="889.449219"/>
     <use xlink:href="#DejaVuSans-68" x="928.658203"/>
     <use xlink:href="#DejaVuSans-65" x="992.037109"/>
     <use xlink:href="#DejaVuSans-20" x="1053.560547"/>
     <use xlink:href="#DejaVuSans-6d" x="1085.347656"/>
     <use xlink:href="#DejaVuSans-6f" x="1182.759766"/>
     <use xlink:href="#DejaVuSans-76" x="1243.941406"/>
     <use xlink:href="#DejaVuSans-65" x="1303.121094"/>
     <use xlink:href="#DejaVuSans-6d" x="1364.644531"/>
     <use xlink:href="#DejaVuSans-65" x="1462.056641"/>
     <use xlink:href="#DejaVuSans-6e" x="1523.580078"/>
     <use xlink:href="#DejaVuSans-74" x="1586.958984"/>
     <use xlink:href="#DejaVuSans-20" x="1626.167969"/>
     <use xlink:href="#DejaVuSans-66" x="1657.955078"/>
     <use xlink:href="#DejaVuSans-75" x="1693.160156"/>
     <use xlink:href="#DejaVuSans-6e" x="1756.539062"/>
     <use xlink:href="#DejaVuSans-63" x="1819.917969"/>
     <use xlink:href="#DejaVuSans-74" x="1874.898438"/>
     <use xlink:href="#DejaVuSans-69" x="1914.107422"/>
     <use xlink:href="#DejaVuSans-6f" x="1941.890625"/>
     <use xlink:href="#DejaVuSans-6e" x="2003.072266"/>
     <use xlink:href="#DejaVuSans-20" x="2066.451172"/>
     <use xlink:href="#DejaVuSans-6f" x="2098.238281"/>
     <use xlink:href="#DejaVuSans-66" x="2159.419922"/>
     <use xlink:href="#DejaVuSans-20" x="2194.625"/>
     <use xlink:href="#DejaVuSans-4d" x="2226.412109"/>
     <use xlink:href="#DejaVuSans-6f" x="2312.691406"/>
     <use xlink:href="#DejaVuSans-76" x="2373.873047"/>
     <use xlink:href="#DejaVuSans-69" x="2433.052734"/>
     <use xlink:href="#DejaVuSans-6e" x="2460.835938"/>
     <use xlink:href="#DejaVuSans-67" x="2524.214844"/>
     <use xlink:href="#DejaVuSans-50" x="2587.691406"/>
     <use xlink:href="#DejaVuSans-61" x="2643.494141"/>
     <use xlink:href="#DejaVuSans-74" x="2704.773438"/>
     <use xlink:href="#DejaVuSans-68" x="2743.982422"/>
     <use xlink:href="#DejaVuSans-50" x="2807.361328"/>
     <use xlink:href="#DejaVuSans-6f" x="2864.039062"/>
     <use xlink:href="#DejaVuSans-69" x="2925.220703"/>
     <use xlink:href="#DejaVuSans-6e" x="2953.003906"/>
     <use xlink:href="#DejaVuSans-74" x="3016.382812"/>
     <use xlink:href="#DejaVuSans-20" x="3055.591797"/>
     <use xlink:href="#DejaVuSans-72" x="3087.378906"/>
     <use xlink:href="#DejaVuSans-65" x="3126.242188"/>
     <use xlink:href="#DejaVuSans-63" x="3187.765625"/>
     <use xlink:href="#DejaVuSans-74" x="3242.746094"/>
     <use xlink:href="#DejaVuSans-5f" x="3281.955078"/>
     <use xlink:href="#DejaVuSans-66" x="3331.955078"/>
     <use xlink:href="#DejaVuSans-65" x="3367.160156"/>
     <use xlink:href="#DejaVuSans-6d" x="3428.683594"/>
     <use xlink:href="#DejaVuSans-5f" x="3526.095703"/>
     <use xlink:href="#DejaVuSans-72" x="3576.095703"/>
     <use xlink:href="#DejaVuSans-2d" x="3610.833984"/>
     <use xlink:href="#DejaVuSans-50" x="3646.917969"/>
     <use xlink:href="#DejaVuSans-33" x="3707.220703"/>
     <use xlink:href="#DejaVuSans-2c" x="3770.84375"/>
     <use xlink:href="#DejaVuSans-20" x="3802.630859"/>
     <use xlink:href="#DejaVuSans-7a" x="3834.417969"/>
     <use xlink:href="#DejaVuSans-20" x="3886.908203"/>
     <use xlink:href="#DejaVuSans-63" x="3918.695312"/>
     <use xlink:href="#DejaVuSans-6f" x="3973.675781"/>
     <use xlink:href="#DejaVuSans-6f" x="4034.857422"/>
     <use xlink:href="#DejaVuSans-72" x="4096.039062"/>
     <use xlink:href="#DejaVuSans-64" x="4135.402344"/>
     <use xlink:href="#DejaVuSans-69" x="4198.878906"/>
     <use xlink:href="#DejaVuSans-6e" x="4226.662109"/>
     <use xlink:href="#DejaVuSans-61" x="4290.041016"/>
     <use xlink:href="#DejaVuSans-74" x="4351.320312"/>
     <use xlink:href="#DejaVuSans-65" x="4390.529297"/>
    </g>
   </g>
   <g id="legend_1">
    <g id="patch_7">
     <path d="M 402.35625 106.47625 
L 641 106.47625 
Q 643 106.47625 643 104.47625 
L 643 76.12 
Q 643 74.12 641 74.12 
L 402.35625 74.12 
Q 400.35625 74.12 400.35625 76.12 
L 400.35625 104.47625 
Q 400.35625 106.47625 402.35625 106.47625 
z
" style="fill: #ffffff; opacity: 0.8; stroke: #cccccc; stroke-linejoin: miter"/>
    </g>
    <g id="line2d_16">
     <g>
      <use xlink:href="#m2142a98065" x="414.35625" y="82.218438" style="fill: #1f77b4; stroke: #1f77b4"/>
     </g>
    </g>
    <g id="text_17">
     <!-- OpenSim movement function data points -->
     <g transform="translate(432.35625 85.718438) scale(0.1 -0.1)">
      <defs>
       <path id="DejaVuSans-4f" d="M 2522 4238 
Q 1834 4238 1429 3725 
Q 1025 3213 1025 2328 
Q 1025 1447 1429 934 
Q 1834 422 2522 422 
Q 3209 422 3611 934 
Q 4013 1447 4013 2328 
Q 4013 3213 3611 3725 
Q 3209 4238 2522 4238 
z
M 2522 4750 
Q 3503 4750 4090 4092 
Q 4678 3434 4678 2328 
Q 4678 1225 4090 567 
Q 3503 -91 2522 -91 
Q 1538 -91 948 565 
Q 359 1222 359 2328 
Q 359 3434 948 4092 
Q 1538 4750 2522 4750 
z
" transform="scale(0.015625)"/>
       <path id="DejaVuSans-53" d="M 3425 4513 
L 3425 3897 
Q 3066 4069 2747 4153 
Q 2428 4238 2131 4238 
Q 1616 4238 1336 4038 
Q 1056 3838 1056 3469 
Q 1056 3159 1242 3001 
Q 1428 2844 1947 2747 
L 2328 2669 
Q 3034 2534 3370 2195 
Q 3706 1856 3706 1288 
Q 3706 609 3251 259 
Q 2797 -91 1919 -91 
Q 1588 -91 1214 -16 
Q 841 59 441 206 
L 441 856 
Q 825 641 1194 531 
Q 1563 422 1919 422 
Q 2459 422 2753 634 
Q 3047 847 3047 1241 
Q 3047 1584 2836 1778 
Q 2625 1972 2144 2069 
L 1759 2144 
Q 1053 2284 737 2584 
Q 422 2884 422 3419 
Q 422 4038 858 4394 
Q 1294 4750 2059 4750 
Q 2388 4750 2728 4690 
Q 3069 4631 3425 4513 
z
" transform="scale(0.015625)"/>
       <path id="DejaVuSans-73" d="M 2834 3397 
L 2834 2853 
Q 2591 2978 2328 3040 
Q 2066 3103 1784 3103 
Q 1356 3103 1142 2972 
Q 928 2841 928 2578 
Q 928 2378 1081 2264 
Q 1234 2150 1697 2047 
L 1894 2003 
Q 2506 1872 2764 1633 
Q 3022 1394 3022 966 
Q 3022 478 2636 193 
Q 2250 -91 1575 -91 
Q 1294 -91 989 -36 
Q 684 19 347 128 
L 347 722 
Q 666 556 975 473 
Q 1284 391 1588 391 
Q 1994 391 2212 530 
Q 2431 669 2431 922 
Q 2431 1156 2273 1281 
Q 2116 1406 1581 1522 
L 1381 1569 
Q 847 1681 609 1914 
Q 372 2147 372 2553 
Q 372 3047 722 3315 
Q 1072 3584 1716 3584 
Q 2034 3584 2315 3537 
Q 2597 3491 2834 3397 
z
" transform="scale(0.015625)"/>
      </defs>
      <use xlink:href="#DejaVuSans-4f"/>
      <use xlink:href="#DejaVuSans-70" x="78.710938"/>
      <use xlink:href="#DejaVuSans-65" x="142.1875"/>
      <use xlink:href="#DejaVuSans-6e" x="203.710938"/>
      <use xlink:href="#DejaVuSans-53" x="267.089844"/>
      <use xlink:href="#DejaVuSans-69" x="330.566406"/>
      <use xlink:href="#DejaVuSans-6d" x="358.349609"/>
      <use xlink:href="#DejaVuSans-20" x="455.761719"/>
      <use xlink:href="#DejaVuSans-6d" x="487.548828"/>
      <use xlink:href="#DejaVuSans-6f" x="584.960938"/>
      <use xlink:href="#DejaVuSans-76" x="646.142578"/>
      <use xlink:href="#DejaVuSans-65" x="705.322266"/>
      <use xlink:href="#DejaVuSans-6d" x="766.845703"/>
      <use xlink:href="#DejaVuSans-65" x="864.257812"/>
      <use xlink:href="#DejaVuSans-6e" x="925.78125"/>
      <use xlink:href="#DejaVuSans-74" x="989.160156"/>
      <use xlink:href="#DejaVuSans-20" x="1028.369141"/>
      <use xlink:href="#DejaVuSans-66" x="1060.15625"/>
      <use xlink:href="#DejaVuSans-75" x="1095.361328"/>
      <use xlink:href="#DejaVuSans-6e" x="1158.740234"/>
      <use xlink:href="#DejaVuSans-63" x="1222.119141"/>
      <use xlink:href="#DejaVuSans-74" x="1277.099609"/>
      <use xlink:href="#DejaVuSans-69" x="1316.308594"/>
      <use xlink:href="#DejaVuSans-6f" x="1344.091797"/>
      <use xlink:href="#DejaVuSans-6e" x="1405.273438"/>
      <use xlink:href="#DejaVuSans-20" x="1468.652344"/>
      <use xlink:href="#DejaVuSans-64" x="1500.439453"/>
      <use xlink:href="#DejaVuSans-61" x="1563.916016"/>
      <use xlink:href="#DejaVuSans-74" x="1625.195312"/>
      <use xlink:href="#DejaVuSans-61" x="1664.404297"/>
      <use xlink:href="#DejaVuSans-20" x="1725.683594"/>
      <use xlink:href="#DejaVuSans-70" x="1757.470703"/>
      <use xlink:href="#DejaVuSans-6f" x="1820.947266"/>
      <use xlink:href="#DejaVuSans-69" x="1882.128906"/>
      <use xlink:href="#DejaVuSans-6e" x="1909.912109"/>
      <use xlink:href="#DejaVuSans-74" x="1973.291016"/>
      <use xlink:href="#DejaVuSans-73" x="2012.5"/>
     </g>
    </g>
    <g id="line2d_17">
     <path d="M 404.35625 96.896563 
L 414.35625 96.896563 
L 424.35625 96.896563 
" style="fill: none; stroke: #ff7f0e; stroke-width: 1.5; stroke-linecap: square"/>
    </g>
    <g id="text_18">
     <!-- Approximation of the movement function -->
     <g transform="translate(432.35625 100.396563) scale(0.1 -0.1)">
      <use xlink:href="#DejaVuSans-41"/>
      <use xlink:href="#DejaVuSans-70" x="68.408203"/>
      <use xlink:href="#DejaVuSans-70" x="131.884766"/>
      <use xlink:href="#DejaVuSans-72" x="195.361328"/>
      <use xlink:href="#DejaVuSans-6f" x="234.224609"/>
      <use xlink:href="#DejaVuSans-78" x="292.28125"/>
      <use xlink:href="#DejaVuSans-69" x="351.460938"/>
      <use xlink:href="#DejaVuSans-6d" x="379.244141"/>
      <use xlink:href="#DejaVuSans-61" x="476.65625"/>
      <use xlink:href="#DejaVuSans-74" x="537.935547"/>
      <use xlink:href="#DejaVuSans-69" x="577.144531"/>
      <use xlink:href="#DejaVuSans-6f" x="604.927734"/>
      <use xlink:href="#DejaVuSans-6e" x="666.109375"/>
      <use xlink:href="#DejaVuSans-20" x="729.488281"/>
      <use xlink:href="#DejaVuSans-6f" x="761.275391"/>
      <use xlink:href="#DejaVuSans-66" x="822.457031"/>
      <use xlink:href="#DejaVuSans-20" x="857.662109"/>
      <use xlink:href="#DejaVuSans-74" x="889.449219"/>
      <use xlink:href="#DejaVuSans-68" x="928.658203"/>
      <use xlink:href="#DejaVuSans-65" x="992.037109"/>
      <use xlink:href="#DejaVuSans-20" x="1053.560547"/>
      <use xlink:href="#DejaVuSans-6d" x="1085.347656"/>
      <use xlink:href="#DejaVuSans-6f" x="1182.759766"/>
      <use xlink:href="#DejaVuSans-76" x="1243.941406"/>
      <use xlink:href="#DejaVuSans-65" x="1303.121094"/>
      <use xlink:href="#DejaVuSans-6d" x="1364.644531"/>
      <use xlink:href="#DejaVuSans-65" x="1462.056641"/>
      <use xlink:href="#DejaVuSans-6e" x="1523.580078"/>
      <use xlink:href="#DejaVuSans-74" x="1586.958984"/>
      <use xlink:href="#DejaVuSans-20" x="1626.167969"/>
      <use xlink:href="#DejaVuSans-66" x="1657.955078"/>
      <use xlink:href="#DejaVuSans-75" x="1693.160156"/>
      <use xlink:href="#DejaVuSans-6e" x="1756.539062"/>
      <use xlink:href="#DejaVuSans-63" x="1819.917969"/>
      <use xlink:href="#DejaVuSans-74" x="1874.898438"/>
      <use xlink:href="#DejaVuSans-69" x="1914.107422"/>
      <use xlink:href="#DejaVuSans-6f" x="1941.890625"/>
      <use xlink:href="#DejaVuSans-6e" x="2003.072266"/>
     </g>
    </g>
   </g>
  </g>
 </g>
 <defs>
  <clipPath id="pb9e1bd63c0">
   <rect x="90" y="69.12" width="558" height="443.52"/>
  </clipPath>
 </defs>
</svg>
