<?xml version="1.0" encoding="utf-8" standalone="no"?>
<!DOCTYPE svg PUBLIC "-//W3C//DTD SVG 1.1//EN"
  "http://www.w3.org/Graphics/SVG/1.1/DTD/svg11.dtd">
<svg xmlns:xlink="http://www.w3.org/1999/xlink" width="720pt" height="576pt" viewBox="0 0 720 576" xmlns="http://www.w3.org/2000/svg" version="1.1">
 <metadata>
  <rdf:RDF xmlns:dc="http://purl.org/dc/elements/1.1/" xmlns:cc="http://creativecommons.org/ns#" xmlns:rdf="http://www.w3.org/1999/02/22-rdf-syntax-ns#">
   <cc:Work>
    <dc:type rdf:resource="http://purl.org/dc/dcmitype/StillImage"/>
    <dc:date>2023-08-28T13:42:57.087757</dc:date>
    <dc:format>image/svg+xml</dc:format>
    <dc:creator>
     <cc:Agent>
      <dc:title>Matplotlib v3.6.2, https://matplotlib.org/</dc:title>
     </cc:Agent>
    </dc:creator>
   </cc:Work>
  </rdf:RDF>
 </metadata>
 <defs>
  <style type="text/css">*{stroke-linejoin: round; stroke-linecap: butt}</style>
 </defs>
 <g id="figure_1">
  <g id="patch_1">
   <path d="M 0 576 
L 720 576 
L 720 0 
L 0 0 
z
" style="fill: #ffffff"/>
  </g>
  <g id="axes_1">
   <g id="patch_2">
    <path d="M 90 512.64 
L 648 512.64 
L 648 69.12 
L 90 69.12 
z
" style="fill: #ffffff"/>
   </g>
   <g id="matplotlib.axis_1">
    <g id="xtick_1">
     <g id="line2d_1">
      <defs>
       <path id="me9e26e3aac" d="M 0 0 
L 0 3.5 
" style="stroke: #000000; stroke-width: 0.8"/>
      </defs>
      <g>
       <use xlink:href="#me9e26e3aac" x="136.383533" y="512.64" style="stroke: #000000; stroke-width: 0.8"/>
      </g>
     </g>
     <g id="text_1">
      <!-- −2.0 -->
      <g transform="translate(124.242127 527.238438) scale(0.1 -0.1)">
       <defs>
        <path id="DejaVuSans-2212" d="M 678 2272 
L 4684 2272 
L 4684 1741 
L 678 1741 
L 678 2272 
z
" transform="scale(0.015625)"/>
        <path id="DejaVuSans-32" d="M 1228 531 
L 3431 531 
L 3431 0 
L 469 0 
L 469 531 
Q 828 903 1448 1529 
Q 2069 2156 2228 2338 
Q 2531 2678 2651 2914 
Q 2772 3150 2772 3378 
Q 2772 3750 2511 3984 
Q 2250 4219 1831 4219 
Q 1534 4219 1204 4116 
Q 875 4013 500 3803 
L 500 4441 
Q 881 4594 1212 4672 
Q 1544 4750 1819 4750 
Q 2544 4750 2975 4387 
Q 3406 4025 3406 3419 
Q 3406 3131 3298 2873 
Q 3191 2616 2906 2266 
Q 2828 2175 2409 1742 
Q 1991 1309 1228 531 
z
" transform="scale(0.015625)"/>
        <path id="DejaVuSans-2e" d="M 684 794 
L 1344 794 
L 1344 0 
L 684 0 
L 684 794 
z
" transform="scale(0.015625)"/>
        <path id="DejaVuSans-30" d="M 2034 4250 
Q 1547 4250 1301 3770 
Q 1056 3291 1056 2328 
Q 1056 1369 1301 889 
Q 1547 409 2034 409 
Q 2525 409 2770 889 
Q 3016 1369 3016 2328 
Q 3016 3291 2770 3770 
Q 2525 4250 2034 4250 
z
M 2034 4750 
Q 2819 4750 3233 4129 
Q 3647 3509 3647 2328 
Q 3647 1150 3233 529 
Q 2819 -91 2034 -91 
Q 1250 -91 836 529 
Q 422 1150 422 2328 
Q 422 3509 836 4129 
Q 1250 4750 2034 4750 
z
" transform="scale(0.015625)"/>
       </defs>
       <use xlink:href="#DejaVuSans-2212"/>
       <use xlink:href="#DejaVuSans-32" x="83.789062"/>
       <use xlink:href="#DejaVuSans-2e" x="147.412109"/>
       <use xlink:href="#DejaVuSans-30" x="179.199219"/>
      </g>
     </g>
    </g>
    <g id="xtick_2">
     <g id="line2d_2">
      <g>
       <use xlink:href="#me9e26e3aac" x="248.191496" y="512.64" style="stroke: #000000; stroke-width: 0.8"/>
      </g>
     </g>
     <g id="text_2">
      <!-- −1.5 -->
      <g transform="translate(236.05009 527.238438) scale(0.1 -0.1)">
       <defs>
        <path id="DejaVuSans-31" d="M 794 531 
L 1825 531 
L 1825 4091 
L 703 3866 
L 703 4441 
L 1819 4666 
L 2450 4666 
L 2450 531 
L 3481 531 
L 3481 0 
L 794 0 
L 794 531 
z
" transform="scale(0.015625)"/>
        <path id="DejaVuSans-35" d="M 691 4666 
L 3169 4666 
L 3169 4134 
L 1269 4134 
L 1269 2991 
Q 1406 3038 1543 3061 
Q 1681 3084 1819 3084 
Q 2600 3084 3056 2656 
Q 3513 2228 3513 1497 
Q 3513 744 3044 326 
Q 2575 -91 1722 -91 
Q 1428 -91 1123 -41 
Q 819 9 494 109 
L 494 744 
Q 775 591 1075 516 
Q 1375 441 1709 441 
Q 2250 441 2565 725 
Q 2881 1009 2881 1497 
Q 2881 1984 2565 2268 
Q 2250 2553 1709 2553 
Q 1456 2553 1204 2497 
Q 953 2441 691 2322 
L 691 4666 
z
" transform="scale(0.015625)"/>
       </defs>
       <use xlink:href="#DejaVuSans-2212"/>
       <use xlink:href="#DejaVuSans-31" x="83.789062"/>
       <use xlink:href="#DejaVuSans-2e" x="147.412109"/>
       <use xlink:href="#DejaVuSans-35" x="179.199219"/>
      </g>
     </g>
    </g>
    <g id="xtick_3">
     <g id="line2d_3">
      <g>
       <use xlink:href="#me9e26e3aac" x="359.999459" y="512.64" style="stroke: #000000; stroke-width: 0.8"/>
      </g>
     </g>
     <g id="text_3">
      <!-- −1.0 -->
      <g transform="translate(347.858053 527.238438) scale(0.1 -0.1)">
       <use xlink:href="#DejaVuSans-2212"/>
       <use xlink:href="#DejaVuSans-31" x="83.789062"/>
       <use xlink:href="#DejaVuSans-2e" x="147.412109"/>
       <use xlink:href="#DejaVuSans-30" x="179.199219"/>
      </g>
     </g>
    </g>
    <g id="xtick_4">
     <g id="line2d_4">
      <g>
       <use xlink:href="#me9e26e3aac" x="471.807422" y="512.64" style="stroke: #000000; stroke-width: 0.8"/>
      </g>
     </g>
     <g id="text_4">
      <!-- −0.5 -->
      <g transform="translate(459.666016 527.238438) scale(0.1 -0.1)">
       <use xlink:href="#DejaVuSans-2212"/>
       <use xlink:href="#DejaVuSans-30" x="83.789062"/>
       <use xlink:href="#DejaVuSans-2e" x="147.412109"/>
       <use xlink:href="#DejaVuSans-35" x="179.199219"/>
      </g>
     </g>
    </g>
    <g id="xtick_5">
     <g id="line2d_5">
      <g>
       <use xlink:href="#me9e26e3aac" x="583.615385" y="512.64" style="stroke: #000000; stroke-width: 0.8"/>
      </g>
     </g>
     <g id="text_5">
      <!-- 0.0 -->
      <g transform="translate(575.663822 527.238438) scale(0.1 -0.1)">
       <use xlink:href="#DejaVuSans-30"/>
       <use xlink:href="#DejaVuSans-2e" x="63.623047"/>
       <use xlink:href="#DejaVuSans-30" x="95.410156"/>
      </g>
     </g>
    </g>
    <g id="text_6">
     <!-- Independent joint value (knee_angle_r) -->
     <g transform="translate(270.867969 540.916563) scale(0.1 -0.1)">
      <defs>
       <path id="DejaVuSans-49" d="M 628 4666 
L 1259 4666 
L 1259 0 
L 628 0 
L 628 4666 
z
" transform="scale(0.015625)"/>
       <path id="DejaVuSans-6e" d="M 3513 2113 
L 3513 0 
L 2938 0 
L 2938 2094 
Q 2938 2591 2744 2837 
Q 2550 3084 2163 3084 
Q 1697 3084 1428 2787 
Q 1159 2491 1159 1978 
L 1159 0 
L 581 0 
L 581 3500 
L 1159 3500 
L 1159 2956 
Q 1366 3272 1645 3428 
Q 1925 3584 2291 3584 
Q 2894 3584 3203 3211 
Q 3513 2838 3513 2113 
z
" transform="scale(0.015625)"/>
       <path id="DejaVuSans-64" d="M 2906 2969 
L 2906 4863 
L 3481 4863 
L 3481 0 
L 2906 0 
L 2906 525 
Q 2725 213 2448 61 
Q 2172 -91 1784 -91 
Q 1150 -91 751 415 
Q 353 922 353 1747 
Q 353 2572 751 3078 
Q 1150 3584 1784 3584 
Q 2172 3584 2448 3432 
Q 2725 3281 2906 2969 
z
M 947 1747 
Q 947 1113 1208 752 
Q 1469 391 1925 391 
Q 2381 391 2643 752 
Q 2906 1113 2906 1747 
Q 2906 2381 2643 2742 
Q 2381 3103 1925 3103 
Q 1469 3103 1208 2742 
Q 947 2381 947 1747 
z
" transform="scale(0.015625)"/>
       <path id="DejaVuSans-65" d="M 3597 1894 
L 3597 1613 
L 953 1613 
Q 991 1019 1311 708 
Q 1631 397 2203 397 
Q 2534 397 2845 478 
Q 3156 559 3463 722 
L 3463 178 
Q 3153 47 2828 -22 
Q 2503 -91 2169 -91 
Q 1331 -91 842 396 
Q 353 884 353 1716 
Q 353 2575 817 3079 
Q 1281 3584 2069 3584 
Q 2775 3584 3186 3129 
Q 3597 2675 3597 1894 
z
M 3022 2063 
Q 3016 2534 2758 2815 
Q 2500 3097 2075 3097 
Q 1594 3097 1305 2825 
Q 1016 2553 972 2059 
L 3022 2063 
z
" transform="scale(0.015625)"/>
       <path id="DejaVuSans-70" d="M 1159 525 
L 1159 -1331 
L 581 -1331 
L 581 3500 
L 1159 3500 
L 1159 2969 
Q 1341 3281 1617 3432 
Q 1894 3584 2278 3584 
Q 2916 3584 3314 3078 
Q 3713 2572 3713 1747 
Q 3713 922 3314 415 
Q 2916 -91 2278 -91 
Q 1894 -91 1617 61 
Q 1341 213 1159 525 
z
M 3116 1747 
Q 3116 2381 2855 2742 
Q 2594 3103 2138 3103 
Q 1681 3103 1420 2742 
Q 1159 2381 1159 1747 
Q 1159 1113 1420 752 
Q 1681 391 2138 391 
Q 2594 391 2855 752 
Q 3116 1113 3116 1747 
z
" transform="scale(0.015625)"/>
       <path id="DejaVuSans-74" d="M 1172 4494 
L 1172 3500 
L 2356 3500 
L 2356 3053 
L 1172 3053 
L 1172 1153 
Q 1172 725 1289 603 
Q 1406 481 1766 481 
L 2356 481 
L 2356 0 
L 1766 0 
Q 1100 0 847 248 
Q 594 497 594 1153 
L 594 3053 
L 172 3053 
L 172 3500 
L 594 3500 
L 594 4494 
L 1172 4494 
z
" transform="scale(0.015625)"/>
       <path id="DejaVuSans-20" transform="scale(0.015625)"/>
       <path id="DejaVuSans-6a" d="M 603 3500 
L 1178 3500 
L 1178 -63 
Q 1178 -731 923 -1031 
Q 669 -1331 103 -1331 
L -116 -1331 
L -116 -844 
L 38 -844 
Q 366 -844 484 -692 
Q 603 -541 603 -63 
L 603 3500 
z
M 603 4863 
L 1178 4863 
L 1178 4134 
L 603 4134 
L 603 4863 
z
" transform="scale(0.015625)"/>
       <path id="DejaVuSans-6f" d="M 1959 3097 
Q 1497 3097 1228 2736 
Q 959 2375 959 1747 
Q 959 1119 1226 758 
Q 1494 397 1959 397 
Q 2419 397 2687 759 
Q 2956 1122 2956 1747 
Q 2956 2369 2687 2733 
Q 2419 3097 1959 3097 
z
M 1959 3584 
Q 2709 3584 3137 3096 
Q 3566 2609 3566 1747 
Q 3566 888 3137 398 
Q 2709 -91 1959 -91 
Q 1206 -91 779 398 
Q 353 888 353 1747 
Q 353 2609 779 3096 
Q 1206 3584 1959 3584 
z
" transform="scale(0.015625)"/>
       <path id="DejaVuSans-69" d="M 603 3500 
L 1178 3500 
L 1178 0 
L 603 0 
L 603 3500 
z
M 603 4863 
L 1178 4863 
L 1178 4134 
L 603 4134 
L 603 4863 
z
" transform="scale(0.015625)"/>
       <path id="DejaVuSans-76" d="M 191 3500 
L 800 3500 
L 1894 563 
L 2988 3500 
L 3597 3500 
L 2284 0 
L 1503 0 
L 191 3500 
z
" transform="scale(0.015625)"/>
       <path id="DejaVuSans-61" d="M 2194 1759 
Q 1497 1759 1228 1600 
Q 959 1441 959 1056 
Q 959 750 1161 570 
Q 1363 391 1709 391 
Q 2188 391 2477 730 
Q 2766 1069 2766 1631 
L 2766 1759 
L 2194 1759 
z
M 3341 1997 
L 3341 0 
L 2766 0 
L 2766 531 
Q 2569 213 2275 61 
Q 1981 -91 1556 -91 
Q 1019 -91 701 211 
Q 384 513 384 1019 
Q 384 1609 779 1909 
Q 1175 2209 1959 2209 
L 2766 2209 
L 2766 2266 
Q 2766 2663 2505 2880 
Q 2244 3097 1772 3097 
Q 1472 3097 1187 3025 
Q 903 2953 641 2809 
L 641 3341 
Q 956 3463 1253 3523 
Q 1550 3584 1831 3584 
Q 2591 3584 2966 3190 
Q 3341 2797 3341 1997 
z
" transform="scale(0.015625)"/>
       <path id="DejaVuSans-6c" d="M 603 4863 
L 1178 4863 
L 1178 0 
L 603 0 
L 603 4863 
z
" transform="scale(0.015625)"/>
       <path id="DejaVuSans-75" d="M 544 1381 
L 544 3500 
L 1119 3500 
L 1119 1403 
Q 1119 906 1312 657 
Q 1506 409 1894 409 
Q 2359 409 2629 706 
Q 2900 1003 2900 1516 
L 2900 3500 
L 3475 3500 
L 3475 0 
L 2900 0 
L 2900 538 
Q 2691 219 2414 64 
Q 2138 -91 1772 -91 
Q 1169 -91 856 284 
Q 544 659 544 1381 
z
M 1991 3584 
L 1991 3584 
z
" transform="scale(0.015625)"/>
       <path id="DejaVuSans-28" d="M 1984 4856 
Q 1566 4138 1362 3434 
Q 1159 2731 1159 2009 
Q 1159 1288 1364 580 
Q 1569 -128 1984 -844 
L 1484 -844 
Q 1016 -109 783 600 
Q 550 1309 550 2009 
Q 550 2706 781 3412 
Q 1013 4119 1484 4856 
L 1984 4856 
z
" transform="scale(0.015625)"/>
       <path id="DejaVuSans-6b" d="M 581 4863 
L 1159 4863 
L 1159 1991 
L 2875 3500 
L 3609 3500 
L 1753 1863 
L 3688 0 
L 2938 0 
L 1159 1709 
L 1159 0 
L 581 0 
L 581 4863 
z
" transform="scale(0.015625)"/>
       <path id="DejaVuSans-5f" d="M 3263 -1063 
L 3263 -1509 
L -63 -1509 
L -63 -1063 
L 3263 -1063 
z
" transform="scale(0.015625)"/>
       <path id="DejaVuSans-67" d="M 2906 1791 
Q 2906 2416 2648 2759 
Q 2391 3103 1925 3103 
Q 1463 3103 1205 2759 
Q 947 2416 947 1791 
Q 947 1169 1205 825 
Q 1463 481 1925 481 
Q 2391 481 2648 825 
Q 2906 1169 2906 1791 
z
M 3481 434 
Q 3481 -459 3084 -895 
Q 2688 -1331 1869 -1331 
Q 1566 -1331 1297 -1286 
Q 1028 -1241 775 -1147 
L 775 -588 
Q 1028 -725 1275 -790 
Q 1522 -856 1778 -856 
Q 2344 -856 2625 -561 
Q 2906 -266 2906 331 
L 2906 616 
Q 2728 306 2450 153 
Q 2172 0 1784 0 
Q 1141 0 747 490 
Q 353 981 353 1791 
Q 353 2603 747 3093 
Q 1141 3584 1784 3584 
Q 2172 3584 2450 3431 
Q 2728 3278 2906 2969 
L 2906 3500 
L 3481 3500 
L 3481 434 
z
" transform="scale(0.015625)"/>
       <path id="DejaVuSans-72" d="M 2631 2963 
Q 2534 3019 2420 3045 
Q 2306 3072 2169 3072 
Q 1681 3072 1420 2755 
Q 1159 2438 1159 1844 
L 1159 0 
L 581 0 
L 581 3500 
L 1159 3500 
L 1159 2956 
Q 1341 3275 1631 3429 
Q 1922 3584 2338 3584 
Q 2397 3584 2469 3576 
Q 2541 3569 2628 3553 
L 2631 2963 
z
" transform="scale(0.015625)"/>
       <path id="DejaVuSans-29" d="M 513 4856 
L 1013 4856 
Q 1481 4119 1714 3412 
Q 1947 2706 1947 2009 
Q 1947 1309 1714 600 
Q 1481 -109 1013 -844 
L 513 -844 
Q 928 -128 1133 580 
Q 1338 1288 1338 2009 
Q 1338 2731 1133 3434 
Q 928 4138 513 4856 
z
" transform="scale(0.015625)"/>
      </defs>
      <use xlink:href="#DejaVuSans-49"/>
      <use xlink:href="#DejaVuSans-6e" x="29.492188"/>
      <use xlink:href="#DejaVuSans-64" x="92.871094"/>
      <use xlink:href="#DejaVuSans-65" x="156.347656"/>
      <use xlink:href="#DejaVuSans-70" x="217.871094"/>
      <use xlink:href="#DejaVuSans-65" x="281.347656"/>
      <use xlink:href="#DejaVuSans-6e" x="342.871094"/>
      <use xlink:href="#DejaVuSans-64" x="406.25"/>
      <use xlink:href="#DejaVuSans-65" x="469.726562"/>
      <use xlink:href="#DejaVuSans-6e" x="531.25"/>
      <use xlink:href="#DejaVuSans-74" x="594.628906"/>
      <use xlink:href="#DejaVuSans-20" x="633.837891"/>
      <use xlink:href="#DejaVuSans-6a" x="665.625"/>
      <use xlink:href="#DejaVuSans-6f" x="693.408203"/>
      <use xlink:href="#DejaVuSans-69" x="754.589844"/>
      <use xlink:href="#DejaVuSans-6e" x="782.373047"/>
      <use xlink:href="#DejaVuSans-74" x="845.751953"/>
      <use xlink:href="#DejaVuSans-20" x="884.960938"/>
      <use xlink:href="#DejaVuSans-76" x="916.748047"/>
      <use xlink:href="#DejaVuSans-61" x="975.927734"/>
      <use xlink:href="#DejaVuSans-6c" x="1037.207031"/>
      <use xlink:href="#DejaVuSans-75" x="1064.990234"/>
      <use xlink:href="#DejaVuSans-65" x="1128.369141"/>
      <use xlink:href="#DejaVuSans-20" x="1189.892578"/>
      <use xlink:href="#DejaVuSans-28" x="1221.679688"/>
      <use xlink:href="#DejaVuSans-6b" x="1260.693359"/>
      <use xlink:href="#DejaVuSans-6e" x="1318.603516"/>
      <use xlink:href="#DejaVuSans-65" x="1381.982422"/>
      <use xlink:href="#DejaVuSans-65" x="1443.505859"/>
      <use xlink:href="#DejaVuSans-5f" x="1505.029297"/>
      <use xlink:href="#DejaVuSans-61" x="1555.029297"/>
      <use xlink:href="#DejaVuSans-6e" x="1616.308594"/>
      <use xlink:href="#DejaVuSans-67" x="1679.6875"/>
      <use xlink:href="#DejaVuSans-6c" x="1743.164062"/>
      <use xlink:href="#DejaVuSans-65" x="1770.947266"/>
      <use xlink:href="#DejaVuSans-5f" x="1832.470703"/>
      <use xlink:href="#DejaVuSans-72" x="1882.470703"/>
      <use xlink:href="#DejaVuSans-29" x="1923.583984"/>
     </g>
    </g>
   </g>
   <g id="matplotlib.axis_2">
    <g id="ytick_1">
     <g id="line2d_6">
      <defs>
       <path id="mbd0badc4ea" d="M 0 0 
L -3.5 0 
" style="stroke: #000000; stroke-width: 0.8"/>
      </defs>
      <g>
       <use xlink:href="#mbd0badc4ea" x="90" y="439.888696" style="stroke: #000000; stroke-width: 0.8"/>
      </g>
     </g>
     <g id="text_7">
      <!-- −0.0255 -->
      <g transform="translate(39.629687 443.687914) scale(0.1 -0.1)">
       <use xlink:href="#DejaVuSans-2212"/>
       <use xlink:href="#DejaVuSans-30" x="83.789062"/>
       <use xlink:href="#DejaVuSans-2e" x="147.412109"/>
       <use xlink:href="#DejaVuSans-30" x="179.199219"/>
       <use xlink:href="#DejaVuSans-32" x="242.822266"/>
       <use xlink:href="#DejaVuSans-35" x="306.445312"/>
       <use xlink:href="#DejaVuSans-35" x="370.068359"/>
      </g>
     </g>
    </g>
    <g id="ytick_2">
     <g id="line2d_7">
      <g>
       <use xlink:href="#mbd0badc4ea" x="90" y="352.236522" style="stroke: #000000; stroke-width: 0.8"/>
      </g>
     </g>
     <g id="text_8">
      <!-- −0.0250 -->
      <g transform="translate(39.629687 356.03574) scale(0.1 -0.1)">
       <use xlink:href="#DejaVuSans-2212"/>
       <use xlink:href="#DejaVuSans-30" x="83.789062"/>
       <use xlink:href="#DejaVuSans-2e" x="147.412109"/>
       <use xlink:href="#DejaVuSans-30" x="179.199219"/>
       <use xlink:href="#DejaVuSans-32" x="242.822266"/>
       <use xlink:href="#DejaVuSans-35" x="306.445312"/>
       <use xlink:href="#DejaVuSans-30" x="370.068359"/>
      </g>
     </g>
    </g>
    <g id="ytick_3">
     <g id="line2d_8">
      <g>
       <use xlink:href="#mbd0badc4ea" x="90" y="264.584348" style="stroke: #000000; stroke-width: 0.8"/>
      </g>
     </g>
     <g id="text_9">
      <!-- −0.0245 -->
      <g transform="translate(39.629687 268.383567) scale(0.1 -0.1)">
       <defs>
        <path id="DejaVuSans-34" d="M 2419 4116 
L 825 1625 
L 2419 1625 
L 2419 4116 
z
M 2253 4666 
L 3047 4666 
L 3047 1625 
L 3713 1625 
L 3713 1100 
L 3047 1100 
L 3047 0 
L 2419 0 
L 2419 1100 
L 313 1100 
L 313 1709 
L 2253 4666 
z
" transform="scale(0.015625)"/>
       </defs>
       <use xlink:href="#DejaVuSans-2212"/>
       <use xlink:href="#DejaVuSans-30" x="83.789062"/>
       <use xlink:href="#DejaVuSans-2e" x="147.412109"/>
       <use xlink:href="#DejaVuSans-30" x="179.199219"/>
       <use xlink:href="#DejaVuSans-32" x="242.822266"/>
       <use xlink:href="#DejaVuSans-34" x="306.445312"/>
       <use xlink:href="#DejaVuSans-35" x="370.068359"/>
      </g>
     </g>
    </g>
    <g id="ytick_4">
     <g id="line2d_9">
      <g>
       <use xlink:href="#mbd0badc4ea" x="90" y="176.932174" style="stroke: #000000; stroke-width: 0.8"/>
      </g>
     </g>
     <g id="text_10">
      <!-- −0.0240 -->
      <g transform="translate(39.629687 180.731393) scale(0.1 -0.1)">
       <use xlink:href="#DejaVuSans-2212"/>
       <use xlink:href="#DejaVuSans-30" x="83.789062"/>
       <use xlink:href="#DejaVuSans-2e" x="147.412109"/>
       <use xlink:href="#DejaVuSans-30" x="179.199219"/>
       <use xlink:href="#DejaVuSans-32" x="242.822266"/>
       <use xlink:href="#DejaVuSans-34" x="306.445312"/>
       <use xlink:href="#DejaVuSans-30" x="370.068359"/>
      </g>
     </g>
    </g>
    <g id="ytick_5">
     <g id="line2d_10">
      <g>
       <use xlink:href="#mbd0badc4ea" x="90" y="89.28" style="stroke: #000000; stroke-width: 0.8"/>
      </g>
     </g>
     <g id="text_11">
      <!-- −0.0235 -->
      <g transform="translate(39.629687 93.079219) scale(0.1 -0.1)">
       <defs>
        <path id="DejaVuSans-33" d="M 2597 2516 
Q 3050 2419 3304 2112 
Q 3559 1806 3559 1356 
Q 3559 666 3084 287 
Q 2609 -91 1734 -91 
Q 1441 -91 1130 -33 
Q 819 25 488 141 
L 488 750 
Q 750 597 1062 519 
Q 1375 441 1716 441 
Q 2309 441 2620 675 
Q 2931 909 2931 1356 
Q 2931 1769 2642 2001 
Q 2353 2234 1838 2234 
L 1294 2234 
L 1294 2753 
L 1863 2753 
Q 2328 2753 2575 2939 
Q 2822 3125 2822 3475 
Q 2822 3834 2567 4026 
Q 2313 4219 1838 4219 
Q 1578 4219 1281 4162 
Q 984 4106 628 3988 
L 628 4550 
Q 988 4650 1302 4700 
Q 1616 4750 1894 4750 
Q 2613 4750 3031 4423 
Q 3450 4097 3450 3541 
Q 3450 3153 3228 2886 
Q 3006 2619 2597 2516 
z
" transform="scale(0.015625)"/>
       </defs>
       <use xlink:href="#DejaVuSans-2212"/>
       <use xlink:href="#DejaVuSans-30" x="83.789062"/>
       <use xlink:href="#DejaVuSans-2e" x="147.412109"/>
       <use xlink:href="#DejaVuSans-30" x="179.199219"/>
       <use xlink:href="#DejaVuSans-32" x="242.822266"/>
       <use xlink:href="#DejaVuSans-33" x="306.445312"/>
       <use xlink:href="#DejaVuSans-35" x="370.068359"/>
      </g>
     </g>
    </g>
    <g id="text_12">
     <!-- Dependent joint value (med_gas_r-P2_z) -->
     <g transform="translate(33.271875 391.72375) rotate(-90) scale(0.1 -0.1)">
      <defs>
       <path id="DejaVuSans-44" d="M 1259 4147 
L 1259 519 
L 2022 519 
Q 2988 519 3436 956 
Q 3884 1394 3884 2338 
Q 3884 3275 3436 3711 
Q 2988 4147 2022 4147 
L 1259 4147 
z
M 628 4666 
L 1925 4666 
Q 3281 4666 3915 4102 
Q 4550 3538 4550 2338 
Q 4550 1131 3912 565 
Q 3275 0 1925 0 
L 628 0 
L 628 4666 
z
" transform="scale(0.015625)"/>
       <path id="DejaVuSans-6d" d="M 3328 2828 
Q 3544 3216 3844 3400 
Q 4144 3584 4550 3584 
Q 5097 3584 5394 3201 
Q 5691 2819 5691 2113 
L 5691 0 
L 5113 0 
L 5113 2094 
Q 5113 2597 4934 2840 
Q 4756 3084 4391 3084 
Q 3944 3084 3684 2787 
Q 3425 2491 3425 1978 
L 3425 0 
L 2847 0 
L 2847 2094 
Q 2847 2600 2669 2842 
Q 2491 3084 2119 3084 
Q 1678 3084 1418 2786 
Q 1159 2488 1159 1978 
L 1159 0 
L 581 0 
L 581 3500 
L 1159 3500 
L 1159 2956 
Q 1356 3278 1631 3431 
Q 1906 3584 2284 3584 
Q 2666 3584 2933 3390 
Q 3200 3197 3328 2828 
z
" transform="scale(0.015625)"/>
       <path id="DejaVuSans-73" d="M 2834 3397 
L 2834 2853 
Q 2591 2978 2328 3040 
Q 2066 3103 1784 3103 
Q 1356 3103 1142 2972 
Q 928 2841 928 2578 
Q 928 2378 1081 2264 
Q 1234 2150 1697 2047 
L 1894 2003 
Q 2506 1872 2764 1633 
Q 3022 1394 3022 966 
Q 3022 478 2636 193 
Q 2250 -91 1575 -91 
Q 1294 -91 989 -36 
Q 684 19 347 128 
L 347 722 
Q 666 556 975 473 
Q 1284 391 1588 391 
Q 1994 391 2212 530 
Q 2431 669 2431 922 
Q 2431 1156 2273 1281 
Q 2116 1406 1581 1522 
L 1381 1569 
Q 847 1681 609 1914 
Q 372 2147 372 2553 
Q 372 3047 722 3315 
Q 1072 3584 1716 3584 
Q 2034 3584 2315 3537 
Q 2597 3491 2834 3397 
z
" transform="scale(0.015625)"/>
       <path id="DejaVuSans-2d" d="M 313 2009 
L 1997 2009 
L 1997 1497 
L 313 1497 
L 313 2009 
z
" transform="scale(0.015625)"/>
       <path id="DejaVuSans-50" d="M 1259 4147 
L 1259 2394 
L 2053 2394 
Q 2494 2394 2734 2622 
Q 2975 2850 2975 3272 
Q 2975 3691 2734 3919 
Q 2494 4147 2053 4147 
L 1259 4147 
z
M 628 4666 
L 2053 4666 
Q 2838 4666 3239 4311 
Q 3641 3956 3641 3272 
Q 3641 2581 3239 2228 
Q 2838 1875 2053 1875 
L 1259 1875 
L 1259 0 
L 628 0 
L 628 4666 
z
" transform="scale(0.015625)"/>
       <path id="DejaVuSans-7a" d="M 353 3500 
L 3084 3500 
L 3084 2975 
L 922 459 
L 3084 459 
L 3084 0 
L 275 0 
L 275 525 
L 2438 3041 
L 353 3041 
L 353 3500 
z
" transform="scale(0.015625)"/>
      </defs>
      <use xlink:href="#DejaVuSans-44"/>
      <use xlink:href="#DejaVuSans-65" x="77.001953"/>
      <use xlink:href="#DejaVuSans-70" x="138.525391"/>
      <use xlink:href="#DejaVuSans-65" x="202.001953"/>
      <use xlink:href="#DejaVuSans-6e" x="263.525391"/>
      <use xlink:href="#DejaVuSans-64" x="326.904297"/>
      <use xlink:href="#DejaVuSans-65" x="390.380859"/>
      <use xlink:href="#DejaVuSans-6e" x="451.904297"/>
      <use xlink:href="#DejaVuSans-74" x="515.283203"/>
      <use xlink:href="#DejaVuSans-20" x="554.492188"/>
      <use xlink:href="#DejaVuSans-6a" x="586.279297"/>
      <use xlink:href="#DejaVuSans-6f" x="614.0625"/>
      <use xlink:href="#DejaVuSans-69" x="675.244141"/>
      <use xlink:href="#DejaVuSans-6e" x="703.027344"/>
      <use xlink:href="#DejaVuSans-74" x="766.40625"/>
      <use xlink:href="#DejaVuSans-20" x="805.615234"/>
      <use xlink:href="#DejaVuSans-76" x="837.402344"/>
      <use xlink:href="#DejaVuSans-61" x="896.582031"/>
      <use xlink:href="#DejaVuSans-6c" x="957.861328"/>
      <use xlink:href="#DejaVuSans-75" x="985.644531"/>
      <use xlink:href="#DejaVuSans-65" x="1049.023438"/>
      <use xlink:href="#DejaVuSans-20" x="1110.546875"/>
      <use xlink:href="#DejaVuSans-28" x="1142.333984"/>
      <use xlink:href="#DejaVuSans-6d" x="1181.347656"/>
      <use xlink:href="#DejaVuSans-65" x="1278.759766"/>
      <use xlink:href="#DejaVuSans-64" x="1340.283203"/>
      <use xlink:href="#DejaVuSans-5f" x="1403.759766"/>
      <use xlink:href="#DejaVuSans-67" x="1453.759766"/>
      <use xlink:href="#DejaVuSans-61" x="1517.236328"/>
      <use xlink:href="#DejaVuSans-73" x="1578.515625"/>
      <use xlink:href="#DejaVuSans-5f" x="1630.615234"/>
      <use xlink:href="#DejaVuSans-72" x="1680.615234"/>
      <use xlink:href="#DejaVuSans-2d" x="1715.353516"/>
      <use xlink:href="#DejaVuSans-50" x="1751.4375"/>
      <use xlink:href="#DejaVuSans-32" x="1811.740234"/>
      <use xlink:href="#DejaVuSans-5f" x="1875.363281"/>
      <use xlink:href="#DejaVuSans-7a" x="1925.363281"/>
      <use xlink:href="#DejaVuSans-29" x="1977.853516"/>
     </g>
    </g>
   </g>
   <g id="line2d_11">
    <path d="M 115.363636 89.28 
L 120.487603 89.28 
L 125.61157 89.28 
L 130.735537 89.28 
L 135.859504 89.28 
L 140.983471 89.28 
L 146.107438 89.28 
L 151.231405 89.28 
L 156.355372 89.28 
L 161.479339 89.28 
L 166.603306 89.28 
L 171.727273 89.28 
L 176.85124 89.28 
L 181.975207 89.28 
L 187.099174 89.28 
L 192.22314 89.28 
L 197.347107 89.28 
L 202.471074 89.28 
L 207.595041 89.28 
L 212.719008 89.28 
L 217.842975 89.28 
L 222.966942 89.28 
L 228.090909 89.28 
L 233.214876 89.28 
L 238.338843 89.28 
L 243.46281 89.28 
L 248.586777 89.28 
L 253.710744 89.28 
L 258.834711 89.28 
L 263.958678 89.28 
L 269.082645 89.28 
L 274.206612 89.28 
L 279.330579 89.28 
L 284.454545 89.28 
L 289.578512 89.28 
L 294.702479 89.28 
L 299.826446 89.28 
L 304.950413 89.28 
L 310.07438 89.28 
L 315.198347 89.28 
L 320.322314 89.28 
L 325.446281 89.28 
L 330.570248 89.28 
L 335.694215 89.28 
L 340.818182 89.28 
L 345.942149 89.28 
L 351.066116 89.28 
L 356.190083 89.28 
L 361.31405 89.28 
L 366.438017 89.28 
L 371.561983 89.28 
L 376.68595 89.28 
L 381.809917 89.28 
L 386.933884 89.28 
L 392.057851 89.28 
L 397.181818 89.28 
L 402.305785 89.28 
L 407.429752 492.48 
L 412.553719 492.48 
L 417.677686 492.48 
L 422.801653 492.48 
L 427.92562 492.48 
L 433.049587 492.48 
L 438.173554 492.48 
L 443.297521 492.48 
L 448.421488 492.48 
L 453.545455 492.48 
L 458.669421 492.48 
L 463.793388 492.48 
L 468.917355 492.48 
L 474.041322 492.48 
L 479.165289 492.48 
L 484.289256 492.48 
L 489.413223 492.48 
L 494.53719 492.48 
L 499.661157 492.48 
L 504.785124 492.48 
L 509.909091 492.48 
L 515.033058 492.48 
L 520.157025 492.48 
L 525.280992 492.48 
L 530.404959 492.48 
L 535.528926 492.48 
L 540.652893 492.48 
L 545.77686 492.48 
L 550.900826 492.48 
L 556.024793 492.48 
L 561.14876 492.48 
L 566.272727 492.48 
L 571.396694 492.48 
L 576.520661 492.48 
L 581.644628 492.48 
L 586.768595 492.48 
L 591.892562 492.48 
L 597.016529 492.48 
L 602.140496 492.48 
L 607.264463 492.48 
L 612.38843 492.48 
L 617.512397 492.48 
L 622.636364 492.48 
" clip-path="url(#p781e433306)" style="fill: none; stroke: #1f77b4; stroke-width: 1.5; stroke-linecap: square"/>
   </g>
   <g id="line2d_12">
    <path d="M 115.363636 89.28 
L 120.487603 93.352727 
L 125.61157 97.425455 
L 130.735537 101.498182 
L 135.859504 105.570909 
L 140.983471 109.643636 
L 146.107438 113.716364 
L 151.231405 117.789091 
L 156.355372 121.861818 
L 161.479339 125.934545 
L 166.603306 130.007273 
L 171.727273 134.08 
L 176.85124 138.152727 
L 181.975207 142.225455 
L 187.099174 146.298182 
L 192.22314 150.370909 
L 197.347107 154.443636 
L 202.471074 158.516364 
L 207.595041 162.589091 
L 212.719008 166.661818 
L 217.842975 170.734545 
L 222.966942 174.807273 
L 228.090909 178.88 
L 233.214876 182.952727 
L 238.338843 187.025455 
L 243.46281 191.098182 
L 248.586777 195.170909 
L 253.710744 199.243636 
L 258.834711 203.316364 
L 263.958678 207.389091 
L 269.082645 211.461818 
L 274.206612 215.534545 
L 279.330579 219.607273 
L 284.454545 223.68 
L 289.578512 227.752727 
L 294.702479 231.825455 
L 299.826446 235.898182 
L 304.950413 239.970909 
L 310.07438 244.043636 
L 315.198347 248.116364 
L 320.322314 252.189091 
L 325.446281 256.261818 
L 330.570248 260.334545 
L 335.694215 264.407273 
L 340.818182 268.48 
L 345.942149 272.552727 
L 351.066116 276.625455 
L 356.190083 280.698182 
L 361.31405 284.770909 
L 366.438017 288.843636 
L 371.561983 292.916364 
L 376.68595 296.989091 
L 381.809917 301.061818 
L 386.933884 305.134545 
L 392.057851 309.207273 
L 397.181818 313.28 
L 402.305785 317.352727 
L 407.429752 321.425455 
L 412.553719 325.498182 
L 417.677686 329.570909 
L 422.801653 333.643636 
L 427.92562 337.716364 
L 433.049587 341.789091 
L 438.173554 345.861818 
L 443.297521 349.934545 
L 448.421488 354.007273 
L 453.545455 358.08 
L 458.669421 362.152727 
L 463.793388 366.225455 
L 468.917355 370.298182 
L 474.041322 374.370909 
L 479.165289 378.443636 
L 484.289256 382.516364 
L 489.413223 386.589091 
L 494.53719 390.661818 
L 499.661157 394.734545 
L 504.785124 398.807273 
L 509.909091 402.88 
L 515.033058 406.952727 
L 520.157025 411.025455 
L 525.280992 415.098182 
L 530.404959 419.170909 
L 535.528926 423.243636 
L 540.652893 427.316364 
L 545.77686 431.389091 
L 550.900826 435.461818 
L 556.024793 439.534545 
L 561.14876 443.607273 
L 566.272727 447.68 
L 571.396694 451.752727 
L 576.520661 455.825455 
L 581.644628 459.898182 
L 586.768595 463.970909 
L 591.892562 468.043636 
L 597.016529 472.116364 
L 602.140496 476.189091 
L 607.264463 480.261818 
L 612.38843 484.334545 
L 617.512397 488.407273 
L 622.636364 492.48 
" clip-path="url(#p781e433306)" style="fill: none; stroke: #ff7f0e; stroke-width: 1.5; stroke-linecap: square"/>
   </g>
   <g id="patch_3">
    <path d="M 90 512.64 
L 90 69.12 
" style="fill: none; stroke: #000000; stroke-width: 0.8; stroke-linejoin: miter; stroke-linecap: square"/>
   </g>
   <g id="patch_4">
    <path d="M 648 512.64 
L 648 69.12 
" style="fill: none; stroke: #000000; stroke-width: 0.8; stroke-linejoin: miter; stroke-linecap: square"/>
   </g>
   <g id="patch_5">
    <path d="M 90 512.64 
L 648 512.64 
" style="fill: none; stroke: #000000; stroke-width: 0.8; stroke-linejoin: miter; stroke-linecap: square"/>
   </g>
   <g id="patch_6">
    <path d="M 90 69.12 
L 648 69.12 
" style="fill: none; stroke: #000000; stroke-width: 0.8; stroke-linejoin: miter; stroke-linecap: square"/>
   </g>
   <g id="text_13">
    <!-- Approximation of the step function of ConditionalPathPoint med_gas_r-P2, z coordinate -->
    <g transform="translate(108.419062 63.12) scale(0.12 -0.12)">
     <defs>
      <path id="DejaVuSans-41" d="M 2188 4044 
L 1331 1722 
L 3047 1722 
L 2188 4044 
z
M 1831 4666 
L 2547 4666 
L 4325 0 
L 3669 0 
L 3244 1197 
L 1141 1197 
L 716 0 
L 50 0 
L 1831 4666 
z
" transform="scale(0.015625)"/>
      <path id="DejaVuSans-78" d="M 3513 3500 
L 2247 1797 
L 3578 0 
L 2900 0 
L 1881 1375 
L 863 0 
L 184 0 
L 1544 1831 
L 300 3500 
L 978 3500 
L 1906 2253 
L 2834 3500 
L 3513 3500 
z
" transform="scale(0.015625)"/>
      <path id="DejaVuSans-66" d="M 2375 4863 
L 2375 4384 
L 1825 4384 
Q 1516 4384 1395 4259 
Q 1275 4134 1275 3809 
L 1275 3500 
L 2222 3500 
L 2222 3053 
L 1275 3053 
L 1275 0 
L 697 0 
L 697 3053 
L 147 3053 
L 147 3500 
L 697 3500 
L 697 3744 
Q 697 4328 969 4595 
Q 1241 4863 1831 4863 
L 2375 4863 
z
" transform="scale(0.015625)"/>
      <path id="DejaVuSans-68" d="M 3513 2113 
L 3513 0 
L 2938 0 
L 2938 2094 
Q 2938 2591 2744 2837 
Q 2550 3084 2163 3084 
Q 1697 3084 1428 2787 
Q 1159 2491 1159 1978 
L 1159 0 
L 581 0 
L 581 4863 
L 1159 4863 
L 1159 2956 
Q 1366 3272 1645 3428 
Q 1925 3584 2291 3584 
Q 2894 3584 3203 3211 
Q 3513 2838 3513 2113 
z
" transform="scale(0.015625)"/>
      <path id="DejaVuSans-63" d="M 3122 3366 
L 3122 2828 
Q 2878 2963 2633 3030 
Q 2388 3097 2138 3097 
Q 1578 3097 1268 2742 
Q 959 2388 959 1747 
Q 959 1106 1268 751 
Q 1578 397 2138 397 
Q 2388 397 2633 464 
Q 2878 531 3122 666 
L 3122 134 
Q 2881 22 2623 -34 
Q 2366 -91 2075 -91 
Q 1284 -91 818 406 
Q 353 903 353 1747 
Q 353 2603 823 3093 
Q 1294 3584 2113 3584 
Q 2378 3584 2631 3529 
Q 2884 3475 3122 3366 
z
" transform="scale(0.015625)"/>
      <path id="DejaVuSans-43" d="M 4122 4306 
L 4122 3641 
Q 3803 3938 3442 4084 
Q 3081 4231 2675 4231 
Q 1875 4231 1450 3742 
Q 1025 3253 1025 2328 
Q 1025 1406 1450 917 
Q 1875 428 2675 428 
Q 3081 428 3442 575 
Q 3803 722 4122 1019 
L 4122 359 
Q 3791 134 3420 21 
Q 3050 -91 2638 -91 
Q 1578 -91 968 557 
Q 359 1206 359 2328 
Q 359 3453 968 4101 
Q 1578 4750 2638 4750 
Q 3056 4750 3426 4639 
Q 3797 4528 4122 4306 
z
" transform="scale(0.015625)"/>
      <path id="DejaVuSans-2c" d="M 750 794 
L 1409 794 
L 1409 256 
L 897 -744 
L 494 -744 
L 750 256 
L 750 794 
z
" transform="scale(0.015625)"/>
     </defs>
     <use xlink:href="#DejaVuSans-41"/>
     <use xlink:href="#DejaVuSans-70" x="68.408203"/>
     <use xlink:href="#DejaVuSans-70" x="131.884766"/>
     <use xlink:href="#DejaVuSans-72" x="195.361328"/>
     <use xlink:href="#DejaVuSans-6f" x="234.224609"/>
     <use xlink:href="#DejaVuSans-78" x="292.28125"/>
     <use xlink:href="#DejaVuSans-69" x="351.460938"/>
     <use xlink:href="#DejaVuSans-6d" x="379.244141"/>
     <use xlink:href="#DejaVuSans-61" x="476.65625"/>
     <use xlink:href="#DejaVuSans-74" x="537.935547"/>
     <use xlink:href="#DejaVuSans-69" x="577.144531"/>
     <use xlink:href="#DejaVuSans-6f" x="604.927734"/>
     <use xlink:href="#DejaVuSans-6e" x="666.109375"/>
     <use xlink:href="#DejaVuSans-20" x="729.488281"/>
     <use xlink:href="#DejaVuSans-6f" x="761.275391"/>
     <use xlink:href="#DejaVuSans-66" x="822.457031"/>
     <use xlink:href="#DejaVuSans-20" x="857.662109"/>
     <use xlink:href="#DejaVuSans-74" x="889.449219"/>
     <use xlink:href="#DejaVuSans-68" x="928.658203"/>
     <use xlink:href="#DejaVuSans-65" x="992.037109"/>
     <use xlink:href="#DejaVuSans-20" x="1053.560547"/>
     <use xlink:href="#DejaVuSans-73" x="1085.347656"/>
     <use xlink:href="#DejaVuSans-74" x="1137.447266"/>
     <use xlink:href="#DejaVuSans-65" x="1176.65625"/>
     <use xlink:href="#DejaVuSans-70" x="1238.179688"/>
     <use xlink:href="#DejaVuSans-20" x="1301.65625"/>
     <use xlink:href="#DejaVuSans-66" x="1333.443359"/>
     <use xlink:href="#DejaVuSans-75" x="1368.648438"/>
     <use xlink:href="#DejaVuSans-6e" x="1432.027344"/>
     <use xlink:href="#DejaVuSans-63" x="1495.40625"/>
     <use xlink:href="#DejaVuSans-74" x="1550.386719"/>
     <use xlink:href="#DejaVuSans-69" x="1589.595703"/>
     <use xlink:href="#DejaVuSans-6f" x="1617.378906"/>
     <use xlink:href="#DejaVuSans-6e" x="1678.560547"/>
     <use xlink:href="#DejaVuSans-20" x="1741.939453"/>
     <use xlink:href="#DejaVuSans-6f" x="1773.726562"/>
     <use xlink:href="#DejaVuSans-66" x="1834.908203"/>
     <use xlink:href="#DejaVuSans-20" x="1870.113281"/>
     <use xlink:href="#DejaVuSans-43" x="1901.900391"/>
     <use xlink:href="#DejaVuSans-6f" x="1971.724609"/>
     <use xlink:href="#DejaVuSans-6e" x="2032.90625"/>
     <use xlink:href="#DejaVuSans-64" x="2096.285156"/>
     <use xlink:href="#DejaVuSans-69" x="2159.761719"/>
     <use xlink:href="#DejaVuSans-74" x="2187.544922"/>
     <use xlink:href="#DejaVuSans-69" x="2226.753906"/>
     <use xlink:href="#DejaVuSans-6f" x="2254.537109"/>
     <use xlink:href="#DejaVuSans-6e" x="2315.71875"/>
     <use xlink:href="#DejaVuSans-61" x="2379.097656"/>
     <use xlink:href="#DejaVuSans-6c" x="2440.376953"/>
     <use xlink:href="#DejaVuSans-50" x="2468.160156"/>
     <use xlink:href="#DejaVuSans-61" x="2523.962891"/>
     <use xlink:href="#DejaVuSans-74" x="2585.242188"/>
     <use xlink:href="#DejaVuSans-68" x="2624.451172"/>
     <use xlink:href="#DejaVuSans-50" x="2687.830078"/>
     <use xlink:href="#DejaVuSans-6f" x="2744.507812"/>
     <use xlink:href="#DejaVuSans-69" x="2805.689453"/>
     <use xlink:href="#DejaVuSans-6e" x="2833.472656"/>
     <use xlink:href="#DejaVuSans-74" x="2896.851562"/>
     <use xlink:href="#DejaVuSans-20" x="2936.060547"/>
     <use xlink:href="#DejaVuSans-6d" x="2967.847656"/>
     <use xlink:href="#DejaVuSans-65" x="3065.259766"/>
     <use xlink:href="#DejaVuSans-64" x="3126.783203"/>
     <use xlink:href="#DejaVuSans-5f" x="3190.259766"/>
     <use xlink:href="#DejaVuSans-67" x="3240.259766"/>
     <use xlink:href="#DejaVuSans-61" x="3303.736328"/>
     <use xlink:href="#DejaVuSans-73" x="3365.015625"/>
     <use xlink:href="#DejaVuSans-5f" x="3417.115234"/>
     <use xlink:href="#DejaVuSans-72" x="3467.115234"/>
     <use xlink:href="#DejaVuSans-2d" x="3501.853516"/>
     <use xlink:href="#DejaVuSans-50" x="3537.9375"/>
     <use xlink:href="#DejaVuSans-32" x="3598.240234"/>
     <use xlink:href="#DejaVuSans-2c" x="3661.863281"/>
     <use xlink:href="#DejaVuSans-20" x="3693.650391"/>
     <use xlink:href="#DejaVuSans-7a" x="3725.4375"/>
     <use xlink:href="#DejaVuSans-20" x="3777.927734"/>
     <use xlink:href="#DejaVuSans-63" x="3809.714844"/>
     <use xlink:href="#DejaVuSans-6f" x="3864.695312"/>
     <use xlink:href="#DejaVuSans-6f" x="3925.876953"/>
     <use xlink:href="#DejaVuSans-72" x="3987.058594"/>
     <use xlink:href="#DejaVuSans-64" x="4026.421875"/>
     <use xlink:href="#DejaVuSans-69" x="4089.898438"/>
     <use xlink:href="#DejaVuSans-6e" x="4117.681641"/>
     <use xlink:href="#DejaVuSans-61" x="4181.060547"/>
     <use xlink:href="#DejaVuSans-74" x="4242.339844"/>
     <use xlink:href="#DejaVuSans-65" x="4281.548828"/>
    </g>
   </g>
   <g id="legend_1">
    <g id="patch_7">
     <path d="M 434.807812 106.47625 
L 641 106.47625 
Q 643 106.47625 643 104.47625 
L 643 76.12 
Q 643 74.12 641 74.12 
L 434.807812 74.12 
Q 432.807812 74.12 432.807812 76.12 
L 432.807812 104.47625 
Q 432.807812 106.47625 434.807812 106.47625 
z
" style="fill: #ffffff; opacity: 0.8; stroke: #cccccc; stroke-linejoin: miter"/>
    </g>
    <g id="line2d_13">
     <path d="M 436.807812 82.218438 
L 446.807812 82.218438 
L 456.807812 82.218438 
" style="fill: none; stroke: #1f77b4; stroke-width: 1.5; stroke-linecap: square"/>
    </g>
    <g id="text_14">
     <!-- Ideal step function -->
     <g transform="translate(464.807812 85.718438) scale(0.1 -0.1)">
      <use xlink:href="#DejaVuSans-49"/>
      <use xlink:href="#DejaVuSans-64" x="29.492188"/>
      <use xlink:href="#DejaVuSans-65" x="92.96875"/>
      <use xlink:href="#DejaVuSans-61" x="154.492188"/>
      <use xlink:href="#DejaVuSans-6c" x="215.771484"/>
      <use xlink:href="#DejaVuSans-20" x="243.554688"/>
      <use xlink:href="#DejaVuSans-73" x="275.341797"/>
      <use xlink:href="#DejaVuSans-74" x="327.441406"/>
      <use xlink:href="#DejaVuSans-65" x="366.650391"/>
      <use xlink:href="#DejaVuSans-70" x="428.173828"/>
      <use xlink:href="#DejaVuSans-20" x="491.650391"/>
      <use xlink:href="#DejaVuSans-66" x="523.4375"/>
      <use xlink:href="#DejaVuSans-75" x="558.642578"/>
      <use xlink:href="#DejaVuSans-6e" x="622.021484"/>
      <use xlink:href="#DejaVuSans-63" x="685.400391"/>
      <use xlink:href="#DejaVuSans-74" x="740.380859"/>
      <use xlink:href="#DejaVuSans-69" x="779.589844"/>
      <use xlink:href="#DejaVuSans-6f" x="807.373047"/>
      <use xlink:href="#DejaVuSans-6e" x="868.554688"/>
     </g>
    </g>
    <g id="line2d_14">
     <path d="M 436.807812 96.896563 
L 446.807812 96.896563 
L 456.807812 96.896563 
" style="fill: none; stroke: #ff7f0e; stroke-width: 1.5; stroke-linecap: square"/>
    </g>
    <g id="text_15">
     <!-- Approximation of the step function -->
     <g transform="translate(464.807812 100.396563) scale(0.1 -0.1)">
      <use xlink:href="#DejaVuSans-41"/>
      <use xlink:href="#DejaVuSans-70" x="68.408203"/>
      <use xlink:href="#DejaVuSans-70" x="131.884766"/>
      <use xlink:href="#DejaVuSans-72" x="195.361328"/>
      <use xlink:href="#DejaVuSans-6f" x="234.224609"/>
      <use xlink:href="#DejaVuSans-78" x="292.28125"/>
      <use xlink:href="#DejaVuSans-69" x="351.460938"/>
      <use xlink:href="#DejaVuSans-6d" x="379.244141"/>
      <use xlink:href="#DejaVuSans-61" x="476.65625"/>
      <use xlink:href="#DejaVuSans-74" x="537.935547"/>
      <use xlink:href="#DejaVuSans-69" x="577.144531"/>
      <use xlink:href="#DejaVuSans-6f" x="604.927734"/>
      <use xlink:href="#DejaVuSans-6e" x="666.109375"/>
      <use xlink:href="#DejaVuSans-20" x="729.488281"/>
      <use xlink:href="#DejaVuSans-6f" x="761.275391"/>
      <use xlink:href="#DejaVuSans-66" x="822.457031"/>
      <use xlink:href="#DejaVuSans-20" x="857.662109"/>
      <use xlink:href="#DejaVuSans-74" x="889.449219"/>
      <use xlink:href="#DejaVuSans-68" x="928.658203"/>
      <use xlink:href="#DejaVuSans-65" x="992.037109"/>
      <use xlink:href="#DejaVuSans-20" x="1053.560547"/>
      <use xlink:href="#DejaVuSans-73" x="1085.347656"/>
      <use xlink:href="#DejaVuSans-74" x="1137.447266"/>
      <use xlink:href="#DejaVuSans-65" x="1176.65625"/>
      <use xlink:href="#DejaVuSans-70" x="1238.179688"/>
      <use xlink:href="#DejaVuSans-20" x="1301.65625"/>
      <use xlink:href="#DejaVuSans-66" x="1333.443359"/>
      <use xlink:href="#DejaVuSans-75" x="1368.648438"/>
      <use xlink:href="#DejaVuSans-6e" x="1432.027344"/>
      <use xlink:href="#DejaVuSans-63" x="1495.40625"/>
      <use xlink:href="#DejaVuSans-74" x="1550.386719"/>
      <use xlink:href="#DejaVuSans-69" x="1589.595703"/>
      <use xlink:href="#DejaVuSans-6f" x="1617.378906"/>
      <use xlink:href="#DejaVuSans-6e" x="1678.560547"/>
     </g>
    </g>
   </g>
  </g>
 </g>
 <defs>
  <clipPath id="p781e433306">
   <rect x="90" y="69.12" width="558" height="443.52"/>
  </clipPath>
 </defs>
</svg>
