<?xml version="1.0" encoding="utf-8" standalone="no"?>
<!DOCTYPE svg PUBLIC "-//W3C//DTD SVG 1.1//EN"
  "http://www.w3.org/Graphics/SVG/1.1/DTD/svg11.dtd">
<svg xmlns:xlink="http://www.w3.org/1999/xlink" width="720pt" height="576pt" viewBox="0 0 720 576" xmlns="http://www.w3.org/2000/svg" version="1.1">
 <metadata>
  <rdf:RDF xmlns:dc="http://purl.org/dc/elements/1.1/" xmlns:cc="http://creativecommons.org/ns#" xmlns:rdf="http://www.w3.org/1999/02/22-rdf-syntax-ns#">
   <cc:Work>
    <dc:type rdf:resource="http://purl.org/dc/dcmitype/StillImage"/>
    <dc:date>2023-08-04T17:09:28.602084</dc:date>
    <dc:format>image/svg+xml</dc:format>
    <dc:creator>
     <cc:Agent>
      <dc:title>Matplotlib v3.6.2, https://matplotlib.org/</dc:title>
     </cc:Agent>
    </dc:creator>
   </cc:Work>
  </rdf:RDF>
 </metadata>
 <defs>
  <style type="text/css">*{stroke-linejoin: round; stroke-linecap: butt}</style>
 </defs>
 <g id="figure_1">
  <g id="patch_1">
   <path d="M 0 576 
L 720 576 
L 720 0 
L 0 0 
z
" style="fill: #ffffff"/>
  </g>
  <g id="axes_1">
   <g id="patch_2">
    <path d="M 90 512.64 
L 648 512.64 
L 648 69.12 
L 90 69.12 
z
" style="fill: #ffffff"/>
   </g>
   <g id="matplotlib.axis_1">
    <g id="xtick_1">
     <g id="text_1">
      <!-- −2.0 -->
      <g style="fill: #262626" transform="translate(123.113404 530.498281) scale(0.11 -0.11)">
       <defs>
        <path id="DejaVuSans-2212" d="M 678 2272 
L 4684 2272 
L 4684 1741 
L 678 1741 
L 678 2272 
z
" transform="scale(0.015625)"/>
        <path id="DejaVuSans-32" d="M 1228 531 
L 3431 531 
L 3431 0 
L 469 0 
L 469 531 
Q 828 903 1448 1529 
Q 2069 2156 2228 2338 
Q 2531 2678 2651 2914 
Q 2772 3150 2772 3378 
Q 2772 3750 2511 3984 
Q 2250 4219 1831 4219 
Q 1534 4219 1204 4116 
Q 875 4013 500 3803 
L 500 4441 
Q 881 4594 1212 4672 
Q 1544 4750 1819 4750 
Q 2544 4750 2975 4387 
Q 3406 4025 3406 3419 
Q 3406 3131 3298 2873 
Q 3191 2616 2906 2266 
Q 2828 2175 2409 1742 
Q 1991 1309 1228 531 
z
" transform="scale(0.015625)"/>
        <path id="DejaVuSans-2e" d="M 684 794 
L 1344 794 
L 1344 0 
L 684 0 
L 684 794 
z
" transform="scale(0.015625)"/>
        <path id="DejaVuSans-30" d="M 2034 4250 
Q 1547 4250 1301 3770 
Q 1056 3291 1056 2328 
Q 1056 1369 1301 889 
Q 1547 409 2034 409 
Q 2525 409 2770 889 
Q 3016 1369 3016 2328 
Q 3016 3291 2770 3770 
Q 2525 4250 2034 4250 
z
M 2034 4750 
Q 2819 4750 3233 4129 
Q 3647 3509 3647 2328 
Q 3647 1150 3233 529 
Q 2819 -91 2034 -91 
Q 1250 -91 836 529 
Q 422 1150 422 2328 
Q 422 3509 836 4129 
Q 1250 4750 2034 4750 
z
" transform="scale(0.015625)"/>
       </defs>
       <use xlink:href="#DejaVuSans-2212"/>
       <use xlink:href="#DejaVuSans-32" x="83.789062"/>
       <use xlink:href="#DejaVuSans-2e" x="147.412109"/>
       <use xlink:href="#DejaVuSans-30" x="179.199219"/>
      </g>
     </g>
    </g>
    <g id="xtick_2">
     <g id="text_2">
      <!-- −1.5 -->
      <g style="fill: #262626" transform="translate(234.90003 530.498281) scale(0.11 -0.11)">
       <defs>
        <path id="DejaVuSans-31" d="M 794 531 
L 1825 531 
L 1825 4091 
L 703 3866 
L 703 4441 
L 1819 4666 
L 2450 4666 
L 2450 531 
L 3481 531 
L 3481 0 
L 794 0 
L 794 531 
z
" transform="scale(0.015625)"/>
        <path id="DejaVuSans-35" d="M 691 4666 
L 3169 4666 
L 3169 4134 
L 1269 4134 
L 1269 2991 
Q 1406 3038 1543 3061 
Q 1681 3084 1819 3084 
Q 2600 3084 3056 2656 
Q 3513 2228 3513 1497 
Q 3513 744 3044 326 
Q 2575 -91 1722 -91 
Q 1428 -91 1123 -41 
Q 819 9 494 109 
L 494 744 
Q 775 591 1075 516 
Q 1375 441 1709 441 
Q 2250 441 2565 725 
Q 2881 1009 2881 1497 
Q 2881 1984 2565 2268 
Q 2250 2553 1709 2553 
Q 1456 2553 1204 2497 
Q 953 2441 691 2322 
L 691 4666 
z
" transform="scale(0.015625)"/>
       </defs>
       <use xlink:href="#DejaVuSans-2212"/>
       <use xlink:href="#DejaVuSans-31" x="83.789062"/>
       <use xlink:href="#DejaVuSans-2e" x="147.412109"/>
       <use xlink:href="#DejaVuSans-35" x="179.199219"/>
      </g>
     </g>
    </g>
    <g id="xtick_3">
     <g id="text_3">
      <!-- −1.0 -->
      <g style="fill: #262626" transform="translate(346.686655 530.498281) scale(0.11 -0.11)">
       <use xlink:href="#DejaVuSans-2212"/>
       <use xlink:href="#DejaVuSans-31" x="83.789062"/>
       <use xlink:href="#DejaVuSans-2e" x="147.412109"/>
       <use xlink:href="#DejaVuSans-30" x="179.199219"/>
      </g>
     </g>
    </g>
    <g id="xtick_4">
     <g id="text_4">
      <!-- −0.5 -->
      <g style="fill: #262626" transform="translate(458.473281 530.498281) scale(0.11 -0.11)">
       <use xlink:href="#DejaVuSans-2212"/>
       <use xlink:href="#DejaVuSans-30" x="83.789062"/>
       <use xlink:href="#DejaVuSans-2e" x="147.412109"/>
       <use xlink:href="#DejaVuSans-35" x="179.199219"/>
      </g>
     </g>
    </g>
    <g id="xtick_5">
     <g id="text_5">
      <!-- 0.0 -->
      <g style="fill: #262626" transform="translate(574.868735 530.498281) scale(0.11 -0.11)">
       <use xlink:href="#DejaVuSans-30"/>
       <use xlink:href="#DejaVuSans-2e" x="63.623047"/>
       <use xlink:href="#DejaVuSans-30" x="95.410156"/>
      </g>
     </g>
    </g>
    <g id="text_6">
     <!-- Independent joint value (knee_angle_pat_r) -->
     <g style="fill: #262626" transform="translate(238.403437 545.904063) scale(0.12 -0.12)">
      <defs>
       <path id="DejaVuSans-49" d="M 628 4666 
L 1259 4666 
L 1259 0 
L 628 0 
L 628 4666 
z
" transform="scale(0.015625)"/>
       <path id="DejaVuSans-6e" d="M 3513 2113 
L 3513 0 
L 2938 0 
L 2938 2094 
Q 2938 2591 2744 2837 
Q 2550 3084 2163 3084 
Q 1697 3084 1428 2787 
Q 1159 2491 1159 1978 
L 1159 0 
L 581 0 
L 581 3500 
L 1159 3500 
L 1159 2956 
Q 1366 3272 1645 3428 
Q 1925 3584 2291 3584 
Q 2894 3584 3203 3211 
Q 3513 2838 3513 2113 
z
" transform="scale(0.015625)"/>
       <path id="DejaVuSans-64" d="M 2906 2969 
L 2906 4863 
L 3481 4863 
L 3481 0 
L 2906 0 
L 2906 525 
Q 2725 213 2448 61 
Q 2172 -91 1784 -91 
Q 1150 -91 751 415 
Q 353 922 353 1747 
Q 353 2572 751 3078 
Q 1150 3584 1784 3584 
Q 2172 3584 2448 3432 
Q 2725 3281 2906 2969 
z
M 947 1747 
Q 947 1113 1208 752 
Q 1469 391 1925 391 
Q 2381 391 2643 752 
Q 2906 1113 2906 1747 
Q 2906 2381 2643 2742 
Q 2381 3103 1925 3103 
Q 1469 3103 1208 2742 
Q 947 2381 947 1747 
z
" transform="scale(0.015625)"/>
       <path id="DejaVuSans-65" d="M 3597 1894 
L 3597 1613 
L 953 1613 
Q 991 1019 1311 708 
Q 1631 397 2203 397 
Q 2534 397 2845 478 
Q 3156 559 3463 722 
L 3463 178 
Q 3153 47 2828 -22 
Q 2503 -91 2169 -91 
Q 1331 -91 842 396 
Q 353 884 353 1716 
Q 353 2575 817 3079 
Q 1281 3584 2069 3584 
Q 2775 3584 3186 3129 
Q 3597 2675 3597 1894 
z
M 3022 2063 
Q 3016 2534 2758 2815 
Q 2500 3097 2075 3097 
Q 1594 3097 1305 2825 
Q 1016 2553 972 2059 
L 3022 2063 
z
" transform="scale(0.015625)"/>
       <path id="DejaVuSans-70" d="M 1159 525 
L 1159 -1331 
L 581 -1331 
L 581 3500 
L 1159 3500 
L 1159 2969 
Q 1341 3281 1617 3432 
Q 1894 3584 2278 3584 
Q 2916 3584 3314 3078 
Q 3713 2572 3713 1747 
Q 3713 922 3314 415 
Q 2916 -91 2278 -91 
Q 1894 -91 1617 61 
Q 1341 213 1159 525 
z
M 3116 1747 
Q 3116 2381 2855 2742 
Q 2594 3103 2138 3103 
Q 1681 3103 1420 2742 
Q 1159 2381 1159 1747 
Q 1159 1113 1420 752 
Q 1681 391 2138 391 
Q 2594 391 2855 752 
Q 3116 1113 3116 1747 
z
" transform="scale(0.015625)"/>
       <path id="DejaVuSans-74" d="M 1172 4494 
L 1172 3500 
L 2356 3500 
L 2356 3053 
L 1172 3053 
L 1172 1153 
Q 1172 725 1289 603 
Q 1406 481 1766 481 
L 2356 481 
L 2356 0 
L 1766 0 
Q 1100 0 847 248 
Q 594 497 594 1153 
L 594 3053 
L 172 3053 
L 172 3500 
L 594 3500 
L 594 4494 
L 1172 4494 
z
" transform="scale(0.015625)"/>
       <path id="DejaVuSans-20" transform="scale(0.015625)"/>
       <path id="DejaVuSans-6a" d="M 603 3500 
L 1178 3500 
L 1178 -63 
Q 1178 -731 923 -1031 
Q 669 -1331 103 -1331 
L -116 -1331 
L -116 -844 
L 38 -844 
Q 366 -844 484 -692 
Q 603 -541 603 -63 
L 603 3500 
z
M 603 4863 
L 1178 4863 
L 1178 4134 
L 603 4134 
L 603 4863 
z
" transform="scale(0.015625)"/>
       <path id="DejaVuSans-6f" d="M 1959 3097 
Q 1497 3097 1228 2736 
Q 959 2375 959 1747 
Q 959 1119 1226 758 
Q 1494 397 1959 397 
Q 2419 397 2687 759 
Q 2956 1122 2956 1747 
Q 2956 2369 2687 2733 
Q 2419 3097 1959 3097 
z
M 1959 3584 
Q 2709 3584 3137 3096 
Q 3566 2609 3566 1747 
Q 3566 888 3137 398 
Q 2709 -91 1959 -91 
Q 1206 -91 779 398 
Q 353 888 353 1747 
Q 353 2609 779 3096 
Q 1206 3584 1959 3584 
z
" transform="scale(0.015625)"/>
       <path id="DejaVuSans-69" d="M 603 3500 
L 1178 3500 
L 1178 0 
L 603 0 
L 603 3500 
z
M 603 4863 
L 1178 4863 
L 1178 4134 
L 603 4134 
L 603 4863 
z
" transform="scale(0.015625)"/>
       <path id="DejaVuSans-76" d="M 191 3500 
L 800 3500 
L 1894 563 
L 2988 3500 
L 3597 3500 
L 2284 0 
L 1503 0 
L 191 3500 
z
" transform="scale(0.015625)"/>
       <path id="DejaVuSans-61" d="M 2194 1759 
Q 1497 1759 1228 1600 
Q 959 1441 959 1056 
Q 959 750 1161 570 
Q 1363 391 1709 391 
Q 2188 391 2477 730 
Q 2766 1069 2766 1631 
L 2766 1759 
L 2194 1759 
z
M 3341 1997 
L 3341 0 
L 2766 0 
L 2766 531 
Q 2569 213 2275 61 
Q 1981 -91 1556 -91 
Q 1019 -91 701 211 
Q 384 513 384 1019 
Q 384 1609 779 1909 
Q 1175 2209 1959 2209 
L 2766 2209 
L 2766 2266 
Q 2766 2663 2505 2880 
Q 2244 3097 1772 3097 
Q 1472 3097 1187 3025 
Q 903 2953 641 2809 
L 641 3341 
Q 956 3463 1253 3523 
Q 1550 3584 1831 3584 
Q 2591 3584 2966 3190 
Q 3341 2797 3341 1997 
z
" transform="scale(0.015625)"/>
       <path id="DejaVuSans-6c" d="M 603 4863 
L 1178 4863 
L 1178 0 
L 603 0 
L 603 4863 
z
" transform="scale(0.015625)"/>
       <path id="DejaVuSans-75" d="M 544 1381 
L 544 3500 
L 1119 3500 
L 1119 1403 
Q 1119 906 1312 657 
Q 1506 409 1894 409 
Q 2359 409 2629 706 
Q 2900 1003 2900 1516 
L 2900 3500 
L 3475 3500 
L 3475 0 
L 2900 0 
L 2900 538 
Q 2691 219 2414 64 
Q 2138 -91 1772 -91 
Q 1169 -91 856 284 
Q 544 659 544 1381 
z
M 1991 3584 
L 1991 3584 
z
" transform="scale(0.015625)"/>
       <path id="DejaVuSans-28" d="M 1984 4856 
Q 1566 4138 1362 3434 
Q 1159 2731 1159 2009 
Q 1159 1288 1364 580 
Q 1569 -128 1984 -844 
L 1484 -844 
Q 1016 -109 783 600 
Q 550 1309 550 2009 
Q 550 2706 781 3412 
Q 1013 4119 1484 4856 
L 1984 4856 
z
" transform="scale(0.015625)"/>
       <path id="DejaVuSans-6b" d="M 581 4863 
L 1159 4863 
L 1159 1991 
L 2875 3500 
L 3609 3500 
L 1753 1863 
L 3688 0 
L 2938 0 
L 1159 1709 
L 1159 0 
L 581 0 
L 581 4863 
z
" transform="scale(0.015625)"/>
       <path id="DejaVuSans-5f" d="M 3263 -1063 
L 3263 -1509 
L -63 -1509 
L -63 -1063 
L 3263 -1063 
z
" transform="scale(0.015625)"/>
       <path id="DejaVuSans-67" d="M 2906 1791 
Q 2906 2416 2648 2759 
Q 2391 3103 1925 3103 
Q 1463 3103 1205 2759 
Q 947 2416 947 1791 
Q 947 1169 1205 825 
Q 1463 481 1925 481 
Q 2391 481 2648 825 
Q 2906 1169 2906 1791 
z
M 3481 434 
Q 3481 -459 3084 -895 
Q 2688 -1331 1869 -1331 
Q 1566 -1331 1297 -1286 
Q 1028 -1241 775 -1147 
L 775 -588 
Q 1028 -725 1275 -790 
Q 1522 -856 1778 -856 
Q 2344 -856 2625 -561 
Q 2906 -266 2906 331 
L 2906 616 
Q 2728 306 2450 153 
Q 2172 0 1784 0 
Q 1141 0 747 490 
Q 353 981 353 1791 
Q 353 2603 747 3093 
Q 1141 3584 1784 3584 
Q 2172 3584 2450 3431 
Q 2728 3278 2906 2969 
L 2906 3500 
L 3481 3500 
L 3481 434 
z
" transform="scale(0.015625)"/>
       <path id="DejaVuSans-72" d="M 2631 2963 
Q 2534 3019 2420 3045 
Q 2306 3072 2169 3072 
Q 1681 3072 1420 2755 
Q 1159 2438 1159 1844 
L 1159 0 
L 581 0 
L 581 3500 
L 1159 3500 
L 1159 2956 
Q 1341 3275 1631 3429 
Q 1922 3584 2338 3584 
Q 2397 3584 2469 3576 
Q 2541 3569 2628 3553 
L 2631 2963 
z
" transform="scale(0.015625)"/>
       <path id="DejaVuSans-29" d="M 513 4856 
L 1013 4856 
Q 1481 4119 1714 3412 
Q 1947 2706 1947 2009 
Q 1947 1309 1714 600 
Q 1481 -109 1013 -844 
L 513 -844 
Q 928 -128 1133 580 
Q 1338 1288 1338 2009 
Q 1338 2731 1133 3434 
Q 928 4138 513 4856 
z
" transform="scale(0.015625)"/>
      </defs>
      <use xlink:href="#DejaVuSans-49"/>
      <use xlink:href="#DejaVuSans-6e" x="29.492188"/>
      <use xlink:href="#DejaVuSans-64" x="92.871094"/>
      <use xlink:href="#DejaVuSans-65" x="156.347656"/>
      <use xlink:href="#DejaVuSans-70" x="217.871094"/>
      <use xlink:href="#DejaVuSans-65" x="281.347656"/>
      <use xlink:href="#DejaVuSans-6e" x="342.871094"/>
      <use xlink:href="#DejaVuSans-64" x="406.25"/>
      <use xlink:href="#DejaVuSans-65" x="469.726562"/>
      <use xlink:href="#DejaVuSans-6e" x="531.25"/>
      <use xlink:href="#DejaVuSans-74" x="594.628906"/>
      <use xlink:href="#DejaVuSans-20" x="633.837891"/>
      <use xlink:href="#DejaVuSans-6a" x="665.625"/>
      <use xlink:href="#DejaVuSans-6f" x="693.408203"/>
      <use xlink:href="#DejaVuSans-69" x="754.589844"/>
      <use xlink:href="#DejaVuSans-6e" x="782.373047"/>
      <use xlink:href="#DejaVuSans-74" x="845.751953"/>
      <use xlink:href="#DejaVuSans-20" x="884.960938"/>
      <use xlink:href="#DejaVuSans-76" x="916.748047"/>
      <use xlink:href="#DejaVuSans-61" x="975.927734"/>
      <use xlink:href="#DejaVuSans-6c" x="1037.207031"/>
      <use xlink:href="#DejaVuSans-75" x="1064.990234"/>
      <use xlink:href="#DejaVuSans-65" x="1128.369141"/>
      <use xlink:href="#DejaVuSans-20" x="1189.892578"/>
      <use xlink:href="#DejaVuSans-28" x="1221.679688"/>
      <use xlink:href="#DejaVuSans-6b" x="1260.693359"/>
      <use xlink:href="#DejaVuSans-6e" x="1318.603516"/>
      <use xlink:href="#DejaVuSans-65" x="1381.982422"/>
      <use xlink:href="#DejaVuSans-65" x="1443.505859"/>
      <use xlink:href="#DejaVuSans-5f" x="1505.029297"/>
      <use xlink:href="#DejaVuSans-61" x="1555.029297"/>
      <use xlink:href="#DejaVuSans-6e" x="1616.308594"/>
      <use xlink:href="#DejaVuSans-67" x="1679.6875"/>
      <use xlink:href="#DejaVuSans-6c" x="1743.164062"/>
      <use xlink:href="#DejaVuSans-65" x="1770.947266"/>
      <use xlink:href="#DejaVuSans-5f" x="1832.470703"/>
      <use xlink:href="#DejaVuSans-70" x="1882.470703"/>
      <use xlink:href="#DejaVuSans-61" x="1945.947266"/>
      <use xlink:href="#DejaVuSans-74" x="2007.226562"/>
      <use xlink:href="#DejaVuSans-5f" x="2046.435547"/>
      <use xlink:href="#DejaVuSans-72" x="2096.435547"/>
      <use xlink:href="#DejaVuSans-29" x="2137.548828"/>
     </g>
    </g>
   </g>
   <g id="matplotlib.axis_2">
    <g id="ytick_1">
     <g id="text_7">
      <!-- −0.3 -->
      <g style="fill: #262626" transform="translate(53.788906 509.889621) scale(0.11 -0.11)">
       <defs>
        <path id="DejaVuSans-33" d="M 2597 2516 
Q 3050 2419 3304 2112 
Q 3559 1806 3559 1356 
Q 3559 666 3084 287 
Q 2609 -91 1734 -91 
Q 1441 -91 1130 -33 
Q 819 25 488 141 
L 488 750 
Q 750 597 1062 519 
Q 1375 441 1716 441 
Q 2309 441 2620 675 
Q 2931 909 2931 1356 
Q 2931 1769 2642 2001 
Q 2353 2234 1838 2234 
L 1294 2234 
L 1294 2753 
L 1863 2753 
Q 2328 2753 2575 2939 
Q 2822 3125 2822 3475 
Q 2822 3834 2567 4026 
Q 2313 4219 1838 4219 
Q 1578 4219 1281 4162 
Q 984 4106 628 3988 
L 628 4550 
Q 988 4650 1302 4700 
Q 1616 4750 1894 4750 
Q 2613 4750 3031 4423 
Q 3450 4097 3450 3541 
Q 3450 3153 3228 2886 
Q 3006 2619 2597 2516 
z
" transform="scale(0.015625)"/>
       </defs>
       <use xlink:href="#DejaVuSans-2212"/>
       <use xlink:href="#DejaVuSans-30" x="83.789062"/>
       <use xlink:href="#DejaVuSans-2e" x="147.412109"/>
       <use xlink:href="#DejaVuSans-33" x="179.199219"/>
      </g>
     </g>
    </g>
    <g id="ytick_2">
     <g id="text_8">
      <!-- −0.2 -->
      <g style="fill: #262626" transform="translate(53.788906 443.898895) scale(0.11 -0.11)">
       <use xlink:href="#DejaVuSans-2212"/>
       <use xlink:href="#DejaVuSans-30" x="83.789062"/>
       <use xlink:href="#DejaVuSans-2e" x="147.412109"/>
       <use xlink:href="#DejaVuSans-32" x="179.199219"/>
      </g>
     </g>
    </g>
    <g id="ytick_3">
     <g id="text_9">
      <!-- −0.1 -->
      <g style="fill: #262626" transform="translate(53.788906 377.908169) scale(0.11 -0.11)">
       <use xlink:href="#DejaVuSans-2212"/>
       <use xlink:href="#DejaVuSans-30" x="83.789062"/>
       <use xlink:href="#DejaVuSans-2e" x="147.412109"/>
       <use xlink:href="#DejaVuSans-31" x="179.199219"/>
      </g>
     </g>
    </g>
    <g id="ytick_4">
     <g id="text_10">
      <!-- 0.0 -->
      <g style="fill: #262626" transform="translate(63.006563 311.917443) scale(0.11 -0.11)">
       <use xlink:href="#DejaVuSans-30"/>
       <use xlink:href="#DejaVuSans-2e" x="63.623047"/>
       <use xlink:href="#DejaVuSans-30" x="95.410156"/>
      </g>
     </g>
    </g>
    <g id="ytick_5">
     <g id="text_11">
      <!-- 0.1 -->
      <g style="fill: #262626" transform="translate(63.006563 245.926717) scale(0.11 -0.11)">
       <use xlink:href="#DejaVuSans-30"/>
       <use xlink:href="#DejaVuSans-2e" x="63.623047"/>
       <use xlink:href="#DejaVuSans-31" x="95.410156"/>
      </g>
     </g>
    </g>
    <g id="ytick_6">
     <g id="text_12">
      <!-- 0.2 -->
      <g style="fill: #262626" transform="translate(63.006563 179.935991) scale(0.11 -0.11)">
       <use xlink:href="#DejaVuSans-30"/>
       <use xlink:href="#DejaVuSans-2e" x="63.623047"/>
       <use xlink:href="#DejaVuSans-32" x="95.410156"/>
      </g>
     </g>
    </g>
    <g id="ytick_7">
     <g id="text_13">
      <!-- 0.3 -->
      <g style="fill: #262626" transform="translate(63.006563 113.945264) scale(0.11 -0.11)">
       <use xlink:href="#DejaVuSans-30"/>
       <use xlink:href="#DejaVuSans-2e" x="63.623047"/>
       <use xlink:href="#DejaVuSans-33" x="95.410156"/>
      </g>
     </g>
    </g>
    <g id="text_14">
     <!-- Dependent joint value (tib_pat_r_rotation1) -->
     <g style="fill: #262626" transform="translate(46.959531 420.5775) rotate(-90) scale(0.12 -0.12)">
      <defs>
       <path id="DejaVuSans-44" d="M 1259 4147 
L 1259 519 
L 2022 519 
Q 2988 519 3436 956 
Q 3884 1394 3884 2338 
Q 3884 3275 3436 3711 
Q 2988 4147 2022 4147 
L 1259 4147 
z
M 628 4666 
L 1925 4666 
Q 3281 4666 3915 4102 
Q 4550 3538 4550 2338 
Q 4550 1131 3912 565 
Q 3275 0 1925 0 
L 628 0 
L 628 4666 
z
" transform="scale(0.015625)"/>
       <path id="DejaVuSans-62" d="M 3116 1747 
Q 3116 2381 2855 2742 
Q 2594 3103 2138 3103 
Q 1681 3103 1420 2742 
Q 1159 2381 1159 1747 
Q 1159 1113 1420 752 
Q 1681 391 2138 391 
Q 2594 391 2855 752 
Q 3116 1113 3116 1747 
z
M 1159 2969 
Q 1341 3281 1617 3432 
Q 1894 3584 2278 3584 
Q 2916 3584 3314 3078 
Q 3713 2572 3713 1747 
Q 3713 922 3314 415 
Q 2916 -91 2278 -91 
Q 1894 -91 1617 61 
Q 1341 213 1159 525 
L 1159 0 
L 581 0 
L 581 4863 
L 1159 4863 
L 1159 2969 
z
" transform="scale(0.015625)"/>
      </defs>
      <use xlink:href="#DejaVuSans-44"/>
      <use xlink:href="#DejaVuSans-65" x="77.001953"/>
      <use xlink:href="#DejaVuSans-70" x="138.525391"/>
      <use xlink:href="#DejaVuSans-65" x="202.001953"/>
      <use xlink:href="#DejaVuSans-6e" x="263.525391"/>
      <use xlink:href="#DejaVuSans-64" x="326.904297"/>
      <use xlink:href="#DejaVuSans-65" x="390.380859"/>
      <use xlink:href="#DejaVuSans-6e" x="451.904297"/>
      <use xlink:href="#DejaVuSans-74" x="515.283203"/>
      <use xlink:href="#DejaVuSans-20" x="554.492188"/>
      <use xlink:href="#DejaVuSans-6a" x="586.279297"/>
      <use xlink:href="#DejaVuSans-6f" x="614.0625"/>
      <use xlink:href="#DejaVuSans-69" x="675.244141"/>
      <use xlink:href="#DejaVuSans-6e" x="703.027344"/>
      <use xlink:href="#DejaVuSans-74" x="766.40625"/>
      <use xlink:href="#DejaVuSans-20" x="805.615234"/>
      <use xlink:href="#DejaVuSans-76" x="837.402344"/>
      <use xlink:href="#DejaVuSans-61" x="896.582031"/>
      <use xlink:href="#DejaVuSans-6c" x="957.861328"/>
      <use xlink:href="#DejaVuSans-75" x="985.644531"/>
      <use xlink:href="#DejaVuSans-65" x="1049.023438"/>
      <use xlink:href="#DejaVuSans-20" x="1110.546875"/>
      <use xlink:href="#DejaVuSans-28" x="1142.333984"/>
      <use xlink:href="#DejaVuSans-74" x="1181.347656"/>
      <use xlink:href="#DejaVuSans-69" x="1220.556641"/>
      <use xlink:href="#DejaVuSans-62" x="1248.339844"/>
      <use xlink:href="#DejaVuSans-5f" x="1311.816406"/>
      <use xlink:href="#DejaVuSans-70" x="1361.816406"/>
      <use xlink:href="#DejaVuSans-61" x="1425.292969"/>
      <use xlink:href="#DejaVuSans-74" x="1486.572266"/>
      <use xlink:href="#DejaVuSans-5f" x="1525.78125"/>
      <use xlink:href="#DejaVuSans-72" x="1575.78125"/>
      <use xlink:href="#DejaVuSans-5f" x="1616.894531"/>
      <use xlink:href="#DejaVuSans-72" x="1666.894531"/>
      <use xlink:href="#DejaVuSans-6f" x="1705.757812"/>
      <use xlink:href="#DejaVuSans-74" x="1766.939453"/>
      <use xlink:href="#DejaVuSans-61" x="1806.148438"/>
      <use xlink:href="#DejaVuSans-74" x="1867.427734"/>
      <use xlink:href="#DejaVuSans-69" x="1906.636719"/>
      <use xlink:href="#DejaVuSans-6f" x="1934.419922"/>
      <use xlink:href="#DejaVuSans-6e" x="1995.601562"/>
      <use xlink:href="#DejaVuSans-31" x="2058.980469"/>
      <use xlink:href="#DejaVuSans-29" x="2122.603516"/>
     </g>
    </g>
   </g>
   <g id="line2d_1">
    <defs>
     <path id="m6b1f53ce36" d="M 0 2.5 
C 0.663008 2.5 1.29895 2.236584 1.767767 1.767767 
C 2.236584 1.29895 2.5 0.663008 2.5 0 
C 2.5 -0.663008 2.236584 -1.29895 1.767767 -1.767767 
C 1.29895 -2.236584 0.663008 -2.5 0 -2.5 
C -0.663008 -2.5 -1.29895 -2.236584 -1.767767 -1.767767 
C -2.236584 -1.29895 -2.5 -0.663008 -2.5 0 
C -2.5 0.663008 -2.236584 1.29895 -1.767767 1.767767 
C -1.29895 2.236584 -0.663008 2.5 0 2.5 
z
" style="stroke: #4c72b0"/>
    </defs>
    <g clip-path="url(#pf7618be4dc)">
     <use xlink:href="#m6b1f53ce36" x="115.363636" y="104.45321" style="fill: #4c72b0; stroke: #4c72b0"/>
     <use xlink:href="#m6b1f53ce36" x="136.475658" y="104.45321" style="fill: #4c72b0; stroke: #4c72b0"/>
     <use xlink:href="#m6b1f53ce36" x="257.752969" y="105.605409" style="fill: #4c72b0; stroke: #4c72b0"/>
     <use xlink:href="#m6b1f53ce36" x="465.928506" y="129.446538" style="fill: #4c72b0; stroke: #4c72b0"/>
     <use xlink:href="#m6b1f53ce36" x="589.858804" y="332.155531" style="fill: #4c72b0; stroke: #4c72b0"/>
     <use xlink:href="#m6b1f53ce36" x="622.636364" y="492.48" style="fill: #4c72b0; stroke: #4c72b0"/>
    </g>
   </g>
   <g id="line2d_2">
    <path d="M 115.363636 110.337527 
L 120.487603 106.132247 
L 125.61157 102.482143 
L 130.735537 99.353048 
L 135.859504 96.711714 
L 140.983471 94.525814 
L 146.107438 92.763939 
L 151.231405 91.3956 
L 156.355372 90.391227 
L 161.479339 89.72217 
L 166.603306 89.360698 
L 171.727273 89.28 
L 176.85124 89.454184 
L 181.975207 89.858278 
L 187.099174 90.468229 
L 192.22314 91.260902 
L 197.347107 92.214085 
L 202.471074 93.306481 
L 207.595041 94.517717 
L 212.719008 95.828336 
L 217.842975 97.219802 
L 222.966942 98.674497 
L 228.090909 100.175725 
L 233.214876 101.707707 
L 238.338843 103.255584 
L 243.46281 104.805418 
L 248.586777 106.344189 
L 253.710744 107.859796 
L 258.834711 109.341059 
L 263.958678 110.777716 
L 269.082645 112.160425 
L 274.206612 113.480763 
L 279.330579 114.731228 
L 284.454545 115.905236 
L 289.578512 116.997122 
L 294.702479 118.002142 
L 299.826446 118.91647 
L 304.950413 119.7372 
L 310.07438 120.462347 
L 315.198347 121.090843 
L 320.322314 121.622539 
L 325.446281 122.058209 
L 330.570248 122.399544 
L 335.694215 122.649153 
L 340.818182 122.810568 
L 345.942149 122.888237 
L 351.066116 122.88753 
L 356.190083 122.814736 
L 361.31405 122.677062 
L 366.438017 122.482635 
L 371.561983 122.240503 
L 376.68595 121.960632 
L 381.809917 121.653906 
L 386.933884 121.332132 
L 392.057851 121.008034 
L 397.181818 120.695255 
L 402.305785 120.40836 
L 407.429752 120.162831 
L 412.553719 119.97507 
L 417.677686 119.862399 
L 422.801653 119.84306 
L 427.92562 119.936212 
L 433.049587 120.161936 
L 438.173554 120.541232 
L 443.297521 121.096018 
L 448.421488 121.849132 
L 453.545455 122.824333 
L 458.669421 124.046297 
L 463.793388 125.540622 
L 468.917355 127.333824 
L 474.041322 129.453337 
L 479.165289 131.927517 
L 484.289256 134.785639 
L 489.413223 138.057896 
L 494.53719 141.775402 
L 499.661157 145.970189 
L 504.785124 150.675209 
L 509.909091 155.924335 
L 515.033058 161.752356 
L 520.157025 168.194985 
L 525.280992 175.28885 
L 530.404959 183.071501 
L 535.528926 191.581407 
L 540.652893 200.857955 
L 545.77686 210.941455 
L 550.900826 221.873132 
L 556.024793 233.695134 
L 561.14876 246.450526 
L 566.272727 260.183295 
L 571.396694 274.938344 
L 576.520661 290.761498 
L 581.644628 307.6995 
L 586.768595 325.800015 
L 591.892562 345.111625 
L 597.016529 365.683831 
L 602.140496 387.567055 
L 607.264463 410.812639 
L 612.38843 435.472842 
L 617.512397 461.600845 
L 622.636364 489.250747 
" clip-path="url(#pf7618be4dc)" style="fill: none; stroke: #dd8452; stroke-width: 1.5; stroke-linecap: round"/>
   </g>
   <g id="patch_3">
    <path d="M 90 512.64 
L 90 69.12 
" style="fill: none; stroke: #262626; stroke-width: 1.25; stroke-linejoin: miter; stroke-linecap: square"/>
   </g>
   <g id="patch_4">
    <path d="M 648 512.64 
L 648 69.12 
" style="fill: none; stroke: #262626; stroke-width: 1.25; stroke-linejoin: miter; stroke-linecap: square"/>
   </g>
   <g id="patch_5">
    <path d="M 90 512.64 
L 648 512.64 
" style="fill: none; stroke: #262626; stroke-width: 1.25; stroke-linejoin: miter; stroke-linecap: square"/>
   </g>
   <g id="patch_6">
    <path d="M 90 69.12 
L 648 69.12 
" style="fill: none; stroke: #262626; stroke-width: 1.25; stroke-linejoin: miter; stroke-linecap: square"/>
   </g>
   <g id="text_15">
    <!-- Approximation of dependent joint tib_pat_r_rotation1 movement wrt independent joint knee_angle_pat_r -->
    <g style="fill: #262626" transform="translate(54.313125 63.12) scale(0.12 -0.12)">
     <defs>
      <path id="DejaVuSans-41" d="M 2188 4044 
L 1331 1722 
L 3047 1722 
L 2188 4044 
z
M 1831 4666 
L 2547 4666 
L 4325 0 
L 3669 0 
L 3244 1197 
L 1141 1197 
L 716 0 
L 50 0 
L 1831 4666 
z
" transform="scale(0.015625)"/>
      <path id="DejaVuSans-78" d="M 3513 3500 
L 2247 1797 
L 3578 0 
L 2900 0 
L 1881 1375 
L 863 0 
L 184 0 
L 1544 1831 
L 300 3500 
L 978 3500 
L 1906 2253 
L 2834 3500 
L 3513 3500 
z
" transform="scale(0.015625)"/>
      <path id="DejaVuSans-6d" d="M 3328 2828 
Q 3544 3216 3844 3400 
Q 4144 3584 4550 3584 
Q 5097 3584 5394 3201 
Q 5691 2819 5691 2113 
L 5691 0 
L 5113 0 
L 5113 2094 
Q 5113 2597 4934 2840 
Q 4756 3084 4391 3084 
Q 3944 3084 3684 2787 
Q 3425 2491 3425 1978 
L 3425 0 
L 2847 0 
L 2847 2094 
Q 2847 2600 2669 2842 
Q 2491 3084 2119 3084 
Q 1678 3084 1418 2786 
Q 1159 2488 1159 1978 
L 1159 0 
L 581 0 
L 581 3500 
L 1159 3500 
L 1159 2956 
Q 1356 3278 1631 3431 
Q 1906 3584 2284 3584 
Q 2666 3584 2933 3390 
Q 3200 3197 3328 2828 
z
" transform="scale(0.015625)"/>
      <path id="DejaVuSans-66" d="M 2375 4863 
L 2375 4384 
L 1825 4384 
Q 1516 4384 1395 4259 
Q 1275 4134 1275 3809 
L 1275 3500 
L 2222 3500 
L 2222 3053 
L 1275 3053 
L 1275 0 
L 697 0 
L 697 3053 
L 147 3053 
L 147 3500 
L 697 3500 
L 697 3744 
Q 697 4328 969 4595 
Q 1241 4863 1831 4863 
L 2375 4863 
z
" transform="scale(0.015625)"/>
      <path id="DejaVuSans-77" d="M 269 3500 
L 844 3500 
L 1563 769 
L 2278 3500 
L 2956 3500 
L 3675 769 
L 4391 3500 
L 4966 3500 
L 4050 0 
L 3372 0 
L 2619 2869 
L 1863 0 
L 1184 0 
L 269 3500 
z
" transform="scale(0.015625)"/>
     </defs>
     <use xlink:href="#DejaVuSans-41"/>
     <use xlink:href="#DejaVuSans-70" x="68.408203"/>
     <use xlink:href="#DejaVuSans-70" x="131.884766"/>
     <use xlink:href="#DejaVuSans-72" x="195.361328"/>
     <use xlink:href="#DejaVuSans-6f" x="234.224609"/>
     <use xlink:href="#DejaVuSans-78" x="292.28125"/>
     <use xlink:href="#DejaVuSans-69" x="351.460938"/>
     <use xlink:href="#DejaVuSans-6d" x="379.244141"/>
     <use xlink:href="#DejaVuSans-61" x="476.65625"/>
     <use xlink:href="#DejaVuSans-74" x="537.935547"/>
     <use xlink:href="#DejaVuSans-69" x="577.144531"/>
     <use xlink:href="#DejaVuSans-6f" x="604.927734"/>
     <use xlink:href="#DejaVuSans-6e" x="666.109375"/>
     <use xlink:href="#DejaVuSans-20" x="729.488281"/>
     <use xlink:href="#DejaVuSans-6f" x="761.275391"/>
     <use xlink:href="#DejaVuSans-66" x="822.457031"/>
     <use xlink:href="#DejaVuSans-20" x="857.662109"/>
     <use xlink:href="#DejaVuSans-64" x="889.449219"/>
     <use xlink:href="#DejaVuSans-65" x="952.925781"/>
     <use xlink:href="#DejaVuSans-70" x="1014.449219"/>
     <use xlink:href="#DejaVuSans-65" x="1077.925781"/>
     <use xlink:href="#DejaVuSans-6e" x="1139.449219"/>
     <use xlink:href="#DejaVuSans-64" x="1202.828125"/>
     <use xlink:href="#DejaVuSans-65" x="1266.304688"/>
     <use xlink:href="#DejaVuSans-6e" x="1327.828125"/>
     <use xlink:href="#DejaVuSans-74" x="1391.207031"/>
     <use xlink:href="#DejaVuSans-20" x="1430.416016"/>
     <use xlink:href="#DejaVuSans-6a" x="1462.203125"/>
     <use xlink:href="#DejaVuSans-6f" x="1489.986328"/>
     <use xlink:href="#DejaVuSans-69" x="1551.167969"/>
     <use xlink:href="#DejaVuSans-6e" x="1578.951172"/>
     <use xlink:href="#DejaVuSans-74" x="1642.330078"/>
     <use xlink:href="#DejaVuSans-20" x="1681.539062"/>
     <use xlink:href="#DejaVuSans-74" x="1713.326172"/>
     <use xlink:href="#DejaVuSans-69" x="1752.535156"/>
     <use xlink:href="#DejaVuSans-62" x="1780.318359"/>
     <use xlink:href="#DejaVuSans-5f" x="1843.794922"/>
     <use xlink:href="#DejaVuSans-70" x="1893.794922"/>
     <use xlink:href="#DejaVuSans-61" x="1957.271484"/>
     <use xlink:href="#DejaVuSans-74" x="2018.550781"/>
     <use xlink:href="#DejaVuSans-5f" x="2057.759766"/>
     <use xlink:href="#DejaVuSans-72" x="2107.759766"/>
     <use xlink:href="#DejaVuSans-5f" x="2148.873047"/>
     <use xlink:href="#DejaVuSans-72" x="2198.873047"/>
     <use xlink:href="#DejaVuSans-6f" x="2237.736328"/>
     <use xlink:href="#DejaVuSans-74" x="2298.917969"/>
     <use xlink:href="#DejaVuSans-61" x="2338.126953"/>
     <use xlink:href="#DejaVuSans-74" x="2399.40625"/>
     <use xlink:href="#DejaVuSans-69" x="2438.615234"/>
     <use xlink:href="#DejaVuSans-6f" x="2466.398438"/>
     <use xlink:href="#DejaVuSans-6e" x="2527.580078"/>
     <use xlink:href="#DejaVuSans-31" x="2590.958984"/>
     <use xlink:href="#DejaVuSans-20" x="2654.582031"/>
     <use xlink:href="#DejaVuSans-6d" x="2686.369141"/>
     <use xlink:href="#DejaVuSans-6f" x="2783.78125"/>
     <use xlink:href="#DejaVuSans-76" x="2844.962891"/>
     <use xlink:href="#DejaVuSans-65" x="2904.142578"/>
     <use xlink:href="#DejaVuSans-6d" x="2965.666016"/>
     <use xlink:href="#DejaVuSans-65" x="3063.078125"/>
     <use xlink:href="#DejaVuSans-6e" x="3124.601562"/>
     <use xlink:href="#DejaVuSans-74" x="3187.980469"/>
     <use xlink:href="#DejaVuSans-20" x="3227.189453"/>
     <use xlink:href="#DejaVuSans-77" x="3258.976562"/>
     <use xlink:href="#DejaVuSans-72" x="3340.763672"/>
     <use xlink:href="#DejaVuSans-74" x="3381.876953"/>
     <use xlink:href="#DejaVuSans-20" x="3421.085938"/>
     <use xlink:href="#DejaVuSans-69" x="3452.873047"/>
     <use xlink:href="#DejaVuSans-6e" x="3480.65625"/>
     <use xlink:href="#DejaVuSans-64" x="3544.035156"/>
     <use xlink:href="#DejaVuSans-65" x="3607.511719"/>
     <use xlink:href="#DejaVuSans-70" x="3669.035156"/>
     <use xlink:href="#DejaVuSans-65" x="3732.511719"/>
     <use xlink:href="#DejaVuSans-6e" x="3794.035156"/>
     <use xlink:href="#DejaVuSans-64" x="3857.414062"/>
     <use xlink:href="#DejaVuSans-65" x="3920.890625"/>
     <use xlink:href="#DejaVuSans-6e" x="3982.414062"/>
     <use xlink:href="#DejaVuSans-74" x="4045.792969"/>
     <use xlink:href="#DejaVuSans-20" x="4085.001953"/>
     <use xlink:href="#DejaVuSans-6a" x="4116.789062"/>
     <use xlink:href="#DejaVuSans-6f" x="4144.572266"/>
     <use xlink:href="#DejaVuSans-69" x="4205.753906"/>
     <use xlink:href="#DejaVuSans-6e" x="4233.537109"/>
     <use xlink:href="#DejaVuSans-74" x="4296.916016"/>
     <use xlink:href="#DejaVuSans-20" x="4336.125"/>
     <use xlink:href="#DejaVuSans-6b" x="4367.912109"/>
     <use xlink:href="#DejaVuSans-6e" x="4425.822266"/>
     <use xlink:href="#DejaVuSans-65" x="4489.201172"/>
     <use xlink:href="#DejaVuSans-65" x="4550.724609"/>
     <use xlink:href="#DejaVuSans-5f" x="4612.248047"/>
     <use xlink:href="#DejaVuSans-61" x="4662.248047"/>
     <use xlink:href="#DejaVuSans-6e" x="4723.527344"/>
     <use xlink:href="#DejaVuSans-67" x="4786.90625"/>
     <use xlink:href="#DejaVuSans-6c" x="4850.382812"/>
     <use xlink:href="#DejaVuSans-65" x="4878.166016"/>
     <use xlink:href="#DejaVuSans-5f" x="4939.689453"/>
     <use xlink:href="#DejaVuSans-70" x="4989.689453"/>
     <use xlink:href="#DejaVuSans-61" x="5053.166016"/>
     <use xlink:href="#DejaVuSans-74" x="5114.445312"/>
     <use xlink:href="#DejaVuSans-5f" x="5153.654297"/>
     <use xlink:href="#DejaVuSans-72" x="5203.654297"/>
    </g>
   </g>
   <g id="legend_1">
    <g id="patch_7">
     <path d="M 453.147031 110.211875 
L 640.3 110.211875 
Q 642.5 110.211875 642.5 108.011875 
L 642.5 76.82 
Q 642.5 74.62 640.3 74.62 
L 453.147031 74.62 
Q 450.947031 74.62 450.947031 76.82 
L 450.947031 108.011875 
Q 450.947031 110.211875 453.147031 110.211875 
z
" style="fill: #ffffff; opacity: 0.8; stroke: #cccccc; stroke-linejoin: miter"/>
    </g>
    <g id="line2d_3">
     <g>
      <use xlink:href="#m6b1f53ce36" x="466.347031" y="83.528281" style="fill: #4c72b0; stroke: #4c72b0"/>
     </g>
    </g>
    <g id="text_16">
     <!-- OpenSim spline data points -->
     <g style="fill: #262626" transform="translate(486.147031 87.378281) scale(0.11 -0.11)">
      <defs>
       <path id="DejaVuSans-4f" d="M 2522 4238 
Q 1834 4238 1429 3725 
Q 1025 3213 1025 2328 
Q 1025 1447 1429 934 
Q 1834 422 2522 422 
Q 3209 422 3611 934 
Q 4013 1447 4013 2328 
Q 4013 3213 3611 3725 
Q 3209 4238 2522 4238 
z
M 2522 4750 
Q 3503 4750 4090 4092 
Q 4678 3434 4678 2328 
Q 4678 1225 4090 567 
Q 3503 -91 2522 -91 
Q 1538 -91 948 565 
Q 359 1222 359 2328 
Q 359 3434 948 4092 
Q 1538 4750 2522 4750 
z
" transform="scale(0.015625)"/>
       <path id="DejaVuSans-53" d="M 3425 4513 
L 3425 3897 
Q 3066 4069 2747 4153 
Q 2428 4238 2131 4238 
Q 1616 4238 1336 4038 
Q 1056 3838 1056 3469 
Q 1056 3159 1242 3001 
Q 1428 2844 1947 2747 
L 2328 2669 
Q 3034 2534 3370 2195 
Q 3706 1856 3706 1288 
Q 3706 609 3251 259 
Q 2797 -91 1919 -91 
Q 1588 -91 1214 -16 
Q 841 59 441 206 
L 441 856 
Q 825 641 1194 531 
Q 1563 422 1919 422 
Q 2459 422 2753 634 
Q 3047 847 3047 1241 
Q 3047 1584 2836 1778 
Q 2625 1972 2144 2069 
L 1759 2144 
Q 1053 2284 737 2584 
Q 422 2884 422 3419 
Q 422 4038 858 4394 
Q 1294 4750 2059 4750 
Q 2388 4750 2728 4690 
Q 3069 4631 3425 4513 
z
" transform="scale(0.015625)"/>
       <path id="DejaVuSans-73" d="M 2834 3397 
L 2834 2853 
Q 2591 2978 2328 3040 
Q 2066 3103 1784 3103 
Q 1356 3103 1142 2972 
Q 928 2841 928 2578 
Q 928 2378 1081 2264 
Q 1234 2150 1697 2047 
L 1894 2003 
Q 2506 1872 2764 1633 
Q 3022 1394 3022 966 
Q 3022 478 2636 193 
Q 2250 -91 1575 -91 
Q 1294 -91 989 -36 
Q 684 19 347 128 
L 347 722 
Q 666 556 975 473 
Q 1284 391 1588 391 
Q 1994 391 2212 530 
Q 2431 669 2431 922 
Q 2431 1156 2273 1281 
Q 2116 1406 1581 1522 
L 1381 1569 
Q 847 1681 609 1914 
Q 372 2147 372 2553 
Q 372 3047 722 3315 
Q 1072 3584 1716 3584 
Q 2034 3584 2315 3537 
Q 2597 3491 2834 3397 
z
" transform="scale(0.015625)"/>
      </defs>
      <use xlink:href="#DejaVuSans-4f"/>
      <use xlink:href="#DejaVuSans-70" x="78.710938"/>
      <use xlink:href="#DejaVuSans-65" x="142.1875"/>
      <use xlink:href="#DejaVuSans-6e" x="203.710938"/>
      <use xlink:href="#DejaVuSans-53" x="267.089844"/>
      <use xlink:href="#DejaVuSans-69" x="330.566406"/>
      <use xlink:href="#DejaVuSans-6d" x="358.349609"/>
      <use xlink:href="#DejaVuSans-20" x="455.761719"/>
      <use xlink:href="#DejaVuSans-73" x="487.548828"/>
      <use xlink:href="#DejaVuSans-70" x="539.648438"/>
      <use xlink:href="#DejaVuSans-6c" x="603.125"/>
      <use xlink:href="#DejaVuSans-69" x="630.908203"/>
      <use xlink:href="#DejaVuSans-6e" x="658.691406"/>
      <use xlink:href="#DejaVuSans-65" x="722.070312"/>
      <use xlink:href="#DejaVuSans-20" x="783.59375"/>
      <use xlink:href="#DejaVuSans-64" x="815.380859"/>
      <use xlink:href="#DejaVuSans-61" x="878.857422"/>
      <use xlink:href="#DejaVuSans-74" x="940.136719"/>
      <use xlink:href="#DejaVuSans-61" x="979.345703"/>
      <use xlink:href="#DejaVuSans-20" x="1040.625"/>
      <use xlink:href="#DejaVuSans-70" x="1072.412109"/>
      <use xlink:href="#DejaVuSans-6f" x="1135.888672"/>
      <use xlink:href="#DejaVuSans-69" x="1197.070312"/>
      <use xlink:href="#DejaVuSans-6e" x="1224.853516"/>
      <use xlink:href="#DejaVuSans-74" x="1288.232422"/>
      <use xlink:href="#DejaVuSans-73" x="1327.441406"/>
     </g>
    </g>
    <g id="line2d_4">
     <path d="M 455.347031 99.674219 
L 466.347031 99.674219 
L 477.347031 99.674219 
" style="fill: none; stroke: #dd8452; stroke-width: 1.5; stroke-linecap: round"/>
    </g>
    <g id="text_17">
     <!-- Approximation of the spline -->
     <g style="fill: #262626" transform="translate(486.147031 103.524219) scale(0.11 -0.11)">
      <defs>
       <path id="DejaVuSans-68" d="M 3513 2113 
L 3513 0 
L 2938 0 
L 2938 2094 
Q 2938 2591 2744 2837 
Q 2550 3084 2163 3084 
Q 1697 3084 1428 2787 
Q 1159 2491 1159 1978 
L 1159 0 
L 581 0 
L 581 4863 
L 1159 4863 
L 1159 2956 
Q 1366 3272 1645 3428 
Q 1925 3584 2291 3584 
Q 2894 3584 3203 3211 
Q 3513 2838 3513 2113 
z
" transform="scale(0.015625)"/>
      </defs>
      <use xlink:href="#DejaVuSans-41"/>
      <use xlink:href="#DejaVuSans-70" x="68.408203"/>
      <use xlink:href="#DejaVuSans-70" x="131.884766"/>
      <use xlink:href="#DejaVuSans-72" x="195.361328"/>
      <use xlink:href="#DejaVuSans-6f" x="234.224609"/>
      <use xlink:href="#DejaVuSans-78" x="292.28125"/>
      <use xlink:href="#DejaVuSans-69" x="351.460938"/>
      <use xlink:href="#DejaVuSans-6d" x="379.244141"/>
      <use xlink:href="#DejaVuSans-61" x="476.65625"/>
      <use xlink:href="#DejaVuSans-74" x="537.935547"/>
      <use xlink:href="#DejaVuSans-69" x="577.144531"/>
      <use xlink:href="#DejaVuSans-6f" x="604.927734"/>
      <use xlink:href="#DejaVuSans-6e" x="666.109375"/>
      <use xlink:href="#DejaVuSans-20" x="729.488281"/>
      <use xlink:href="#DejaVuSans-6f" x="761.275391"/>
      <use xlink:href="#DejaVuSans-66" x="822.457031"/>
      <use xlink:href="#DejaVuSans-20" x="857.662109"/>
      <use xlink:href="#DejaVuSans-74" x="889.449219"/>
      <use xlink:href="#DejaVuSans-68" x="928.658203"/>
      <use xlink:href="#DejaVuSans-65" x="992.037109"/>
      <use xlink:href="#DejaVuSans-20" x="1053.560547"/>
      <use xlink:href="#DejaVuSans-73" x="1085.347656"/>
      <use xlink:href="#DejaVuSans-70" x="1137.447266"/>
      <use xlink:href="#DejaVuSans-6c" x="1200.923828"/>
      <use xlink:href="#DejaVuSans-69" x="1228.707031"/>
      <use xlink:href="#DejaVuSans-6e" x="1256.490234"/>
      <use xlink:href="#DejaVuSans-65" x="1319.869141"/>
     </g>
    </g>
   </g>
  </g>
 </g>
 <defs>
  <clipPath id="pf7618be4dc">
   <rect x="90" y="69.12" width="558" height="443.52"/>
  </clipPath>
 </defs>
</svg>
