<?xml version="1.0" encoding="utf-8" standalone="no"?>
<!DOCTYPE svg PUBLIC "-//W3C//DTD SVG 1.1//EN"
  "http://www.w3.org/Graphics/SVG/1.1/DTD/svg11.dtd">
<svg xmlns:xlink="http://www.w3.org/1999/xlink" width="720pt" height="576pt" viewBox="0 0 720 576" xmlns="http://www.w3.org/2000/svg" version="1.1">
 <metadata>
  <rdf:RDF xmlns:dc="http://purl.org/dc/elements/1.1/" xmlns:cc="http://creativecommons.org/ns#" xmlns:rdf="http://www.w3.org/1999/02/22-rdf-syntax-ns#">
   <cc:Work>
    <dc:type rdf:resource="http://purl.org/dc/dcmitype/StillImage"/>
    <dc:date>2023-08-04T17:09:33.922776</dc:date>
    <dc:format>image/svg+xml</dc:format>
    <dc:creator>
     <cc:Agent>
      <dc:title>Matplotlib v3.6.2, https://matplotlib.org/</dc:title>
     </cc:Agent>
    </dc:creator>
   </cc:Work>
  </rdf:RDF>
 </metadata>
 <defs>
  <style type="text/css">*{stroke-linejoin: round; stroke-linecap: butt}</style>
 </defs>
 <g id="figure_1">
  <g id="patch_1">
   <path d="M 0 576 
L 720 576 
L 720 0 
L 0 0 
z
" style="fill: #ffffff"/>
  </g>
  <g id="axes_1">
   <g id="patch_2">
    <path d="M 90 270.72 
L 648 270.72 
L 648 69.12 
L 90 69.12 
z
" style="fill: #ffffff"/>
   </g>
   <g id="matplotlib.axis_1">
    <g id="xtick_1">
     <g id="text_1">
      <!-- R.ASIS -->
      <g style="fill: #262626" transform="translate(100.161641 288.578281) scale(0.11 -0.11)">
       <defs>
        <path id="DejaVuSans-52" d="M 2841 2188 
Q 3044 2119 3236 1894 
Q 3428 1669 3622 1275 
L 4263 0 
L 3584 0 
L 2988 1197 
Q 2756 1666 2539 1819 
Q 2322 1972 1947 1972 
L 1259 1972 
L 1259 0 
L 628 0 
L 628 4666 
L 2053 4666 
Q 2853 4666 3247 4331 
Q 3641 3997 3641 3322 
Q 3641 2881 3436 2590 
Q 3231 2300 2841 2188 
z
M 1259 4147 
L 1259 2491 
L 2053 2491 
Q 2509 2491 2742 2702 
Q 2975 2913 2975 3322 
Q 2975 3731 2742 3939 
Q 2509 4147 2053 4147 
L 1259 4147 
z
" transform="scale(0.015625)"/>
        <path id="DejaVuSans-2e" d="M 684 794 
L 1344 794 
L 1344 0 
L 684 0 
L 684 794 
z
" transform="scale(0.015625)"/>
        <path id="DejaVuSans-41" d="M 2188 4044 
L 1331 1722 
L 3047 1722 
L 2188 4044 
z
M 1831 4666 
L 2547 4666 
L 4325 0 
L 3669 0 
L 3244 1197 
L 1141 1197 
L 716 0 
L 50 0 
L 1831 4666 
z
" transform="scale(0.015625)"/>
        <path id="DejaVuSans-53" d="M 3425 4513 
L 3425 3897 
Q 3066 4069 2747 4153 
Q 2428 4238 2131 4238 
Q 1616 4238 1336 4038 
Q 1056 3838 1056 3469 
Q 1056 3159 1242 3001 
Q 1428 2844 1947 2747 
L 2328 2669 
Q 3034 2534 3370 2195 
Q 3706 1856 3706 1288 
Q 3706 609 3251 259 
Q 2797 -91 1919 -91 
Q 1588 -91 1214 -16 
Q 841 59 441 206 
L 441 856 
Q 825 641 1194 531 
Q 1563 422 1919 422 
Q 2459 422 2753 634 
Q 3047 847 3047 1241 
Q 3047 1584 2836 1778 
Q 2625 1972 2144 2069 
L 1759 2144 
Q 1053 2284 737 2584 
Q 422 2884 422 3419 
Q 422 4038 858 4394 
Q 1294 4750 2059 4750 
Q 2388 4750 2728 4690 
Q 3069 4631 3425 4513 
z
" transform="scale(0.015625)"/>
        <path id="DejaVuSans-49" d="M 628 4666 
L 1259 4666 
L 1259 0 
L 628 0 
L 628 4666 
z
" transform="scale(0.015625)"/>
       </defs>
       <use xlink:href="#DejaVuSans-52"/>
       <use xlink:href="#DejaVuSans-2e" x="65.857422"/>
       <use xlink:href="#DejaVuSans-41" x="97.644531"/>
       <use xlink:href="#DejaVuSans-53" x="166.052734"/>
       <use xlink:href="#DejaVuSans-49" x="229.529297"/>
       <use xlink:href="#DejaVuSans-53" x="259.021484"/>
      </g>
     </g>
    </g>
    <g id="xtick_2">
     <g id="text_2">
      <!-- L.ASIS -->
      <g style="fill: #262626" transform="translate(156.519375 288.578281) scale(0.11 -0.11)">
       <defs>
        <path id="DejaVuSans-4c" d="M 628 4666 
L 1259 4666 
L 1259 531 
L 3531 531 
L 3531 0 
L 628 0 
L 628 4666 
z
" transform="scale(0.015625)"/>
       </defs>
       <use xlink:href="#DejaVuSans-4c"/>
       <use xlink:href="#DejaVuSans-2e" x="55.712891"/>
       <use xlink:href="#DejaVuSans-41" x="87.5"/>
       <use xlink:href="#DejaVuSans-53" x="155.908203"/>
       <use xlink:href="#DejaVuSans-49" x="219.384766"/>
       <use xlink:href="#DejaVuSans-53" x="248.876953"/>
      </g>
     </g>
    </g>
    <g id="xtick_3">
     <g id="text_3">
      <!-- V.Sacral -->
      <g style="fill: #262626" transform="translate(207.652109 288.578281) scale(0.11 -0.11)">
       <defs>
        <path id="DejaVuSans-56" d="M 1831 0 
L 50 4666 
L 709 4666 
L 2188 738 
L 3669 4666 
L 4325 4666 
L 2547 0 
L 1831 0 
z
" transform="scale(0.015625)"/>
        <path id="DejaVuSans-61" d="M 2194 1759 
Q 1497 1759 1228 1600 
Q 959 1441 959 1056 
Q 959 750 1161 570 
Q 1363 391 1709 391 
Q 2188 391 2477 730 
Q 2766 1069 2766 1631 
L 2766 1759 
L 2194 1759 
z
M 3341 1997 
L 3341 0 
L 2766 0 
L 2766 531 
Q 2569 213 2275 61 
Q 1981 -91 1556 -91 
Q 1019 -91 701 211 
Q 384 513 384 1019 
Q 384 1609 779 1909 
Q 1175 2209 1959 2209 
L 2766 2209 
L 2766 2266 
Q 2766 2663 2505 2880 
Q 2244 3097 1772 3097 
Q 1472 3097 1187 3025 
Q 903 2953 641 2809 
L 641 3341 
Q 956 3463 1253 3523 
Q 1550 3584 1831 3584 
Q 2591 3584 2966 3190 
Q 3341 2797 3341 1997 
z
" transform="scale(0.015625)"/>
        <path id="DejaVuSans-63" d="M 3122 3366 
L 3122 2828 
Q 2878 2963 2633 3030 
Q 2388 3097 2138 3097 
Q 1578 3097 1268 2742 
Q 959 2388 959 1747 
Q 959 1106 1268 751 
Q 1578 397 2138 397 
Q 2388 397 2633 464 
Q 2878 531 3122 666 
L 3122 134 
Q 2881 22 2623 -34 
Q 2366 -91 2075 -91 
Q 1284 -91 818 406 
Q 353 903 353 1747 
Q 353 2603 823 3093 
Q 1294 3584 2113 3584 
Q 2378 3584 2631 3529 
Q 2884 3475 3122 3366 
z
" transform="scale(0.015625)"/>
        <path id="DejaVuSans-72" d="M 2631 2963 
Q 2534 3019 2420 3045 
Q 2306 3072 2169 3072 
Q 1681 3072 1420 2755 
Q 1159 2438 1159 1844 
L 1159 0 
L 581 0 
L 581 3500 
L 1159 3500 
L 1159 2956 
Q 1341 3275 1631 3429 
Q 1922 3584 2338 3584 
Q 2397 3584 2469 3576 
Q 2541 3569 2628 3553 
L 2631 2963 
z
" transform="scale(0.015625)"/>
        <path id="DejaVuSans-6c" d="M 603 4863 
L 1178 4863 
L 1178 0 
L 603 0 
L 603 4863 
z
" transform="scale(0.015625)"/>
       </defs>
       <use xlink:href="#DejaVuSans-56"/>
       <use xlink:href="#DejaVuSans-2e" x="55.533203"/>
       <use xlink:href="#DejaVuSans-53" x="87.320312"/>
       <use xlink:href="#DejaVuSans-61" x="150.796875"/>
       <use xlink:href="#DejaVuSans-63" x="212.076172"/>
       <use xlink:href="#DejaVuSans-72" x="267.056641"/>
       <use xlink:href="#DejaVuSans-61" x="308.169922"/>
       <use xlink:href="#DejaVuSans-6c" x="369.449219"/>
      </g>
     </g>
    </g>
    <g id="xtick_4">
     <g id="text_4">
      <!-- R.Thigh.Upper -->
      <g style="fill: #262626" transform="translate(246.177813 288.578281) scale(0.11 -0.11)">
       <defs>
        <path id="DejaVuSans-54" d="M -19 4666 
L 3928 4666 
L 3928 4134 
L 2272 4134 
L 2272 0 
L 1638 0 
L 1638 4134 
L -19 4134 
L -19 4666 
z
" transform="scale(0.015625)"/>
        <path id="DejaVuSans-68" d="M 3513 2113 
L 3513 0 
L 2938 0 
L 2938 2094 
Q 2938 2591 2744 2837 
Q 2550 3084 2163 3084 
Q 1697 3084 1428 2787 
Q 1159 2491 1159 1978 
L 1159 0 
L 581 0 
L 581 4863 
L 1159 4863 
L 1159 2956 
Q 1366 3272 1645 3428 
Q 1925 3584 2291 3584 
Q 2894 3584 3203 3211 
Q 3513 2838 3513 2113 
z
" transform="scale(0.015625)"/>
        <path id="DejaVuSans-69" d="M 603 3500 
L 1178 3500 
L 1178 0 
L 603 0 
L 603 3500 
z
M 603 4863 
L 1178 4863 
L 1178 4134 
L 603 4134 
L 603 4863 
z
" transform="scale(0.015625)"/>
        <path id="DejaVuSans-67" d="M 2906 1791 
Q 2906 2416 2648 2759 
Q 2391 3103 1925 3103 
Q 1463 3103 1205 2759 
Q 947 2416 947 1791 
Q 947 1169 1205 825 
Q 1463 481 1925 481 
Q 2391 481 2648 825 
Q 2906 1169 2906 1791 
z
M 3481 434 
Q 3481 -459 3084 -895 
Q 2688 -1331 1869 -1331 
Q 1566 -1331 1297 -1286 
Q 1028 -1241 775 -1147 
L 775 -588 
Q 1028 -725 1275 -790 
Q 1522 -856 1778 -856 
Q 2344 -856 2625 -561 
Q 2906 -266 2906 331 
L 2906 616 
Q 2728 306 2450 153 
Q 2172 0 1784 0 
Q 1141 0 747 490 
Q 353 981 353 1791 
Q 353 2603 747 3093 
Q 1141 3584 1784 3584 
Q 2172 3584 2450 3431 
Q 2728 3278 2906 2969 
L 2906 3500 
L 3481 3500 
L 3481 434 
z
" transform="scale(0.015625)"/>
        <path id="DejaVuSans-55" d="M 556 4666 
L 1191 4666 
L 1191 1831 
Q 1191 1081 1462 751 
Q 1734 422 2344 422 
Q 2950 422 3222 751 
Q 3494 1081 3494 1831 
L 3494 4666 
L 4128 4666 
L 4128 1753 
Q 4128 841 3676 375 
Q 3225 -91 2344 -91 
Q 1459 -91 1007 375 
Q 556 841 556 1753 
L 556 4666 
z
" transform="scale(0.015625)"/>
        <path id="DejaVuSans-70" d="M 1159 525 
L 1159 -1331 
L 581 -1331 
L 581 3500 
L 1159 3500 
L 1159 2969 
Q 1341 3281 1617 3432 
Q 1894 3584 2278 3584 
Q 2916 3584 3314 3078 
Q 3713 2572 3713 1747 
Q 3713 922 3314 415 
Q 2916 -91 2278 -91 
Q 1894 -91 1617 61 
Q 1341 213 1159 525 
z
M 3116 1747 
Q 3116 2381 2855 2742 
Q 2594 3103 2138 3103 
Q 1681 3103 1420 2742 
Q 1159 2381 1159 1747 
Q 1159 1113 1420 752 
Q 1681 391 2138 391 
Q 2594 391 2855 752 
Q 3116 1113 3116 1747 
z
" transform="scale(0.015625)"/>
        <path id="DejaVuSans-65" d="M 3597 1894 
L 3597 1613 
L 953 1613 
Q 991 1019 1311 708 
Q 1631 397 2203 397 
Q 2534 397 2845 478 
Q 3156 559 3463 722 
L 3463 178 
Q 3153 47 2828 -22 
Q 2503 -91 2169 -91 
Q 1331 -91 842 396 
Q 353 884 353 1716 
Q 353 2575 817 3079 
Q 1281 3584 2069 3584 
Q 2775 3584 3186 3129 
Q 3597 2675 3597 1894 
z
M 3022 2063 
Q 3016 2534 2758 2815 
Q 2500 3097 2075 3097 
Q 1594 3097 1305 2825 
Q 1016 2553 972 2059 
L 3022 2063 
z
" transform="scale(0.015625)"/>
       </defs>
       <use xlink:href="#DejaVuSans-52"/>
       <use xlink:href="#DejaVuSans-2e" x="65.857422"/>
       <use xlink:href="#DejaVuSans-54" x="97.644531"/>
       <use xlink:href="#DejaVuSans-68" x="158.728516"/>
       <use xlink:href="#DejaVuSans-69" x="222.107422"/>
       <use xlink:href="#DejaVuSans-67" x="249.890625"/>
       <use xlink:href="#DejaVuSans-68" x="313.367188"/>
       <use xlink:href="#DejaVuSans-2e" x="376.746094"/>
       <use xlink:href="#DejaVuSans-55" x="408.533203"/>
       <use xlink:href="#DejaVuSans-70" x="481.726562"/>
       <use xlink:href="#DejaVuSans-70" x="545.203125"/>
       <use xlink:href="#DejaVuSans-65" x="608.679688"/>
       <use xlink:href="#DejaVuSans-72" x="670.203125"/>
      </g>
     </g>
    </g>
    <g id="xtick_5">
     <g id="text_5">
      <!-- R.Thigh.Front -->
      <g style="fill: #262626" transform="translate(304.722656 288.578281) scale(0.11 -0.11)">
       <defs>
        <path id="DejaVuSans-46" d="M 628 4666 
L 3309 4666 
L 3309 4134 
L 1259 4134 
L 1259 2759 
L 3109 2759 
L 3109 2228 
L 1259 2228 
L 1259 0 
L 628 0 
L 628 4666 
z
" transform="scale(0.015625)"/>
        <path id="DejaVuSans-6f" d="M 1959 3097 
Q 1497 3097 1228 2736 
Q 959 2375 959 1747 
Q 959 1119 1226 758 
Q 1494 397 1959 397 
Q 2419 397 2687 759 
Q 2956 1122 2956 1747 
Q 2956 2369 2687 2733 
Q 2419 3097 1959 3097 
z
M 1959 3584 
Q 2709 3584 3137 3096 
Q 3566 2609 3566 1747 
Q 3566 888 3137 398 
Q 2709 -91 1959 -91 
Q 1206 -91 779 398 
Q 353 888 353 1747 
Q 353 2609 779 3096 
Q 1206 3584 1959 3584 
z
" transform="scale(0.015625)"/>
        <path id="DejaVuSans-6e" d="M 3513 2113 
L 3513 0 
L 2938 0 
L 2938 2094 
Q 2938 2591 2744 2837 
Q 2550 3084 2163 3084 
Q 1697 3084 1428 2787 
Q 1159 2491 1159 1978 
L 1159 0 
L 581 0 
L 581 3500 
L 1159 3500 
L 1159 2956 
Q 1366 3272 1645 3428 
Q 1925 3584 2291 3584 
Q 2894 3584 3203 3211 
Q 3513 2838 3513 2113 
z
" transform="scale(0.015625)"/>
        <path id="DejaVuSans-74" d="M 1172 4494 
L 1172 3500 
L 2356 3500 
L 2356 3053 
L 1172 3053 
L 1172 1153 
Q 1172 725 1289 603 
Q 1406 481 1766 481 
L 2356 481 
L 2356 0 
L 1766 0 
Q 1100 0 847 248 
Q 594 497 594 1153 
L 594 3053 
L 172 3053 
L 172 3500 
L 594 3500 
L 594 4494 
L 1172 4494 
z
" transform="scale(0.015625)"/>
       </defs>
       <use xlink:href="#DejaVuSans-52"/>
       <use xlink:href="#DejaVuSans-2e" x="65.857422"/>
       <use xlink:href="#DejaVuSans-54" x="97.644531"/>
       <use xlink:href="#DejaVuSans-68" x="158.728516"/>
       <use xlink:href="#DejaVuSans-69" x="222.107422"/>
       <use xlink:href="#DejaVuSans-67" x="249.890625"/>
       <use xlink:href="#DejaVuSans-68" x="313.367188"/>
       <use xlink:href="#DejaVuSans-2e" x="376.746094"/>
       <use xlink:href="#DejaVuSans-46" x="408.533203"/>
       <use xlink:href="#DejaVuSans-72" x="458.802734"/>
       <use xlink:href="#DejaVuSans-6f" x="497.666016"/>
       <use xlink:href="#DejaVuSans-6e" x="558.847656"/>
       <use xlink:href="#DejaVuSans-74" x="622.226562"/>
      </g>
     </g>
    </g>
    <g id="xtick_6">
     <g id="text_6">
      <!-- R.Thigh.Rear -->
      <g style="fill: #262626" transform="translate(361.841797 288.578281) scale(0.11 -0.11)">
       <use xlink:href="#DejaVuSans-52"/>
       <use xlink:href="#DejaVuSans-2e" x="65.857422"/>
       <use xlink:href="#DejaVuSans-54" x="97.644531"/>
       <use xlink:href="#DejaVuSans-68" x="158.728516"/>
       <use xlink:href="#DejaVuSans-69" x="222.107422"/>
       <use xlink:href="#DejaVuSans-67" x="249.890625"/>
       <use xlink:href="#DejaVuSans-68" x="313.367188"/>
       <use xlink:href="#DejaVuSans-2e" x="376.746094"/>
       <use xlink:href="#DejaVuSans-52" x="408.533203"/>
       <use xlink:href="#DejaVuSans-65" x="473.515625"/>
       <use xlink:href="#DejaVuSans-61" x="535.039062"/>
       <use xlink:href="#DejaVuSans-72" x="596.318359"/>
      </g>
     </g>
    </g>
    <g id="xtick_7">
     <g id="text_7">
      <!-- R.Shank.Upper -->
      <g style="fill: #262626" transform="translate(411.909766 288.578281) scale(0.11 -0.11)">
       <defs>
        <path id="DejaVuSans-6b" d="M 581 4863 
L 1159 4863 
L 1159 1991 
L 2875 3500 
L 3609 3500 
L 1753 1863 
L 3688 0 
L 2938 0 
L 1159 1709 
L 1159 0 
L 581 0 
L 581 4863 
z
" transform="scale(0.015625)"/>
       </defs>
       <use xlink:href="#DejaVuSans-52"/>
       <use xlink:href="#DejaVuSans-2e" x="65.857422"/>
       <use xlink:href="#DejaVuSans-53" x="97.644531"/>
       <use xlink:href="#DejaVuSans-68" x="161.121094"/>
       <use xlink:href="#DejaVuSans-61" x="224.5"/>
       <use xlink:href="#DejaVuSans-6e" x="285.779297"/>
       <use xlink:href="#DejaVuSans-6b" x="349.158203"/>
       <use xlink:href="#DejaVuSans-2e" x="407.068359"/>
       <use xlink:href="#DejaVuSans-55" x="438.855469"/>
       <use xlink:href="#DejaVuSans-70" x="512.048828"/>
       <use xlink:href="#DejaVuSans-70" x="575.525391"/>
       <use xlink:href="#DejaVuSans-65" x="639.001953"/>
       <use xlink:href="#DejaVuSans-72" x="700.525391"/>
      </g>
     </g>
    </g>
    <g id="xtick_8">
     <g id="text_8">
      <!-- R.Shank.Front -->
      <g style="fill: #262626" transform="translate(470.454609 288.578281) scale(0.11 -0.11)">
       <use xlink:href="#DejaVuSans-52"/>
       <use xlink:href="#DejaVuSans-2e" x="65.857422"/>
       <use xlink:href="#DejaVuSans-53" x="97.644531"/>
       <use xlink:href="#DejaVuSans-68" x="161.121094"/>
       <use xlink:href="#DejaVuSans-61" x="224.5"/>
       <use xlink:href="#DejaVuSans-6e" x="285.779297"/>
       <use xlink:href="#DejaVuSans-6b" x="349.158203"/>
       <use xlink:href="#DejaVuSans-2e" x="407.068359"/>
       <use xlink:href="#DejaVuSans-46" x="438.855469"/>
       <use xlink:href="#DejaVuSans-72" x="489.125"/>
       <use xlink:href="#DejaVuSans-6f" x="527.988281"/>
       <use xlink:href="#DejaVuSans-6e" x="589.169922"/>
       <use xlink:href="#DejaVuSans-74" x="652.548828"/>
      </g>
     </g>
    </g>
    <g id="xtick_9">
     <g id="text_9">
      <!-- R.Shank.Rear -->
      <g style="fill: #262626" transform="translate(527.57375 288.578281) scale(0.11 -0.11)">
       <use xlink:href="#DejaVuSans-52"/>
       <use xlink:href="#DejaVuSans-2e" x="65.857422"/>
       <use xlink:href="#DejaVuSans-53" x="97.644531"/>
       <use xlink:href="#DejaVuSans-68" x="161.121094"/>
       <use xlink:href="#DejaVuSans-61" x="224.5"/>
       <use xlink:href="#DejaVuSans-6e" x="285.779297"/>
       <use xlink:href="#DejaVuSans-6b" x="349.158203"/>
       <use xlink:href="#DejaVuSans-2e" x="407.068359"/>
       <use xlink:href="#DejaVuSans-52" x="438.855469"/>
       <use xlink:href="#DejaVuSans-65" x="503.837891"/>
       <use xlink:href="#DejaVuSans-61" x="565.361328"/>
       <use xlink:href="#DejaVuSans-72" x="626.640625"/>
      </g>
     </g>
    </g>
    <g id="xtick_10">
     <g id="text_10">
      <!-- R.Heel -->
      <g style="fill: #262626" transform="translate(602.297188 288.578281) scale(0.11 -0.11)">
       <defs>
        <path id="DejaVuSans-48" d="M 628 4666 
L 1259 4666 
L 1259 2753 
L 3553 2753 
L 3553 4666 
L 4184 4666 
L 4184 0 
L 3553 0 
L 3553 2222 
L 1259 2222 
L 1259 0 
L 628 0 
L 628 4666 
z
" transform="scale(0.015625)"/>
       </defs>
       <use xlink:href="#DejaVuSans-52"/>
       <use xlink:href="#DejaVuSans-2e" x="65.857422"/>
       <use xlink:href="#DejaVuSans-48" x="97.644531"/>
       <use xlink:href="#DejaVuSans-65" x="172.839844"/>
       <use xlink:href="#DejaVuSans-65" x="234.363281"/>
       <use xlink:href="#DejaVuSans-6c" x="295.886719"/>
      </g>
     </g>
    </g>
   </g>
   <g id="matplotlib.axis_2">
    <g id="ytick_1">
     <g id="text_11">
      <!-- 0 -->
      <g style="fill: #262626" transform="translate(73.50125 265.736001) scale(0.11 -0.11)">
       <defs>
        <path id="DejaVuSans-30" d="M 2034 4250 
Q 1547 4250 1301 3770 
Q 1056 3291 1056 2328 
Q 1056 1369 1301 889 
Q 1547 409 2034 409 
Q 2525 409 2770 889 
Q 3016 1369 3016 2328 
Q 3016 3291 2770 3770 
Q 2525 4250 2034 4250 
z
M 2034 4750 
Q 2819 4750 3233 4129 
Q 3647 3509 3647 2328 
Q 3647 1150 3233 529 
Q 2819 -91 2034 -91 
Q 1250 -91 836 529 
Q 422 1150 422 2328 
Q 422 3509 836 4129 
Q 1250 4750 2034 4750 
z
" transform="scale(0.015625)"/>
       </defs>
       <use xlink:href="#DejaVuSans-30"/>
      </g>
     </g>
    </g>
    <g id="ytick_2">
     <g id="text_12">
      <!-- 5 -->
      <g style="fill: #262626" transform="translate(73.50125 240.053427) scale(0.11 -0.11)">
       <defs>
        <path id="DejaVuSans-35" d="M 691 4666 
L 3169 4666 
L 3169 4134 
L 1269 4134 
L 1269 2991 
Q 1406 3038 1543 3061 
Q 1681 3084 1819 3084 
Q 2600 3084 3056 2656 
Q 3513 2228 3513 1497 
Q 3513 744 3044 326 
Q 2575 -91 1722 -91 
Q 1428 -91 1123 -41 
Q 819 9 494 109 
L 494 744 
Q 775 591 1075 516 
Q 1375 441 1709 441 
Q 2250 441 2565 725 
Q 2881 1009 2881 1497 
Q 2881 1984 2565 2268 
Q 2250 2553 1709 2553 
Q 1456 2553 1204 2497 
Q 953 2441 691 2322 
L 691 4666 
z
" transform="scale(0.015625)"/>
       </defs>
       <use xlink:href="#DejaVuSans-35"/>
      </g>
     </g>
    </g>
    <g id="ytick_3">
     <g id="text_13">
      <!-- 10 -->
      <g style="fill: #262626" transform="translate(66.5025 214.370854) scale(0.11 -0.11)">
       <defs>
        <path id="DejaVuSans-31" d="M 794 531 
L 1825 531 
L 1825 4091 
L 703 3866 
L 703 4441 
L 1819 4666 
L 2450 4666 
L 2450 531 
L 3481 531 
L 3481 0 
L 794 0 
L 794 531 
z
" transform="scale(0.015625)"/>
       </defs>
       <use xlink:href="#DejaVuSans-31"/>
       <use xlink:href="#DejaVuSans-30" x="63.623047"/>
      </g>
     </g>
    </g>
    <g id="ytick_4">
     <g id="text_14">
      <!-- 15 -->
      <g style="fill: #262626" transform="translate(66.5025 188.688281) scale(0.11 -0.11)">
       <use xlink:href="#DejaVuSans-31"/>
       <use xlink:href="#DejaVuSans-35" x="63.623047"/>
      </g>
     </g>
    </g>
    <g id="ytick_5">
     <g id="text_15">
      <!-- 20 -->
      <g style="fill: #262626" transform="translate(66.5025 163.005708) scale(0.11 -0.11)">
       <defs>
        <path id="DejaVuSans-32" d="M 1228 531 
L 3431 531 
L 3431 0 
L 469 0 
L 469 531 
Q 828 903 1448 1529 
Q 2069 2156 2228 2338 
Q 2531 2678 2651 2914 
Q 2772 3150 2772 3378 
Q 2772 3750 2511 3984 
Q 2250 4219 1831 4219 
Q 1534 4219 1204 4116 
Q 875 4013 500 3803 
L 500 4441 
Q 881 4594 1212 4672 
Q 1544 4750 1819 4750 
Q 2544 4750 2975 4387 
Q 3406 4025 3406 3419 
Q 3406 3131 3298 2873 
Q 3191 2616 2906 2266 
Q 2828 2175 2409 1742 
Q 1991 1309 1228 531 
z
" transform="scale(0.015625)"/>
       </defs>
       <use xlink:href="#DejaVuSans-32"/>
       <use xlink:href="#DejaVuSans-30" x="63.623047"/>
      </g>
     </g>
    </g>
    <g id="ytick_6">
     <g id="text_16">
      <!-- 25 -->
      <g style="fill: #262626" transform="translate(66.5025 137.323134) scale(0.11 -0.11)">
       <use xlink:href="#DejaVuSans-32"/>
       <use xlink:href="#DejaVuSans-35" x="63.623047"/>
      </g>
     </g>
    </g>
    <g id="ytick_7">
     <g id="text_17">
      <!-- 30 -->
      <g style="fill: #262626" transform="translate(66.5025 111.640561) scale(0.11 -0.11)">
       <defs>
        <path id="DejaVuSans-33" d="M 2597 2516 
Q 3050 2419 3304 2112 
Q 3559 1806 3559 1356 
Q 3559 666 3084 287 
Q 2609 -91 1734 -91 
Q 1441 -91 1130 -33 
Q 819 25 488 141 
L 488 750 
Q 750 597 1062 519 
Q 1375 441 1716 441 
Q 2309 441 2620 675 
Q 2931 909 2931 1356 
Q 2931 1769 2642 2001 
Q 2353 2234 1838 2234 
L 1294 2234 
L 1294 2753 
L 1863 2753 
Q 2328 2753 2575 2939 
Q 2822 3125 2822 3475 
Q 2822 3834 2567 4026 
Q 2313 4219 1838 4219 
Q 1578 4219 1281 4162 
Q 984 4106 628 3988 
L 628 4550 
Q 988 4650 1302 4700 
Q 1616 4750 1894 4750 
Q 2613 4750 3031 4423 
Q 3450 4097 3450 3541 
Q 3450 3153 3228 2886 
Q 3006 2619 2597 2516 
z
" transform="scale(0.015625)"/>
       </defs>
       <use xlink:href="#DejaVuSans-33"/>
       <use xlink:href="#DejaVuSans-30" x="63.623047"/>
      </g>
     </g>
    </g>
    <g id="ytick_8">
     <g id="text_18">
      <!-- 35 -->
      <g style="fill: #262626" transform="translate(66.5025 85.957988) scale(0.11 -0.11)">
       <use xlink:href="#DejaVuSans-33"/>
       <use xlink:href="#DejaVuSans-35" x="63.623047"/>
      </g>
     </g>
    </g>
    <g id="text_19">
     <!-- m -->
     <g style="fill: #262626" transform="translate(60.006875 175.764375) rotate(-90) scale(0.12 -0.12)">
      <defs>
       <path id="DejaVuSans-6d" d="M 3328 2828 
Q 3544 3216 3844 3400 
Q 4144 3584 4550 3584 
Q 5097 3584 5394 3201 
Q 5691 2819 5691 2113 
L 5691 0 
L 5113 0 
L 5113 2094 
Q 5113 2597 4934 2840 
Q 4756 3084 4391 3084 
Q 3944 3084 3684 2787 
Q 3425 2491 3425 1978 
L 3425 0 
L 2847 0 
L 2847 2094 
Q 2847 2600 2669 2842 
Q 2491 3084 2119 3084 
Q 1678 3084 1418 2786 
Q 1159 2488 1159 1978 
L 1159 0 
L 581 0 
L 581 3500 
L 1159 3500 
L 1159 2956 
Q 1356 3278 1631 3431 
Q 1906 3584 2284 3584 
Q 2666 3584 2933 3390 
Q 3200 3197 3328 2828 
z
" transform="scale(0.015625)"/>
      </defs>
      <use xlink:href="#DejaVuSans-6d"/>
     </g>
    </g>
   </g>
   <g id="line2d_1">
    <path d="M 103.95 261.555996 
L 131.85 261.555996 
L 131.85 261.555612 
L 103.95 261.555612 
L 103.95 261.555996 
" clip-path="url(#pea1eceb9d7)" style="fill: none; stroke: #000000; stroke-linecap: round"/>
   </g>
   <g id="line2d_2">
    <path d="M 117.9 261.555996 
L 117.9 261.55606 
" clip-path="url(#pea1eceb9d7)" style="fill: none; stroke: #000000; stroke-linecap: round"/>
   </g>
   <g id="line2d_3">
    <path d="M 117.9 261.555612 
L 117.9 261.555612 
" clip-path="url(#pea1eceb9d7)" style="fill: none; stroke: #000000; stroke-linecap: round"/>
   </g>
   <g id="line2d_4">
    <path d="M 110.925 261.55606 
L 124.875 261.55606 
" clip-path="url(#pea1eceb9d7)" style="fill: none; stroke: #000000; stroke-linecap: round"/>
   </g>
   <g id="line2d_5">
    <path d="M 110.925 261.555612 
L 124.875 261.555612 
" clip-path="url(#pea1eceb9d7)" style="fill: none; stroke: #000000; stroke-linecap: round"/>
   </g>
   <g id="line2d_6">
    <defs>
     <path id="m571a685d33" d="M 0 3 
C 0.795609 3 1.55874 2.683901 2.12132 2.12132 
C 2.683901 1.55874 3 0.795609 3 0 
C 3 -0.795609 2.683901 -1.55874 2.12132 -2.12132 
C 1.55874 -2.683901 0.795609 -3 0 -3 
C -0.795609 -3 -1.55874 -2.683901 -2.12132 -2.12132 
C -2.683901 -1.55874 -3 -0.795609 -3 0 
C -3 0.795609 -2.683901 1.55874 -2.12132 2.12132 
C -1.55874 2.683901 -0.795609 3 0 3 
z
" style="stroke: #000000"/>
    </defs>
    <g clip-path="url(#pea1eceb9d7)">
     <use xlink:href="#m571a685d33" x="117.9" y="261.554217" style="fill-opacity: 0; stroke: #000000"/>
    </g>
   </g>
   <g id="line2d_7">
    <path d="M 159.75 261.5563 
L 187.65 261.5563 
L 187.65 261.555912 
L 159.75 261.555912 
L 159.75 261.5563 
" clip-path="url(#pea1eceb9d7)" style="fill: none; stroke: #000000; stroke-linecap: round"/>
   </g>
   <g id="line2d_8">
    <path d="M 173.7 261.5563 
L 173.7 261.556364 
" clip-path="url(#pea1eceb9d7)" style="fill: none; stroke: #000000; stroke-linecap: round"/>
   </g>
   <g id="line2d_9">
    <path d="M 173.7 261.555912 
L 173.7 261.555912 
" clip-path="url(#pea1eceb9d7)" style="fill: none; stroke: #000000; stroke-linecap: round"/>
   </g>
   <g id="line2d_10">
    <path d="M 166.725 261.556364 
L 180.675 261.556364 
" clip-path="url(#pea1eceb9d7)" style="fill: none; stroke: #000000; stroke-linecap: round"/>
   </g>
   <g id="line2d_11">
    <path d="M 166.725 261.555912 
L 180.675 261.555912 
" clip-path="url(#pea1eceb9d7)" style="fill: none; stroke: #000000; stroke-linecap: round"/>
   </g>
   <g id="line2d_12">
    <g clip-path="url(#pea1eceb9d7)">
     <use xlink:href="#m571a685d33" x="173.7" y="261.554512" style="fill-opacity: 0; stroke: #000000"/>
    </g>
   </g>
   <g id="line2d_13">
    <path d="M 215.55 261.556199 
L 243.45 261.556199 
L 243.45 261.55596 
L 215.55 261.55596 
L 215.55 261.556199 
" clip-path="url(#pea1eceb9d7)" style="fill: none; stroke: #000000; stroke-linecap: round"/>
   </g>
   <g id="line2d_14">
    <path d="M 229.5 261.556199 
L 229.5 261.556235 
" clip-path="url(#pea1eceb9d7)" style="fill: none; stroke: #000000; stroke-linecap: round"/>
   </g>
   <g id="line2d_15">
    <path d="M 229.5 261.55596 
L 229.5 261.55596 
" clip-path="url(#pea1eceb9d7)" style="fill: none; stroke: #000000; stroke-linecap: round"/>
   </g>
   <g id="line2d_16">
    <path d="M 222.525 261.556235 
L 236.475 261.556235 
" clip-path="url(#pea1eceb9d7)" style="fill: none; stroke: #000000; stroke-linecap: round"/>
   </g>
   <g id="line2d_17">
    <path d="M 222.525 261.55596 
L 236.475 261.55596 
" clip-path="url(#pea1eceb9d7)" style="fill: none; stroke: #000000; stroke-linecap: round"/>
   </g>
   <g id="line2d_18">
    <g clip-path="url(#pea1eceb9d7)">
     <use xlink:href="#m571a685d33" x="229.5" y="261.554502" style="fill-opacity: 0; stroke: #000000"/>
    </g>
   </g>
   <g id="line2d_19">
    <path d="M 271.35 261.556218 
L 299.25 261.556218 
L 299.25 261.556033 
L 271.35 261.556033 
L 271.35 261.556218 
" clip-path="url(#pea1eceb9d7)" style="fill: none; stroke: #000000; stroke-linecap: round"/>
   </g>
   <g id="line2d_20">
    <path d="M 285.3 261.556218 
L 285.3 261.556246 
" clip-path="url(#pea1eceb9d7)" style="fill: none; stroke: #000000; stroke-linecap: round"/>
   </g>
   <g id="line2d_21">
    <path d="M 285.3 261.556033 
L 285.3 261.556033 
" clip-path="url(#pea1eceb9d7)" style="fill: none; stroke: #000000; stroke-linecap: round"/>
   </g>
   <g id="line2d_22">
    <path d="M 278.325 261.556246 
L 292.275 261.556246 
" clip-path="url(#pea1eceb9d7)" style="fill: none; stroke: #000000; stroke-linecap: round"/>
   </g>
   <g id="line2d_23">
    <path d="M 278.325 261.556033 
L 292.275 261.556033 
" clip-path="url(#pea1eceb9d7)" style="fill: none; stroke: #000000; stroke-linecap: round"/>
   </g>
   <g id="line2d_24">
    <g clip-path="url(#pea1eceb9d7)">
     <use xlink:href="#m571a685d33" x="285.3" y="261.554093" style="fill-opacity: 0; stroke: #000000"/>
    </g>
   </g>
   <g id="line2d_25">
    <path d="M 327.15 261.556259 
L 355.05 261.556259 
L 355.05 261.556138 
L 327.15 261.556138 
L 327.15 261.556259 
" clip-path="url(#pea1eceb9d7)" style="fill: none; stroke: #000000; stroke-linecap: round"/>
   </g>
   <g id="line2d_26">
    <path d="M 341.1 261.556259 
L 341.1 261.556268 
" clip-path="url(#pea1eceb9d7)" style="fill: none; stroke: #000000; stroke-linecap: round"/>
   </g>
   <g id="line2d_27">
    <path d="M 341.1 261.556138 
L 341.1 261.556138 
" clip-path="url(#pea1eceb9d7)" style="fill: none; stroke: #000000; stroke-linecap: round"/>
   </g>
   <g id="line2d_28">
    <path d="M 334.125 261.556268 
L 348.075 261.556268 
" clip-path="url(#pea1eceb9d7)" style="fill: none; stroke: #000000; stroke-linecap: round"/>
   </g>
   <g id="line2d_29">
    <path d="M 334.125 261.556138 
L 348.075 261.556138 
" clip-path="url(#pea1eceb9d7)" style="fill: none; stroke: #000000; stroke-linecap: round"/>
   </g>
   <g id="line2d_30">
    <g clip-path="url(#pea1eceb9d7)">
     <use xlink:href="#m571a685d33" x="341.1" y="261.554081" style="fill-opacity: 0; stroke: #000000"/>
    </g>
   </g>
   <g id="line2d_31">
    <path d="M 382.95 261.55619 
L 410.85 261.55619 
L 410.85 261.556115 
L 382.95 261.556115 
L 382.95 261.55619 
" clip-path="url(#pea1eceb9d7)" style="fill: none; stroke: #000000; stroke-linecap: round"/>
   </g>
   <g id="line2d_32">
    <path d="M 396.9 261.55619 
L 396.9 261.55619 
" clip-path="url(#pea1eceb9d7)" style="fill: none; stroke: #000000; stroke-linecap: round"/>
   </g>
   <g id="line2d_33">
    <path d="M 396.9 261.556115 
L 396.9 261.556115 
" clip-path="url(#pea1eceb9d7)" style="fill: none; stroke: #000000; stroke-linecap: round"/>
   </g>
   <g id="line2d_34">
    <path d="M 389.925 261.55619 
L 403.875 261.55619 
" clip-path="url(#pea1eceb9d7)" style="fill: none; stroke: #000000; stroke-linecap: round"/>
   </g>
   <g id="line2d_35">
    <path d="M 389.925 261.556115 
L 403.875 261.556115 
" clip-path="url(#pea1eceb9d7)" style="fill: none; stroke: #000000; stroke-linecap: round"/>
   </g>
   <g id="line2d_36">
    <g clip-path="url(#pea1eceb9d7)">
     <use xlink:href="#m571a685d33" x="396.9" y="261.553992" style="fill-opacity: 0; stroke: #000000"/>
    </g>
   </g>
   <g id="line2d_37">
    <path d="M 438.75 237.642966 
L 466.65 237.642966 
L 466.65 126.762218 
L 438.75 126.762218 
L 438.75 237.642966 
" clip-path="url(#pea1eceb9d7)" style="fill: none; stroke: #000000; stroke-linecap: round"/>
   </g>
   <g id="line2d_38">
    <path d="M 452.7 237.642966 
L 452.7 261.552975 
" clip-path="url(#pea1eceb9d7)" style="fill: none; stroke: #000000; stroke-linecap: round"/>
   </g>
   <g id="line2d_39">
    <path d="M 452.7 126.762218 
L 452.7 78.2839 
" clip-path="url(#pea1eceb9d7)" style="fill: none; stroke: #000000; stroke-linecap: round"/>
   </g>
   <g id="line2d_40">
    <path d="M 445.725 261.552975 
L 459.675 261.552975 
" clip-path="url(#pea1eceb9d7)" style="fill: none; stroke: #000000; stroke-linecap: round"/>
   </g>
   <g id="line2d_41">
    <path d="M 445.725 78.2839 
L 459.675 78.2839 
" clip-path="url(#pea1eceb9d7)" style="fill: none; stroke: #000000; stroke-linecap: round"/>
   </g>
   <g id="line2d_42"/>
   <g id="line2d_43">
    <path d="M 494.55 237.64283 
L 522.45 237.64283 
L 522.45 126.761946 
L 494.55 126.761946 
L 494.55 237.64283 
" clip-path="url(#pea1eceb9d7)" style="fill: none; stroke: #000000; stroke-linecap: round"/>
   </g>
   <g id="line2d_44">
    <path d="M 508.5 237.64283 
L 508.5 261.553124 
" clip-path="url(#pea1eceb9d7)" style="fill: none; stroke: #000000; stroke-linecap: round"/>
   </g>
   <g id="line2d_45">
    <path d="M 508.5 126.761946 
L 508.5 78.283636 
" clip-path="url(#pea1eceb9d7)" style="fill: none; stroke: #000000; stroke-linecap: round"/>
   </g>
   <g id="line2d_46">
    <path d="M 501.525 261.553124 
L 515.475 261.553124 
" clip-path="url(#pea1eceb9d7)" style="fill: none; stroke: #000000; stroke-linecap: round"/>
   </g>
   <g id="line2d_47">
    <path d="M 501.525 78.283636 
L 515.475 78.283636 
" clip-path="url(#pea1eceb9d7)" style="fill: none; stroke: #000000; stroke-linecap: round"/>
   </g>
   <g id="line2d_48"/>
   <g id="line2d_49">
    <path d="M 550.35 237.643352 
L 578.25 237.643352 
L 578.25 126.762477 
L 550.35 126.762477 
L 550.35 237.643352 
" clip-path="url(#pea1eceb9d7)" style="fill: none; stroke: #000000; stroke-linecap: round"/>
   </g>
   <g id="line2d_50">
    <path d="M 564.3 237.643352 
L 564.3 261.552773 
" clip-path="url(#pea1eceb9d7)" style="fill: none; stroke: #000000; stroke-linecap: round"/>
   </g>
   <g id="line2d_51">
    <path d="M 564.3 126.762477 
L 564.3 78.284179 
" clip-path="url(#pea1eceb9d7)" style="fill: none; stroke: #000000; stroke-linecap: round"/>
   </g>
   <g id="line2d_52">
    <path d="M 557.325 261.552773 
L 571.275 261.552773 
" clip-path="url(#pea1eceb9d7)" style="fill: none; stroke: #000000; stroke-linecap: round"/>
   </g>
   <g id="line2d_53">
    <path d="M 557.325 78.284179 
L 571.275 78.284179 
" clip-path="url(#pea1eceb9d7)" style="fill: none; stroke: #000000; stroke-linecap: round"/>
   </g>
   <g id="line2d_54"/>
   <g id="line2d_55">
    <path d="M 606.15 237.643393 
L 634.05 237.643393 
L 634.05 126.762132 
L 606.15 126.762132 
L 606.15 237.643393 
" clip-path="url(#pea1eceb9d7)" style="fill: none; stroke: #000000; stroke-linecap: round"/>
   </g>
   <g id="line2d_56">
    <path d="M 620.1 237.643393 
L 620.1 261.553033 
" clip-path="url(#pea1eceb9d7)" style="fill: none; stroke: #000000; stroke-linecap: round"/>
   </g>
   <g id="line2d_57">
    <path d="M 620.1 126.762132 
L 620.1 78.283916 
" clip-path="url(#pea1eceb9d7)" style="fill: none; stroke: #000000; stroke-linecap: round"/>
   </g>
   <g id="line2d_58">
    <path d="M 613.125 261.553033 
L 627.075 261.553033 
" clip-path="url(#pea1eceb9d7)" style="fill: none; stroke: #000000; stroke-linecap: round"/>
   </g>
   <g id="line2d_59">
    <path d="M 613.125 78.283916 
L 627.075 78.283916 
" clip-path="url(#pea1eceb9d7)" style="fill: none; stroke: #000000; stroke-linecap: round"/>
   </g>
   <g id="line2d_60"/>
   <g id="line2d_61">
    <path d="M 103.95 261.555618 
L 131.85 261.555618 
" clip-path="url(#pea1eceb9d7)" style="fill: none; stroke: #dd8452; stroke-linecap: round"/>
   </g>
   <g id="line2d_62">
    <path d="M 159.75 261.555919 
L 187.65 261.555919 
" clip-path="url(#pea1eceb9d7)" style="fill: none; stroke: #dd8452; stroke-linecap: round"/>
   </g>
   <g id="line2d_63">
    <path d="M 215.55 261.555964 
L 243.45 261.555964 
" clip-path="url(#pea1eceb9d7)" style="fill: none; stroke: #dd8452; stroke-linecap: round"/>
   </g>
   <g id="line2d_64">
    <path d="M 271.35 261.556037 
L 299.25 261.556037 
" clip-path="url(#pea1eceb9d7)" style="fill: none; stroke: #dd8452; stroke-linecap: round"/>
   </g>
   <g id="line2d_65">
    <path d="M 327.15 261.556141 
L 355.05 261.556141 
" clip-path="url(#pea1eceb9d7)" style="fill: none; stroke: #dd8452; stroke-linecap: round"/>
   </g>
   <g id="line2d_66">
    <path d="M 382.95 261.556128 
L 410.85 261.556128 
" clip-path="url(#pea1eceb9d7)" style="fill: none; stroke: #dd8452; stroke-linecap: round"/>
   </g>
   <g id="line2d_67">
    <path d="M 438.75 236.972623 
L 466.65 236.972623 
" clip-path="url(#pea1eceb9d7)" style="fill: none; stroke: #dd8452; stroke-linecap: round"/>
   </g>
   <g id="line2d_68">
    <path d="M 494.55 236.972492 
L 522.45 236.972492 
" clip-path="url(#pea1eceb9d7)" style="fill: none; stroke: #dd8452; stroke-linecap: round"/>
   </g>
   <g id="line2d_69">
    <path d="M 550.35 236.973008 
L 578.25 236.973008 
" clip-path="url(#pea1eceb9d7)" style="fill: none; stroke: #dd8452; stroke-linecap: round"/>
   </g>
   <g id="line2d_70">
    <path d="M 606.15 236.973054 
L 634.05 236.973054 
" clip-path="url(#pea1eceb9d7)" style="fill: none; stroke: #dd8452; stroke-linecap: round"/>
   </g>
   <g id="patch_3">
    <path d="M 90 270.72 
L 90 69.12 
" style="fill: none; stroke: #262626; stroke-width: 1.25; stroke-linejoin: miter; stroke-linecap: square"/>
   </g>
   <g id="patch_4">
    <path d="M 648 270.72 
L 648 69.12 
" style="fill: none; stroke: #262626; stroke-width: 1.25; stroke-linejoin: miter; stroke-linecap: square"/>
   </g>
   <g id="patch_5">
    <path d="M 90 270.72 
L 648 270.72 
" style="fill: none; stroke: #262626; stroke-width: 1.25; stroke-linejoin: miter; stroke-linecap: square"/>
   </g>
   <g id="patch_6">
    <path d="M 90 69.12 
L 648 69.12 
" style="fill: none; stroke: #262626; stroke-width: 1.25; stroke-linejoin: miter; stroke-linecap: square"/>
   </g>
   <g id="text_20">
    <!-- RMS errors of end points at checking postures -->
    <g style="fill: #262626" transform="translate(230.55 63.12) scale(0.12 -0.12)">
     <defs>
      <path id="DejaVuSans-4d" d="M 628 4666 
L 1569 4666 
L 2759 1491 
L 3956 4666 
L 4897 4666 
L 4897 0 
L 4281 0 
L 4281 4097 
L 3078 897 
L 2444 897 
L 1241 4097 
L 1241 0 
L 628 0 
L 628 4666 
z
" transform="scale(0.015625)"/>
      <path id="DejaVuSans-20" transform="scale(0.015625)"/>
      <path id="DejaVuSans-73" d="M 2834 3397 
L 2834 2853 
Q 2591 2978 2328 3040 
Q 2066 3103 1784 3103 
Q 1356 3103 1142 2972 
Q 928 2841 928 2578 
Q 928 2378 1081 2264 
Q 1234 2150 1697 2047 
L 1894 2003 
Q 2506 1872 2764 1633 
Q 3022 1394 3022 966 
Q 3022 478 2636 193 
Q 2250 -91 1575 -91 
Q 1294 -91 989 -36 
Q 684 19 347 128 
L 347 722 
Q 666 556 975 473 
Q 1284 391 1588 391 
Q 1994 391 2212 530 
Q 2431 669 2431 922 
Q 2431 1156 2273 1281 
Q 2116 1406 1581 1522 
L 1381 1569 
Q 847 1681 609 1914 
Q 372 2147 372 2553 
Q 372 3047 722 3315 
Q 1072 3584 1716 3584 
Q 2034 3584 2315 3537 
Q 2597 3491 2834 3397 
z
" transform="scale(0.015625)"/>
      <path id="DejaVuSans-66" d="M 2375 4863 
L 2375 4384 
L 1825 4384 
Q 1516 4384 1395 4259 
Q 1275 4134 1275 3809 
L 1275 3500 
L 2222 3500 
L 2222 3053 
L 1275 3053 
L 1275 0 
L 697 0 
L 697 3053 
L 147 3053 
L 147 3500 
L 697 3500 
L 697 3744 
Q 697 4328 969 4595 
Q 1241 4863 1831 4863 
L 2375 4863 
z
" transform="scale(0.015625)"/>
      <path id="DejaVuSans-64" d="M 2906 2969 
L 2906 4863 
L 3481 4863 
L 3481 0 
L 2906 0 
L 2906 525 
Q 2725 213 2448 61 
Q 2172 -91 1784 -91 
Q 1150 -91 751 415 
Q 353 922 353 1747 
Q 353 2572 751 3078 
Q 1150 3584 1784 3584 
Q 2172 3584 2448 3432 
Q 2725 3281 2906 2969 
z
M 947 1747 
Q 947 1113 1208 752 
Q 1469 391 1925 391 
Q 2381 391 2643 752 
Q 2906 1113 2906 1747 
Q 2906 2381 2643 2742 
Q 2381 3103 1925 3103 
Q 1469 3103 1208 2742 
Q 947 2381 947 1747 
z
" transform="scale(0.015625)"/>
      <path id="DejaVuSans-75" d="M 544 1381 
L 544 3500 
L 1119 3500 
L 1119 1403 
Q 1119 906 1312 657 
Q 1506 409 1894 409 
Q 2359 409 2629 706 
Q 2900 1003 2900 1516 
L 2900 3500 
L 3475 3500 
L 3475 0 
L 2900 0 
L 2900 538 
Q 2691 219 2414 64 
Q 2138 -91 1772 -91 
Q 1169 -91 856 284 
Q 544 659 544 1381 
z
M 1991 3584 
L 1991 3584 
z
" transform="scale(0.015625)"/>
     </defs>
     <use xlink:href="#DejaVuSans-52"/>
     <use xlink:href="#DejaVuSans-4d" x="69.482422"/>
     <use xlink:href="#DejaVuSans-53" x="155.761719"/>
     <use xlink:href="#DejaVuSans-20" x="219.238281"/>
     <use xlink:href="#DejaVuSans-65" x="251.025391"/>
     <use xlink:href="#DejaVuSans-72" x="312.548828"/>
     <use xlink:href="#DejaVuSans-72" x="351.912109"/>
     <use xlink:href="#DejaVuSans-6f" x="390.775391"/>
     <use xlink:href="#DejaVuSans-72" x="451.957031"/>
     <use xlink:href="#DejaVuSans-73" x="493.070312"/>
     <use xlink:href="#DejaVuSans-20" x="545.169922"/>
     <use xlink:href="#DejaVuSans-6f" x="576.957031"/>
     <use xlink:href="#DejaVuSans-66" x="638.138672"/>
     <use xlink:href="#DejaVuSans-20" x="673.34375"/>
     <use xlink:href="#DejaVuSans-65" x="705.130859"/>
     <use xlink:href="#DejaVuSans-6e" x="766.654297"/>
     <use xlink:href="#DejaVuSans-64" x="830.033203"/>
     <use xlink:href="#DejaVuSans-20" x="893.509766"/>
     <use xlink:href="#DejaVuSans-70" x="925.296875"/>
     <use xlink:href="#DejaVuSans-6f" x="988.773438"/>
     <use xlink:href="#DejaVuSans-69" x="1049.955078"/>
     <use xlink:href="#DejaVuSans-6e" x="1077.738281"/>
     <use xlink:href="#DejaVuSans-74" x="1141.117188"/>
     <use xlink:href="#DejaVuSans-73" x="1180.326172"/>
     <use xlink:href="#DejaVuSans-20" x="1232.425781"/>
     <use xlink:href="#DejaVuSans-61" x="1264.212891"/>
     <use xlink:href="#DejaVuSans-74" x="1325.492188"/>
     <use xlink:href="#DejaVuSans-20" x="1364.701172"/>
     <use xlink:href="#DejaVuSans-63" x="1396.488281"/>
     <use xlink:href="#DejaVuSans-68" x="1451.46875"/>
     <use xlink:href="#DejaVuSans-65" x="1514.847656"/>
     <use xlink:href="#DejaVuSans-63" x="1576.371094"/>
     <use xlink:href="#DejaVuSans-6b" x="1631.351562"/>
     <use xlink:href="#DejaVuSans-69" x="1689.261719"/>
     <use xlink:href="#DejaVuSans-6e" x="1717.044922"/>
     <use xlink:href="#DejaVuSans-67" x="1780.423828"/>
     <use xlink:href="#DejaVuSans-20" x="1843.900391"/>
     <use xlink:href="#DejaVuSans-70" x="1875.6875"/>
     <use xlink:href="#DejaVuSans-6f" x="1939.164062"/>
     <use xlink:href="#DejaVuSans-73" x="2000.345703"/>
     <use xlink:href="#DejaVuSans-74" x="2052.445312"/>
     <use xlink:href="#DejaVuSans-75" x="2091.654297"/>
     <use xlink:href="#DejaVuSans-72" x="2155.033203"/>
     <use xlink:href="#DejaVuSans-65" x="2193.896484"/>
     <use xlink:href="#DejaVuSans-73" x="2255.419922"/>
    </g>
   </g>
  </g>
  <g id="axes_2">
   <g id="patch_7">
    <path d="M 90 512.64 
L 648 512.64 
L 648 311.04 
L 90 311.04 
z
" style="fill: #ffffff"/>
   </g>
   <g id="matplotlib.axis_3">
    <g id="xtick_11">
     <g id="text_21">
      <!-- R.Midfoot.Lat -->
      <g style="fill: #262626" transform="translate(193.202578 530.498281) scale(0.11 -0.11)">
       <use xlink:href="#DejaVuSans-52"/>
       <use xlink:href="#DejaVuSans-2e" x="65.857422"/>
       <use xlink:href="#DejaVuSans-4d" x="97.644531"/>
       <use xlink:href="#DejaVuSans-69" x="183.923828"/>
       <use xlink:href="#DejaVuSans-64" x="211.707031"/>
       <use xlink:href="#DejaVuSans-66" x="275.183594"/>
       <use xlink:href="#DejaVuSans-6f" x="310.388672"/>
       <use xlink:href="#DejaVuSans-6f" x="371.570312"/>
       <use xlink:href="#DejaVuSans-74" x="432.751953"/>
       <use xlink:href="#DejaVuSans-2e" x="471.960938"/>
       <use xlink:href="#DejaVuSans-4c" x="503.748047"/>
       <use xlink:href="#DejaVuSans-61" x="559.460938"/>
       <use xlink:href="#DejaVuSans-74" x="620.740234"/>
      </g>
     </g>
    </g>
    <g id="xtick_12">
     <g id="text_22">
      <!-- R.Toe.Tip -->
      <g style="fill: #262626" transform="translate(484.000938 530.498281) scale(0.11 -0.11)">
       <use xlink:href="#DejaVuSans-52"/>
       <use xlink:href="#DejaVuSans-2e" x="65.857422"/>
       <use xlink:href="#DejaVuSans-54" x="97.644531"/>
       <use xlink:href="#DejaVuSans-6f" x="141.728516"/>
       <use xlink:href="#DejaVuSans-65" x="202.910156"/>
       <use xlink:href="#DejaVuSans-2e" x="264.433594"/>
       <use xlink:href="#DejaVuSans-54" x="296.220703"/>
       <use xlink:href="#DejaVuSans-69" x="354.179688"/>
       <use xlink:href="#DejaVuSans-70" x="381.962891"/>
      </g>
     </g>
    </g>
   </g>
   <g id="matplotlib.axis_4">
    <g id="ytick_9">
     <g id="text_23">
      <!-- 0 -->
      <g style="fill: #262626" transform="translate(73.50125 507.659245) scale(0.11 -0.11)">
       <use xlink:href="#DejaVuSans-30"/>
      </g>
     </g>
    </g>
    <g id="ytick_10">
     <g id="text_24">
      <!-- 5 -->
      <g style="fill: #262626" transform="translate(73.50125 481.976216) scale(0.11 -0.11)">
       <use xlink:href="#DejaVuSans-35"/>
      </g>
     </g>
    </g>
    <g id="ytick_11">
     <g id="text_25">
      <!-- 10 -->
      <g style="fill: #262626" transform="translate(66.5025 456.293188) scale(0.11 -0.11)">
       <use xlink:href="#DejaVuSans-31"/>
       <use xlink:href="#DejaVuSans-30" x="63.623047"/>
      </g>
     </g>
    </g>
    <g id="ytick_12">
     <g id="text_26">
      <!-- 15 -->
      <g style="fill: #262626" transform="translate(66.5025 430.610159) scale(0.11 -0.11)">
       <use xlink:href="#DejaVuSans-31"/>
       <use xlink:href="#DejaVuSans-35" x="63.623047"/>
      </g>
     </g>
    </g>
    <g id="ytick_13">
     <g id="text_27">
      <!-- 20 -->
      <g style="fill: #262626" transform="translate(66.5025 404.927131) scale(0.11 -0.11)">
       <use xlink:href="#DejaVuSans-32"/>
       <use xlink:href="#DejaVuSans-30" x="63.623047"/>
      </g>
     </g>
    </g>
    <g id="ytick_14">
     <g id="text_28">
      <!-- 25 -->
      <g style="fill: #262626" transform="translate(66.5025 379.244102) scale(0.11 -0.11)">
       <use xlink:href="#DejaVuSans-32"/>
       <use xlink:href="#DejaVuSans-35" x="63.623047"/>
      </g>
     </g>
    </g>
    <g id="ytick_15">
     <g id="text_29">
      <!-- 30 -->
      <g style="fill: #262626" transform="translate(66.5025 353.561074) scale(0.11 -0.11)">
       <use xlink:href="#DejaVuSans-33"/>
       <use xlink:href="#DejaVuSans-30" x="63.623047"/>
      </g>
     </g>
    </g>
    <g id="ytick_16">
     <g id="text_30">
      <!-- 35 -->
      <g style="fill: #262626" transform="translate(66.5025 327.878045) scale(0.11 -0.11)">
       <use xlink:href="#DejaVuSans-33"/>
       <use xlink:href="#DejaVuSans-35" x="63.623047"/>
      </g>
     </g>
    </g>
    <g id="text_31">
     <!-- m -->
     <g style="fill: #262626" transform="translate(60.006875 417.684375) rotate(-90) scale(0.12 -0.12)">
      <use xlink:href="#DejaVuSans-6d"/>
     </g>
    </g>
   </g>
   <g id="line2d_71">
    <path d="M 208.575 479.566533 
L 250.425 479.566533 
L 250.425 368.682892 
L 208.575 368.682892 
L 208.575 479.566533 
" clip-path="url(#pbfc8052b63)" style="fill: none; stroke: #000000; stroke-linecap: round"/>
   </g>
   <g id="line2d_72">
    <path d="M 229.5 479.566533 
L 229.5 503.476364 
" clip-path="url(#pbfc8052b63)" style="fill: none; stroke: #000000; stroke-linecap: round"/>
   </g>
   <g id="line2d_73">
    <path d="M 229.5 368.682892 
L 229.5 320.203877 
" clip-path="url(#pbfc8052b63)" style="fill: none; stroke: #000000; stroke-linecap: round"/>
   </g>
   <g id="line2d_74">
    <path d="M 219.0375 503.476364 
L 239.9625 503.476364 
" clip-path="url(#pbfc8052b63)" style="fill: none; stroke: #000000; stroke-linecap: round"/>
   </g>
   <g id="line2d_75">
    <path d="M 219.0375 320.203877 
L 239.9625 320.203877 
" clip-path="url(#pbfc8052b63)" style="fill: none; stroke: #000000; stroke-linecap: round"/>
   </g>
   <g id="line2d_76"/>
   <g id="line2d_77">
    <path d="M 487.575 479.566295 
L 529.425 479.566295 
L 529.425 368.682685 
L 487.575 368.682685 
L 487.575 479.566295 
" clip-path="url(#pbfc8052b63)" style="fill: none; stroke: #000000; stroke-linecap: round"/>
   </g>
   <g id="line2d_78">
    <path d="M 508.5 479.566295 
L 508.5 503.476122 
" clip-path="url(#pbfc8052b63)" style="fill: none; stroke: #000000; stroke-linecap: round"/>
   </g>
   <g id="line2d_79">
    <path d="M 508.5 368.682685 
L 508.5 320.203636 
" clip-path="url(#pbfc8052b63)" style="fill: none; stroke: #000000; stroke-linecap: round"/>
   </g>
   <g id="line2d_80">
    <path d="M 498.0375 503.476122 
L 518.9625 503.476122 
" clip-path="url(#pbfc8052b63)" style="fill: none; stroke: #000000; stroke-linecap: round"/>
   </g>
   <g id="line2d_81">
    <path d="M 498.0375 320.203636 
L 518.9625 320.203636 
" clip-path="url(#pbfc8052b63)" style="fill: none; stroke: #000000; stroke-linecap: round"/>
   </g>
   <g id="line2d_82"/>
   <g id="line2d_83">
    <path d="M 208.575 478.896188 
L 250.425 478.896188 
" clip-path="url(#pbfc8052b63)" style="fill: none; stroke: #dd8452; stroke-linecap: round"/>
   </g>
   <g id="line2d_84">
    <path d="M 487.575 478.895951 
L 529.425 478.895951 
" clip-path="url(#pbfc8052b63)" style="fill: none; stroke: #dd8452; stroke-linecap: round"/>
   </g>
   <g id="patch_8">
    <path d="M 90 512.64 
L 90 311.04 
" style="fill: none; stroke: #262626; stroke-width: 1.25; stroke-linejoin: miter; stroke-linecap: square"/>
   </g>
   <g id="patch_9">
    <path d="M 648 512.64 
L 648 311.04 
" style="fill: none; stroke: #262626; stroke-width: 1.25; stroke-linejoin: miter; stroke-linecap: square"/>
   </g>
   <g id="patch_10">
    <path d="M 90 512.64 
L 648 512.64 
" style="fill: none; stroke: #262626; stroke-width: 1.25; stroke-linejoin: miter; stroke-linecap: square"/>
   </g>
   <g id="patch_11">
    <path d="M 90 311.04 
L 648 311.04 
" style="fill: none; stroke: #262626; stroke-width: 1.25; stroke-linejoin: miter; stroke-linecap: square"/>
   </g>
  </g>
 </g>
 <defs>
  <clipPath id="pea1eceb9d7">
   <rect x="90" y="69.12" width="558" height="201.6"/>
  </clipPath>
  <clipPath id="pbfc8052b63">
   <rect x="90" y="311.04" width="558" height="201.6"/>
  </clipPath>
 </defs>
</svg>
